<svg width="26" height="26" viewBox="0 0 26 26" fill="none" xmlns="http://www.w3.org/2000/svg">
<g clip-path="url(#clip0_28573_48217)">
<path fill-rule="evenodd" clip-rule="evenodd" d="M-3 1V25H29V1H-3Z" fill="#EA1A1A"/>
<mask id="mask0_28573_48217" style="mask-type:luminance" maskUnits="userSpaceOnUse" x="-3" y="1" width="32" height="24">
<path fill-rule="evenodd" clip-rule="evenodd" d="M-3 1V25H29V1H-3Z" fill="white"/>
</mask>
<g mask="url(#mask0_28573_48217)">
<path fill-rule="evenodd" clip-rule="evenodd" d="M12.8692 12.5747C12.8692 12.5747 7.07954 7.41145 13.9884 4.40308C13.9884 4.40308 15.9976 6.61969 14.4903 9.10816C13.9958 9.92432 13.5787 10.5071 13.2653 10.9451C12.6231 11.8425 12.416 12.1319 12.8692 12.5747ZM4.32446 8.86746C3.92683 16.3923 11.1338 13.522 11.1338 13.522C10.5353 13.7293 10.369 13.4147 9.85357 12.4395L9.85357 12.4395C9.60189 11.9633 9.26697 11.3296 8.75784 10.5223C7.2059 8.0613 4.32446 8.86746 4.32446 8.86746ZM15.2379 12.827C15.2379 12.827 22.6698 15.0519 17.6857 20.7036C17.6857 20.7036 14.9264 19.5464 15.2379 16.6539C15.3401 15.7055 15.4709 15.0011 15.5693 14.4716C15.7709 13.3864 15.8359 13.0363 15.2379 12.827ZM13.2845 14.5617C13.2845 14.5617 14.6168 22.204 7.33339 20.2726C7.33339 20.2726 7.1351 17.2873 9.86158 16.2728C10.7559 15.94 11.4446 15.742 11.9622 15.5932L11.9622 15.5932L11.9623 15.5932L11.9623 15.5932C13.0227 15.2884 13.3647 15.1901 13.2845 14.5617ZM22.4784 11.2753C17.9229 5.27308 14.2735 12.1184 14.2735 12.1184C14.5968 11.5736 14.9269 11.7064 15.95 12.1182C16.4497 12.3193 17.1148 12.5869 18.0252 12.8746C20.7991 13.7513 22.4784 11.2753 22.4784 11.2753Z" fill="white"/>
<path d="M6.95117 11.3424L7.37319 11.0742C8.29953 12.5321 9.50179 13.2495 11.0021 13.2495V13.7495C9.32358 13.7495 7.96591 12.9394 6.95117 11.3424Z" fill="#EA1A1A"/>
<path fill-rule="evenodd" clip-rule="evenodd" d="M18.75 11.75C19.1642 11.75 19.5 11.4142 19.5 11C19.5 10.5858 19.1642 10.25 18.75 10.25C18.3358 10.25 18 10.5858 18 11C18 11.4142 18.3358 11.75 18.75 11.75Z" fill="#EA1A1A"/>
<path fill-rule="evenodd" clip-rule="evenodd" d="M16.959 16.7285C17.3732 16.7285 17.709 16.3927 17.709 15.9785C17.709 15.5643 17.3732 15.2285 16.959 15.2285C16.5448 15.2285 16.209 15.5643 16.209 15.9785C16.209 16.3927 16.5448 16.7285 16.959 16.7285Z" fill="#EA1A1A"/>
<path fill-rule="evenodd" clip-rule="evenodd" d="M10.959 18.7285C11.3732 18.7285 11.709 18.3927 11.709 17.9785C11.709 17.5643 11.3732 17.2285 10.959 17.2285C10.5448 17.2285 10.209 17.5643 10.209 17.9785C10.209 18.3927 10.5448 18.7285 10.959 18.7285Z" fill="#EA1A1A"/>
<path fill-rule="evenodd" clip-rule="evenodd" d="M6.95898 11.7285C7.3732 11.7285 7.70898 11.3927 7.70898 10.9785C7.70898 10.5643 7.3732 10.2285 6.95898 10.2285C6.54477 10.2285 6.20898 10.5643 6.20898 10.9785C6.20898 11.3927 6.54477 11.7285 6.95898 11.7285Z" fill="#EA1A1A"/>
<path fill-rule="evenodd" clip-rule="evenodd" d="M12.959 8.72852C13.3732 8.72852 13.709 8.39273 13.709 7.97852C13.709 7.5643 13.3732 7.22852 12.959 7.22852C12.5448 7.22852 12.209 7.5643 12.209 7.97852C12.209 8.39273 12.5448 8.72852 12.959 8.72852Z" fill="#EA1A1A"/>
<path d="M12.635 8.05352L13.0746 8.2918C12.242 9.82779 12.1832 11.2445 12.8883 12.5706L12.4468 12.8053C11.6595 11.3246 11.7256 9.73119 12.635 8.05352Z" fill="#EA1A1A"/>
<path d="M19.0143 10.6851L18.9394 11.1794C16.9836 10.8829 15.5196 11.2955 14.5172 12.4088L14.1456 12.0743C15.2702 10.8253 16.9032 10.365 19.0143 10.6851Z" fill="#EA1A1A"/>
<path d="M17.3511 16.3641L16.8609 16.4627C16.4706 14.5235 15.5822 13.2889 14.1932 12.7277L14.3805 12.2641C15.9388 12.8937 16.9298 14.2708 17.3511 16.3641Z" fill="#EA1A1A"/>
<path d="M10.9058 18.1502L10.6454 17.7234C12.3342 16.6933 13.1905 15.4362 13.2428 13.939L13.7425 13.9565C13.6838 15.6361 12.7287 17.0384 10.9058 18.1502Z" fill="#EA1A1A"/>
</g>
</g>
<rect x="0.5" y="0.5" width="25" height="25" rx="12.5" stroke="#E9ECEE"/>
<defs>
<clipPath id="clip0_28573_48217">
<rect x="1" y="1" width="24" height="24" rx="12" fill="white"/>
</clipPath>
</defs>
</svg>
