<svg width="26" height="26" viewBox="0 0 26 26" fill="none" xmlns="http://www.w3.org/2000/svg">
<g clip-path="url(#clip0_28456_33239)">
<path fill-rule="evenodd" clip-rule="evenodd" d="M-3 1V25H29V1H-3Z" fill="#F7FCFF"/>
<mask id="mask0_28456_33239" style="mask-type:luminance" maskUnits="userSpaceOnUse" x="-3" y="1" width="32" height="24">
<path fill-rule="evenodd" clip-rule="evenodd" d="M-3 1V25H29V1H-3Z" fill="white"/>
</mask>
<g mask="url(#mask0_28456_33239)">
<path fill-rule="evenodd" clip-rule="evenodd" d="M13.0002 19.2199C16.2029 19.2199 18.7993 16.4626 18.7993 13.0614C18.7993 9.6601 16.2029 6.90283 13.0002 6.90283C9.79749 6.90283 7.20117 9.6601 7.20117 13.0614C7.20117 16.4626 9.79749 19.2199 13.0002 19.2199Z" fill="#3D58DB"/>
<mask id="mask1_28456_33239" style="mask-type:luminance" maskUnits="userSpaceOnUse" x="7" y="6" width="12" height="14">
<path fill-rule="evenodd" clip-rule="evenodd" d="M13.0002 19.2199C16.2029 19.2199 18.7993 16.4626 18.7993 13.0614C18.7993 9.6601 16.2029 6.90283 13.0002 6.90283C9.79749 6.90283 7.20117 9.6601 7.20117 13.0614C7.20117 16.4626 9.79749 19.2199 13.0002 19.2199Z" fill="white"/>
</mask>
<g mask="url(#mask1_28456_33239)">
<path fill-rule="evenodd" clip-rule="evenodd" d="M19.0019 13.534C19.0019 13.534 18.6764 10.63 16.2657 10.4724C13.8551 10.3147 13.2051 12.602 13.066 13.2079C12.9269 13.8139 12.5748 15.4304 10.0366 15.4304C7.49848 15.4304 7.26953 11.32 7.26953 11.32V6.47314H19.0019V13.534Z" fill="#E31D1C"/>
</g>
<path fill-rule="evenodd" clip-rule="evenodd" d="M4.29885 3.05273L5.21381 3.88026L0.973556 8.83216L0.0585938 8.00464L4.29885 3.05273ZM5.80701 4.39258L6.72197 5.2201L2.63371 10.1003L1.71875 9.27274L5.80701 4.39258ZM8.22552 6.57557L7.31056 5.74805L3.21094 10.6652L4.1259 11.4928L8.22552 6.57557Z" fill="#272727"/>
<path fill-rule="evenodd" clip-rule="evenodd" d="M22.3618 2.70581L21.4467 3.53024L23.0341 5.39307L23.9492 4.56865L22.3618 2.70581ZM25.1841 6.13159L24.2689 6.95602L25.8563 8.81886L26.7715 7.99443L25.1841 6.13159ZM18.4271 6.21383L19.3423 5.3894L20.9297 7.25224L20.0145 8.07667L18.4271 6.21383ZM22.1626 8.81519L21.2474 9.63961L22.8348 11.5024L23.75 10.678L22.1626 8.81519ZM19.9944 4.83102L20.9095 4.00659L25.3281 9.38746L24.413 10.2119L19.9944 4.83102Z" fill="#272727"/>
<path fill-rule="evenodd" clip-rule="evenodd" d="M23.0549 15.2444L22.132 14.4167L20.5312 16.2869L21.4541 17.1145L23.0549 15.2444ZM20.3635 18.5354L19.4406 17.7078L17.8398 19.5779L18.7627 20.4055L20.3635 18.5354ZM25.0461 17.0339L25.969 17.8616L24.3682 19.7317L23.4453 18.904L25.0461 17.0339ZM23.4104 21.2288L22.4875 20.4011L20.8867 22.2712L21.8096 23.0989L23.4104 21.2288ZM20.9659 18.9792L21.8887 19.8069L20.2178 21.8038L19.2949 20.9762L20.9659 18.9792ZM24.6309 16.4788L23.708 15.6511L22.0371 17.6481L22.96 18.4757L24.6309 16.4788Z" fill="#272727"/>
<path fill-rule="evenodd" clip-rule="evenodd" d="M3.40645 15.8905L4.32165 15.0652L8.40625 19.7456L7.49104 20.5709L3.40645 15.8905ZM4.35949 19.9843L5.27469 19.159L7 21.0545L6.08479 21.8799L4.35949 19.9843ZM1.31022 17.6922L0.39501 18.5175L4.50081 23.2609L5.41602 22.4356L1.31022 17.6922ZM1.96022 17.1523L2.87542 16.327L4.37109 18.0808L3.45589 18.9062L1.96022 17.1523Z" fill="#272727"/>
</g>
</g>
<rect x="0.5" y="0.5" width="25" height="25" rx="12.5" stroke="#E9ECEE"/>
<defs>
<clipPath id="clip0_28456_33239">
<rect x="1" y="1" width="24" height="24" rx="12" fill="white"/>
</clipPath>
</defs>
</svg>
