<svg width="26" height="26" viewBox="0 0 26 26" fill="none" xmlns="http://www.w3.org/2000/svg">
<g clip-path="url(#clip0_28456_27715)">
<path fill-rule="evenodd" clip-rule="evenodd" d="M-3 1V25H29V1H-3Z" fill="#BF2714"/>
<mask id="mask0_28456_27715" style="mask-type:luminance" maskUnits="userSpaceOnUse" x="-3" y="1" width="32" height="24">
<path fill-rule="evenodd" clip-rule="evenodd" d="M-3 1V25H29V1H-3Z" fill="white"/>
</mask>
<g mask="url(#mask0_28456_27715)">
<path fill-rule="evenodd" clip-rule="evenodd" d="M-3 -1V13H29V-1H-3Z" fill="#3D58DB"/>
</g>
<path fill-rule="evenodd" clip-rule="evenodd" d="M-3 1V25L15 13L-3 1Z" fill="#F7FCFF"/>
<mask id="mask1_28456_27715" style="mask-type:luminance" maskUnits="userSpaceOnUse" x="-3" y="1" width="18" height="24">
<path fill-rule="evenodd" clip-rule="evenodd" d="M-3 1V25L15 13L-3 1Z" fill="white"/>
</mask>
<g mask="url(#mask1_28456_27715)">
<path fill-rule="evenodd" clip-rule="evenodd" d="M10.6056 11.9205L11.8815 12.4125L12.6406 11.5192L12.6608 12.714L13.835 13.0959L12.599 13.5154L12.6805 14.6133L11.8664 13.7723L10.5868 14.0157L11.3423 13.0471L10.6056 11.9205Z" fill="#FECA00"/>
<path fill-rule="evenodd" clip-rule="evenodd" d="M-1.90804 19.2083L-0.735271 19.7268L0.12695 18.807L0.0439726 20.0283L1.32135 20.3837L-0.0177678 20.8298L0.166799 21.9012L-0.76556 21.1356L-1.9269 21.3036L-1.27452 20.3614L-1.90804 19.2083Z" fill="#FECA00"/>
<path fill-rule="evenodd" clip-rule="evenodd" d="M-1.90804 4.80844L-0.610285 5.28666L0.12695 4.40714L0.168959 5.5881L1.32135 5.98384L0.107219 6.38958L0.166799 7.50128L-0.640574 6.69541L-1.9269 6.90366L-1.14954 5.92121L-1.90804 4.80844Z" fill="#FECA00"/>
<path fill-rule="evenodd" clip-rule="evenodd" d="M5.12109 15.5332C6.50181 15.5332 7.62109 14.4139 7.62109 13.0332C7.62109 11.6525 6.50181 10.5332 5.12109 10.5332C3.74038 10.5332 2.62109 11.6525 2.62109 13.0332C2.62109 14.4139 3.74038 15.5332 5.12109 15.5332Z" fill="#FECA00"/>
<path fill-rule="evenodd" clip-rule="evenodd" d="M4.82657 9.23984L4.96091 10.8458C4.97375 10.9434 5.04878 11.0211 5.1458 11.0373C5.26767 11.0577 5.38301 10.9754 5.40341 10.8536L5.58072 9.253C5.58383 9.23439 5.58556 9.21557 5.58589 9.1967C5.58957 8.98613 5.42185 8.81246 5.21128 8.80878C5.19241 8.80845 5.17354 8.80952 5.15483 8.81199C4.94604 8.83949 4.79907 9.03104 4.82657 9.23984ZM4.40949 10.0156L4.61711 10.7142C4.63638 10.779 4.70115 10.8192 4.77439 10.8063C4.83444 10.7921 4.87161 10.7319 4.85742 10.6719L4.69173 9.97072C4.67267 9.89008 4.59455 9.83788 4.51276 9.85111C4.5073 9.852 4.5019 9.85323 4.49659 9.85481C4.42815 9.87515 4.38916 9.94712 4.40949 10.0156ZM5.53231 10.7439C5.51603 10.8034 5.55108 10.8648 5.61713 10.8827C5.68334 10.8966 5.74947 10.8587 5.77099 10.7946L6.00287 10.1036C6.02558 10.0359 5.98912 9.96263 5.92143 9.93992C5.91619 9.93816 5.91083 9.93673 5.9054 9.93566C5.82412 9.91957 5.74422 9.96903 5.72237 10.0489L5.53231 10.7439ZM7.60886 10.0404L6.49115 11.2746C6.43127 11.3526 6.42939 11.4606 6.4865 11.5407C6.55826 11.6413 6.69798 11.6647 6.79858 11.5929L8.13281 10.5829C8.14818 10.572 8.16271 10.5599 8.17628 10.5468C8.32778 10.4005 8.33199 10.1591 8.1857 10.0076C8.17259 9.99401 8.15849 9.98143 8.14351 9.96994C7.97643 9.84174 7.73705 9.87327 7.60886 10.0404ZM7.26879 12.6603L8.93774 12.5311C9.14654 12.5036 9.33809 12.6506 9.36559 12.8594C9.36806 12.8781 9.36913 12.8969 9.3688 12.9158C9.36512 13.1264 9.19144 13.2941 8.98088 13.2904C8.96201 13.2901 8.94319 13.2884 8.92458 13.2852L7.26106 13.1028C7.13919 13.0824 7.05693 12.967 7.07733 12.8452C7.09357 12.7481 7.17126 12.6731 7.26879 12.6603ZM8.13527 15.3192L6.83915 14.1908C6.76111 14.131 6.65311 14.1291 6.57303 14.1862C6.47243 14.2579 6.44904 14.3977 6.52079 14.4983L7.5927 15.8432C7.60366 15.8586 7.61574 15.8731 7.62885 15.8867C7.77515 16.0382 8.01655 16.0424 8.16804 15.8961C8.18162 15.883 8.1942 15.8689 8.20569 15.8539C8.33389 15.6868 8.30236 15.4474 8.13527 15.3192ZM5.45182 14.969L5.55078 16.654C5.57828 16.8628 5.43131 17.0543 5.22251 17.0818C5.2038 17.0843 5.18493 17.0854 5.16607 17.085C4.9555 17.0814 4.78778 16.9077 4.79145 16.6971C4.79178 16.6782 4.79351 16.6594 4.79663 16.6408L5.00932 14.9612C5.02972 14.8394 5.14506 14.7571 5.26693 14.7775C5.36395 14.7937 5.43898 14.8714 5.45182 14.969ZM2.82123 15.8789L3.92253 14.5386C3.98241 14.4605 3.98429 14.3525 3.92717 14.2725C3.85542 14.1719 3.7157 14.1485 3.61509 14.2202L2.29728 15.3363C2.28191 15.3472 2.26738 15.3593 2.25381 15.3724C2.10232 15.5187 2.0981 15.7601 2.2444 15.9116C2.25751 15.9252 2.27161 15.9378 2.28658 15.9493C2.45366 16.0775 2.69304 16.0459 2.82123 15.8789ZM3.14617 13.1521L1.46696 13.2905C1.25816 13.318 1.06661 13.171 1.03911 12.9622C1.03665 12.9435 1.03557 12.9246 1.0359 12.9057C1.03958 12.6952 1.21326 12.5275 1.42382 12.5311C1.44269 12.5315 1.46151 12.5332 1.48012 12.5363L3.15389 12.7096C3.27577 12.73 3.35803 12.8453 3.33763 12.9672C3.32139 13.0642 3.24369 13.1392 3.14617 13.1521ZM2.15029 10.5218L3.57452 11.6231C3.65256 11.683 3.76055 11.6849 3.84063 11.6278C3.94124 11.556 3.96463 11.4163 3.89287 11.3157L2.69286 9.99789C2.6819 9.98253 2.66982 9.968 2.65671 9.95442C2.51041 9.80293 2.26901 9.79872 2.11752 9.94501C2.10394 9.95812 2.09136 9.97222 2.07987 9.98719C1.95167 10.1543 1.9832 10.3937 2.15029 10.5218ZM6.33998 10.9377L6.68718 10.2969C6.72119 10.2341 6.79966 10.2108 6.86243 10.2448C6.8673 10.2474 6.87199 10.2504 6.87648 10.2536C6.94368 10.3021 6.962 10.3942 6.91846 10.4647L6.53983 11.0777C6.5074 11.1302 6.43857 11.1464 6.38608 11.114C6.32515 11.0714 6.30775 10.9972 6.33998 10.9377ZM8.09757 12.1082L7.39894 12.3158C7.33408 12.3351 7.29392 12.3998 7.30684 12.4731C7.32103 12.5331 7.38121 12.5703 7.44125 12.5561L8.1424 12.3904C8.22304 12.3713 8.27525 12.2932 8.26201 12.2114C8.26113 12.206 8.25989 12.2006 8.25832 12.1953C8.23798 12.1268 8.16601 12.0878 8.09757 12.1082ZM7.17545 14.0386L7.81626 14.3858C7.87904 14.4199 7.90236 14.4983 7.86834 14.5611C7.86571 14.566 7.86276 14.5707 7.85952 14.5751C7.81105 14.6423 7.71889 14.6607 7.6484 14.6171L7.03545 14.2385C6.98296 14.2061 6.96669 14.1372 6.99911 14.0847C7.04177 14.0238 7.11596 14.0064 7.17545 14.0386ZM6.00496 15.7982L5.79734 15.0996C5.77807 15.0347 5.71331 14.9945 5.64006 15.0075C5.58002 15.0216 5.54284 15.0818 5.55703 15.1419L5.72272 15.843C5.74178 15.9237 5.8199 15.9759 5.90169 15.9626C5.90716 15.9617 5.91256 15.9605 5.91786 15.9589C5.9863 15.9386 6.0253 15.8666 6.00496 15.7982ZM4.07449 14.8741L3.72729 15.5149C3.69327 15.5777 3.61481 15.601 3.55203 15.567C3.54717 15.5644 3.54248 15.5614 3.53799 15.5582C3.47079 15.5097 3.45247 15.4176 3.49601 15.3471L3.87464 14.7341C3.90706 14.6816 3.9759 14.6654 4.02839 14.6978C4.08932 14.7404 4.10672 14.8146 4.07449 14.8741ZM2.31495 13.7056L3.01358 13.498C3.07843 13.4787 3.11859 13.4139 3.10567 13.3407C3.09148 13.2806 3.03131 13.2435 2.97126 13.2576L2.27011 13.4233C2.18947 13.4424 2.13726 13.5205 2.1505 13.6023C2.15139 13.6078 2.15262 13.6132 2.1542 13.6185C2.17454 13.6869 2.24651 13.7259 2.31495 13.7056ZM3.23902 11.7731L2.5982 11.4259C2.53543 11.3919 2.51211 11.3135 2.54612 11.2507C2.54876 11.2458 2.55171 11.2411 2.55495 11.2366C2.60342 11.1695 2.69558 11.1511 2.76607 11.1947L3.37902 11.5733C3.43151 11.6057 3.44778 11.6746 3.41535 11.7271C3.3727 11.788 3.2985 11.8054 3.23902 11.7731ZM6.96701 11.6067C6.91342 11.6373 6.89476 11.7055 6.92884 11.7649C6.96584 11.8215 7.03938 11.8415 7.09995 11.8114L7.75249 11.4867C7.81642 11.4549 7.84246 11.3773 7.81066 11.3134C7.80819 11.3084 7.80541 11.3037 7.80233 11.2991C7.75623 11.2302 7.66477 11.2087 7.5928 11.2497L6.96701 11.6067ZM7.23239 13.3158C7.25024 13.2498 7.31168 13.2147 7.37119 13.231L8.06613 13.421C8.14605 13.4429 8.1955 13.5228 8.17942 13.6041C8.17834 13.6095 8.17692 13.6149 8.17516 13.6201C8.15245 13.6878 8.07916 13.7243 8.01147 13.7015L7.32051 13.4697C7.25637 13.4481 7.2185 13.382 7.23239 13.3158ZM6.50833 14.6657C6.47776 14.6121 6.40954 14.5934 6.35021 14.6275C6.29357 14.6645 6.27359 14.738 6.30372 14.7986L6.62835 15.4512C6.66015 15.5151 6.73775 15.5411 6.80168 15.5093C6.80663 15.5069 6.81142 15.5041 6.81602 15.501C6.88487 15.4549 6.9064 15.3634 6.86534 15.2915L6.50833 14.6657ZM4.79733 14.931C4.86337 14.9489 4.89842 15.0103 4.88215 15.0698L4.69209 15.7648C4.67023 15.8447 4.59034 15.8942 4.50905 15.8781C4.50362 15.877 4.49827 15.8756 4.49302 15.8738C4.42533 15.8511 4.38887 15.7778 4.41159 15.7101L4.64346 15.0192C4.66498 14.955 4.73111 14.9172 4.79733 14.931ZM3.44746 14.207C3.50105 14.1764 3.51971 14.1082 3.48563 14.0489C3.44863 13.9922 3.37509 13.9723 3.31451 14.0024L2.66197 14.327C2.59805 14.3588 2.57201 14.4364 2.60381 14.5003C2.60627 14.5053 2.60905 14.5101 2.61213 14.5147C2.65824 14.5835 2.7497 14.6051 2.82167 14.564L3.44746 14.207ZM3.18208 12.4979C3.16423 12.564 3.10279 12.599 3.04328 12.5828L2.34834 12.3927C2.26841 12.3708 2.21896 12.291 2.23505 12.2097C2.23612 12.2042 2.23754 12.1989 2.23931 12.1936C2.26202 12.1259 2.33531 12.0895 2.40299 12.1122L3.09396 12.3441C3.1581 12.3656 3.19597 12.4317 3.18208 12.4979ZM3.90613 11.1481C3.9367 11.2017 4.00493 11.2203 4.06426 11.1862C4.1209 11.1492 4.14088 11.0757 4.11074 11.0151L3.78612 10.3626C3.75432 10.2987 3.67671 10.2726 3.61279 10.3044C3.60783 10.3069 3.60304 10.3097 3.59844 10.3127C3.5296 10.3588 3.50807 10.4503 3.54913 10.5223L3.90613 11.1481Z" fill="#FECA00"/>
</g>
</g>
<rect x="0.5" y="0.5" width="25" height="25" rx="12.5" stroke="#E9ECEE"/>
<defs>
<clipPath id="clip0_28456_27715">
<rect x="1" y="1" width="24" height="24" rx="12" fill="white"/>
</clipPath>
</defs>
</svg>
