<svg width="26" height="26" viewBox="0 0 26 26" fill="none" xmlns="http://www.w3.org/2000/svg">
<g clip-path="url(#clip0_28456_30759)">
<path fill-rule="evenodd" clip-rule="evenodd" d="M5 1C2.79086 1 1 2.79086 1 5V21C1 23.2091 2.79086 25 5 25H29C31.2091 25 33 23.2091 33 21V5C33 2.79086 31.2091 1 29 1H5Z" fill="#F7FCFF"/>
<mask id="mask0_28456_30759" style="mask-type:luminance" maskUnits="userSpaceOnUse" x="0" y="0" width="34" height="26">
<path d="M1 0.5H0.5V1V25V25.5H1H33H33.5V25V1V0.5H33H1Z" fill="white" stroke="white"/>
</mask>
<g mask="url(#mask0_28456_30759)">
<path fill-rule="evenodd" clip-rule="evenodd" d="M1 1V13H33V1H1Z" fill="#E31D1C"/>
<path fill-rule="evenodd" clip-rule="evenodd" d="M9.86901 11.5891C9.86901 11.5891 7.04332 10.4526 7.04332 7.3735C7.04332 4.29443 9.86901 3.19465 9.86901 3.19465C8.49567 2.84698 4.85156 3.15794 4.85156 7.3735C4.85156 11.5891 8.44061 12.3841 9.86901 11.5891ZM10.5937 11.0805L11.4043 10.5911L12.2328 11.0805L12.03 10.1255L12.7035 9.37217H11.791L11.4043 8.48047L11.0176 9.37217L10.1035 9.41081L10.7786 10.1255L10.5937 11.0805ZM14.3496 10.5364L13.539 11.0258L13.7239 10.0708L13.0488 9.35612L13.9629 9.31748L14.3496 8.42578L14.7363 9.31748H15.6488L14.9753 10.0708L15.1781 11.0258L14.3496 10.5364ZM12.287 6.76992L13.0977 6.28055L13.9261 6.76992L13.7234 5.81496L14.3969 5.06162H13.4844L13.0977 4.16992L12.7109 5.06162L11.7969 5.10027L12.4719 5.81496L12.287 6.76992ZM10.3711 8.22196L9.56047 8.71133L9.74536 7.75637L9.07031 7.04167L9.98437 7.00303L10.3711 6.11133L10.7578 7.00303H11.6703L10.9968 7.75637L11.1996 8.71133L10.3711 8.22196ZM14.9179 8.66836L15.7285 8.17899L16.557 8.66836L16.3542 7.7134L17.0277 6.96006H16.1152L15.7285 6.06836L15.3418 6.96006L14.4277 6.9987L15.1028 7.7134L14.9179 8.66836Z" fill="#F1F9FF"/>
</g>
</g>
<rect x="0.5" y="0.5" width="25" height="25" rx="12.5" stroke="#E9ECEE"/>
<defs>
<clipPath id="clip0_28456_30759">
<rect x="1" y="1" width="24" height="24" rx="12" fill="white"/>
</clipPath>
</defs>
</svg>
