<svg xmlns="http://www.w3.org/2000/svg" version="1.2" viewBox="0 0 512 359">
  <path fill="#fe0000" d="M176.7 1.9h307.2C499.4 1.9 512 14.5 512 30v300c0 15.5-12.6 28.1-28.1 28.1H28.1c-15.5.1-28.1-12.6-28.1-28V180h176.7z"/>
  <path fill="#000095" d="M0 180h176.7V1.9H28.1C12.6 1.9 0 14.5 0 30z"/>
  <path fill="#fff" d="m110.6 129.6-5.3-19.9q-1 .9-2.1 1.7-1.1.8-2.2 1.5l-2.4 1.2q-1.3.5-2.5.9zm0-38.6c0-12.3-10-22.2-22.3-22.2S66 78.8 66 91c0 12.4 10.1 22.3 22.3 22.3 2.9 0 5.8-.6 8.5-1.7s5.2-2.7 7.3-4.8c2-2.1 3.7-4.5 4.8-7.2 1.1-2.7 1.7-5.6 1.7-8.6zm-3.6 17 19.9 5.3-14.6-14.5q-.4 1.2-.9 2.5-.6 1.2-1.2 2.3-.7 1.2-1.5 2.3-.8 1.1-1.7 2.1zm6-11.7 19.9-5.3-19.9-5.3q.1.7.2 1.3l.2 1.4q.1.6.1 1.3v2.7q0 .6-.1 1.3-.1.7-.2 1.3-.1.7-.2 1.3zm-.7-13 14.6-14.5-19.9 5.3q.9 1 1.7 2.1.8 1.1 1.5 2.2l1.2 2.4q.5 1.2.9 2.5zm-7.1-11 5.4-19.9L96 67q1.3.4 2.5 1 1.3.5 2.4 1.2 1.2.7 2.3 1.4 1 .8 2 1.7zm-11.6-5.9-5.3-20-5.3 20q.6-.2 1.3-.3.7-.1 1.3-.2.7 0 1.4-.1h1.3q2.7 0 5.3.6zm-13.1.6L65.9 52.4l5.4 20q1-.9 2.1-1.7 1.1-.8 2.3-1.5 1.1-.7 2.3-1.2 1.3-.6 2.5-1zm-10.9 7.1-19.9-5.3 14.6 14.5q.4-1.3.9-2.5l1.2-2.4q.7-1.1 1.5-2.2t1.7-2.1zm-6 11.6L43.7 91l19.9 5.3-.4-2.6q-.1-1.3-.1-2.7 0-1.3.1-2.6.2-1.4.4-2.7zm.7 13.1-14.6 14.5 19.9-5.3q-.9-1-1.7-2.1-.8-1.1-1.4-2.3-.7-1.1-1.3-2.3-.5-1.3-.9-2.5zm7.1 10.9L66 129.6l14.6-14.5q-1.3-.5-2.5-1t-2.4-1.2q-1.2-.7-2.2-1.5-1.1-.8-2.1-1.7zm11.6 6 5.3 19.9 5.3-19.9q-.6.1-1.3.2-.7.2-1.3.2-.7.1-1.4.1-.6.1-1.3.1-2.7 0-5.3-.6z"/>
</svg>