<svg width="40" height="40" viewBox="0 0 40 40" fill="none" xmlns="http://www.w3.org/2000/svg">
<g clip-path="url(#clip0_5507_96351)">
<path opacity="0.15" d="M19.7356 40.1375C27.351 40.1375 33.5244 39.298 33.5244 38.2625C33.5244 37.2269 27.351 36.3875 19.7356 36.3875C12.1203 36.3875 5.9469 37.2269 5.9469 38.2625C5.9469 39.298 12.1203 40.1375 19.7356 40.1375Z" fill="black"/>
<path d="M33.75 15.0001H6.25C5.905 15.0001 5.625 14.7201 5.625 14.3751V12.2538C5.625 12.0207 5.75437 11.8076 5.96062 11.6994L19.1325 4.82756C19.6762 4.54381 20.3238 4.54381 20.8669 4.82756L34.0394 11.7001C34.2456 11.8076 34.375 12.0213 34.375 12.2538V14.3751C34.375 14.7201 34.095 15.0001 33.75 15.0001Z" fill="#548D91"/>
<path d="M31.875 15H8.125V31.875H31.875V15Z" fill="#548D91"/>
<path d="M33.125 33.125H6.875C6.53 33.125 6.25 32.845 6.25 32.5V30.625C6.25 30.28 6.53 30 6.875 30H33.125C33.47 30 33.75 30.28 33.75 30.625V32.5C33.75 32.845 33.47 33.125 33.125 33.125Z" fill="#548D91"/>
<path opacity="0.3" d="M6.9375 14.3169C7.42438 14.3169 7.91875 14.2026 8.38 13.9619L18.1431 8.86882C19.6594 8.07757 20.2519 6.21757 19.4856 4.69507C19.3656 4.72944 19.2456 4.76882 19.1325 4.82757L5.96062 11.7001C5.75437 11.8076 5.625 12.0213 5.625 12.2538V14.0232C6.035 14.2126 6.4825 14.3169 6.9375 14.3169Z" fill="white"/>
<path opacity="0.15" d="M33.75 32.5V30.625C33.75 30.28 33.47 30 33.125 30H31.875V15C30.1494 15 28.75 16.3987 28.75 18.125V29.375C28.75 29.72 28.47 30 28.125 30H25.625C23.8994 30 22.5 31.3988 22.5 33.125H33.125C33.47 33.125 33.75 32.845 33.75 32.5Z" fill="black"/>
<path d="M16.875 30H13.75C13.405 30 13.125 29.72 13.125 29.375V15.625C13.125 15.28 13.405 15 13.75 15H16.875C17.22 15 17.5 15.28 17.5 15.625V29.375C17.5 29.72 17.22 30 16.875 30Z" fill="#00555B"/>
<path d="M26.25 30H23.125C22.78 30 22.5 29.72 22.5 29.375V15.625C22.5 15.28 22.78 15 23.125 15H26.25C26.595 15 26.875 15.28 26.875 15.625V29.375C26.875 29.72 26.595 30 26.25 30Z" fill="#00555B"/>
<path d="M20 13.125C21.0355 13.125 21.875 12.2855 21.875 11.25C21.875 10.2145 21.0355 9.375 20 9.375C18.9645 9.375 18.125 10.2145 18.125 11.25C18.125 12.2855 18.9645 13.125 20 13.125Z" fill="#E7A546"/>
<path d="M11.8606 11.0887L15.7368 9.06616" stroke="white" stroke-width="2" stroke-miterlimit="10" stroke-linecap="round" stroke-linejoin="round"/>
</g>
<defs>
<clipPath id="clip0_5507_96351">
<rect width="40" height="40" fill="white"/>
</clipPath>
</defs>
</svg>
