<svg width="120" height="120" viewBox="0 0 120 120" fill="none" xmlns="http://www.w3.org/2000/svg">
<g id="Alert">
<path id="Vector" d="M60 103.125C83.8173 103.125 103.125 83.8173 103.125 60C103.125 36.1827 83.8173 16.875 60 16.875C36.1827 16.875 16.875 36.1827 16.875 60C16.875 83.8173 36.1827 103.125 60 103.125Z" fill="#EE4242"/>
<path id="Vector_2" opacity="0.1" d="M60 120C79.6751 120 95.625 117.482 95.625 114.375C95.625 111.268 79.6751 108.75 60 108.75C40.3249 108.75 24.375 111.268 24.375 114.375C24.375 117.482 40.3249 120 60 120Z" fill="black"/>
<path id="Vector_3" opacity="0.3" d="M60 26.25C64.8319 26.25 68.7637 22.5806 69.2737 17.8856C66.285 17.2312 63.1856 16.875 60 16.875C36.1819 16.875 16.875 36.1819 16.875 60C16.875 63.1856 17.2312 66.285 17.8856 69.2737C22.5825 68.7637 26.25 64.8319 26.25 60C26.25 41.3906 41.3906 26.25 60 26.25Z" fill="white"/>
<path id="Vector_4" opacity="0.15" d="M102.115 50.7262C97.4178 51.2362 93.7503 55.1681 93.7503 59.9999C93.7503 78.6093 78.6097 93.7499 60.0003 93.7499C55.1684 93.7499 51.2366 97.4193 50.7266 102.114C53.7153 102.769 56.8147 103.125 60.0003 103.125C83.8184 103.125 103.125 83.8181 103.125 59.9999C103.125 56.8143 102.769 53.7149 102.115 50.7262Z" fill="black"/>
<path id="Vector_5" d="M28.2129 43.9256C31.7341 36.99 37.4604 31.3538 44.4616 27.9469" stroke="white" stroke-width="3" stroke-miterlimit="10" stroke-linecap="round" stroke-linejoin="round"/>
<path id="Vector_6" d="M57.3968 67.7006C56.6862 67.0144 56.2362 66.0394 56.0393 64.7681L52.2255 41.9644C52.1787 41.6681 52.1543 41.2781 52.1543 40.7887C52.1543 38.5894 52.8968 36.8681 54.3893 35.6212C55.8818 34.3744 57.7512 33.75 59.9974 33.75C62.2943 33.75 64.1768 34.3856 65.6449 35.6569C67.1093 36.9281 67.8443 38.6644 67.8443 40.8638C67.8443 41.3531 67.8199 41.7431 67.7693 42.0356L63.8843 64.7681C63.738 66.0394 63.3087 67.0144 62.6018 67.7006C61.8912 68.3831 61.023 68.7262 59.9974 68.7262C58.9718 68.7262 58.1037 68.3831 57.3968 67.7006ZM54.9012 84.1969C53.5549 82.83 52.8837 81.1444 52.8837 79.14C52.8837 77.1356 53.5549 75.45 54.9012 74.0794C56.2474 72.7106 57.9443 72.0263 59.9974 72.0263C62.0018 72.0263 63.6762 72.7087 65.0224 74.0794C66.3649 75.4481 67.0399 77.1338 67.0399 79.14C67.0399 81.1444 66.3649 82.83 65.0224 84.1969C63.6762 85.5656 62.0037 86.25 59.9974 86.25C57.9443 86.25 56.2474 85.5675 54.9012 84.1969Z" fill="#FDECEC"/>
</g>
</svg>
