<svg width="18" height="18" viewBox="0 0 18 18" fill="none" xmlns="http://www.w3.org/2000/svg">
<path d="M14.6699 17.0998H8.18992C8.04592 17.0998 7.91992 16.9738 7.91992 16.8298V7.88377C7.91992 7.79377 7.95592 7.72177 8.02792 7.66777L11.2679 5.21977C11.3579 5.14777 11.5019 5.14777 11.5919 5.21977L14.8319 7.66777C14.9039 7.72177 14.9399 7.79377 14.9399 7.88377V16.8298C14.9399 16.9738 14.8139 17.0998 14.6699 17.0998ZM8.45992 16.5598H14.3999V8.02777L11.4299 5.77777L8.45992 8.02777V16.5598ZM11.4299 9.14377C10.8719 9.14377 10.4039 8.67577 10.4039 8.11777C10.4039 7.55977 10.8539 7.09177 11.4299 7.09177C12.0059 7.09177 12.4559 7.55977 12.4559 8.11777C12.4559 8.67577 12.0059 9.14377 11.4299 9.14377ZM11.4299 7.63177C11.1599 7.63177 10.9439 7.84777 10.9439 8.11777C10.9439 8.38777 11.1599 8.60377 11.4299 8.60377C11.6999 8.60377 11.9159 8.38777 11.9159 8.11777C11.9339 7.84777 11.6999 7.63177 11.4299 7.63177Z" fill="white" stroke="white" stroke-width="0.65"/>
<path d="M8.20827 16.6323C8.19027 16.6323 8.15427 16.6323 8.13627 16.6323L4.89627 15.7683C4.82427 15.7503 4.77027 15.6963 4.73427 15.6423C4.68027 15.5703 4.68027 15.4803 4.69827 15.4263L7.39826 6.78631C7.41627 6.71431 7.48827 6.64231 7.56027 6.62431L11.3223 5.22031C11.4483 5.16631 11.5923 5.22031 11.6463 5.34631C11.7183 5.45431 11.6823 5.61631 11.5743 5.68831L8.46027 8.02831V16.3623C8.46027 16.4523 8.42427 16.5243 8.35227 16.5783C8.31627 16.6143 8.26226 16.6323 8.20827 16.6323ZM5.29227 15.3183L7.93827 16.0203V7.88431C7.93827 7.79431 7.97427 7.72231 8.04627 7.66831L9.81027 6.33631L7.88427 7.05631L5.29227 15.3183Z" fill="white" stroke="white" stroke-width="0.65"/>
<path d="M5.18317 15.03C5.14717 15.03 5.09317 15.012 5.05717 14.994L3.18517 13.968C3.05917 13.896 3.00517 13.734 3.07717 13.608L7.23517 5.922C7.27117 5.85 7.34317 5.796 7.43317 5.778L11.3752 5.184C11.5012 5.166 11.6092 5.238 11.6632 5.346C11.7172 5.454 11.6812 5.598 11.5732 5.67C11.5552 5.688 11.5192 5.706 11.5012 5.706L7.86517 7.074L5.45317 14.85C5.43517 14.922 5.38117 14.994 5.29117 15.012C5.25517 15.03 5.21917 15.03 5.18317 15.03ZM3.68917 13.626L5.03917 14.364L7.41517 6.768C7.43317 6.696 7.50517 6.624 7.57717 6.606L8.96317 6.084L7.64917 6.282L3.68917 13.626Z" fill="white" stroke="white" stroke-width="0.65"/>
<path d="M11.4115 5.724C11.3395 5.724 11.2495 5.688 11.1955 5.616C11.1595 5.562 10.1875 4.338 10.1875 2.934C10.1875 1.926 10.3315 0.882004 11.4115 0.882004C12.4915 0.882004 12.6355 1.908 12.6355 2.934C12.6355 4.32 11.6635 5.562 11.6275 5.616C11.5735 5.688 11.5015 5.724 11.4115 5.724ZM11.4115 1.44C11.1415 1.44 10.7275 1.44 10.7275 2.952C10.7275 3.78 11.1415 4.572 11.4115 4.986C11.6815 4.572 12.0955 3.78 12.0955 2.952C12.0955 1.44 11.6995 1.44 11.4115 1.44Z" fill="white" stroke="white" stroke-width="0.65"/>
</svg>
