<?xml version="1.0" encoding="UTF-8"?>
<svg width="15px" height="11px" viewBox="0 0 15 11" version="1.1" xmlns="http://www.w3.org/2000/svg" xmlns:xlink="http://www.w3.org/1999/xlink">
    <!-- Generator: Sketch 63.1 (92452) - https://sketch.com -->
    <title>bonus</title>
    <desc>Created with Sketch.</desc>
    <g id="bonus" stroke="none" stroke-width="1" fill="none" fill-rule="evenodd">
        <g id="promo" fill="#FC6E0D" fill-rule="nonzero">
            <path d="M12.96875,8.33203125 C12.0014182,7.77391462 11.4056765,6.74179209 11.40625,5.625 C11.40625,4.46874999 12.034375,3.45859374 12.96875,2.91796875 L12.96875,2.49999999 L2.03124999,2.49999999 L2.03124999,2.91796875 C2.96562501,3.45859374 3.59375001,4.46874999 3.59375001,5.625 C3.59375001,6.78125001 2.96562501,7.79140626 2.03124999,8.33203125 L2.03124999,8.75000001 L12.96875,8.75000001 L12.96875,8.33203125 L12.96875,8.33203125 Z M14.53125,7.96875 L14.53125,7.18749999 C13.9730225,7.18750001 13.457199,6.8896892 13.1780853,6.40625001 C12.8989715,5.92281082 12.8989715,5.32718918 13.1780853,4.84374999 C13.457199,4.3603108 13.9730225,4.06249999 14.53125,4.06250001 L14.53125,0.9375 L0.46875,0.9375 L0.46875,4.06250001 C1.02697749,4.06249999 1.54280098,4.3603108 1.82191473,4.84374999 C2.10102848,5.32718918 2.10102848,5.92281082 1.82191473,6.40625001 C1.54280098,6.8896892 1.02697749,7.18750001 0.46875,7.18749999 L0.46875,10.3125 L14.53125,10.3125 L14.53125,7.96875 L14.53125,7.96875 Z" id="Shape"></path>
        </g>
        <g id="gift" transform="translate(3.000000, 1.000000)" fill="#FFFFFF" fill-rule="nonzero">
            <path d="M5.3029285,6.81042858 L5.3029285,3.21428572 L3.69578564,3.21428572 L3.69578564,6.81042858 C3.69578564,6.894 3.72599992,6.9585 3.7864285,7.00392858 C3.84685707,7.04935715 3.92378564,7.07185715 4.01721421,7.07143458 L4.98149993,7.07143458 C5.07535707,7.07143458 5.15228565,7.04892858 5.21228565,7.00392858 C5.27228565,6.95892858 5.30249993,6.89442858 5.3029285,6.81042858 L5.3029285,6.81042858 Z M3.0124285,2.57142858 L3.99149992,2.57142858 L3.3589285,1.76271429 C3.2719285,1.65900001 3.1564285,1.60714287 3.0124285,1.60714287 C2.87871421,1.60714287 2.7649285,1.65407144 2.67107135,1.74792858 C2.57721421,1.84178573 2.53028564,1.95557144 2.53028564,2.08928573 C2.53028564,2.22300001 2.57721421,2.33678572 2.67107135,2.43064287 C2.7649285,2.52450001 2.87871421,2.57142858 3.0124285,2.57142858 L3.0124285,2.57142858 Z M6.46778565,2.08928572 C6.46778565,1.95557143 6.42085707,1.84178572 6.32699993,1.74792858 C6.23314279,1.65407143 6.11935707,1.60714286 5.98564279,1.60714286 C5.84164279,1.60714286 5.72614279,1.659 5.63914279,1.76271428 L5.01107136,2.57142857 L5.98564279,2.57142857 C6.11935707,2.57142857 6.23314279,2.52449999 6.32699993,2.43064285 C6.42085707,2.33678571 6.46778565,2.22299999 6.46778565,2.08928571 L6.46778565,2.08928572 Z M8.35649993,3.375 L8.35649993,4.98214286 C8.35649993,5.02885714 8.34149993,5.06742857 8.31149993,5.09785714 C8.28149993,5.12828571 8.2429285,5.14328571 8.19578565,5.14285714 L7.71364279,5.14285714 L7.71364279,7.23214286 C7.71364279,7.36585714 7.66671422,7.47964286 7.57285707,7.5735 C7.47899993,7.66735714 7.36521421,7.71428572 7.23149993,7.71428572 L1.76721421,7.71428572 C1.63349993,7.71428572 1.51971422,7.66735714 1.42585707,7.5735 C1.33199993,7.47964286 1.28507135,7.36585714 1.28507135,7.23214286 L1.28507135,5.14285714 L0.802928496,5.14285714 C0.756214213,5.14285714 0.717642785,5.12785714 0.687214213,5.09785714 C0.656785641,5.06785714 0.641785641,5.02928571 0.642205284,4.98214286 L0.642205284,3.375 C0.642205284,3.32828572 0.657214213,3.28971429 0.687214213,3.25928572 C0.717214213,3.22885714 0.755785641,3.21385714 0.802928496,3.21428572 L3.01307135,3.21428572 C2.70149993,3.21428572 2.43621421,3.10457143 2.21721421,2.88514286 C1.99821421,2.66571429 1.88849993,2.40042857 1.88807135,2.08928572 C1.88764278,1.77814286 1.99735707,1.51285715 2.21721421,1.29342858 C2.43707136,1.074 2.70235707,0.964285717 3.01307135,0.964285717 C3.37135707,0.964285717 3.65271421,1.09328572 3.85714278,1.35128572 L4.49999992,2.17992858 L5.14285706,1.35128572 C5.34728563,1.09328572 5.62864278,0.964285717 5.98692849,0.964285717 C6.29849992,0.964285717 6.56378563,1.074 6.78278563,1.29342858 C7.00178563,1.51285715 7.11149992,1.77814286 7.11192849,2.08928572 C7.11235706,2.40042857 7.00264277,2.66571429 6.78278563,2.88514286 C6.56292848,3.10457143 6.29764277,3.21428572 5.98692849,3.21428572 L8.19707135,3.21428572 C8.24378563,3.21428572 8.28235706,3.22928572 8.31278563,3.25928572 C8.3432142,3.28928572 8.3582142,3.32785714 8.35779456,3.375 L8.35649993,3.375 Z" id="Shape"></path>
        </g>
    </g>
</svg>