<svg width="18" height="18" viewBox="0 0 18 18" fill="none" xmlns="http://www.w3.org/2000/svg">
<path d="M13.9645 16.5H8.27045C8.14392 16.5 8.0332 16.3893 8.0332 16.2628V8.40184C8.0332 8.32276 8.06484 8.25949 8.1281 8.21204L10.9751 6.06097C11.0542 5.9977 11.1807 5.9977 11.2598 6.06097L14.1068 8.21204C14.1701 8.25949 14.2017 8.32276 14.2017 8.40184V16.2628C14.2017 16.3893 14.091 16.5 13.9645 16.5ZM8.5077 16.0255H13.7272V8.52838L11.1175 6.55129L8.5077 8.52838V16.0255ZM11.1175 9.50901C10.6271 9.50901 10.2159 9.09778 10.2159 8.60746C10.2159 8.11714 10.6113 7.70591 11.1175 7.70591C11.6236 7.70591 12.019 8.11714 12.019 8.60746C12.019 9.09778 11.6236 9.50901 11.1175 9.50901ZM11.1175 8.18041C10.8802 8.18041 10.6904 8.37021 10.6904 8.60746C10.6904 8.84471 10.8802 9.03451 11.1175 9.03451C11.3547 9.03451 11.5445 8.84471 11.5445 8.60746C11.5603 8.37021 11.3547 8.18041 11.1175 8.18041Z" fill="#131313" stroke="#131313" stroke-width="0.65"/>
<path d="M8.28513 16.0906C8.26931 16.0906 8.23768 16.0906 8.22186 16.0906L5.37485 15.3314C5.31158 15.3155 5.26413 15.2681 5.2325 15.2206C5.18505 15.1574 5.18505 15.0783 5.20087 15.0308L7.57337 7.43881C7.58919 7.37554 7.65246 7.31228 7.71572 7.29646L11.0214 6.06276C11.1321 6.01531 11.2587 6.06276 11.3061 6.17347C11.3694 6.26837 11.3378 6.41072 11.2429 6.47399L8.50656 8.53016V15.8533C8.50656 15.9324 8.47493 15.9957 8.41166 16.0431C8.38003 16.0747 8.33258 16.0906 8.28513 16.0906ZM5.72282 14.9359L8.04787 15.5528V8.40363C8.04787 8.32455 8.07951 8.26128 8.14278 8.21383L9.69281 7.04339L8.00043 7.67606L5.72282 14.9359Z" fill="#131313" stroke="#131313" stroke-width="0.65"/>
<path d="M5.62889 14.6819C5.59726 14.6819 5.54981 14.6661 5.51818 14.6502L3.87324 13.7487C3.76252 13.6854 3.71507 13.5431 3.77834 13.4324L7.432 6.67862C7.46363 6.61535 7.5269 6.5679 7.60598 6.55208L11.0698 6.03013C11.1806 6.01432 11.2755 6.07758 11.3229 6.17248C11.3704 6.26738 11.3387 6.39392 11.2438 6.45718C11.228 6.473 11.1964 6.48882 11.1806 6.48882L7.98558 7.69089L5.86614 14.5237C5.85033 14.587 5.80288 14.6502 5.72379 14.6661C5.69216 14.6819 5.66053 14.6819 5.62889 14.6819ZM4.31611 13.4482L5.50236 14.0967L7.59017 7.422C7.60598 7.35874 7.66925 7.29547 7.73252 7.27965L8.9504 6.82097L7.79578 6.99495L4.31611 13.4482Z" fill="#131313" stroke="#131313" stroke-width="0.65"/>
<path d="M11.1009 6.5047C11.0377 6.5047 10.9586 6.47306 10.9111 6.4098C10.8795 6.36235 10.0254 5.28681 10.0254 4.05311C10.0254 3.16737 10.1519 2.25 11.1009 2.25C12.0499 2.25 12.1765 3.15155 12.1765 4.05311C12.1765 5.27099 11.3224 6.36235 11.2907 6.4098C11.2433 6.47306 11.18 6.5047 11.1009 6.5047ZM11.1009 2.74032C10.8637 2.74032 10.4999 2.74032 10.4999 4.06892C10.4999 4.79649 10.8637 5.49243 11.1009 5.85621C11.3382 5.49243 11.702 4.79649 11.702 4.06892C11.702 2.74032 11.354 2.74032 11.1009 2.74032Z" fill="#131313" stroke="#131313" stroke-width="0.65"/>
</svg>
