<?xml version="1.0" encoding="UTF-8"?>
<svg width="14px" height="14px" viewBox="0 0 14 14" version="1.1" xmlns="http://www.w3.org/2000/svg" xmlns:xlink="http://www.w3.org/1999/xlink">
    <!-- Generator: Sketch 63.1 (92452) - https://sketch.com -->
    <title>Icon/Calendar</title>
    <desc>Created with Sketch.</desc>
    <g id="Page-1" stroke="none" stroke-width="1" fill="none" fill-rule="evenodd">
        <g id="OrderHistoryFilterPage" transform="translate(-197.000000, -359.000000)" fill="#000000">
            <g id="3.数据录入/6.DatePicker日期选择框/亮色/大-失效" transform="translate(105.000000, 350.000000)">
                <g id="1.通用/2.Icon图标/Line/Calendar" transform="translate(91.000000, 8.000000)">
                    <g id="Icon/Calendar">
                        <rect id="矩形" fill-rule="nonzero" opacity="0" x="0" y="0" width="16" height="16"></rect>
                        <path d="M13.75,2.875 L11.125,2.875 L11.125,1.875 C11.125,1.80625 11.06875,1.75 11,1.75 L10.125,1.75 C10.05625,1.75 10,1.80625 10,1.875 L10,2.875 L6,2.875 L6,1.875 C6,1.80625 5.94375,1.75 5.875,1.75 L5,1.75 C4.93125,1.75 4.875,1.80625 4.875,1.875 L4.875,2.875 L2.25,2.875 C1.9734375,2.875 1.75,3.0984375 1.75,3.375 L1.75,13.75 C1.75,14.0265625 1.9734375,14.25 2.25,14.25 L13.75,14.25 C14.0265625,14.25 14.25,14.0265625 14.25,13.75 L14.25,3.375 C14.25,3.0984375 14.0265625,2.875 13.75,2.875 Z M13.125,13.125 L2.875,13.125 L2.875,7.1875 L13.125,7.1875 L13.125,13.125 Z M2.875,6.125 L2.875,4 L4.875,4 L4.875,4.75 C4.875,4.81875 4.93125,4.875 5,4.875 L5.875,4.875 C5.94375,4.875 6,4.81875 6,4.75 L6,4 L10,4 L10,4.75 C10,4.81875 10.05625,4.875 10.125,4.875 L11,4.875 C11.06875,4.875 11.125,4.81875 11.125,4.75 L11.125,4 L13.125,4 L13.125,6.125 L2.875,6.125 Z" id="形状" fill-opacity="0.25"></path>
                    </g>
                </g>
            </g>
        </g>
    </g>
</svg>