<svg width="30" height="30" viewBox="0 0 30 30" fill="none" xmlns="http://www.w3.org/2000/svg">
<path d="M24.1712 16.7309L25.9768 8.78643C26.1072 8.21283 25.6712 7.66661 25.083 7.66661H10.0809L9.73077 5.95512C9.64353 5.52853 9.26816 5.22217 8.8327 5.22217H4.91667C4.4104 5.22217 4 5.63257 4 6.13883V6.74995C4 7.25621 4.4104 7.66661 4.91667 7.66661H7.58581L10.2689 20.7839C9.627 21.1531 9.19444 21.8452 9.19444 22.6388C9.19444 23.8201 10.1521 24.7777 11.3333 24.7777C12.5146 24.7777 13.4722 23.8201 13.4722 22.6388C13.4722 22.0402 13.226 21.4993 12.8296 21.1111H20.837C20.4407 21.4993 20.1944 22.0402 20.1944 22.6388C20.1944 23.8201 21.1521 24.7777 22.3333 24.7777C23.5146 24.7777 24.4722 23.8201 24.4722 22.6388C24.4722 21.792 23.98 21.0602 23.2661 20.7136L23.4768 19.7864C23.6072 19.2128 23.1712 18.6666 22.5829 18.6666H12.3309L12.0809 17.4444H23.2774C23.7054 17.4444 24.0764 17.1482 24.1712 16.7309Z" fill="white"/>
</svg>
