<svg width="40" height="40" viewBox="0 0 40 40" fill="none" xmlns="http://www.w3.org/2000/svg">
<path opacity="0.1" d="M20 40C29.3198 40 36.875 39.1605 36.875 38.125C36.875 37.0895 29.3198 36.25 20 36.25C10.6802 36.25 3.125 37.0895 3.125 38.125C3.125 39.1605 10.6802 40 20 40Z" fill="#131313"/>
<path d="M22.2296 32.5H5.2709C4.40465 32.5 3.70215 31.79 3.70215 30.9138V28.9131C3.70215 23.3 8.20027 18.75 13.7503 18.75C19.3003 18.75 23.7984 23.3 23.7984 28.9131V30.9138C23.7984 31.79 23.0959 32.5 22.2296 32.5Z" fill="#548D91"/>
<path opacity="0.15" d="M23.7981 30.9137V28.9124C23.7981 25.9674 22.5519 23.323 20.5731 21.4668C19.385 22.4012 19.0119 24.0793 19.7731 25.4393C20.3619 26.4912 20.6731 27.6918 20.6731 28.9124V29.3749H15.625C13.8987 29.3749 12.5 30.7743 12.5 32.4999H22.2294C23.0956 32.4999 23.7981 31.7899 23.7981 30.9137Z" fill="#131313"/>
<path d="M13.75 17.5C17.2018 17.5 20 14.7018 20 11.25C20 7.79822 17.2018 5 13.75 5C10.2982 5 7.5 7.79822 7.5 11.25C7.5 14.7018 10.2982 17.5 13.75 17.5Z" fill="#E7A546"/>
<path opacity="0.3" d="M13.75 5C10.2981 5 7.5 7.79813 7.5 11.25C7.5 12.3444 7.7825 13.3713 8.27688 14.2663C9.62438 13.9188 10.625 12.7063 10.625 11.25C10.625 9.52688 12.0269 8.125 13.75 8.125C15.2063 8.125 16.4194 7.12438 16.7663 5.77688C15.8713 5.2825 14.8444 5 13.75 5Z" fill="white"/>
<path d="M34.375 15.625H26.875L24.2488 19.0019C23.6775 19.7362 22.5 19.3325 22.5 18.4019V7.5C22.5 6.11937 23.6194 5 25 5H34.375C35.7556 5 36.875 6.11937 36.875 7.5V13.125C36.875 14.5056 35.7556 15.625 34.375 15.625Z" fill="#234455"/>
<path d="M9.88477 10C10.251 8.86937 11.1004 7.955 12.1885 7.5" stroke="white" stroke-width="3" stroke-miterlimit="10" stroke-linecap="round" stroke-linejoin="round"/>
</svg>
