<svg width="41" height="40" viewBox="0 0 41 40" fill="none" xmlns="http://www.w3.org/2000/svg">
<path d="M36.2425 10.1168C35.8387 9.89989 35.3337 10.0049 35.0056 10.3243L33.6675 11.628C33.4056 11.883 32.9775 11.883 32.7156 11.6286L31.3331 10.2849C30.9406 9.90364 30.2981 9.90364 29.9056 10.2849L28.5243 11.628C28.2625 11.8824 27.8343 11.8824 27.5725 11.6274L26.1943 10.2855C25.8018 9.90302 25.1593 9.90302 24.7662 10.2855L23.3887 11.6268C23.0975 11.9324 22.5593 11.908 22.3187 11.6268L21.2962 10.3749C20.8756 9.86052 20.0862 9.86614 19.6737 10.3868L18.69 11.6286C18.4281 11.8836 18 11.8836 17.7381 11.6293L16.3556 10.2855C15.9631 9.90427 15.3206 9.90427 14.9281 10.2855L13.5468 11.6286C13.285 11.883 12.8568 11.883 12.595 11.628L11.2168 10.2861C10.8243 9.90364 10.1818 9.90364 9.78871 10.2861L8.41121 11.6274C8.11996 11.933 7.58183 11.9086 7.34121 11.6274L6.01621 10.3368C5.68496 10.0143 5.17433 9.89739 4.76746 10.118C4.43058 10.3005 4.26121 10.613 4.25683 10.9274L4.25183 10.9268V13.1249L4.25308 28.1249C4.25308 29.5055 5.37433 30.6249 6.75683 30.6249H34.2443C35.6287 30.6249 36.75 29.5055 36.75 28.1249L36.7487 10.9511C36.7537 10.628 36.5918 10.3049 36.2425 10.1168Z" fill="#548D91"/>
<path opacity="0.3" d="M7.38192 23.1237V14.9968C7.38192 13.2712 5.98317 11.8718 4.25692 11.8718C4.25567 11.8718 4.25442 11.8725 4.25317 11.8725V13.125V25.6237C4.25317 25.8381 4.28817 26.0418 4.33942 26.2406C6.0263 26.1956 7.38192 24.8212 7.38192 23.1237Z" fill="white"/>
<path opacity="0.15" d="M36.75 28.1249V18.748C35.0238 18.748 33.625 20.1474 33.625 21.873V26.8749C33.625 27.2199 33.345 27.4999 33 27.4999H28.6294C26.9031 27.4999 25.5044 28.8993 25.5044 30.6249H34.25C35.6306 30.6249 36.75 29.5055 36.75 28.1249Z" fill="black"/>
<path opacity="0.15" d="M20.5031 39.9968C28.1188 39.9968 34.2925 39.1574 34.2925 38.1218C34.2925 37.0863 28.1188 36.2468 20.5031 36.2468C12.8875 36.2468 6.71375 37.0863 6.71375 38.1218C6.71375 39.1574 12.8875 39.9968 20.5031 39.9968Z" fill="black"/>
<path d="M6.44067 15.3093V17.8093" stroke="white" stroke-width="2" stroke-miterlimit="10" stroke-linecap="round" stroke-linejoin="round"/>
<path d="M28.4206 26.875C28.1931 26.875 28.0056 26.7981 27.8569 26.6456C27.7088 26.4919 27.6338 26.3063 27.6338 26.0875V25.3137C27.1269 25.2794 26.6788 25.1987 26.2888 25.0712C25.9 24.9444 25.5706 24.8106 25.2994 24.6712C25.0538 24.5494 24.9013 24.3769 24.8406 24.1537C24.7788 23.9306 24.7894 23.7163 24.8725 23.5112C24.9556 23.305 25.0956 23.1569 25.2931 23.065C25.4894 22.9731 25.7231 22.9925 25.9944 23.1238C26.2044 23.2381 26.4969 23.3531 26.8731 23.4719C27.2488 23.5906 27.7088 23.6488 28.2513 23.6488C28.8544 23.6488 29.2825 23.5525 29.5363 23.3606C29.7894 23.1675 29.9163 22.9275 29.9163 22.6394C29.9163 22.4037 29.8288 22.2062 29.6538 22.0494C29.4788 21.8912 29.1638 21.7656 28.71 21.6681L27.2669 21.3531C25.6756 21.0044 24.88 20.1556 24.88 18.8094C24.88 18.0737 25.1288 17.4537 25.6269 16.9469C26.1256 16.44 26.7944 16.1206 27.6338 15.9894V15.1625C27.6338 14.9438 27.7088 14.7581 27.8569 14.6044C28.0056 14.4519 28.1938 14.375 28.4206 14.375C28.6394 14.375 28.8231 14.4519 28.9713 14.6044C29.1206 14.7581 29.1944 14.9438 29.1944 15.1625V15.9494C29.5175 15.9931 29.8531 16.0719 30.1975 16.185C30.5431 16.2994 30.8475 16.4475 31.1088 16.6313C31.3188 16.7625 31.4481 16.93 31.4963 17.1362C31.5444 17.3412 31.5238 17.5362 31.4375 17.72C31.35 17.9037 31.2069 18.0325 31.0106 18.1062C30.8144 18.1812 30.5763 18.1481 30.2956 18.0081C30.06 17.895 29.8025 17.7981 29.5219 17.72C29.2425 17.6412 28.8975 17.6013 28.4863 17.6013C27.9794 17.6013 27.5813 17.7056 27.2931 17.9163C27.0038 18.1263 26.86 18.3975 26.86 18.7294C26.86 18.965 26.9456 19.1594 27.1163 19.3131C27.2863 19.4656 27.5856 19.5906 28.0138 19.6869L29.4694 20.0019C30.3 20.1856 30.9144 20.4856 31.3125 20.9006C31.7094 21.3156 31.9094 21.8463 31.9094 22.4944C31.9094 23.2375 31.6575 23.8488 31.155 24.33C30.6525 24.8106 29.9988 25.1206 29.1944 25.2606V26.0869C29.1944 26.3056 29.1206 26.4913 28.9713 26.645C28.8231 26.7981 28.6394 26.875 28.4206 26.875Z" fill="#E7A546"/>
<path d="M17.0625 20.625H10.1875C9.67 20.625 9.25 20.205 9.25 19.6875C9.25 19.17 9.67 18.75 10.1875 18.75H17.0625C17.58 18.75 18 19.17 18 19.6875C18 20.205 17.58 20.625 17.0625 20.625Z" fill="#00555B"/>
<path d="M19.5625 16.875H10.1875C9.67 16.875 9.25 16.455 9.25 15.9375C9.25 15.42 9.67 15 10.1875 15H19.5625C20.08 15 20.5 15.42 20.5 15.9375C20.5 16.455 20.08 16.875 19.5625 16.875Z" fill="#00555B"/>
<path d="M19.4313 28.125C18.8188 28.125 18.4744 27.8794 18.2937 27.6738C18.2669 27.6425 18.2419 27.6113 18.2188 27.5788C17.83 27.8588 17.265 28.125 16.5219 28.125C16.0038 28.125 15.5944 27.9756 15.3075 27.6806C15.3031 27.6756 15.2987 27.6713 15.2937 27.6663C14.7313 27.9444 14.0575 28.125 13.29 28.125C12.7131 28.125 12.2331 27.9406 11.8787 27.6044C11.1919 27.9313 10.4531 28.125 9.735 28.125C9.4675 28.125 9.25 27.9075 9.25 27.64C9.25 27.3725 9.4675 27.155 9.735 27.155C10.2881 27.155 10.8438 27.0163 11.3606 26.785C11.2488 26.4694 11.1894 26.1056 11.1894 25.7006C11.1894 23.6706 12.4425 22.3069 13.6131 22.3069C14.3744 22.3069 14.9062 22.905 14.9062 23.7613C14.9062 24.9513 14.0206 26.2075 12.8006 27.065C12.9412 27.125 13.1044 27.155 13.29 27.155C13.97 27.155 14.5094 26.9875 14.9225 26.7744C14.9194 26.7319 14.9181 26.6881 14.9181 26.6444C14.9181 25.7044 15.6337 24.5688 16.5225 24.5688C16.9269 24.5688 17.2212 24.8819 17.2212 25.3131C17.2212 25.8113 16.8444 26.5188 16.1594 27.0994C16.2744 27.1425 16.4112 27.1538 16.5231 27.1538C17.5269 27.1538 18.0394 26.4281 18.0612 26.3969C18.1887 26.2125 18.4275 26.1375 18.6356 26.2181C18.8444 26.2988 18.9719 26.5106 18.9425 26.7331C18.9425 26.7331 18.9275 26.9269 19.0262 27.0363C19.1144 27.1338 19.295 27.1538 19.4313 27.1538C20.0519 27.1538 20.7375 26.6194 20.7444 26.6138C20.9544 26.4463 21.2587 26.4806 21.4256 26.6888C21.5931 26.8981 21.5594 27.2031 21.3506 27.37C21.2537 27.4494 20.3819 28.125 19.4313 28.125ZM13.6131 23.2769C13.0913 23.2769 12.1587 24.0869 12.1587 25.7006C12.1587 25.925 12.1794 26.1238 12.22 26.2969C13.2244 25.5938 13.9362 24.5844 13.9362 23.7613C13.9362 23.6156 13.905 23.2769 13.6131 23.2769Z" fill="#00555B"/>
</svg>
