<svg width="120" height="120" viewBox="0 0 120 120" fill="none" xmlns="http://www.w3.org/2000/svg">
<path d="M72.7369 58.1119L36.0132 58.125C31.3051 58.1269 26.8876 55.4925 25.1963 51.27C24.1932 48.7631 24.0695 45.9206 25.0445 43.1794L31.7907 23.4862H76.8657L83.7038 43.2656C84.5663 45.6862 84.5701 48.1762 83.8688 50.4412C82.4326 55.0837 77.7751 58.1119 72.7369 58.1119Z" fill="#234455"/>
<path d="M80.625 103.125H28.125C25.0181 103.125 22.5 100.607 22.5 97.5V87.5344C22.5 71.2931 35.6681 58.125 51.9094 58.125H56.8387C73.0819 58.125 86.25 71.2931 86.25 87.5344V97.5C86.25 100.607 83.7319 103.125 80.625 103.125Z" fill="#548D91"/>
<path opacity="0.15" d="M86.2501 97.5V87.5343C86.2501 84.3093 85.712 81.2137 84.752 78.3112C80.2913 79.0312 76.8751 82.8693 76.8751 87.5362V91.875C76.8751 92.91 76.0351 93.75 75.0001 93.75H66.8457C61.667 93.75 57.4707 97.9462 57.4707 103.125H80.6251C83.732 103.125 86.2501 100.607 86.2501 97.5Z" fill="black"/>
<path opacity="0.15" d="M54.375 120C74.0501 120 90 117.482 90 114.375C90 111.268 74.0501 108.75 54.375 108.75C34.6999 108.75 18.75 111.268 18.75 114.375C18.75 117.482 34.6999 120 54.375 120Z" fill="black"/>
<path d="M54.375 69.375C49.1981 69.375 45 65.1769 45 60V56.25H63.75V60C63.75 65.1769 59.5519 69.375 54.375 69.375Z" fill="#D29640"/>
<path d="M54.375 61.875C65.507 61.875 74.5312 52.2211 74.5312 40.3125C74.5312 28.4039 65.507 18.75 54.375 18.75C43.243 18.75 34.2188 28.4039 34.2188 40.3125C34.2188 52.2211 43.243 61.875 54.375 61.875Z" fill="#ECB76B"/>
<path d="M74.04 41.25C76.6289 41.25 78.7275 39.1513 78.7275 36.5625C78.7275 33.9737 76.6289 31.875 74.04 31.875C71.4512 31.875 69.3525 33.9737 69.3525 36.5625C69.3525 39.1513 71.4512 41.25 74.04 41.25Z" fill="#ECB76B"/>
<path d="M34.665 41.25C37.2539 41.25 39.3525 39.1513 39.3525 36.5625C39.3525 33.9737 37.2539 31.875 34.665 31.875C32.0762 31.875 29.9775 33.9737 29.9775 36.5625C29.9775 39.1513 32.0762 41.25 34.665 41.25Z" fill="#ECB76B"/>
<path d="M54.375 7.5C40.9125 7.5 30 18.0656 30 31.0988C30 31.605 30.045 32.0981 30.0769 32.5969C30.5925 32.625 31.1006 32.6719 31.6237 32.6719C41.0644 32.6719 49.3913 28.08 54.3731 21.0844C59.355 28.08 67.6819 32.6719 77.1225 32.6719C77.6456 32.6719 78.1538 32.6231 78.6694 32.5969C78.705 32.0981 78.75 31.605 78.75 31.0988C78.75 18.0656 67.8375 7.5 54.375 7.5Z" fill="#234455"/>
<path opacity="0.3" d="M35.488 28.1269C38.5912 28.1269 41.6268 26.5875 43.4137 23.7731C46.153 19.4531 50.953 16.875 56.2499 16.875C60.5643 16.875 64.1605 13.9444 65.2518 9.97688C61.978 8.3925 58.2843 7.5 54.3749 7.5C42.4837 7.5 32.623 15.7594 30.478 26.6681C32.0343 27.6544 33.7705 28.1269 35.488 28.1269Z" fill="white"/>
<path d="M44.1601 21.36C43.3951 21.36 42.632 21.0487 42.0751 20.4356C41.0326 19.2844 41.1207 17.505 42.272 16.4625C44.3757 14.5575 46.8957 13.1344 49.5582 12.345C51.0489 11.9044 52.6126 12.7519 53.0532 14.2406C53.4957 15.7294 52.6464 17.295 51.1576 17.7356C49.2976 18.2887 47.5295 19.29 46.0464 20.6344C45.5082 21.12 44.8332 21.36 44.1601 21.36Z" fill="white"/>
<path d="M97.5468 37.8C96.703 37.8 96.0412 37.5225 95.563 36.9656C95.083 36.4106 94.8449 35.6531 94.8449 34.6931C94.8449 33.045 95.1505 31.5113 95.7655 30.0919C96.3787 28.6744 97.4343 27.1594 98.9287 25.5488C100.001 24.3975 100.749 23.4113 101.171 22.5863C101.593 21.7613 101.805 20.91 101.805 20.0269C101.805 18.9544 101.411 18.1106 100.626 17.4956C99.8399 16.8825 98.7187 16.575 97.2599 16.575C95.8799 16.575 94.6049 16.7475 93.4349 17.0925C92.2649 17.4375 91.1249 17.9363 90.013 18.5888C88.7474 19.2413 87.673 19.4025 86.7918 19.0763C85.9087 18.7519 85.2862 18.1481 84.9224 17.265C84.5568 16.3819 84.5568 15.4425 84.9224 14.445C85.2862 13.4494 86.0812 12.6056 87.3093 11.9138C88.8805 11.0325 90.6168 10.3519 92.5143 9.87189C94.4118 9.39189 96.2043 9.15189 97.8918 9.15189C100.423 9.15189 102.645 9.56439 104.563 10.3894C106.481 11.2144 107.966 12.3656 109.02 13.8413C110.074 15.3169 110.602 17.0325 110.602 18.9881C110.602 20.7525 110.209 22.3819 109.423 23.8781C108.637 25.3725 107.246 26.9456 105.253 28.5938C103.451 30.0881 102.223 31.365 101.572 32.4188C100.92 33.4744 100.498 34.5956 100.307 35.7844C100.192 36.3975 99.913 36.8869 99.4724 37.2506C99.0337 37.6163 98.3905 37.8 97.5468 37.8ZM97.4324 50.625C95.8987 50.625 94.6799 50.1656 93.7799 49.245C92.878 48.3244 92.428 47.1356 92.428 45.6788C92.428 44.2613 92.878 43.1006 93.7799 42.1988C94.6799 41.2988 95.8987 40.8469 97.4324 40.8469C98.9662 40.8469 100.164 41.2988 101.027 42.1988C101.889 43.1006 102.321 44.2613 102.321 45.6788C102.321 47.1356 101.889 48.3244 101.027 49.245C100.164 50.1656 98.9662 50.625 97.4324 50.625Z" fill="#00555B"/>
</svg>
