<svg width="16" height="16" viewBox="0 0 16 16" fill="none" xmlns="http://www.w3.org/2000/svg">
<g id="coronavirus">
<path id="Vector" d="M6.33398 7.99662C6.33398 8.36329 6.03398 8.66329 5.66732 8.66329C5.30065 8.66329 5.00065 8.36329 5.00065 7.99662C5.00065 7.62996 5.30065 7.32996 5.66732 7.32996C6.03398 7.32996 6.33398 7.62996 6.33398 7.99662ZM9.16732 6.66329C9.53398 6.66329 9.83398 6.36329 9.83398 5.99662C9.83398 5.62996 9.53398 5.32996 9.16732 5.32996C8.80065 5.32996 8.50065 5.62996 8.50065 5.99662C8.50065 6.36329 8.80065 6.66329 9.16732 6.66329ZM6.83398 6.66329C7.20065 6.66329 7.50065 6.36329 7.50065 5.99662C7.50065 5.62996 7.20065 5.32996 6.83398 5.32996C6.46732 5.32996 6.16732 5.62996 6.16732 5.99662C6.16732 6.36329 6.46732 6.66329 6.83398 6.66329ZM6.83398 9.32996C6.46732 9.32996 6.16732 9.62996 6.16732 9.99662C6.16732 10.3633 6.46732 10.6633 6.83398 10.6633C7.20065 10.6633 7.50065 10.3633 7.50065 9.99662C7.50065 9.62996 7.20065 9.32996 6.83398 9.32996ZM14.6673 7.49662V8.49662C14.6673 8.76996 14.4407 8.99662 14.1673 8.99662C13.894 8.99662 13.6673 8.76996 13.6673 8.49662H12.6407C12.5407 9.40996 12.1807 10.25 11.6273 10.93L12.354 11.6566L12.3607 11.65C12.554 11.4566 12.874 11.4566 13.0673 11.65C13.2607 11.8433 13.2607 12.1633 13.0673 12.3566L12.3607 13.0633C12.1673 13.2566 11.8473 13.2566 11.654 13.0633C11.4607 12.87 11.4607 12.5566 11.6473 12.3633L10.9207 11.6366C10.2407 12.1833 9.40732 12.5433 8.49398 12.6433V13.67H8.50065C8.77398 13.67 9.00065 13.8966 9.00065 14.17C9.00065 14.4433 8.77398 14.67 8.50065 14.67H7.50065C7.22732 14.67 7.00065 14.4433 7.00065 14.17C7.00065 13.8966 7.22065 13.6766 7.49398 13.67V12.6366C6.58065 12.5366 5.74732 12.1766 5.07398 11.63L4.34732 12.3566L4.35398 12.3633C4.54732 12.5566 4.54732 12.8766 4.35398 13.07C4.16065 13.2633 3.84065 13.2633 3.64732 13.07L2.93398 12.3566C2.74065 12.1633 2.74065 11.8433 2.93398 11.65C3.12732 11.4566 3.44065 11.4566 3.63398 11.6433L4.36065 10.9166C3.81398 10.2366 3.45398 9.40996 3.36065 8.49662H2.33398C2.33398 8.76996 2.10732 8.99662 1.83398 8.99662C1.56065 8.99662 1.33398 8.76996 1.33398 8.49662V7.49662C1.33398 7.22329 1.56065 6.99662 1.83398 6.99662C2.10732 6.99662 2.33398 7.22329 2.33398 7.49662H3.36065C3.46065 6.58329 3.82065 5.75662 4.36065 5.07662L3.63398 4.34996C3.44065 4.53662 3.12732 4.53662 2.93398 4.34329C2.74065 4.14996 2.74065 3.82996 2.93398 3.63662L3.64065 2.92996C3.83398 2.73662 4.15398 2.73662 4.34732 2.92996C4.54065 3.12329 4.54065 3.44329 4.34732 3.63662L4.34065 3.64329L5.06732 4.36996C5.74732 3.82329 6.57398 3.46329 7.48732 3.36329V2.32996C7.21398 2.32329 6.99398 2.10329 6.99398 1.82996C7.00065 1.55662 7.22732 1.32996 7.50065 1.32996H8.50065C8.77398 1.32996 9.00065 1.55662 9.00065 1.82996C9.00065 2.10329 8.77398 2.32996 8.50065 2.32996H8.49398V3.35662C9.40732 3.44996 10.2407 3.81662 10.9207 4.36329L11.6473 3.63662C11.454 3.44329 11.4607 3.12996 11.654 2.93662C11.8473 2.74329 12.1673 2.74329 12.3607 2.93662L13.0673 3.64329C13.2607 3.83662 13.2607 4.15662 13.0673 4.34996C12.874 4.54329 12.554 4.54329 12.3607 4.34996L12.354 4.34329L11.6273 5.06329C12.174 5.74329 12.5407 6.57662 12.6407 7.49662H13.6673C13.6673 7.22329 13.894 6.99662 14.1673 6.99662C14.4407 6.99662 14.6673 7.22329 14.6673 7.49662ZM11.334 7.99662C11.334 6.15662 9.84065 4.66329 8.00065 4.66329C6.16065 4.66329 4.66732 6.15662 4.66732 7.99662C4.66732 9.83662 6.16065 11.33 8.00065 11.33C9.84065 11.33 11.334 9.83662 11.334 7.99662ZM8.00065 7.32996C7.63398 7.32996 7.33398 7.62996 7.33398 7.99662C7.33398 8.36329 7.63398 8.66329 8.00065 8.66329C8.36732 8.66329 8.66732 8.36329 8.66732 7.99662C8.66732 7.62996 8.36732 7.32996 8.00065 7.32996ZM10.334 7.32996C9.96732 7.32996 9.66732 7.62996 9.66732 7.99662C9.66732 8.36329 9.96732 8.66329 10.334 8.66329C10.7007 8.66329 11.0007 8.36329 11.0007 7.99662C11.0007 7.62996 10.7007 7.32996 10.334 7.32996ZM9.16732 9.32996C8.80065 9.32996 8.50065 9.62996 8.50065 9.99662C8.50065 10.3633 8.80065 10.6633 9.16732 10.6633C9.53398 10.6633 9.83398 10.3633 9.83398 9.99662C9.83398 9.62996 9.53398 9.32996 9.16732 9.32996Z" fill="#3E77C7"/>
</g>
</svg>
