<svg width="286" height="287" viewBox="0 0 286 287" fill="none" xmlns="http://www.w3.org/2000/svg">
<path d="M184.19 32.0838C182.26 24.7418 178.371 18.0624 172.938 12.7599C167.506 7.45739 160.734 3.73121 153.347 1.97982C145.961 0.228423 138.237 0.517672 131.002 2.81668C123.767 5.11568 117.293 9.33793 112.272 15.0319L14.3132 112.991C8.08681 118.576 3.66876 125.892 1.62433 134.002C-0.420097 142.113 0.002123 150.649 2.8371 158.518C5.67209 166.387 10.7908 173.231 17.538 178.174C24.2852 183.117 32.354 185.934 40.7116 186.264H41.7103C47.6696 186.146 53.543 184.82 58.9755 182.367C64.408 179.915 69.2866 176.386 73.3169 171.995L171.276 74.0358C177.015 68.86 181.246 62.2271 183.519 54.841C185.793 47.4549 186.025 39.591 184.19 32.0838ZM63.257 162.007C60.8076 164.999 57.7586 167.446 54.306 169.188C50.8534 170.93 47.0741 171.93 43.2116 172.122C39.3491 172.314 35.4892 171.695 31.8805 170.305C28.2719 168.914 24.9946 166.783 22.26 164.048C19.5254 161.314 17.3943 158.036 16.0037 154.428C14.6131 150.819 13.9939 146.959 14.1862 143.097C14.3786 139.234 15.3782 135.455 17.1204 132.002C18.8627 128.55 21.309 125.5 24.3017 123.051L68.2514 79.1014L107.207 118.057L63.257 162.007ZM161.288 63.9759L117.338 107.783L78.5253 68.9702L122.475 25.0205C125.195 22.0047 128.488 19.5616 132.163 17.8343C135.839 16.1069 139.822 15.13 143.879 14.9606C151.097 15.0781 157.974 18.0545 163 23.2368C172.774 32.94 175.985 49.2784 161.288 63.9759ZM171.276 143.456C157.165 143.456 143.371 147.641 131.638 155.48C119.905 163.32 110.76 174.463 105.36 187.5C99.9602 200.537 98.5473 214.882 101.3 228.722C104.053 242.562 110.848 255.275 120.826 265.253C130.804 275.231 143.517 282.026 157.357 284.779C171.197 287.532 185.543 286.119 198.58 280.719C211.616 275.319 222.759 266.174 230.599 254.441C238.439 242.708 242.623 228.914 242.623 214.803C242.623 195.881 235.106 177.733 221.726 164.353C208.346 150.973 190.199 143.456 171.276 143.456ZM171.276 157.726C183.952 157.71 196.265 161.957 206.236 169.783L126.256 249.763C118.43 239.792 114.183 227.479 114.199 214.803C114.199 199.665 120.212 185.147 130.916 174.443C141.62 163.739 156.138 157.726 171.276 157.726ZM171.276 271.881C158.6 271.896 146.287 267.65 136.316 259.823L216.296 179.843C224.123 189.814 228.369 202.127 228.354 214.803C228.354 229.941 222.34 244.459 211.636 255.163C200.932 265.867 186.414 271.881 171.276 271.881ZM242.623 57.8401C234.156 57.8401 225.88 60.3507 218.84 65.0545C211.8 69.7584 206.314 76.4441 203.074 84.2662C199.834 92.0884 198.986 100.696 200.638 109C202.289 117.304 206.366 124.931 212.353 130.918C218.34 136.905 225.968 140.982 234.272 142.634C242.576 144.285 251.183 143.438 259.005 140.198C266.827 136.958 273.513 131.471 278.217 124.431C282.921 117.391 285.431 109.115 285.431 100.648C285.431 89.2948 280.921 78.4063 272.893 70.3782C264.865 62.3502 253.977 57.8401 242.623 57.8401ZM242.623 129.187C236.979 129.187 231.461 127.513 226.768 124.377C222.075 121.241 218.417 116.784 216.257 111.569C214.097 106.355 213.532 100.616 214.633 95.0805C215.734 89.5445 218.452 84.4594 222.443 80.4682C226.434 76.477 231.519 73.759 237.055 72.6578C242.591 71.5566 248.33 72.1218 253.544 74.2819C258.759 76.4419 263.216 80.0998 266.352 84.7929C269.488 89.4861 271.162 95.0037 271.162 100.648C271.162 108.217 268.155 115.476 262.803 120.828C257.451 126.18 250.192 129.187 242.623 129.187Z" fill="#A7B4BB"/>
</svg>
