<svg width="160" height="160" viewBox="0 0 160 160" fill="none" xmlns="http://www.w3.org/2000/svg">
<path d="M80 15C52.385 15 30 37.385 30 65C30 91.2025 54.4125 121.07 69.1225 136.685C75.0175 142.942 84.985 142.942 90.88 136.685C105.588 121.07 130 91.2025 130 65C130 37.385 107.615 15 80 15ZM80 82.5C70.335 82.5 62.5 74.665 62.5 65C62.5 55.335 70.335 47.5 80 47.5C89.665 47.5 97.5 55.335 97.5 65C97.5 74.665 89.665 82.5 80 82.5Z" fill="#EE4242"/>
<path d="M80 15C52.385 15 30 37.385 30 65C30 91.2025 54.4125 121.07 69.1225 136.685C75.0175 142.942 84.985 142.942 90.88 136.685C105.588 121.07 130 91.2025 130 65C130 37.385 107.615 15 80 15ZM80 82.5C70.335 82.5 62.5 74.665 62.5 65C62.5 55.335 70.335 47.5 80 47.5C89.665 47.5 97.5 55.335 97.5 65C97.5 74.665 89.665 82.5 80 82.5Z" fill="#EE4242"/>
<path opacity="0.1" d="M80 160C106.234 160 127.5 156.642 127.5 152.5C127.5 148.358 106.234 145 80 145C53.7665 145 32.5 148.358 32.5 152.5C32.5 156.642 53.7665 160 80 160Z" fill="#131313"/>
<path opacity="0.15" d="M130 65C130 60.7325 129.407 56.615 128.402 52.66C122.262 53.4525 117.5 58.645 117.5 65C117.5 81.0075 104.48 104.01 81.7798 128.115C78.3298 131.778 77.5523 136.965 79.3123 141.345C83.5048 141.537 87.7598 139.995 90.8773 136.685C105.587 121.07 130 91.2025 130 65Z" fill="#131313"/>
<path opacity="0.3" d="M42.5 65C42.5 44.3225 59.3225 27.5 80 27.5C86.3575 27.5 91.5475 22.7375 92.34 16.5975C88.385 15.5925 84.2675 15 80 15C52.385 15 30 37.385 30 65C30 69.0475 30.585 73.18 31.625 77.3375C37.7525 76.5325 42.5 71.3475 42.5 65Z" fill="white"/>
<path d="M43.1475 49.445C45.175 44.66 48.1075 40.35 51.7275 36.73C55.3475 33.11 59.66 30.175 64.4425 28.15" stroke="white" stroke-width="3" stroke-miterlimit="10" stroke-linecap="round" stroke-linejoin="round"/>
</svg>
