<svg width="22" height="24" viewBox="0 0 22 24" fill="none" xmlns="http://www.w3.org/2000/svg">
<path d="M6.2001 11.2H5.4001V12.8H6.2001V11.2ZM15.8001 12.8H16.6001V11.2H15.8001V12.8ZM6.2001 6.4H5.4001V8H6.2001V6.4ZM9.4001 8H10.2001V6.4H9.4001V8ZM15.8001 0.8L16.3665 0.2336L16.1313 0H15.8001V0.8ZM20.6001 5.6H21.4001V5.2688L21.1665 5.0336L20.6001 5.6ZM11.8001 17.6L11.2337 18.1664L11.8001 17.6ZM11.0001 18.4L11.3585 19.1152L11.4225 19.0832L11.4801 19.04L11.0001 18.4ZM6.2001 12.8H15.8001V11.2H6.2001V12.8ZM6.2001 8H9.4001V6.4H6.2001V8ZM19.0001 22.4H3.0001V24H19.0001V22.4ZM2.2001 21.6V2.4H0.600098V21.6H2.2001ZM3.0001 1.6H15.8001V0H3.0001V1.6ZM19.8001 5.6V21.6H21.4001V5.6H19.8001ZM15.2337 1.3664L20.0337 6.1664L21.1665 5.0336L16.3665 0.2336L15.2337 1.3664ZM3.0001 22.4C2.78792 22.4 2.58444 22.3157 2.43441 22.1657C2.28438 22.0157 2.2001 21.8122 2.2001 21.6H0.600098C0.600098 22.2365 0.852954 22.847 1.30304 23.2971C1.75313 23.7471 2.36358 24 3.0001 24V22.4ZM19.0001 24C19.6366 24 20.2471 23.7471 20.6972 23.2971C21.1472 22.847 21.4001 22.2365 21.4001 21.6H19.8001C19.8001 21.8122 19.7158 22.0157 19.5658 22.1657C19.4158 22.3157 19.2123 22.4 19.0001 22.4V24ZM2.2001 2.4C2.2001 2.18783 2.28438 1.98434 2.43441 1.83431C2.58444 1.68429 2.78792 1.6 3.0001 1.6V0C2.36358 0 1.75313 0.252856 1.30304 0.702944C0.852954 1.15303 0.600098 1.76348 0.600098 2.4H2.2001ZM7.7585 18.6528C7.9361 18.12 8.4417 17.6256 9.0865 17.4528C9.6897 17.2912 10.4657 17.3968 11.2337 18.1664L12.3665 17.0336C11.2145 15.8816 9.8561 15.5888 8.6721 15.9072C7.5313 16.2144 6.5969 17.08 6.2401 18.1472L7.7601 18.6528H7.7585ZM11.2337 18.1664C11.2787 18.2101 11.3209 18.2566 11.3601 18.3056L12.6241 17.3232C12.5443 17.222 12.4582 17.1258 12.3665 17.0352L11.2337 18.1664ZM11.3601 18.3056C11.4849 18.4656 11.4561 18.5168 11.4609 18.4816C11.4641 18.4592 11.4705 18.496 11.3745 18.5824C11.2362 18.698 11.0793 18.7895 10.9105 18.8528C10.7077 18.9344 10.4962 18.9924 10.2801 19.0256C10.1483 19.0507 10.0135 19.0561 9.8801 19.0416C9.8529 19.0352 9.9089 19.0416 9.9921 19.1008C10.0941 19.1795 10.1691 19.2881 10.2067 19.4114C10.2442 19.5346 10.2425 19.6666 10.2017 19.7888C10.1926 19.8153 10.1803 19.8406 10.1649 19.864C10.1617 19.8672 10.1889 19.832 10.2801 19.7568C10.4625 19.6096 10.7985 19.3952 11.3585 19.1168L10.6417 17.6848C10.0385 17.9856 9.5857 18.2608 9.2753 18.512C9.11789 18.6349 8.97793 18.7786 8.8593 18.9392C8.70841 19.1412 8.62954 19.3879 8.6353 19.64C8.6513 19.9856 8.8385 20.24 9.0433 20.3888C9.2241 20.5232 9.4241 20.5808 9.5713 20.6112C9.8705 20.6704 10.2113 20.6544 10.5201 20.608C11.1281 20.5152 11.9153 20.2528 12.4513 19.7664C12.7297 19.512 12.9937 19.1472 13.0497 18.6688C13.1073 18.1792 12.9313 17.72 12.6225 17.3248L11.3585 18.3056H11.3601ZM11.4801 19.04C11.7361 18.8442 12.0143 18.6794 12.3089 18.5488L11.6737 17.08C11.2897 17.2464 10.9057 17.472 10.5201 17.76L11.4801 19.04ZM12.3089 18.5488C13.3489 18.0992 14.2785 18.336 15.2305 18.7888C15.4705 18.904 15.7041 19.0288 15.9409 19.1568C16.1713 19.2816 16.4145 19.4144 16.6449 19.5328C17.0865 19.7552 17.6337 20 18.2001 20V18.4C18.0497 18.4 17.8033 18.3248 17.3681 18.1056C17.1633 18 16.9489 17.8816 16.7025 17.7488C16.4625 17.6192 16.1969 17.4768 15.9185 17.3456C14.8017 16.8128 13.3409 16.36 11.6737 17.08L12.3089 18.5488Z" fill="#2D5E64"/>
</svg>
