<svg width="24" height="24" viewBox="0 0 24 24" fill="none" xmlns="http://www.w3.org/2000/svg">
<g id="icons8-document">
<path id="Vector" d="M19.5 8V20.5C19.5 21.0525 19.0525 21.5 18.5 21.5H5.5C4.9475 21.5 4.5 21.0525 4.5 20.5V3.5C4.5 2.9475 4.9475 2.5 5.5 2.5H14L15.5 6.5L19.5 8Z" fill="#50E6FF"/>
<path id="Vector_2" d="M14 2.5V7C14 7.5525 14.4475 8 15 8H19.5L14 2.5Z" fill="url(#paint0_linear_28263_167180)"/>
<path id="Vector_3" d="M16.25 12H7.75C7.612 12 7.5 11.888 7.5 11.75V11.25C7.5 11.112 7.612 11 7.75 11H16.25C16.388 11 16.5 11.112 16.5 11.25V11.75C16.5 11.888 16.388 12 16.25 12Z" fill="#057093"/>
<path id="Vector_4" d="M15.25 14H7.75C7.612 14 7.5 13.888 7.5 13.75V13.25C7.5 13.112 7.612 13 7.75 13H15.25C15.388 13 15.5 13.112 15.5 13.25V13.75C15.5 13.888 15.388 14 15.25 14Z" fill="#057093"/>
<path id="Vector_5" d="M16.25 16H7.75C7.612 16 7.5 15.888 7.5 15.75V15.25C7.5 15.112 7.612 15 7.75 15H16.25C16.388 15 16.5 15.112 16.5 15.25V15.75C16.5 15.888 16.388 16 16.25 16Z" fill="#057093"/>
<path id="Vector_6" d="M15.25 18H7.75C7.612 18 7.5 17.888 7.5 17.75V17.25C7.5 17.112 7.612 17 7.75 17H15.25C15.388 17 15.5 17.112 15.5 17.25V17.75C15.5 17.888 15.388 18 15.25 18Z" fill="#057093"/>
</g>
<defs>
<linearGradient id="paint0_linear_28263_167180" x1="14.2645" y1="7.7355" x2="16.8" y2="5.2" gradientUnits="userSpaceOnUse">
<stop stop-color="#3079D6"/>
<stop offset="1" stop-color="#297CD2"/>
</linearGradient>
</defs>
</svg>
