<svg width="160" height="160" viewBox="0 0 160 160" fill="none" xmlns="http://www.w3.org/2000/svg">
<path opacity="0.1" d="M80 160C106.234 160 127.5 156.642 127.5 152.5C127.5 148.358 106.234 145 80 145C53.7665 145 32.5 148.358 32.5 152.5C32.5 156.642 53.7665 160 80 160Z" fill="#131313"/>
<path d="M111.25 27.5C97.115 27.5 85.025 36.2 80 48.53C74.975 36.2 62.885 27.5 48.75 27.5C30.11 27.5 15 42.61 15 61.25C15 90 44.78 118.542 72.945 131.007C77.4525 133.003 82.5475 133.003 87.055 131.007C115.22 118.542 145 90 145 61.25C145 42.61 129.89 27.5 111.25 27.5Z" fill="#E7A546"/>
<path opacity="0.3" d="M61.025 29.825C59.95 35.625 54.85 40 48.75 40C37.025 40 27.5 49.525 27.5 61.25C27.5 67.55 29.525 74.3 33.525 81.3C36.8 87.025 35.05 94.225 29.7 97.85C20.8 86.6 15 73.95 15 61.25C15 42.6 30.1 27.5 48.75 27.5C53.075 27.5 57.225 28.325 61.025 29.825Z" fill="white"/>
<path opacity="0.15" d="M145 61.25C145 90 115.225 118.55 87.05 131C83.075 132.775 78.65 132.975 74.575 131.625C74.3 126.625 77.125 121.725 82 119.575C106.825 108.6 132.5 83.775 132.5 61.25C132.5 55.15 136.875 50.05 142.675 48.975C144.175 52.775 145 56.925 145 61.25Z" fill="#131313"/>
<path d="M28.7478 50C27.9653 50 27.1754 49.755 26.5004 49.25C24.8429 48.0075 24.5079 45.655 25.7504 43.9975C30.3529 37.8625 36.3228 33.91 43.0153 32.5725C45.0528 32.165 47.0204 33.485 47.4279 35.515C47.8354 37.545 46.5179 39.5225 44.4854 39.9275C39.5629 40.9125 35.2778 43.7975 31.7503 48.5025C31.0128 49.4825 29.8878 50 28.7478 50Z" fill="white"/>
</svg>
