<svg width="160" height="160" viewBox="0 0 160 160" fill="none" xmlns="http://www.w3.org/2000/svg">
<path d="M80 33.2575L25 55.7575V114.045C25 118.105 27.455 121.763 31.2125 123.3L73.3725 140.548C77.62 142.285 82.3775 142.285 86.625 140.548L128.785 123.3C132.545 121.763 135 118.105 135 114.045V55.7575L80 33.2575Z" fill="#E7A546"/>
<path opacity="0.1" d="M80 160C106.234 160 127.5 156.642 127.5 152.5C127.5 148.358 106.234 145 80 145C53.7665 145 32.5 148.358 32.5 152.5C32.5 156.642 53.7665 160 80 160Z" fill="black"/>
<path opacity="0.15" d="M122.5 82.5V109.01C122.5 111.04 121.272 112.87 119.392 113.638L85.7724 127.388C80.0124 129.745 77.0024 135.9 78.3649 141.77C81.1524 142.03 83.9874 141.625 86.6224 140.545L128.782 123.298C132.545 121.763 135 118.105 135 114.045V70C128.095 70 122.5 75.595 122.5 82.5Z" fill="black"/>
<path d="M25 55.7575L80 33.2575L135 55.7575L80 75.225L25 55.7575Z" fill="#A47532"/>
<path d="M14.3027 42.735L25.0002 55.7575L80.0002 33.2575L68.5127 19.275C66.4252 16.7325 62.9227 15.8475 59.8777 17.095L16.2727 34.935C13.1577 36.2075 12.1652 40.135 14.3027 42.735Z" fill="#EFC383"/>
<path d="M145.697 42.735L135 55.7575L80 33.2575L91.4875 19.275C93.575 16.7325 97.0775 15.8475 100.122 17.095L143.728 34.935C146.843 36.2075 147.835 40.135 145.697 42.735Z" fill="#EFC383"/>
<path d="M25 55.7575L13.065 67.175C10.45 69.6775 11.2775 74.045 14.6275 75.415L57.57 92.9825C60.52 94.19 63.9125 93.4 66.0275 91.01L80 75.225L25 55.7575Z" fill="#EFC383"/>
<path d="M135 55.7575L146.935 67.175C149.55 69.6775 148.722 74.045 145.372 75.415L102.43 92.9825C99.48 94.19 96.0875 93.4 93.9725 91.01L80 75.225L135 55.7575Z" fill="#EFC383"/>
<path opacity="0.3" d="M14.6298 75.4175L57.5723 92.985C60.5223 94.1925 63.9148 93.4025 66.0298 91.0125L68.8998 87.77C67.6223 84.9925 65.3598 82.6625 62.3073 81.4125L33.6223 69.68C31.9473 68.995 31.5323 66.8125 32.8398 65.56L33.6423 64.7925C33.8373 64.6075 33.9748 64.3875 34.1548 64.1925C34.4473 63.875 34.7348 63.5575 34.9873 63.2175C35.2323 62.89 35.4448 62.55 35.6548 62.2025C35.8673 61.85 36.0748 61.5 36.2498 61.13C36.4273 60.76 36.5698 60.3825 36.7073 60C36.7173 59.97 36.7248 59.94 36.7348 59.91L24.9998 55.7575L13.0648 67.175C10.4498 69.6775 11.2773 74.045 14.6298 75.4175Z" fill="white"/>
<path opacity="0.3" d="M36.3452 50.6275C36.1802 50.265 36.0127 49.9075 35.8102 49.555C35.5952 49.18 35.3452 48.8275 35.0902 48.4725C34.9377 48.26 34.8277 48.03 34.6602 47.825L32.5652 45.2725C31.4977 43.9725 31.9927 42.01 33.5502 41.3725L64.6152 28.665C67.6102 27.44 69.8377 25.1625 71.1277 22.455L68.5127 19.275C66.4252 16.7325 62.9227 15.8475 59.8777 17.095L16.2727 34.935C13.1577 36.21 12.1652 40.135 14.3027 42.7375L25.0002 55.7575L36.5152 51.0475C36.4552 50.9075 36.4077 50.765 36.3452 50.6275Z" fill="white"/>
<path d="M31.1523 38.23L47.4998 31.49" stroke="white" stroke-width="3" stroke-miterlimit="10" stroke-linecap="round" stroke-linejoin="round"/>
</svg>
