<svg width="44" height="12" viewBox="0 0 44 12" fill="none" xmlns="http://www.w3.org/2000/svg">
<path d="M21.7441 11.4583V9.35385H15.9825L21.4176 2.48575V0.362183H12.6023V2.48575H17.7878L12.3334 9.39211V11.4583H21.7441Z" fill="white"/>
<path d="M1.92614 7.82354C2.55991 8.12964 3.90429 8.45487 4.84536 8.45487C4.88377 8.55053 4.92218 8.62705 4.96059 8.70358C5.11423 8.95228 5.30629 9.18186 5.55596 9.33491C5.78642 9.48796 6.0745 9.60274 6.40099 9.67927C6.70828 9.75579 7.07318 9.77493 7.43809 9.77493C7.76458 9.77493 8.07186 9.73666 8.39836 9.67927C8.70564 9.60274 9.01293 9.52622 9.2626 9.41143C9.49306 9.31578 9.70432 9.20099 9.89638 9.10533C10.0884 8.99055 10.2421 8.89489 10.3765 8.81836H10.6646V10.9802C10.4341 11.0758 10.2229 11.1524 10.0308 11.2098C9.83876 11.2672 9.58909 11.3628 9.2626 11.4393C8.95531 11.5159 8.64803 11.5733 8.32153 11.6115C7.99504 11.6498 7.61093 11.688 7.15 11.688C5.45993 11.688 4.17317 11.3054 3.25131 10.5593C2.5023 9.92797 2.07978 9.0862 1.94534 8.05312C1.94534 7.93833 1.94534 7.88094 1.92614 7.82354ZM2.79038 2.33289C1.8109 3.00248 1.23474 3.76773 1.31156 4.47558C1.46521 6.10173 5.01821 7.15395 9.2818 6.79046C10.8566 6.65654 12.3163 6.35044 13.507 5.94868C12.3163 6.96264 10.1076 7.76615 7.55332 7.97659C3.5586 8.28269 0.178446 7.07743 0.0055971 5.25996C-0.0904299 4.15035 1.00428 3.079 2.79038 2.33289ZM6.68907 2.79203C8.05266 2.79203 9.08975 3.1364 9.78114 3.82512C10.3573 4.39906 10.703 5.20257 10.799 6.21652C10.2229 6.31218 8.82087 6.42696 8.07186 6.42696C8.14868 4.51384 6.91954 4.47558 6.47782 4.47558C5.40231 4.45645 4.76854 5.10691 4.69171 6.15913C4.32681 6.15913 2.77117 5.56606 2.31024 5.20257C2.59833 4.59037 2.79038 4.36079 3.15528 4.01643C4.00032 3.19379 5.19105 2.79203 6.68907 2.79203Z" fill="white"/>
<path d="M34.1348 11.4583H30.6203L27.5858 7.38337H26.2414V11.4583H23.3798V0.381348H28.2004C28.8534 0.381348 29.4295 0.41961 29.8905 0.496135C30.3706 0.57266 30.8123 0.725709 31.2348 0.974415C31.6573 1.22312 31.9838 1.54835 32.2335 1.93098C32.4832 2.3136 32.5984 2.83014 32.5984 3.42321C32.5984 4.24585 32.4064 4.91544 32.0223 5.43199C31.6381 5.94853 31.1004 6.38855 30.3898 6.71378L34.1348 11.4583ZM29.66 3.76757C29.66 3.4806 29.6024 3.25103 29.4871 3.05972C29.3719 2.84927 29.1799 2.69622 28.8918 2.58144C28.6997 2.50491 28.4693 2.46665 28.2004 2.42839C27.9507 2.40926 27.6434 2.40926 27.2977 2.40926H26.2606V5.39372H27.1441C27.605 5.39372 27.9891 5.37459 28.2964 5.3172C28.6037 5.27894 28.8726 5.16415 29.0646 5.0111C29.2759 4.85805 29.4103 4.68587 29.5063 4.49456C29.6216 4.34151 29.66 4.0928 29.66 3.76757Z" fill="#BBCE31"/>
<path d="M43.5827 11.4584H40.433L38.6469 8.95217L36.8032 11.4584H33.7303L37.0529 7.26863L33.8072 3.09802H36.9569L38.7238 5.54682L40.4906 3.09802H43.5827L40.3178 7.23036L43.5827 11.4584Z" fill="#BBCE31"/>
</svg>
