<svg width="90" height="30" viewBox="0 0 90 30" fill="none" xmlns="http://www.w3.org/2000/svg">
<path d="M41.2149 26.769V22.9341H30.7919L40.6243 10.4185V6.54883H24.6771V10.4185H34.0578L24.1907 23.0039V26.769H41.2149Z" fill="#00555B"/>
<path d="M5.35984 20.1451C6.50638 20.7029 8.93841 21.2956 10.6408 21.2956C10.7103 21.4699 10.7798 21.6094 10.8493 21.7488C11.1272 22.202 11.4747 22.6204 11.9263 22.8993C12.3433 23.1782 12.8644 23.3873 13.4551 23.5268C14.0109 23.6662 14.6711 23.7011 15.3312 23.7011C15.9218 23.7011 16.4777 23.6314 17.0684 23.5268C17.6243 23.3873 18.1802 23.2479 18.6318 23.0387C19.0487 22.8644 19.4309 22.6552 19.7783 22.4809C20.1258 22.2717 20.4037 22.0974 20.6469 21.958H21.1681V25.8974C20.7512 26.0717 20.369 26.2112 20.0215 26.3158C19.6741 26.4204 19.2225 26.5947 18.6318 26.7341C18.0759 26.8736 17.52 26.9782 16.9294 27.0479C16.3388 27.1176 15.6439 27.1873 14.81 27.1873C11.7526 27.1873 9.42482 26.4901 7.75714 25.1305C6.40214 23.98 5.63779 22.4461 5.39459 20.5635C5.39459 20.3543 5.39459 20.2497 5.35984 20.1451ZM6.9233 10.1396C5.15138 11.3598 4.10908 12.7543 4.24806 14.0442C4.526 17.0075 10.9535 18.925 18.6666 18.2626C21.5155 18.0185 24.156 17.4607 26.3101 16.7286C24.156 18.5763 20.1605 20.0406 15.5397 20.424C8.31303 20.9818 2.1982 18.7855 1.88551 15.4736C1.71179 13.4516 3.69216 11.4993 6.9233 10.1396ZM13.9762 10.9763C16.443 10.9763 18.3191 11.6039 19.5699 12.8589C20.6122 13.9048 21.2376 15.369 21.4113 17.2167C20.369 17.391 17.8327 17.6002 16.4777 17.6002C16.6167 14.114 14.3931 14.0442 13.594 14.0442C11.6484 14.0094 10.5019 15.1947 10.3629 17.1121C9.70277 17.1121 6.88855 16.0314 6.05471 15.369C6.57586 14.2534 6.9233 13.8351 7.58342 13.2075C9.11213 11.7085 11.2662 10.9763 13.9762 10.9763Z" fill="#00555B"/>
<path d="M63.6245 26.769H57.2665L51.777 19.3434H49.345V26.769H44.1682V6.58374H52.8888C54.0701 6.58374 55.1124 6.65347 55.9462 6.79291C56.8148 6.93236 57.6139 7.21126 58.3783 7.66447C59.1426 8.11768 59.7333 8.71034 60.1849 9.40759C60.6366 10.1048 60.845 11.0461 60.845 12.1269C60.845 13.6259 60.4976 14.8461 59.8027 15.7874C59.1079 16.7287 58.1351 17.5305 56.8495 18.1232L63.6245 26.769ZM55.5293 12.7544C55.5293 12.2314 55.4251 11.8131 55.2166 11.4645C55.0081 11.081 54.6607 10.8021 54.1396 10.5929C53.7921 10.4535 53.3752 10.3837 52.8888 10.314C52.4371 10.2792 51.8812 10.2792 51.2559 10.2792H49.3797V15.7177H50.9779C51.8118 15.7177 52.5066 15.6828 53.0625 15.5782C53.6184 15.5085 54.1048 15.2993 54.4523 15.0204C54.8344 14.7415 55.0776 14.4278 55.2514 14.0791C55.4598 13.8002 55.5293 13.347 55.5293 12.7544Z" fill="#BBCE31"/>
<path d="M80.7181 26.769H75.0202L71.7891 22.2021L68.4537 26.769H62.8948L68.9054 19.1342L63.0337 11.5342H68.7317L71.9281 15.9966L75.1244 11.5342H80.7181L74.8117 19.0644L80.7181 26.769Z" fill="#BBCE31"/>
<path d="M84.8873 8.01312H83.5323V10.07C83.5323 10.6278 83.9493 11.081 84.5052 11.1159C85.1305 11.1507 85.6517 10.6627 85.6517 10.0351V8.01312V7.28101C85.6517 7.69935 85.3043 8.01312 84.8873 8.01312Z" fill="#729748"/>
<path d="M87.6669 5.92163H85.6518V7.28126V8.04823H87.6669C88.2575 8.04823 88.7092 7.59502 88.7092 7.00236C88.7439 6.37484 88.2575 5.92163 87.6669 5.92163Z" fill="#729748"/>
<path d="M84.2967 5.92151H85.6517V3.86463C85.6517 3.30683 85.2348 2.85362 84.6789 2.81876C84.0535 2.74903 83.5323 3.27197 83.5323 3.89949V5.92151V6.68848C83.5323 6.23527 83.8798 5.92151 84.2967 5.92151Z" fill="#00555B"/>
<path d="M84.2967 5.92163C83.8798 5.92163 83.5323 6.27025 83.5323 6.6886V8.04823H84.8873C85.3043 8.04823 85.6517 7.69961 85.6517 7.28126V5.92163H84.2967Z" fill="#092A2B"/>
<path d="M83.5325 6.65374V5.92163H81.5173C80.9267 5.92163 80.475 6.37484 80.475 6.9675C80.475 7.56016 80.9614 8.04823 81.5521 8.04823H83.5672V6.65374H83.5325Z" fill="#00555B"/>
</svg>
