<svg width="120" height="40" viewBox="0 0 120 40" fill="none" xmlns="http://www.w3.org/2000/svg">
<path d="M54.9533 35.6922V30.579H41.0559L54.1658 13.8916V8.73193H32.9028V13.8916H45.4104L32.2543 30.672V35.6922H54.9533Z" fill="#00555B"/>
<path d="M7.14642 26.8604C8.67513 27.6042 11.9178 28.3944 14.1877 28.3944C14.2804 28.6268 14.373 28.8127 14.4657 28.9987C14.8363 29.6029 15.2995 30.1607 15.9017 30.5326C16.4576 30.9045 17.1525 31.1834 17.94 31.3693C18.6812 31.5552 19.5614 31.6017 20.4415 31.6017C21.2291 31.6017 21.9703 31.5087 22.7578 31.3693C23.499 31.1834 24.2402 30.9974 24.8424 30.7185C25.3983 30.4861 25.9078 30.2072 26.3711 29.9748C26.8343 29.6959 27.2049 29.4635 27.5292 29.2776H28.2241V34.5302C27.6682 34.7626 27.1586 34.9485 26.6954 35.0879C26.2321 35.2274 25.6299 35.4598 24.8424 35.6458C24.1012 35.8317 23.36 35.9711 22.5725 36.0641C21.785 36.1571 20.8585 36.25 19.7467 36.25C15.6701 36.25 12.5664 35.3204 10.3428 33.5075C8.53615 31.9736 7.51701 29.9283 7.19274 27.4182C7.19274 27.1393 7.19274 26.9999 7.14642 26.8604ZM9.23102 13.5198C6.86847 15.1467 5.47874 17.006 5.66403 18.7259C6.03463 22.677 14.6047 25.2335 24.8887 24.3503C28.6873 24.025 32.208 23.2812 35.0801 22.3051C32.208 24.7687 26.8807 26.721 20.7195 27.2323C11.084 27.976 2.93089 25.0476 2.51397 20.6317C2.28234 17.9357 4.92284 15.3326 9.23102 13.5198ZM18.6349 14.6354C21.9239 14.6354 24.4255 15.4721 26.0931 17.1455C27.4829 18.54 28.3167 20.4922 28.5483 22.9559C27.1586 23.1883 23.7769 23.4672 21.9703 23.4672C22.1556 18.8189 19.1908 18.7259 18.1253 18.7259C15.5312 18.6794 14.0024 20.2598 13.8171 22.8164C12.937 22.8164 9.1847 21.3754 8.07291 20.4922C8.76778 19.0048 9.23102 18.447 10.1112 17.6103C12.1495 15.6115 15.0216 14.6354 18.6349 14.6354Z" fill="#00555B"/>
<path d="M84.8326 35.6922H76.3552L69.0359 25.7913H65.7932V35.6922H58.8909V8.77844H70.5183C72.0934 8.77844 73.4831 8.87141 74.5949 9.05734C75.753 9.24327 76.8185 9.61514 77.8376 10.2194C78.8567 10.8237 79.6443 11.6139 80.2465 12.5436C80.8487 13.4732 81.1266 14.7283 81.1266 16.1693C81.1266 18.168 80.6634 19.7949 79.7369 21.05C78.8104 22.305 77.5133 23.3741 75.7993 24.1644L84.8326 35.6922ZM74.039 17.006C74.039 16.3087 73.9 15.7509 73.6221 15.2861C73.3441 14.7748 72.8809 14.4029 72.186 14.124C71.7228 13.9381 71.1669 13.8451 70.5183 13.7521C69.9161 13.7057 69.1749 13.7057 68.3411 13.7057H65.8395V20.957H67.9705C69.0823 20.957 70.0088 20.9105 70.7499 20.7711C71.4911 20.6781 72.1397 20.3992 72.6029 20.0274C73.1125 19.6555 73.4368 19.2371 73.6684 18.7723C73.9463 18.4005 74.039 17.7962 74.039 17.006Z" fill="#BBCE31"/>
<path d="M107.624 35.6922H100.027L95.7187 29.6029L91.2715 35.6922H83.8596L91.8738 25.5124L84.0449 15.379H91.6421L95.904 21.3289L100.166 15.379H107.624L99.7489 25.4194L107.624 35.6922Z" fill="#BBCE31"/>
<path d="M113.183 10.6843H111.376V13.4268C111.376 14.1705 111.932 14.7748 112.674 14.8213C113.507 14.8678 114.202 14.217 114.202 13.3803V10.6843V9.70813C114.202 10.2659 113.739 10.6843 113.183 10.6843Z" fill="#729748"/>
<path d="M116.889 7.89539H114.202V9.70823V10.7309H116.889C117.677 10.7309 118.279 10.1266 118.279 9.33636C118.325 8.49967 117.677 7.89539 116.889 7.89539Z" fill="#729748"/>
<path d="M112.396 7.89534H114.202V5.15283C114.202 4.4091 113.646 3.80482 112.905 3.75834C112.071 3.66537 111.376 4.36262 111.376 5.19932V7.89534V8.91797C111.376 8.31369 111.84 7.89534 112.396 7.89534Z" fill="#00555B"/>
<path d="M112.396 7.89539C111.84 7.89539 111.376 8.36022 111.376 8.91801V10.7309H113.183C113.739 10.7309 114.202 10.266 114.202 9.70823V7.89539H112.396Z" fill="#092A2B"/>
<path d="M111.377 8.87153V7.89539H108.69C107.902 7.89539 107.3 8.49967 107.3 9.28988C107.3 10.0801 107.949 10.7309 108.736 10.7309H111.423V8.87153H111.377Z" fill="#00555B"/>
</svg>
