<svg width="160" height="160" viewBox="0 0 160 160" fill="none" xmlns="http://www.w3.org/2000/svg">
<path d="M34.9999 137.5C31.7999 137.5 28.6024 136.28 26.1599 133.838C21.2774 128.958 21.2774 121.042 26.1599 116.163L71.1599 71.1625C76.0424 66.28 83.9549 66.28 88.8374 71.1625C93.7199 76.0425 93.7199 83.9575 88.8374 88.8375L43.8374 133.838C41.3974 136.28 38.1999 137.5 34.9999 137.5Z" fill="#E7A546"/>
<path opacity="0.1" d="M80 160C106.234 160 127.5 156.642 127.5 152.5C127.5 148.358 106.234 145 80 145C53.7665 145 32.5 148.358 32.5 152.5C32.5 156.642 53.7665 160 80 160Z" fill="black"/>
<path d="M88.75 122.5C118.435 122.5 142.5 98.4353 142.5 68.75C142.5 39.0647 118.435 15 88.75 15C59.0647 15 35 39.0647 35 68.75C35 98.4353 59.0647 122.5 88.75 122.5Z" fill="#234455"/>
<path d="M88.75 105C108.77 105 125 88.7703 125 68.75C125 48.7297 108.77 32.5 88.75 32.5C68.7297 32.5 52.5 48.7297 52.5 68.75C52.5 88.7703 68.7297 105 88.75 105Z" fill="#A9C6EE"/>
<path d="M59.5625 54.7575C61.02 51.32 63.1275 48.22 65.73 45.6175C68.3325 43.015 71.4325 40.9075 74.87 39.45" stroke="white" stroke-width="5" stroke-miterlimit="10" stroke-linecap="round" stroke-linejoin="round"/>
<path opacity="0.15" d="M141.018 56.4C134.823 57.14 130 62.3525 130 68.75C130 91.495 111.495 110 88.7501 110C81.6476 110 74.6126 108.132 68.4026 104.597C63.5101 101.815 57.3601 102.64 53.3776 106.622L35.0001 125C31.7376 128.263 30.7076 132.87 31.8076 137.032C32.8551 137.31 33.9226 137.5 35.0001 137.5C38.2001 137.5 41.3976 136.28 43.8401 133.837L62.2201 115.457C70.0526 119.917 79.0926 122.5 88.7501 122.5C118.435 122.5 142.5 98.435 142.5 68.75C142.5 64.4925 141.953 60.37 141.018 56.4Z" fill="black"/>
<path opacity="0.3" d="M36.4475 81.105C42.66 80.3775 47.5 75.1575 47.5 68.75C47.5 46.005 66.005 27.5 88.75 27.5C95.145 27.5 100.36 22.68 101.1 16.4825C97.13 15.5475 93.0075 15 88.75 15C59.065 15 35 39.065 35 68.75C35 73.005 35.51 77.1375 36.4475 81.105Z" fill="white"/>
</svg>
