<svg width="30" height="30" viewBox="0 0 30 30" fill="none" xmlns="http://www.w3.org/2000/svg">
<circle cx="15" cy="15" r="15" fill="#2D5E64"/>
<path d="M15 23L14.6824 22.7306C7.85294 17.0741 6 15.0808 6 11.8485C6 9.15488 8.11765 7 10.7647 7C12.9353 7 14.1529 8.23906 15 9.20875C15.8471 8.23906 17.0647 7 19.2353 7C21.8824 7 24 9.15488 24 11.8485C24 15.0808 22.1471 17.0741 15.3176 22.7306L15 23ZM10.7647 8.07744C8.7 8.07744 7.05882 9.74747 7.05882 11.8485C7.05882 14.596 8.75294 16.4276 15 21.5993C21.2471 16.4276 22.9412 14.596 22.9412 11.8485C22.9412 9.74747 21.3 8.07744 19.2353 8.07744C17.3824 8.07744 16.3765 9.20875 15.5824 10.1246L15 10.8249L14.4176 10.1246C13.6235 9.20875 12.6176 8.07744 10.7647 8.07744Z" fill="white"/>
</svg>
