<?xml version="1.0" encoding="UTF-8"?>
<svg width="18px" height="15px" viewBox="0 0 18 15" version="1.1" xmlns="http://www.w3.org/2000/svg" xmlns:xlink="http://www.w3.org/1999/xlink">
    <!-- Generator: Sketch 63.1 (92452) - https://sketch.com -->
    <title>favourite_icon</title>
    <desc>Created with Sketch.</desc>
    <g id="Symbols" stroke="none" stroke-width="1" fill="none" fill-rule="evenodd">
        <g id="material_card_p1" transform="translate(-297.000000, -15.000000)" stroke="#BBD101">
            <g id="favourite_icon" transform="translate(297.000000, 15.000000)">
                <path d="M6.97873057,1.61154799 C6.23770921,0.870526636 5.2664402,0.5 4.2951712,0.5 C3.32390219,0.5 2.35263318,0.870526636 1.61157991,1.61157991 C0.870526636,2.35263318 0.5,3.32390219 0.5,4.2951712 C0.5,5.2664402 0.870526636,6.23770921 1.61157991,6.97876249 L6.47891325,11.8171889 L8.95484341,14.2926038 L14.6701206,8.56677289 L16.4063886,6.82316209 C17.0785995,6.07193093 17.3986487,5.11676898 17.3474187,4.15348669 C17.2968773,3.20315 16.8854855,2.2476073 16.1052805,1.46609405 C15.359583,0.797781583 14.4129911,0.476386161 13.4740009,0.501349973 C12.536857,0.5262647 11.6072012,0.896363936 10.8919852,1.61157991 L8.93491755,3.56808815 L6.97873057,1.61154799 Z" id="Combined-Shape"></path>
            </g>
        </g>
    </g>
</svg>