<?xml version="1.0" encoding="UTF-8"?>
<svg width="24px" height="20px" viewBox="0 0 24 20" version="1.1" xmlns="http://www.w3.org/2000/svg" xmlns:xlink="http://www.w3.org/1999/xlink">
    <!-- Generator: Sketch 63.1 (92452) - https://sketch.com -->
    <title>favourite_solid</title>
    <desc>Created with Sketch.</desc>
    <g id="Symbols" stroke="none" stroke-width="1" fill="none" fill-rule="evenodd">
        <g id="favourite_solid" transform="translate(0.100000, 0.000000)" fill="#BBD101">
            <path d="M11.8990525,4.50710678 L4.50710678,11.8990525 L11.8990525,19.2909982 L19.2909982,11.8990525 L11.8990525,4.50710678 Z" id="Rectangle" stroke="#BBD101" stroke-width="1"></path>
            <path d="M14.051658,1.67736869 L7.97736869,7.75165805 C5.7408771,9.98814963 5.7408771,13.6142189 7.97736869,15.8507105 C10.2138603,18.0872021 13.8399296,18.0872021 16.0764212,15.8507105 L22.1507105,9.77642117 C24.3872021,7.53992958 24.3872021,3.91386028 22.1507105,1.67736869 C19.9142189,-0.559122896 16.2881496,-0.559122896 14.051658,1.67736869 Z" id="Rectangle"></path>
            <path d="M9.77642117,1.67736869 L15.8507105,7.75165805 C18.0872021,9.98814963 18.0872021,13.6142189 15.8507105,15.8507105 C13.6142189,18.0872021 9.98814963,18.0872021 7.75165805,15.8507105 L1.67736869,9.77642117 C-0.559122896,7.53992958 -0.559122896,3.91386028 1.67736869,1.67736869 C3.91386028,-0.559122896 7.53992958,-0.559122896 9.77642117,1.67736869 Z" id="Rectangle"></path>
        </g>
    </g>
</svg>