<svg width="14" height="14" viewBox="0 0 14 14" fill="none" xmlns="http://www.w3.org/2000/svg">
<path d="M2.625 2.1875C2.625 1.60734 2.85547 1.05094 3.2657 0.640704C3.67594 0.230468 4.23234 0 4.8125 0C5.39266 0 5.94906 0.230468 6.3593 0.640704C6.76953 1.05094 7 1.60734 7 2.1875C7 1.60734 7.23047 1.05094 7.6407 0.640704C8.05094 0.230468 8.60734 0 9.1875 0C9.76766 0 10.3241 0.230468 10.7343 0.640704C11.1445 1.05094 11.375 1.60734 11.375 2.1875V2.19275C11.375 2.254 11.375 2.429 11.3418 2.625H13.125C13.3571 2.625 13.5796 2.71719 13.7437 2.88128C13.9078 3.04538 14 3.26794 14 3.5V5.25C14 5.48206 13.9078 5.70462 13.7437 5.86872C13.5796 6.03281 13.3571 6.125 13.125 6.125V12.6875C13.125 13.0356 12.9867 13.3694 12.7406 13.6156C12.4944 13.8617 12.1606 14 11.8125 14H2.1875C1.8394 14 1.50556 13.8617 1.25942 13.6156C1.01328 13.3694 0.875 13.0356 0.875 12.6875V6.125C0.642936 6.125 0.420376 6.03281 0.256282 5.86872C0.0921872 5.70462 0 5.48206 0 5.25V3.5C0 3.26794 0.0921872 3.04538 0.256282 2.88128C0.420376 2.71719 0.642936 2.625 0.875 2.625H2.65825C2.63514 2.4821 2.62402 2.33751 2.625 2.19275V2.1875ZM3.5595 2.625H6.125V2.1875C6.125 2.01514 6.09105 1.84447 6.02509 1.68523C5.95913 1.52599 5.86245 1.3813 5.74058 1.25942C5.6187 1.13755 5.47401 1.04087 5.31477 0.974908C5.15553 0.908949 4.98486 0.875 4.8125 0.875C4.64014 0.875 4.46947 0.908949 4.31023 0.974908C4.15099 1.04087 4.0063 1.13755 3.88442 1.25942C3.76255 1.3813 3.66587 1.52599 3.59991 1.68523C3.53395 1.84447 3.5 2.01514 3.5 2.1875C3.5 2.26187 3.50175 2.42725 3.53938 2.56375C3.54463 2.58462 3.55136 2.60508 3.5595 2.625ZM7.875 2.625H10.4405C10.4485 2.60505 10.4553 2.58459 10.4606 2.56375C10.4983 2.42725 10.5 2.26187 10.5 2.1875C10.5 1.8394 10.3617 1.50556 10.1156 1.25942C9.86944 1.01328 9.5356 0.875 9.1875 0.875C8.8394 0.875 8.50556 1.01328 8.25942 1.25942C8.01328 1.50556 7.875 1.8394 7.875 2.1875V2.625ZM0.875 3.5V5.25H6.125V3.5H0.875ZM7.875 3.5V5.25H13.125V3.5H7.875ZM12.25 6.125H7.875V13.125H11.8125C11.9285 13.125 12.0398 13.0789 12.1219 12.9969C12.2039 12.9148 12.25 12.8035 12.25 12.6875V6.125ZM6.125 13.125V6.125H1.75V12.6875C1.75 12.8035 1.79609 12.9148 1.87814 12.9969C1.96019 13.0789 2.07147 13.125 2.1875 13.125H6.125Z" fill="#00555B"/>
</svg>
