<svg width="105" height="71" viewBox="0 0 105 71" fill="none" xmlns="http://www.w3.org/2000/svg">
<path d="M18.9062 39.0152C17.6458 39.0152 16.3762 38.8716 15.0975 38.5844C13.8172 38.2987 12.5087 37.8885 11.1719 37.3538C11.6302 32.7322 12.967 28.4163 15.1823 24.4058C17.3976 20.3954 20.2431 16.8624 23.7188 13.8069C19.5174 15.9458 15.8797 18.7722 12.8058 22.286C9.73042 25.7999 7.5816 29.8104 6.35938 34.3173C6.2066 34.2027 6.06375 34.079 5.93083 33.946L5.5 33.5152C3.70486 31.7201 2.33979 29.7149 1.40479 27.4996C0.468264 25.2843 0 22.9735 0 20.5673C0 17.9701 0.515625 15.4874 1.54687 13.1194C2.57812 10.7513 4.01042 8.65063 5.84375 6.8173C8.9375 3.72355 12.9479 1.70841 17.875 0.771879C22.8021 -0.163121 29.7153 -0.248676 38.6146 0.515213C39.3021 9.64368 39.1875 16.6042 38.2708 21.3969C37.3542 26.191 35.3681 30.1159 32.3125 33.1715C30.441 35.043 28.3502 36.4844 26.0402 37.4958C23.7287 38.5088 21.3507 39.0152 18.9062 39.0152Z" fill="#2D5E64"/>
<path d="M39.7938 70.3548C36.7584 70.3548 34.1906 69.3059 32.0903 67.2083C29.9927 65.108 28.9438 62.5402 28.9438 59.5048H22.3563V19.011C22.3563 17.0735 23.0344 15.4266 24.3907 14.0704C25.7469 12.7141 27.3938 12.036 29.3313 12.036H82.1282V26.761H92.3969L104.894 43.5204V59.5048H97.9188C97.9188 62.5402 96.8532 65.108 94.7219 67.2083C92.5907 69.3059 90.0074 70.3548 86.9719 70.3548C84.0011 70.3548 81.4501 69.3059 79.3188 67.2083C77.1876 65.108 76.1219 62.5402 76.1219 59.5048H50.6438C50.6438 62.5402 49.595 65.108 47.4973 67.2083C45.3971 69.3059 42.8292 70.3548 39.7938 70.3548ZM39.7938 64.5423C41.2147 64.5423 42.4095 64.0579 43.3782 63.0891C44.347 62.1204 44.8313 60.9256 44.8313 59.5048C44.8313 58.0839 44.347 56.8891 43.3782 55.9204C42.4095 54.9516 41.2147 54.4673 39.7938 54.4673C38.373 54.4673 37.1782 54.9516 36.2094 55.9204C35.2407 56.8891 34.7563 58.0839 34.7563 59.5048C34.7563 60.9256 35.2407 62.1204 36.2094 63.0891C37.1782 64.0579 38.373 64.5423 39.7938 64.5423ZM28.1688 53.6923H30.9782C31.8178 52.2714 33.0126 51.0766 34.5626 50.1079C36.1126 49.1391 37.8563 48.6548 39.7938 48.6548C41.6667 48.6548 43.395 49.1223 44.9786 50.0575C46.5596 50.9953 47.7699 52.2068 48.6094 53.6923H76.3157V17.8485H29.3313C29.073 17.8485 28.8147 17.9777 28.5563 18.236C28.298 18.4943 28.1688 18.7527 28.1688 19.011V53.6923ZM87.0688 64.5423C88.4897 64.5423 89.6844 64.0579 90.6532 63.0891C91.6219 62.1204 92.1063 60.9256 92.1063 59.5048C92.1063 58.0839 91.6219 56.8891 90.6532 55.9204C89.6844 54.9516 88.4897 54.4673 87.0688 54.4673C85.648 54.4673 84.4377 54.9516 83.438 55.9204C82.4356 56.8891 81.9344 58.0839 81.9344 59.5048C81.9344 60.9256 82.4356 62.1204 83.438 63.0891C84.4377 64.0579 85.648 64.5423 87.0688 64.5423ZM82.1282 45.9423H99.4688L89.3938 32.5735H82.1282V45.9423Z" fill="#2D5E64"/>
</svg>
