<?xml version="1.0" encoding="UTF-8"?>
<svg width="15px" height="15px" viewBox="0 0 15 15" version="1.1" xmlns="http://www.w3.org/2000/svg" xmlns:xlink="http://www.w3.org/1999/xlink">
    <!-- Generator: Sketch 63.1 (92452) - https://sketch.com -->
    <title>Shape</title>
    <desc>Created with Sketch.</desc>
    <g id="Symbols" stroke="none" stroke-width="1" fill="none" fill-rule="evenodd">
        <g id="search" fill="#9A9A9A" fill-rule="nonzero">
            <path d="M14.6116458,12.8563241 L11.0325648,9.27350042 C10.9908605,9.23179617 10.9448789,9.20025063 10.9010359,9.16603174 C11.5269763,8.20654355 11.8597398,7.08544092 11.8586299,5.93983291 C11.8586299,2.66658311 9.20773601,0.0140852193 5.93609022,0.0140852193 C2.66658313,0.0140852193 0.0140852193,2.66658313 0.0140852193,5.93983291 C0.0140852193,9.21361737 2.66658313,11.8655806 5.93609022,11.8655806 C7.12626566,11.8655806 8.23303257,11.5116291 9.16228905,10.9063826 C9.19650792,10.9512949 9.22751879,10.9962072 9.26815371,11.0373768 L12.8483041,14.6202005 C13.0816231,14.8547349 13.3987731,14.9867425 13.7295965,14.9867425 C14.06042,14.9867425 14.3776499,14.855128 14.6111111,14.6207352 C15.0976608,14.1331161 15.0976608,13.3434085 14.6116458,12.8563241 M5.93609022,9.99423558 C3.7027736,9.99423558 1.88436091,8.17528822 1.88436091,5.93983291 C1.88436091,3.70491228 3.70277361,1.88543025 5.93609022,1.88543025 C8.16994152,1.88543025 9.98835423,3.70491228 9.98835423,5.93983291 C9.98835423,8.17528822 8.16994152,9.99423558 5.93609022,9.99423558" id="Shape"></path>
        </g>
    </g>
</svg>