<svg width="120" height="120" viewBox="0 0 120 120" fill="none" xmlns="http://www.w3.org/2000/svg">
<path d="M71.5406 33.75H48.4594C37.95 33.75 29.1206 41.6512 27.96 52.0969L24.375 84.375H95.625L92.0381 52.0969C90.8775 41.6512 82.05 33.75 71.5406 33.75Z" fill="#EE4242"/>
<path opacity="0.3" d="M26.97 61.0219C27.555 61.2094 28.1662 61.3444 28.8018 61.4138C29.1543 61.4531 29.5031 61.47 29.85 61.47C34.5637 61.47 38.6231 57.9244 39.1556 53.1319C39.7875 47.4281 44.595 43.125 50.3362 43.125H65.9156C70.9762 43.125 75.0731 39.1069 75.2569 34.0912C74.0475 33.87 72.8062 33.75 71.5406 33.75H48.4593C37.95 33.75 29.1206 41.6512 27.96 52.0969L26.97 61.0219Z" fill="white"/>
<path opacity="0.1" d="M60 120C79.6751 120 95.625 117.482 95.625 114.375C95.625 111.268 79.6751 108.75 60 108.75C40.3249 108.75 24.375 111.268 24.375 114.375C24.375 117.482 40.3249 120 60 120Z" fill="#131313"/>
<path d="M101.25 97.5H18.75C14.6081 97.5 11.25 94.1419 11.25 90V86.25C11.25 82.1081 14.6081 78.75 18.75 78.75H101.25C105.392 78.75 108.75 82.1081 108.75 86.25V90C108.75 94.1419 105.392 97.5 101.25 97.5Z" fill="#4F6977"/>
<path opacity="0.15" d="M108.75 89.9999V86.2499C108.75 82.123 105.416 78.7799 101.295 78.7537C99.0037 80.4637 97.5 83.1712 97.5 86.2499V88.1249H58.125C52.9481 88.1249 48.75 92.3212 48.75 97.4999H101.25C105.392 97.4999 108.75 94.1418 108.75 89.9999Z" fill="#131313"/>
<path d="M30 31.875C29.04 31.875 28.08 31.5094 27.3488 30.7763L16.0988 19.5263C14.6344 18.0619 14.6344 15.6881 16.0988 14.2238C17.5613 12.7594 19.9388 12.7594 21.4013 14.2238L32.6513 25.4738C34.1156 26.9381 34.1156 29.3119 32.6513 30.7763C31.92 31.5094 30.96 31.875 30 31.875Z" fill="#EE4242"/>
<path d="M90 31.875C89.04 31.875 88.08 31.5094 87.3488 30.7763C85.8844 29.3119 85.8844 26.9381 87.3488 25.4738L98.5988 14.2238C100.061 12.7594 102.439 12.7594 103.901 14.2238C105.366 15.6881 105.366 18.0619 103.901 19.5263L92.6513 30.7763C91.92 31.5094 90.96 31.875 90 31.875Z" fill="#EE4242"/>
<path d="M60 26.25C57.93 26.25 56.25 24.57 56.25 22.5V7.5C56.25 5.43 57.93 3.75 60 3.75C62.07 3.75 63.75 5.43 63.75 7.5V22.5C63.75 24.57 62.07 26.25 60 26.25Z" fill="#EE4242"/>
<path d="M38.8913 50.0531C38.3644 50.0531 37.83 49.905 37.3557 49.5956C36.0563 48.7444 35.6907 47.0025 36.54 45.7031C39.8963 40.5675 45.5625 37.5 51.6957 37.5C53.25 37.5 54.5082 38.76 54.5082 40.3125C54.5082 41.865 53.25 43.125 51.6957 43.125C47.4675 43.125 43.5619 45.24 41.2463 48.78C40.7082 49.605 39.8082 50.0531 38.8913 50.0531Z" fill="white"/>
</svg>
