<?xml version="1.0" encoding="UTF-8"?>
<svg width="20px" height="15px" viewBox="0 0 20 15" version="1.1" xmlns="http://www.w3.org/2000/svg" xmlns:xlink="http://www.w3.org/1999/xlink">
    <!-- Generator: Sketch 63.1 (92452) - https://sketch.com -->
    <title>icon_left</title>
    <desc>Created with Sketch.</desc>
    <g id="Symbols" stroke="none" stroke-width="1" fill="none" fill-rule="evenodd">
        <g id="header_back" transform="translate(-23.000000, -64.000000)">
            <g id="ctrl_bar" transform="translate(20.000000, 54.000000)">
                <g id="expand_icon" transform="translate(0.000000, 5.000000)">
                    <g id="icon_left">
                        <rect x="0" y="0" width="25" height="25"></rect>
                    </g>
                    <g id="menu_hamburger" transform="translate(3.000000, 5.000000)" fill="#595959">
                        <path d="M19.5056152,14 C19.7483185,14 19.9501743,14.1832562 19.9920348,14.4122514 L20,14.5 C20,14.7761424 19.7753906,15 19.5056152,15 L0.494384766,15 C0.221343599,15 -1.95399252e-14,14.7680664 -1.95399252e-14,14.5 C-1.95399252e-14,14.2238576 0.224609375,14 0.494384766,14 L19.5056152,14 Z M19.5056152,7 C19.7483185,7 19.9501743,7.18325617 19.9920348,7.41225137 L20,7.5 C20,7.77614237 19.7753906,8 19.5056152,8 L0.494384766,8 C0.221343599,8 -1.95399252e-14,7.76806641 -1.95399252e-14,7.5 C-1.95399252e-14,7.22385763 0.224609375,7 0.494384766,7 L19.5056152,7 Z M19.5056152,0 C19.7483185,0 19.9501743,0.183256173 19.9920348,0.412251372 L20,0.5 C20,0.776142375 19.7753906,1 19.5056152,1 L0.494384766,1 C0.221343599,1 -1.95399252e-14,0.768066406 -1.95399252e-14,0.5 C-1.95399252e-14,0.223857625 0.224609375,0 0.494384766,0 L19.5056152,0 Z"></path>
                    </g>
                </g>
            </g>
        </g>
    </g>
</svg>