<svg width="240" height="240" viewBox="0 0 240 240" fill="none" xmlns="http://www.w3.org/2000/svg">
<path opacity="0.15" d="M137.284 240C178.187 240 211.346 234.963 211.346 228.75C211.346 222.537 178.187 217.5 137.284 217.5C96.3801 217.5 63.2212 222.537 63.2212 228.75C63.2212 234.963 96.3801 240 137.284 240Z" fill="#131313"/>
<path d="M102.596 202.5C111.916 202.5 119.471 194.945 119.471 185.625C119.471 176.305 111.916 168.75 102.596 168.75C93.2764 168.75 85.7212 176.305 85.7212 185.625C85.7212 194.945 93.2764 202.5 102.596 202.5Z" fill="#234455"/>
<path d="M173.846 202.5C183.166 202.5 190.721 194.945 190.721 185.625C190.721 176.305 183.166 168.75 173.846 168.75C164.526 168.75 156.971 176.305 156.971 185.625C156.971 194.945 164.526 202.5 173.846 202.5Z" fill="#234455"/>
<path d="M206.785 63.7502H77.635L74.14 49.7702C73.1313 45.739 69.985 42.5927 65.9538 41.584L35.9538 34.084C29.9313 32.5727 23.815 36.244 22.3113 42.2702C20.8038 48.2965 24.4713 54.4052 30.4975 55.9127L53.95 61.774L78.5613 160.226C79.8138 165.236 84.3138 168.75 89.4738 168.75H186.974C192.464 168.75 197.02 164.813 198.01 159.615L217.724 77.6327C219.426 70.5565 214.064 63.7502 206.785 63.7502Z" fill="#C9D85A"/>
<path opacity="0.15" d="M198.011 159.615L217.207 79.7775C207.127 77.3475 197.014 83.5575 194.595 93.6225L182.419 144.255C181.609 147.622 178.594 150 175.125 150H145.721C135.367 150 126.971 158.396 126.971 168.75H186.971C192.461 168.75 197.017 164.812 198.011 159.615Z" fill="#131313"/>
<path opacity="0.3" d="M130.723 63.7504H77.6341L74.1391 49.7741C73.1303 45.7429 69.9841 42.5966 65.9528 41.5879L35.9528 34.0879C29.2253 32.3966 22.3778 37.1779 21.9766 44.4904C21.6803 49.9241 25.6328 54.7054 30.9128 56.0254L53.9453 61.7816L74.9941 145.984C85.0403 143.472 91.1491 133.294 88.6366 123.248L80.7803 91.8229C79.6028 87.0866 83.1803 82.5004 88.0591 82.5004H111.973C122.33 82.5004 130.723 74.1041 130.723 63.7504Z" fill="white"/>
<path d="M72.3691 80.625L77.7804 102.874" stroke="white" stroke-width="3" stroke-miterlimit="10" stroke-linecap="round" stroke-linejoin="round"/>
<path d="M105.047 63.2512H142.509C150.793 63.2512 157.509 69.9675 157.509 78.2512V99.375" stroke="#E7A546" stroke-width="13" stroke-miterlimit="10" stroke-linecap="round" stroke-linejoin="round"/>
<path d="M131.253 43.5075L131.272 82.1175C131.275 87.885 124.844 91.1325 120.427 87.5962L96.3478 68.3025C92.8866 65.5275 92.8828 60.135 96.3441 57.36L120.404 38.04C124.814 34.5 131.249 37.74 131.253 43.5075Z" fill="#E7A546"/>
</svg>
