<svg width="240" height="240" viewBox="0 0 240 240" fill="none" xmlns="http://www.w3.org/2000/svg">
<path opacity="0.15" d="M123.75 240C163.1 240 195 234.963 195 228.75C195 222.537 163.1 217.5 123.75 217.5C84.3997 217.5 52.5 222.537 52.5 228.75C52.5 234.963 84.3997 240 123.75 240Z" fill="#131313"/>
<path d="M191.25 82.5V60C191.25 51.7162 184.534 45 176.25 45H63.75C51.3225 45 41.25 55.0725 41.25 67.5V176.25C41.25 184.534 47.9662 191.25 56.25 191.25H191.25C199.534 191.25 206.25 184.534 206.25 176.25V97.5C206.25 89.2163 199.534 82.5 191.25 82.5Z" fill="#C9D85A"/>
<path opacity="0.3" d="M183.96 63.75H69.1162C64.08 63.75 60 67.9462 60 73.125C60 78.3038 64.08 82.5 69.1162 82.5H191.25V71.25C191.25 67.1062 187.984 63.75 183.96 63.75Z" fill="#131313"/>
<path d="M206.25 116.25H153.75C149.606 116.25 146.25 119.606 146.25 123.75V142.5C146.25 146.644 149.606 150 153.75 150H206.25C210.394 150 213.75 146.644 213.75 142.5V123.75C213.75 119.606 210.394 116.25 206.25 116.25Z" fill="#E7A546"/>
<path d="M166.875 142.5C172.053 142.5 176.25 138.303 176.25 133.125C176.25 127.947 172.053 123.75 166.875 123.75C161.697 123.75 157.5 127.947 157.5 133.125C157.5 138.303 161.697 142.5 166.875 142.5Z" fill="#234455"/>
<path opacity="0.15" d="M206.25 116.25V97.5C206.25 96.225 206.1 94.9875 205.762 93.7875C195.637 94.0125 187.5 102.3 187.5 112.5V168.75C187.5 170.82 185.82 172.5 183.75 172.5H150C139.65 172.5 131.25 180.9 131.25 191.25H191.25C199.534 191.25 206.25 184.534 206.25 176.25V150C210.375 150 213.75 146.625 213.75 142.5V123.75C213.75 119.625 210.375 116.25 206.25 116.25Z" fill="#131313"/>
<path opacity="0.3" d="M108.75 45C108.75 55.35 100.35 63.75 90 63.75H69.4462C64.2525 63.75 60 68.0025 60 73.1962V93.75C60 104.1 51.6 112.5 41.25 112.5V67.5C41.25 55.0725 51.3225 45 63.75 45H108.75Z" fill="white"/>
<path d="M54.375 82.5C51.27 82.5 48.75 79.9837 48.75 76.875V73.6987C48.75 62.01 58.26 52.5 69.9487 52.5H73.125C76.23 52.5 78.75 55.0163 78.75 58.125C78.75 61.2338 76.23 63.75 73.125 63.75H69.9487C64.4625 63.75 60 68.2125 60 73.6987V76.875C60 79.9837 57.48 82.5 54.375 82.5Z" fill="white"/>
</svg>
