<svg width="240" height="240" viewBox="0 0 240 240" fill="none" xmlns="http://www.w3.org/2000/svg">
<path d="M170.625 202.5H60V45C60 36.7162 66.7162 30 75 30H180C188.284 30 195 36.7162 195 45V178.125C195 191.587 184.088 202.5 170.625 202.5Z" fill="#C9D85A"/>
<path opacity="0.15" d="M120 240C161.68 240 195.469 234.963 195.469 228.75C195.469 222.537 161.68 217.5 120 217.5C78.3198 217.5 44.5312 222.537 44.5312 228.75C44.5312 234.963 78.3198 240 120 240Z" fill="#131313"/>
<path d="M153.75 182.108V168.75C153.75 162.536 148.714 157.5 142.5 157.5H48.75C42.5363 157.5 37.5 162.536 37.5 168.75V181.875C37.5 193.268 46.7325 202.5 58.125 202.5H174.795V178.312L153.75 182.108Z" fill="#234455"/>
<path d="M174.375 202.5C185.766 202.5 195 193.266 195 181.875C195 170.484 185.766 161.25 174.375 161.25C162.984 161.25 153.75 170.484 153.75 181.875C153.75 193.266 162.984 202.5 174.375 202.5Z" fill="#859223"/>
<path opacity="0.15" d="M176.25 101.25V165C176.25 175.324 184.597 183.69 194.906 183.739C194.962 183.124 195 182.505 195 181.875C195 181.241 194.962 180.619 194.906 180C194.951 179.378 195 178.759 195 178.125V82.5C184.646 82.5 176.25 90.8963 176.25 101.25Z" fill="#131313"/>
<path opacity="0.3" d="M60 45V120C70.3537 120 78.75 111.604 78.75 101.25V48.75H97.5C107.854 48.75 116.25 40.3537 116.25 30H75C66.7162 30 60 36.7162 60 45Z" fill="white"/>
<path d="M168.75 67.5H116.25C112.106 67.5 108.75 64.1438 108.75 60C108.75 55.8562 112.106 52.5 116.25 52.5H168.75C172.894 52.5 176.25 55.8562 176.25 60C176.25 64.1438 172.894 67.5 168.75 67.5Z" fill="#234455"/>
<path d="M168.75 101.25H116.25C112.106 101.25 108.75 97.8938 108.75 93.75C108.75 89.6062 112.106 86.25 116.25 86.25H168.75C172.894 86.25 176.25 89.6062 176.25 93.75C176.25 97.8938 172.894 101.25 168.75 101.25Z" fill="#234455"/>
<path d="M168.75 135H116.25C112.106 135 108.75 131.644 108.75 127.5C108.75 123.356 112.106 120 116.25 120H168.75C172.894 120 176.25 123.356 176.25 127.5C176.25 131.644 172.894 135 168.75 135Z" fill="#234455"/>
<path d="M86.25 67.5C90.3921 67.5 93.75 64.1421 93.75 60C93.75 55.8579 90.3921 52.5 86.25 52.5C82.1079 52.5 78.75 55.8579 78.75 60C78.75 64.1421 82.1079 67.5 86.25 67.5Z" fill="#E7A546"/>
<path d="M86.25 101.25C90.3921 101.25 93.75 97.8921 93.75 93.75C93.75 89.6079 90.3921 86.25 86.25 86.25C82.1079 86.25 78.75 89.6079 78.75 93.75C78.75 97.8921 82.1079 101.25 86.25 101.25Z" fill="#E7A546"/>
<path d="M86.25 135C90.3921 135 93.75 131.642 93.75 127.5C93.75 123.358 90.3921 120 86.25 120C82.1079 120 78.75 123.358 78.75 127.5C78.75 131.642 82.1079 135 86.25 135Z" fill="#E7A546"/>
<path d="M73.125 58.125V50.625C73.125 46.4812 76.4812 43.125 80.625 43.125H84.375" stroke="white" stroke-width="12" stroke-miterlimit="10" stroke-linecap="round" stroke-linejoin="round"/>
</svg>
