<svg width="40" height="40" viewBox="0 0 40 40" fill="none" xmlns="http://www.w3.org/2000/svg">
<path opacity="0.15" d="M21.875 40C29.8141 40 36.25 39.1605 36.25 38.125C36.25 37.0895 29.8141 36.25 21.875 36.25C13.9359 36.25 7.5 37.0895 7.5 38.125C7.5 39.1605 13.9359 40 21.875 40Z" fill="black"/>
<path d="M11.1681 18.7776C12.4312 18.3563 13.8031 18.3969 15.0394 18.8926L22.6463 21.9413C24.7225 22.8851 25.6 25.3638 24.58 27.4038L24.1481 28.2676L30.1131 25.4176C31.5375 24.7526 33.2337 25.3026 33.9975 26.6769C34.8256 28.1676 34.2437 30.0469 32.7188 30.8094L26.0975 34.1201C25.5037 34.4169 24.8156 34.4613 24.1887 34.2432L12.2006 30.0732C12.0369 30.0163 11.8588 30.0176 11.6963 30.0769L8.9125 31.0894C7.31438 31.6707 5.625 30.4876 5.625 28.7869V21.9763C5.625 21.1694 6.14125 20.4526 6.90687 20.1976L11.1681 18.7776Z" fill="#E7A546"/>
<path opacity="0.3" d="M14.2769 18.6538C13.2538 18.4044 12.1769 18.4413 11.1681 18.7776L6.90687 20.1976C6.14125 20.4526 5.625 21.1694 5.625 21.9763V28.7869C5.625 28.9888 5.65063 29.1826 5.695 29.3682C7.3875 29.3301 8.75 27.9519 8.75 26.2501V22.8776L12.1563 21.7426C13.5069 21.2919 14.3306 20.0082 14.2769 18.6538Z" fill="white"/>
<path opacity="0.15" d="M31.3214 28.0151L24.9521 31.2001L18.7564 29.0451C17.1252 28.4776 15.3446 29.3401 14.7783 30.9701L24.1896 34.2432C24.8164 34.4614 25.5046 34.417 26.0983 34.1201L32.7196 30.8095C33.7614 30.2882 34.3483 29.2445 34.3608 28.1607C33.4696 27.6101 32.3277 27.5114 31.3214 28.0151Z" fill="black"/>
<path d="M7.8125 25.625C7.295 25.625 6.875 25.205 6.875 24.6875V22.2013C6.875 21.7975 7.13312 21.4394 7.51562 21.3119L9.49812 20.6506C9.99 20.4856 10.5206 20.7525 10.6837 21.2431C10.8475 21.7344 10.5825 22.2656 10.0912 22.4288L8.75 22.8775V24.6875C8.75 25.205 8.33 25.625 7.8125 25.625Z" fill="white"/>
<path d="M28.2502 6.875H20.5002C20.1027 6.875 19.7214 7.03312 19.4408 7.31375L17.1927 9.56187C16.6077 10.1469 16.6077 11.0963 17.1927 11.6813L23.1052 17.5937C23.8064 18.295 24.9439 18.295 25.6458 17.5937L31.5583 11.6813C32.1433 11.0963 32.1433 10.1469 31.5583 9.56187L29.3102 7.31375C29.0289 7.03312 28.6477 6.875 28.2502 6.875Z" fill="#33777C"/>
<path opacity="0.19" d="M16.7539 10.6213C16.7539 11.0051 16.9002 11.3882 17.1927 11.6807L23.1145 17.6026C23.8108 18.2988 24.9395 18.2988 25.6358 17.6026L31.5577 11.6807C31.8502 11.3882 31.9964 11.0045 31.9964 10.6213H16.7539Z" fill="black"/>
<path d="M20.6289 10.6213L23.8895 17.7938C24.0795 18.2107 24.672 18.2107 24.862 17.7938L28.1227 10.6213H20.6289Z" fill="#33777C"/>
<path opacity="0.19" d="M20.6287 10.6212H28.1212L28.8455 7.00063C28.6587 6.92 28.4568 6.875 28.2499 6.875H20.4999C20.2924 6.875 20.0905 6.92 19.9043 7.00063L20.6287 10.6212Z" fill="black"/>
<path d="M20.6289 10.6212L24.3752 6.875L28.1214 10.6212H20.6289Z" fill="#B0CACC"/>
</svg>
