<svg width="40" height="40" viewBox="0 0 40 40" fill="none" xmlns="http://www.w3.org/2000/svg">
<path opacity="0.15" d="M20.625 40C27.1834 40 32.5 39.1605 32.5 38.125C32.5 37.0895 27.1834 36.25 20.625 36.25C14.0666 36.25 8.75 37.0895 8.75 38.125C8.75 39.1605 14.0666 40 20.625 40Z" fill="#131313"/>
<path d="M31.875 13.75V10C31.875 8.61937 30.7556 7.5 29.375 7.5H10.625C8.55375 7.5 6.875 9.17875 6.875 11.25V29.375C6.875 30.7556 7.99437 31.875 9.375 31.875H31.875C33.2556 31.875 34.375 30.7556 34.375 29.375V16.25C34.375 14.8694 33.2556 13.75 31.875 13.75Z" fill="#E7A546"/>
<path opacity="0.3" d="M30.66 10.625H11.5194C10.68 10.625 10 11.3244 10 12.1875C10 13.0506 10.68 13.75 11.5194 13.75H31.875V11.875C31.875 11.1844 31.3306 10.625 30.66 10.625Z" fill="#131313"/>
<path d="M34.375 19.375H25.625C24.9344 19.375 24.375 19.9344 24.375 20.625V23.75C24.375 24.4406 24.9344 25 25.625 25H34.375C35.0656 25 35.625 24.4406 35.625 23.75V20.625C35.625 19.9344 35.0656 19.375 34.375 19.375Z" fill="#548D91"/>
<path d="M27.8125 23.75C28.6754 23.75 29.375 23.0504 29.375 22.1875C29.375 21.3246 28.6754 20.625 27.8125 20.625C26.9496 20.625 26.25 21.3246 26.25 22.1875C26.25 23.0504 26.9496 23.75 27.8125 23.75Z" fill="#094E47"/>
<path opacity="0.15" d="M34.375 19.3766V16.2516C34.375 16.0391 34.35 15.8328 34.2937 15.6328C32.6062 15.6703 31.25 17.0516 31.25 18.7516V28.1266C31.25 28.4716 30.97 28.7516 30.625 28.7516H25C23.275 28.7516 21.875 30.1516 21.875 31.8766H31.875C33.2556 31.8766 34.375 30.7572 34.375 29.3766V25.0016C35.0625 25.0016 35.625 24.4391 35.625 23.7516V20.6266C35.625 19.9391 35.0625 19.3766 34.375 19.3766Z" fill="#131313"/>
<path opacity="0.3" d="M18.125 7.5C18.125 9.225 16.725 10.625 15 10.625H11.5744C10.7087 10.625 10 11.3337 10 12.1994V15.625C10 17.35 8.6 18.75 6.875 18.75V11.25C6.875 9.17875 8.55375 7.5 10.625 7.5H18.125Z" fill="white"/>
<path d="M9.0625 13.75C8.545 13.75 8.125 13.3306 8.125 12.8125V12.2831C8.125 10.335 9.71 8.75 11.6581 8.75H12.1875C12.705 8.75 13.125 9.16938 13.125 9.6875C13.125 10.2056 12.705 10.625 12.1875 10.625H11.6581C10.7437 10.625 10 11.3687 10 12.2831V12.8125C10 13.3306 9.58 13.75 9.0625 13.75Z" fill="white"/>
</svg>
