<svg width="24" height="24" viewBox="0 0 24 24" fill="none" xmlns="http://www.w3.org/2000/svg">
<circle cx="12" cy="12" r="11.5" fill="white" stroke="#F8E3C6"/>
<path d="M11.9775 14.8347C12.7807 14.8347 13.1823 14.3184 15.2476 12.4252L15.305 17.7607C15.305 18.5065 15.9648 19.1375 16.7393 19.1375C17.4277 19.1375 18.1735 18.5925 18.1735 17.7607V10.7041C18.1735 10.7041 17.2269 10.9336 16.4524 10.0156C14.9608 11.4786 13.5839 10.1304 13.5839 10.1304L12.0062 11.536L10.5146 10.2451C9.56795 10.9049 8.62134 10.9049 7.73209 10.1304C7.15839 10.618 6.66025 10.7818 5.83887 10.7041V17.7607C5.83887 18.5065 6.49863 19.1375 7.27313 19.1375C7.96158 19.1375 8.70739 18.5925 8.70739 17.7607V12.4252C10.7727 14.3184 11.1743 14.8347 11.9775 14.8347Z" fill="#9EB515"/>
<path d="M4.7998 8.63597L6.7504 6.51562H17.4213L19.1998 8.66463C18.8269 11.1287 16.3313 9.75342 16.4173 8.63597C16.2739 10.4984 13.7783 10.699 13.5201 8.63597C13.5201 10.4984 10.6229 10.6703 10.6229 8.63597C10.6229 10.5557 7.69702 10.613 7.69702 8.63597C7.69702 10.5557 4.7998 10.699 4.7998 8.63597Z" fill="#E66B14"/>
<path d="M6.74902 5.24803C6.74902 4.99455 6.95451 4.78906 7.20799 4.78906H16.961C17.2145 4.78906 17.4199 4.99455 17.4199 5.24803V5.8791H6.74902V5.24803Z" fill="#9EB515"/>
</svg>
