<svg width="64" height="28" viewBox="0 0 64 28" fill="none" xmlns="http://www.w3.org/2000/svg">
<rect x="0.5" y="0.5" width="63" height="27" rx="13.5" stroke="#F4D6AA"/>
<path d="M54.2207 18.204C54.4198 18.204 54.6236 18.185 54.8322 18.147C55.0408 18.109 55.221 18.0663 55.3727 18.0188V19.1587C55.2115 19.2347 54.9934 19.2964 54.7184 19.3439C54.4435 19.4009 54.1685 19.4294 53.8936 19.4294C53.4764 19.4294 53.0924 19.3581 52.7416 19.2157C52.4002 19.0732 52.1253 18.8262 51.9167 18.4747C51.7081 18.1233 51.6038 17.6341 51.6038 17.0071V12.761H50.5371V12.0771L51.6607 11.5072L52.1869 9.88281H53.1113V11.6069H55.3016V12.761H53.1113V16.9786C53.1113 17.3966 53.2109 17.7053 53.41 17.9048C53.6186 18.1043 53.8888 18.204 54.2207 18.204Z" fill="#E66B14"/>
<path d="M46.3388 11.4688C47.012 11.4688 47.5904 11.6112 48.0739 11.8962C48.5575 12.1717 48.9273 12.5706 49.1833 13.0931C49.4487 13.6155 49.5815 14.233 49.5815 14.9454V15.7718H44.433C44.452 16.5603 44.6558 17.1634 45.0446 17.5814C45.4428 17.9994 45.9975 18.2083 46.7086 18.2083C47.2016 18.2083 47.6378 18.1656 48.017 18.0801C48.4058 17.9851 48.804 17.8474 49.2117 17.6669V18.9208C48.8324 19.0918 48.4437 19.22 48.0455 19.3055C47.6567 19.391 47.1921 19.4337 46.6517 19.4337C45.9121 19.4337 45.2579 19.2865 44.689 18.992C44.1201 18.6975 43.6745 18.2606 43.3521 17.6811C43.0393 17.0922 42.8828 16.3703 42.8828 15.5154C42.8828 14.6509 43.025 13.9195 43.3095 13.3211C43.6034 12.7226 44.0064 12.2667 44.5184 11.9532C45.0398 11.6302 45.6467 11.4688 46.3388 11.4688ZM46.3388 12.6371C45.7984 12.6371 45.3622 12.8129 45.0304 13.1643C44.708 13.5158 44.5184 14.0145 44.4615 14.6604H48.0739C48.0739 14.2615 48.0123 13.91 47.889 13.606C47.7658 13.3021 47.5761 13.0646 47.3201 12.8936C47.0641 12.7226 46.737 12.6371 46.3388 12.6371Z" fill="#E66B14"/>
<path d="M36.8761 13.8754C36.8761 14.0749 36.8667 14.3029 36.8477 14.5593C36.8382 14.8158 36.824 15.0533 36.805 15.2718H36.8477C36.9236 15.1768 37.0136 15.0628 37.1179 14.9298C37.2317 14.7873 37.3455 14.6448 37.4593 14.5023C37.573 14.3599 37.6773 14.2364 37.7721 14.1319L40.1188 11.6099H41.8681L38.7819 14.9013L42.0673 19.2899H40.2895L37.7579 15.856L36.8761 16.5969V19.2899H35.3828V8.46094H36.8761V13.8754Z" fill="#E66B14"/>
<path d="M33.122 11.4688C33.2547 11.4688 33.4017 11.4782 33.5629 11.4972C33.7241 11.5067 33.8568 11.521 33.9611 11.54L33.8046 12.9506C33.7003 12.9221 33.5771 12.8984 33.4349 12.8794C33.2926 12.8604 33.1599 12.8509 33.0366 12.8509C32.7522 12.8509 32.4772 12.9079 32.2118 13.0218C31.9558 13.1263 31.7235 13.2831 31.5149 13.4921C31.3063 13.6915 31.1403 13.9385 31.0171 14.233C30.9033 14.5275 30.8464 14.8647 30.8464 15.2446V19.2912H29.3389V11.6112H30.5335L30.7326 12.9791H30.7895C30.9507 12.7036 31.1451 12.4519 31.3726 12.2239C31.6002 11.9959 31.8609 11.8155 32.1549 11.6825C32.4488 11.54 32.7712 11.4688 33.122 11.4688Z" fill="#E66B14"/>
<path d="M24.1457 11.4688C25.1128 11.4688 25.8334 11.6825 26.3075 12.1099C26.7816 12.5279 27.0186 13.1881 27.0186 14.0905V19.2912H25.9519L25.6533 18.2226H25.5964C25.3783 18.4981 25.1507 18.726 24.9137 18.9065C24.6861 19.087 24.4207 19.22 24.1173 19.3055C23.8233 19.391 23.463 19.4337 23.0364 19.4337C22.5813 19.4337 22.1688 19.353 21.799 19.1915C21.4387 19.0205 21.1543 18.764 20.9457 18.4221C20.7371 18.0706 20.6328 17.6336 20.6328 17.1112C20.6328 16.3323 20.9267 15.7386 21.5146 15.3301C22.1119 14.9217 23.0174 14.6984 24.231 14.6604L25.5395 14.6177V14.1902C25.5395 13.6203 25.4115 13.2213 25.1555 12.9934C24.8995 12.7654 24.5392 12.6514 24.0746 12.6514C23.6764 12.6514 23.2971 12.7084 22.9368 12.8224C22.5765 12.9364 22.2352 13.0741 21.9128 13.2356L21.4293 12.1384C21.7896 11.9485 22.202 11.7917 22.6666 11.6682C23.1407 11.5352 23.6337 11.4688 24.1457 11.4688ZM24.5013 15.6293C23.629 15.6673 23.0221 15.8146 22.6808 16.0711C22.349 16.318 22.183 16.6695 22.183 17.1254C22.183 17.5244 22.3016 17.8141 22.5386 17.9946C22.7851 18.1751 23.0933 18.2653 23.463 18.2653C24.0604 18.2653 24.5534 18.0991 24.9421 17.7666C25.3309 17.4342 25.5253 16.9355 25.5253 16.2705V15.6008L24.5013 15.6293Z" fill="#E66B14"/>
<path d="M13.9108 16.0284C14.5718 16.0284 14.9024 15.6026 16.6022 14.0416L16.6495 18.441C16.6495 19.056 17.1925 19.5764 17.8299 19.5764C18.3965 19.5764 19.0104 19.127 19.0104 18.441V12.6224C19.0104 12.6224 18.2313 12.8116 17.5938 12.0547C16.3661 13.261 15.2329 12.1493 15.2329 12.1493L13.9344 13.3083L12.7067 12.2439C11.9276 12.7879 11.1485 12.7879 10.4166 12.1493C9.94442 12.5514 9.53444 12.6864 8.8584 12.6224V18.441C8.8584 19.056 9.40141 19.5764 10.0389 19.5764C10.6055 19.5764 11.2193 19.127 11.2193 18.441V14.0416C12.9192 15.6026 13.2497 16.0284 13.9108 16.0284Z" fill="#9EB515"/>
<path d="M8.00586 10.9203L9.61129 9.17188H18.3939L19.8577 10.9439C19.5508 12.9757 17.4968 11.8417 17.5676 10.9203C17.4496 12.4559 15.3956 12.6213 15.1831 10.9203C15.1831 12.4559 12.7985 12.5977 12.7985 10.9203C12.7985 12.5032 10.3904 12.5505 10.3904 10.9203C10.3904 12.5032 8.00586 12.6213 8.00586 10.9203Z" fill="#E66B14"/>
<path d="M9.6084 8.13626C9.6084 7.92725 9.77752 7.75781 9.98615 7.75781H18.0133C18.2219 7.75781 18.391 7.92725 18.391 8.13626V8.65663H9.6084V8.13626Z" fill="#9EB515"/>
</svg>
