<svg width="20" height="21" viewBox="0 0 20 21" fill="none" xmlns="http://www.w3.org/2000/svg">
<path d="M18.2507 7.90833L17.3757 4.26667C17.1924 3.51667 16.5424 3 15.7841 3H4.20907C3.45907 3 2.80074 3.525 2.62574 4.26667L1.75074 7.90833C1.55074 8.75833 1.73407 9.625 2.2674 10.3083C2.33407 10.4 2.42574 10.4667 2.50074 10.55V16.3333C2.50074 17.25 3.25074 18 4.1674 18H15.8341C16.7507 18 17.5007 17.25 17.5007 16.3333V10.55C17.5757 10.475 17.6674 10.4 17.7341 10.3167C18.2674 9.63333 18.4591 8.75833 18.2507 7.90833ZM15.7591 4.65833L16.6341 8.3C16.7174 8.65 16.6424 9 16.4257 9.275C16.3091 9.425 16.0591 9.66667 15.6424 9.66667C15.1341 9.66667 14.6924 9.25833 14.6341 8.71667L14.1507 4.66667L15.7591 4.65833ZM10.8341 4.66667H12.4674L12.9174 8.43333C12.9591 8.75833 12.8591 9.08333 12.6424 9.325C12.4591 9.54167 12.1924 9.66667 11.8507 9.66667C11.2924 9.66667 10.8341 9.175 10.8341 8.575V4.66667ZM7.07574 8.43333L7.53407 4.66667H9.16741V8.575C9.16741 9.175 8.70907 9.66667 8.0924 9.66667C7.80907 9.66667 7.55074 9.54167 7.35074 9.325C7.1424 9.08333 7.0424 8.75833 7.07574 8.43333ZM3.3674 8.3L4.20907 4.66667H5.85074L5.3674 8.71667C5.30074 9.25833 4.8674 9.66667 4.35907 9.66667C3.95074 9.66667 3.6924 9.425 3.58407 9.275C3.35907 9.00833 3.28407 8.65 3.3674 8.3ZM4.1674 16.3333V11.3083C4.23407 11.3167 4.2924 11.3333 4.35907 11.3333C5.08407 11.3333 5.7424 11.0333 6.22574 10.5417C6.72574 11.0417 7.3924 11.3333 8.15074 11.3333C8.87574 11.3333 9.52574 11.0333 10.0091 10.5583C10.5007 11.0333 11.1674 11.3333 11.9174 11.3333C12.6174 11.3333 13.2841 11.0417 13.7841 10.5417C14.2674 11.0333 14.9257 11.3333 15.6507 11.3333C15.7174 11.3333 15.7757 11.3167 15.8424 11.3083V16.3333H4.1674Z" fill="#234455"/>
</svg>
