<svg width="25" height="24" viewBox="0 0 25 20" fill="none" xmlns="http://www.w3.org/2000/svg">
<path d="M7.5 19C8.60457 19 9.5 18.1046 9.5 17C9.5 15.8954 8.60457 15 7.5 15C6.39543 15 5.5 15.8954 5.5 17C5.5 18.1046 6.39543 19 7.5 19Z" stroke="#4F6977" stroke-width="1.8" stroke-linecap="round" stroke-linejoin="round"/>
<path d="M17.5 19C18.6046 19 19.5 18.1046 19.5 17C19.5 15.8954 18.6046 15 17.5 15C16.3954 15 15.5 15.8954 15.5 17C15.5 18.1046 16.3954 19 17.5 19Z" stroke="#4F6977" stroke-width="1.8" stroke-linecap="round" stroke-linejoin="round"/>
<path d="M8.5 11H13.5V5H4.5C4.23478 5 3.98043 5.10536 3.79289 5.29289C3.60536 5.48043 3.5 5.73478 3.5 6V17H5.5L10.5 13L8.5 11ZM8.5 11L10.5 9M9.5 17H15.5M13.5 6H18.5L21.5 11V17H19.5" stroke="#4F6977" stroke-width="1.8" stroke-linecap="round" stroke-linejoin="round"/>
</svg>
