<svg width="160" height="160" viewBox="0 0 160 160" fill="none" xmlns="http://www.w3.org/2000/svg">
<path d="M87.5 27.5H72.5V22.5C72.5 18.3575 75.8575 15 80 15C84.1425 15 87.5 18.3575 87.5 22.5V27.5Z" fill="#E7B400"/>
<path d="M80 137.5C89.665 137.5 97.5 129.665 97.5 120C97.5 110.335 89.665 102.5 80 102.5C70.335 102.5 62.5 110.335 62.5 120C62.5 129.665 70.335 137.5 80 137.5Z" fill="#E7B400"/>
<path d="M124.912 100.565C121.867 96.9426 120.007 92.475 119.582 87.7625L116.17 54.85C115.4 45.35 110.225 36.705 102.132 31.67C74.7995 14.67 45.6395 32.535 43.522 58.64L40.4195 87.7726C39.992 92.4776 38.132 96.94 35.092 100.558L27.892 109.123C24.2745 113.428 27.3345 120 32.9595 120H127.04C132.665 120 135.725 113.428 132.107 109.123L124.912 100.565Z" fill="#FEC600"/>
<path opacity="0.3" d="M69.1746 40.0625C73.8746 37.695 83.5497 34.835 95.5297 42.285C100.61 45.445 107.067 44.505 111.075 40.385C108.755 36.93 105.757 33.9225 102.132 31.67C74.7996 14.67 45.6396 32.535 43.5221 58.64L42.2021 71.0425C42.3096 71.055 42.4071 71.09 42.5146 71.1C42.8571 71.1275 43.1996 71.1425 43.5371 71.1425C49.9846 71.1425 55.4546 66.19 55.9846 59.65C56.6671 51.2025 61.5996 43.88 69.1746 40.0625Z" fill="white"/>
<path opacity="0.15" d="M132.107 109.122L124.915 100.565C121.87 96.9425 120.01 92.475 119.585 87.7625L118.298 75.345C111.51 76.05 106.522 82.065 107.135 88.8825C107.612 94.19 109.245 99.245 111.912 103.765C112.887 105.415 111.618 107.5 109.7 107.5H75C68.0975 107.5 62.5 113.097 62.5 120H127.04C132.665 120 135.725 113.427 132.107 109.122Z" fill="black"/>
<path opacity="0.15" d="M80 160C106.234 160 127.5 156.642 127.5 152.5C127.5 148.358 106.234 145 80 145C53.7665 145 32.5 148.358 32.5 152.5C32.5 156.642 53.7665 160 80 160Z" fill="black"/>
<path d="M56.168 49.845C57.6305 46.91 59.6205 44.2825 62.0055 42.0825C64.3905 39.8825 67.1705 38.1125 70.213 36.8925" stroke="white" stroke-width="10" stroke-miterlimit="10" stroke-linecap="round" stroke-linejoin="round"/>
</svg>
