<?xml version="1.0" encoding="UTF-8"?>
<svg width="25px" height="26px" viewBox="0 0 25 26" version="1.1" xmlns="http://www.w3.org/2000/svg" xmlns:xlink="http://www.w3.org/1999/xlink">
    <!-- Generator: Sketch 63.1 (92452) - https://sketch.com -->
    <title>order_history_icon</title>
    <desc>Created with Sketch.</desc>
    <g id="Symbols" stroke="none" stroke-width="1" fill="none" fill-rule="evenodd">
        <g id="footer_bar_order_onclick" transform="translate(-175.000000, -11.000000)" stroke="#595959">
            <g id="Group" transform="translate(20.000000, 11.000000)">
                <g id="order_history_icon" transform="translate(155.500000, 1.000000)">
                    <g>
                        <path d="M18,24 L2.4,24 C1.0745166,24 0,22.9254834 0,21.6 L0,2.4 C0,1.0745166 1.0745166,0 2.4,0 L18,0 C19.3254834,0 20.4,1.0745166 20.4,2.4 L20.4,10.1000297" id="Path" stroke-linecap="round"></path>
                        <path d="M24,17.4 C24,19.7195959 22.1195959,21.6 19.8,21.6 C17.4804041,21.6 15.6,19.7195959 15.6,17.4 C15.6,15.0804041 17.4804041,13.2 19.8,13.2 C20.2951277,13.2 20.7702445,13.2856763 21.2113341,13.4430124" id="Path" stroke-linecap="round"></path>
                        <rect id="Rectangle" x="10.1" y="7.7" width="5" height="1" rx="0.5"></rect>
                        <rect id="Rectangle" x="10.1" y="13.7" width="5" height="1" rx="0.5"></rect>
                        <rect id="Rectangle" x="10.1" y="19.7" width="4.4" height="1" rx="0.5"></rect>
                        <rect id="Rectangle" x="10.1" y="5.3" width="7.4" height="1" rx="0.5"></rect>
                        <rect id="Rectangle" x="10.1" y="11.3" width="7.4" height="1" rx="0.5"></rect>
                        <rect id="Rectangle" x="10.1" y="17.3" width="3.8" height="1" rx="0.5"></rect>
                        <path d="M7.2,6.6 C7.2,7.59411255 6.39411255,8.4 5.4,8.4 C4.40588745,8.4 3.6,7.59411255 3.6,6.6 C3.6,5.60588745 4.40588745,4.8 5.4,4.8 C5.61219757,4.8 5.81581909,4.83671843 6.00485745,4.90414818" id="Path" stroke-linecap="round"></path>
                        <path d="M7.2,12.6 C7.2,13.5941125 6.39411255,14.4 5.4,14.4 C4.40588745,14.4 3.6,13.5941125 3.6,12.6 C3.6,11.6058875 4.40588745,10.8 5.4,10.8 C5.61219757,10.8 5.81581909,10.8367184 6.00485745,10.9041482" id="Path" stroke-linecap="round"></path>
                        <path d="M7.2,18.6 C7.2,19.5941125 6.39411255,20.4 5.4,20.4 C4.40588745,20.4 3.6,19.5941125 3.6,18.6 C3.6,17.6058875 4.40588745,16.8 5.4,16.8 C5.61219757,16.8 5.81581909,16.8367184 6.00485745,16.9041482" id="Path" stroke-linecap="round"></path>
                        <path d="" id="Rectangle" transform="translate(20.901457, 17.738875) rotate(-181.000000) translate(-20.901457, -17.738875) "></path>
                        <path d="" id="Rectangle" transform="translate(19.194104, 18.362063) rotate(-404.000000) translate(-19.194104, -18.362063) "></path>
                    </g>
                </g>
            </g>
        </g>
    </g>
</svg>