<svg width="40" height="40" viewBox="0 0 40 40" fill="none" xmlns="http://www.w3.org/2000/svg">
<path d="M28.4375 33.75H10V7.5C10 6.11937 11.1194 5 12.5 5H30C31.3806 5 32.5 6.11937 32.5 7.5V29.6875C32.5 31.9312 30.6812 33.75 28.4375 33.75Z" fill="#548D91"/>
<path opacity="0.15" d="M20 40C26.9467 40 32.5781 39.1605 32.5781 38.125C32.5781 37.0895 26.9467 36.25 20 36.25C13.0533 36.25 7.42188 37.0895 7.42188 38.125C7.42188 39.1605 13.0533 40 20 40Z" fill="black"/>
<path d="M25.625 30.3513V28.125C25.625 27.0894 24.7856 26.25 23.75 26.25H8.125C7.08938 26.25 6.25 27.0894 6.25 28.125V30.3125C6.25 32.2113 7.78875 33.75 9.6875 33.75H29.1325V29.7187L25.625 30.3513Z" fill="#203E4D"/>
<path d="M29.0625 33.75C30.961 33.75 32.5 32.211 32.5 30.3125C32.5 28.414 30.961 26.875 29.0625 26.875C27.164 26.875 25.625 28.414 25.625 30.3125C25.625 32.211 27.164 33.75 29.0625 33.75Z" fill="#8AB1B4"/>
<path opacity="0.15" d="M29.375 16.875V27.5C29.375 29.2206 30.7662 30.615 32.4844 30.6231C32.4937 30.5206 32.5 30.4175 32.5 30.3125C32.5 30.2069 32.4937 30.1031 32.4844 30C32.4919 29.8963 32.5 29.7931 32.5 29.6875V13.75C30.7744 13.75 29.375 15.1494 29.375 16.875Z" fill="black"/>
<path opacity="0.3" d="M10 7.5V20C11.7256 20 13.125 18.6006 13.125 16.875V8.125H16.25C17.9756 8.125 19.375 6.72562 19.375 5H12.5C11.1194 5 10 6.11937 10 7.5Z" fill="white"/>
<path d="M28.125 11.25H19.375C18.6844 11.25 18.125 10.6906 18.125 10C18.125 9.30937 18.6844 8.75 19.375 8.75H28.125C28.8156 8.75 29.375 9.30937 29.375 10C29.375 10.6906 28.8156 11.25 28.125 11.25Z" fill="#203E4D"/>
<path d="M28.125 16.875H19.375C18.6844 16.875 18.125 16.3156 18.125 15.625C18.125 14.9344 18.6844 14.375 19.375 14.375H28.125C28.8156 14.375 29.375 14.9344 29.375 15.625C29.375 16.3156 28.8156 16.875 28.125 16.875Z" fill="#203E4D"/>
<path d="M28.125 22.5H19.375C18.6844 22.5 18.125 21.9406 18.125 21.25C18.125 20.5594 18.6844 20 19.375 20H28.125C28.8156 20 29.375 20.5594 29.375 21.25C29.375 21.9406 28.8156 22.5 28.125 22.5Z" fill="#203E4D"/>
<path d="M14.375 11.25C15.0654 11.25 15.625 10.6904 15.625 10C15.625 9.30964 15.0654 8.75 14.375 8.75C13.6846 8.75 13.125 9.30964 13.125 10C13.125 10.6904 13.6846 11.25 14.375 11.25Z" fill="#E7A546"/>
<path d="M14.375 16.875C15.0654 16.875 15.625 16.3154 15.625 15.625C15.625 14.9346 15.0654 14.375 14.375 14.375C13.6846 14.375 13.125 14.9346 13.125 15.625C13.125 16.3154 13.6846 16.875 14.375 16.875Z" fill="#E7A546"/>
<path d="M14.375 22.5C15.0654 22.5 15.625 21.9404 15.625 21.25C15.625 20.5596 15.0654 20 14.375 20C13.6846 20 13.125 20.5596 13.125 21.25C13.125 21.9404 13.6846 22.5 14.375 22.5Z" fill="#E7A546"/>
<path d="M12.1875 9.6875V8.4375C12.1875 7.74687 12.7469 7.1875 13.4375 7.1875H14.0625" stroke="white" stroke-width="2" stroke-miterlimit="10" stroke-linecap="round" stroke-linejoin="round"/>
</svg>
