<?xml version="1.0" encoding="UTF-8"?>
<svg width="22px" height="22px" viewBox="0 0 22 22" version="1.1" xmlns="http://www.w3.org/2000/svg" xmlns:xlink="http://www.w3.org/1999/xlink">
    <!-- Generator: Sketch 63.1 (92452) - https://sketch.com -->
    <title>order_history_icon</title>
    <desc>Created with Sketch.</desc>
    <g id="order_history_icon" stroke="none" stroke-width="1" fill="none" fill-rule="evenodd">
        <g transform="translate(1.000000, 1.000000)">
            <path d="M15,20 L2,20 C0.8954305,20 0,19.1045695 0,18 L0,2 C0,0.8954305 0.8954305,0 2,0 L15,0 C16.1045695,0 17,0.8954305 17,2 L17,8.41669144" id="Path" stroke="#595959" stroke-linecap="round"></path>
            <path d="M20,14.5 C20,16.4329966 18.4329966,18 16.5,18 C14.5670034,18 13,16.4329966 13,14.5 C13,12.5670034 14.5670034,11 16.5,11 C16.9126064,11 17.3085371,11.0713969 17.6761117,11.2025103" id="Path" stroke="#595959" stroke-linecap="round"></path>
            <rect id="Rectangle" fill="#595959" x="8" y="4" width="7" height="1" rx="0.5"></rect>
            <rect id="Rectangle" fill="#595959" x="8" y="9" width="7" height="1" rx="0.5"></rect>
            <rect id="Rectangle" fill="#595959" x="8" y="14" width="4" height="1" rx="0.5"></rect>
            <path d="M6,5.5 C6,6.32842712 5.32842712,7 4.5,7 C3.67157288,7 3,6.32842712 3,5.5 C3,4.67157288 3.67157288,4 4.5,4 C4.67683131,4 4.84651591,4.03059869 5.00404788,4.08679015" id="Path" stroke="#595959" stroke-linecap="round"></path>
            <path d="M6,10.5 C6,11.3284271 5.32842712,12 4.5,12 C3.67157288,12 3,11.3284271 3,10.5 C3,9.67157288 3.67157288,9 4.5,9 C4.67683131,9 4.84651591,9.03059869 5.00404788,9.08679015" id="Path" stroke="#595959" stroke-linecap="round"></path>
            <path d="M6,15.5 C6,16.3284271 5.32842712,17 4.5,17 C3.67157288,17 3,16.3284271 3,15.5 C3,14.6715729 3.67157288,14 4.5,14 C4.67683131,14 4.84651591,14.0305987 5.00404788,14.0867901" id="Path" stroke="#595959" stroke-linecap="round"></path>
            <path d="M16.542881,14.1990621 L18.292881,14.1990621 C18.6150471,14.1990621 18.8762143,14.4602293 18.8762143,14.7823954 C18.8762143,15.1045615 18.6150471,15.3657288 18.292881,15.3657288 L16.542881,15.3657288 C16.2207149,15.3657288 15.9595477,15.1045615 15.9595477,14.7823954 C15.9595477,14.4602293 16.2207149,14.1990621 16.542881,14.1990621 Z" id="Rectangle" fill="#595959" transform="translate(17.417881, 14.782395) rotate(-181.000000) translate(-17.417881, -14.782395) "></path>
            <path d="M15.4117537,14.7183858 L16.5784204,14.7183858 C16.9005865,14.7183858 17.1617537,14.979553 17.1617537,15.3017192 C17.1617537,15.6238853 16.9005865,15.8850525 16.5784204,15.8850525 L15.4117537,15.8850525 C15.0895876,15.8850525 14.8284204,15.6238853 14.8284204,15.3017192 C14.8284204,14.979553 15.0895876,14.7183858 15.4117537,14.7183858 Z" id="Rectangle" fill="#595959" transform="translate(15.995087, 15.301719) rotate(-404.000000) translate(-15.995087, -15.301719) "></path>
        </g>
    </g>
</svg>