<?xml version="1.0" encoding="UTF-8"?>
<svg width="30px" height="30px" viewBox="0 0 30 30" version="1.1" xmlns="http://www.w3.org/2000/svg" xmlns:xlink="http://www.w3.org/1999/xlink">
    <!-- Generator: Sketch 63.1 (92452) - https://sketch.com -->
    <title>round_btn_sm_order_onclick</title>
    <desc>Created with Sketch.</desc>
    <defs>
        <linearGradient x1="0%" y1="100%" x2="100%" y2="0%" id="linearGradient-1">
            <stop stop-color="#00555B" offset="0%"></stop>
            <stop stop-color="#008E93" offset="100%"></stop>
        </linearGradient>
    </defs>
    <g id="Symbols" stroke="none" stroke-width="1" fill="none" fill-rule="evenodd">
        <g id="round_btn_sm_order_onclick_with_text" transform="translate(-3.000000, 0.000000)">
            <g id="round_btn_sm_order_onclick" transform="translate(3.000000, 0.000000)">
                <g id="round_btn_sm" fill="url(#linearGradient-1)">
                    <circle id="Oval" cx="15" cy="15" r="15"></circle>
                </g>
                <g id="order_icon_white" transform="translate(7.000000, 6.000000)" stroke-width="1">
                    <g id="order_icon">
                        <rect id="Rectangle" fill="#FFFFFF" x="0" y="0" width="16.2" height="18" rx="2"></rect>
                        <rect id="Rectangle" stroke="#00555B" x="7.7" y="5.9" width="3.5" height="1" rx="0.5"></rect>
                        <rect id="Rectangle" stroke="#00555B" x="7.7" y="10.4" width="3.5" height="1" rx="0.5"></rect>
                        <rect id="Rectangle" stroke="#00555B" x="7.7" y="14.9" width="3.5" height="1" rx="0.5"></rect>
                        <rect id="Rectangle" stroke="#00555B" x="7.7" y="4.1" width="5.3" height="1" rx="0.5"></rect>
                        <rect id="Rectangle" stroke="#00555B" x="7.7" y="8.6" width="5.3" height="1" rx="0.5"></rect>
                        <rect id="Rectangle" stroke="#00555B" x="7.7" y="13.1" width="5.3" height="1" rx="0.5"></rect>
                        <path d="M5.4,4.95 C5.4,5.69558441 4.79558441,6.3 4.05,6.3 C3.30441559,6.3 2.7,5.69558441 2.7,4.95 C2.7,4.20441559 3.30441559,3.6 4.05,3.6 C4.20914818,3.6 4.36186432,3.62753882 4.50364309,3.67811113" id="Path" stroke="#00555B" stroke-linecap="round"></path>
                        <path d="M5.4,9.45 C5.4,10.1955844 4.79558441,10.8 4.05,10.8 C3.30441559,10.8 2.7,10.1955844 2.7,9.45 C2.7,8.70441559 3.30441559,8.1 4.05,8.1 C4.20914818,8.1 4.36186432,8.12753882 4.50364309,8.17811113" id="Path" stroke="#00555B" stroke-linecap="round"></path>
                        <path d="M5.4,13.95 C5.4,14.6955844 4.79558441,15.3 4.05,15.3 C3.30441559,15.3 2.7,14.6955844 2.7,13.95 C2.7,13.2044156 3.30441559,12.6 4.05,12.6 C4.20914818,12.6 4.36186432,12.6275388 4.50364309,12.6781111" id="Path" stroke="#00555B" stroke-linecap="round"></path>
                    </g>
                </g>
            </g>
        </g>
    </g>
</svg>