<svg width="80" height="80" viewBox="0 0 80 80" fill="none" xmlns="http://www.w3.org/2000/svg">
<path d="M40 68.75C55.8782 68.75 68.75 55.8782 68.75 40C68.75 24.1218 55.8782 11.25 40 11.25C24.1218 11.25 11.25 24.1218 11.25 40C11.25 55.8782 24.1218 68.75 40 68.75Z" fill="#E7A546"/>
<path opacity="0.3" d="M39.9023 17.4573C43.1236 17.4573 45.7448 15.011 46.0848 11.881C44.0923 11.4448 42.0261 11.2073 39.9023 11.2073C24.0236 11.2073 11.1523 24.0785 11.1523 39.9573C11.1523 42.081 11.3898 44.1473 11.8261 46.1398C14.9573 45.7998 17.4023 43.1785 17.4023 39.9573C17.4023 27.551 27.4973 17.4573 39.9023 17.4573Z" fill="white"/>
<path opacity="0.15" d="M67.9775 33.7761C64.8462 34.1161 62.4013 36.7374 62.4013 39.9586C62.4013 52.3649 52.3075 62.4586 39.9012 62.4586C36.68 62.4586 34.0588 64.9049 33.7188 68.0349C35.7112 68.4711 37.7775 68.7086 39.9012 68.7086C55.78 68.7086 68.6513 55.8374 68.6513 39.9586C68.6513 37.8349 68.415 35.7674 67.9775 33.7761Z" fill="#131313"/>
<path d="M18.7109 29.2414C21.0584 24.6176 24.8759 20.8601 29.5434 18.5889" stroke="white" stroke-width="6" stroke-miterlimit="10" stroke-linecap="round" stroke-linejoin="round"/>
<path opacity="0.1" d="M40 80C53.1168 80 63.75 78.3211 63.75 76.25C63.75 74.1789 53.1168 72.5 40 72.5C26.8832 72.5 16.25 74.1789 16.25 76.25C16.25 78.3211 26.8832 80 40 80Z" fill="#131313"/>
<path d="M36.2497 52.5002C35.6097 52.5002 34.9709 52.2564 34.4822 51.7677L25.7322 43.0177C24.7559 42.0414 24.7559 40.4589 25.7322 39.4827C26.7084 38.5064 28.2909 38.5064 29.2672 39.4827L36.2497 46.4639L51.9822 30.7327C52.9584 29.7564 54.5409 29.7564 55.5172 30.7327C56.4934 31.7089 56.4934 33.2914 55.5172 34.2677L38.0172 51.7677C37.5284 52.2564 36.8897 52.5002 36.2497 52.5002Z" fill="#234455"/>
</svg>
