<?xml version="1.0" encoding="UTF-8"?>
<svg width="30px" height="30px" viewBox="0 0 30 30" version="1.1" xmlns="http://www.w3.org/2000/svg" xmlns:xlink="http://www.w3.org/1999/xlink">
    <!-- Generator: Sketch 63.1 (92452) - https://sketch.com -->
    <title>history_onclick</title>
    <desc>Created with Sketch.</desc>
    <defs>
        <linearGradient x1="0%" y1="100%" x2="100%" y2="0%" id="linearGradient-1">
            <stop stop-color="#00555B" offset="0%"></stop>
            <stop stop-color="#008E93" offset="100%"></stop>
        </linearGradient>
    </defs>
    <g id="history_onclick" stroke="none" stroke-width="1" fill="none" fill-rule="evenodd">
        <g id="round_btn_sm" fill="url(#linearGradient-1)">
            <circle id="Oval" cx="15" cy="15" r="15"></circle>
        </g>
        <g id="order_history_icon" transform="translate(6.941829, 6.000000)">
            <g>
                <path d="M13.5,18 L1.8,18 C0.80588745,18 0,17.1941125 0,16.2 L0,1.8 C0,0.80588745 0.80588745,0 1.8,0 L13.5,0 C14.4941125,0 15.3,0.80588745 15.3,1.8 L15.3,7.5750223" id="Path" stroke="#FFFFFF" stroke-linecap="round"></path>
                <path d="M18,13.05 C18,14.789697 16.589697,16.2 14.85,16.2 C13.110303,16.2 11.7,14.789697 11.7,13.05 C11.7,11.310303 13.110303,9.9 14.85,9.9 C15.2213457,9.9 15.5776834,9.96425725 15.9085005,10.0822593" id="Path" stroke="#FFFFFF" stroke-linecap="round"></path>
                <rect id="Rectangle" fill="#FFFFFF" x="7.2" y="3.6" width="6.3" height="1" rx="0.5"></rect>
                <rect id="Rectangle" fill="#FFFFFF" x="7.2" y="8.1" width="6.3" height="1" rx="0.5"></rect>
                <rect id="Rectangle" fill="#FFFFFF" x="7.2" y="12.6" width="3.6" height="1" rx="0.5"></rect>
                <path d="M5.4,4.95 C5.4,5.69558441 4.79558441,6.3 4.05,6.3 C3.30441559,6.3 2.7,5.69558441 2.7,4.95 C2.7,4.20441559 3.30441559,3.6 4.05,3.6 C4.20914818,3.6 4.36186432,3.62753882 4.50364309,3.67811113" id="Path" stroke="#FFFFFF" stroke-linecap="round"></path>
                <path d="M5.4,9.45 C5.4,10.1955844 4.79558441,10.8 4.05,10.8 C3.30441559,10.8 2.7,10.1955844 2.7,9.45 C2.7,8.70441559 3.30441559,8.1 4.05,8.1 C4.20914818,8.1 4.36186432,8.12753882 4.50364309,8.17811113" id="Path" stroke="#FFFFFF" stroke-linecap="round"></path>
                <path d="M5.4,13.95 C5.4,14.6955844 4.79558441,15.3 4.05,15.3 C3.30441559,15.3 2.7,14.6955844 2.7,13.95 C2.7,13.2044156 3.30441559,12.6 4.05,12.6 C4.20914818,12.6 4.36186432,12.6275388 4.50364309,12.6781111" id="Path" stroke="#FFFFFF" stroke-linecap="round"></path>
                <path d="M14.8885929,12.7791559 L16.4635929,12.7791559 C16.7535424,12.7791559 16.9885929,13.0142064 16.9885929,13.3041559 C16.9885929,13.5941054 16.7535424,13.8291559 16.4635929,13.8291559 L14.8885929,13.8291559 C14.5986434,13.8291559 14.3635929,13.5941054 14.3635929,13.3041559 C14.3635929,13.0142064 14.5986434,12.7791559 14.8885929,12.7791559 Z" id="Rectangle" fill="#FFFFFF" transform="translate(15.676093, 13.304156) rotate(-181.000000) translate(-15.676093, -13.304156) "></path>
                <path d="M13.8705784,13.2465472 L14.9205784,13.2465472 C15.2105279,13.2465472 15.4455784,13.4815977 15.4455784,13.7715472 C15.4455784,14.0614967 15.2105279,14.2965472 14.9205784,14.2965472 L13.8705784,14.2965472 C13.5806289,14.2965472 13.3455784,14.0614967 13.3455784,13.7715472 C13.3455784,13.4815977 13.5806289,13.2465472 13.8705784,13.2465472 Z" id="Rectangle" fill="#FFFFFF" transform="translate(14.395578, 13.771547) rotate(-404.000000) translate(-14.395578, -13.771547) "></path>
            </g>
        </g>
    </g>
</svg>