<svg width="88" height="24" viewBox="0 0 88 24" fill="none" xmlns="http://www.w3.org/2000/svg">
<path d="M3.08481 16.4925C3.08481 15.3004 3.06408 14.3024 3 13.4095H5.24372L5.35021 14.9416H5.4124C5.92033 14.1329 6.85136 13.1747 8.58716 13.1747C9.94225 13.1747 10.9996 13.9417 11.4444 15.0893H11.4877C11.8477 14.5155 12.2698 14.0894 12.7561 13.793C13.3281 13.3878 13.9859 13.1747 14.8311 13.1747C16.5462 13.1747 18.2801 14.3441 18.2801 17.6638V23.7654H15.7405V18.0444C15.7405 16.323 15.1478 15.3004 13.8992 15.3004C13.0105 15.3004 12.3537 15.9405 12.0795 16.6847C12.0032 16.9688 11.9605 17.2608 11.9523 17.5549V23.7663H9.41266V17.767C9.41266 16.324 8.8416 15.3014 7.63445 15.3014C6.66289 15.3014 6.00702 16.0683 5.77144 16.7898C5.66684 17.0455 5.62349 17.3447 5.62349 17.6401V23.7663H3.08481V16.4925ZM28.1757 21.2789C28.1757 22.2135 28.2181 23.1272 28.3227 23.7663H25.9734L25.8047 22.6187H25.7407C25.1055 23.4274 24.0256 23.9993 22.695 23.9993C20.62 23.9993 19.4562 22.4909 19.4562 20.9163C19.4562 18.2982 21.7611 16.9821 25.5729 17.0029V16.8334C25.5729 16.1517 25.2968 15.0249 23.4762 15.0249C22.4594 15.0249 21.4021 15.3449 20.7038 15.79L20.1959 14.0884C20.9583 13.6197 22.2917 13.1738 23.9201 13.1738C27.223 13.1738 28.1766 15.2815 28.1766 17.5331L28.1757 21.2789ZM25.6351 18.7063C23.7928 18.6627 22.0373 19.0671 22.0373 20.6407C22.0373 21.6615 22.695 22.1302 23.5196 22.1302C24.5552 22.1302 25.3185 21.4475 25.5513 20.7042C25.6083 20.5183 25.6368 20.3249 25.6361 20.1304L25.6351 18.7063ZM29.9737 16.4925C29.9737 15.3004 29.952 14.3024 29.8908 13.4095H32.1741L32.3003 14.9643H32.3644C32.8083 14.1547 33.9306 13.1747 35.6447 13.1747C37.4446 13.1747 39.3057 14.3441 39.3057 17.6212V23.7654H36.703V17.9185C36.703 16.43 36.1517 15.2995 34.7344 15.2995C33.6988 15.2995 32.9769 16.0447 32.7027 16.8325C32.6179 17.0654 32.5972 17.3854 32.5972 17.6808V23.7644H29.9727L29.9737 16.4925ZM50.5931 9.24902V20.8528C50.5931 21.9162 50.6365 23.0666 50.6779 23.7663H48.3513L48.2448 22.1302H48.2015C47.5889 23.2778 46.3384 24.0002 44.8373 24.0002C42.3815 24.0002 40.4356 21.8953 40.4356 18.7072C40.413 15.2398 42.5709 13.1757 45.0493 13.1757C46.4666 13.1757 47.4824 13.7712 47.948 14.5401H47.9923V9.24997H50.5941L50.5931 9.24902ZM47.9913 17.7263C47.9913 17.5151 47.9706 17.2595 47.9272 17.0455C47.6945 16.0267 46.8709 15.1963 45.6845 15.1963C44.0127 15.1963 43.0798 16.6857 43.0798 18.6201C43.0798 20.511 44.0118 21.8944 45.6637 21.8944C46.7201 21.8944 47.6521 21.17 47.9056 20.0433C47.9696 19.8103 47.9923 19.5537 47.9923 19.2782L47.9913 17.7263ZM52.4345 23.7663V13.4095H55.0608V23.7663H52.4345ZM56.9002 16.7491C56.9002 15.3459 56.8805 14.345 56.8173 13.4105H59.0818L59.1647 15.3866H59.2505C59.7584 13.9199 60.9636 13.4105 62.0671 13.4105C62.3206 13.4105 62.4676 13.3669 62.6787 13.4105V15.7085C62.429 15.653 62.174 15.6244 61.9182 15.6233C60.6668 15.6233 59.8206 16.4319 59.5888 17.5994C59.5375 17.8666 59.5094 18.1378 59.5049 18.4099V23.7673H56.9002V16.7491ZM63.8868 23.7663V13.4095H66.5093V23.7663H63.8868Z" fill="#0D2B5B"/>
<path d="M82.844 2.45614C81.5445 0.966721 80.163 1.64089 79.0652 2.18912C78.6034 2.41826 75.2704 4.31673 75.2704 4.31673C73.4441 5.07327 72.0221 4.24761 71.4642 3.55261C71.4109 3.4867 71.3627 3.41674 71.32 3.34335L71.19 3.11705C70.9702 2.73508 70.7259 2.36787 70.4587 2.01774C70.2966 1.80551 70.1209 1.60404 69.9329 1.41459C68.6834 0.146737 66.6865 -0.740474 63.3487 0.871088C61.7684 1.79144 56.6204 4.7466 56.6204 4.7466C54.6858 5.5467 53.2063 4.57238 52.7257 3.8575C52.7041 3.83073 52.6851 3.80187 52.6692 3.77133L52.606 3.66339L52.28 3.12747C52.1328 2.8927 51.975 2.6649 51.8069 2.44478C51.6431 2.2339 51.4673 2.03282 51.2801 1.84257C50.0391 0.582294 48.0526 -0.303023 44.744 1.27824C42.7434 2.42584 38.0901 5.09884 38.0901 5.09884L38.0883 5.10073L34.6826 7.056L36.4448 9.23C37.1864 9.94015 38.5802 11.1048 40.7362 10.1229C40.7362 10.1229 46.6871 6.66021 46.7107 6.6498C51.7984 3.84424 54.3088 6.52481 55.4189 8.31154C55.4576 8.36741 55.4887 8.42801 55.5235 8.48198L55.5254 8.48482C55.5395 8.5066 55.548 8.52648 55.5603 8.54731L55.6856 8.75373C56.2265 9.5775 57.0793 10.1096 58.0961 10.085C58.6568 10.0737 59.0375 9.88997 59.5916 9.58034L65.3493 6.22466L65.3616 6.21898C70.5134 3.37933 73.0662 6.23507 74.1565 8.0218C74.2413 8.17614 74.3374 8.32385 74.4364 8.46115C74.9763 9.19686 75.7208 9.67882 76.6669 9.65514C77.2917 9.64284 77.9918 9.26598 78.0964 9.19686L84.9991 5.19352C85.001 5.19542 84.2961 4.12451 82.844 2.45614Z" fill="#FDD213"/>
</svg>
