<svg width="89" height="24" viewBox="0 0 89 24" fill="none" xmlns="http://www.w3.org/2000/svg">
<g clip-path="url(#clip0_15339_155377)">
<mask id="mask0_15339_155377" style="mask-type:luminance" maskUnits="userSpaceOnUse" x="-107" y="-17" width="217" height="306">
<path d="M-106.327 288.779H109.286V-16.1594H-106.327V288.779Z" fill="white"/>
</mask>
<g mask="url(#mask0_15339_155377)">
<path d="M65.6215 5.38312C66.8081 5.17594 67.581 4.15017 67.581 2.84224C67.581 1.09894 66.0728 0.00253391 63.4903 0.00253391H58.3799V0.0619364C59.4241 0.633862 59.4006 1.55821 59.4006 2.44091V10.4269C59.4006 11.3248 59.4241 12.2578 58.3799 12.8214V12.8794H60.8411C63.2447 12.8794 65.0887 12.9203 66.4647 12.2734C67.9269 11.5866 68.8122 10.3533 68.8122 8.85053C68.8122 6.93156 67.3854 5.75402 65.6215 5.38312ZM61.4043 1.19021L63.0212 1.21629C64.2208 1.21629 65.4476 1.80379 65.4476 3.15482C65.4476 4.7594 64.3621 5.18826 62.8155 5.18826L61.4043 5.19007V5.18826V1.19021ZM62.9629 11.5559L61.4043 11.558V6.48134V6.4089L63.0802 6.40165C65.0307 6.40165 66.6415 7.12607 66.6415 9.02512C66.6415 10.8851 64.9507 11.5559 62.9629 11.5559Z" fill="#006885"/>
<path d="M72.7308 10.4277C72.7308 11.5262 72.7109 12.3057 73.7489 12.9164V12.9714H70.2852V12.9164C71.3207 12.3057 71.3026 11.5262 71.3026 10.4277V2.6029C71.3026 1.51193 71.3207 0.647346 70.2855 0.0631056V0.00261688H73.1618V0.021451C73.2382 0.254712 73.3654 0.386557 73.4537 0.512967C73.5468 0.634668 73.7276 0.901977 73.7276 0.901977L80.3245 9.79272V2.52611C80.3245 1.4308 80.3415 0.647346 79.307 0.0631056V0.00261688H82.7498V0.0631056C81.7331 0.647346 81.7331 1.4308 81.7331 2.52611V13.6133C81.1047 13.3637 79.3508 11.9037 78.1027 10.2237C75.861 7.21308 72.7308 3.02632 72.7308 3.02632V10.4277Z" fill="#006885"/>
<path d="M85.9622 2.33641C85.9622 1.43632 85.9466 0.634032 84.9473 0.0628309V0.00234222H89.0004V0.0628309C87.9963 0.617008 87.9869 1.45407 87.9869 2.33641V10.5676C87.9869 11.447 87.9637 12.3388 89.0004 12.9114V12.9697H84.9473V12.9114C85.9893 12.3308 85.9622 11.4546 85.9622 10.5723V2.33641Z" fill="#006885"/>
<path d="M60.2546 21.793C60.0344 21.793 59.8084 21.7694 59.582 21.7227C59.3582 21.6763 59.143 21.6061 58.9424 21.5137C58.7765 21.4376 58.628 21.3446 58.499 21.2363L58.8522 20.6814C59.047 20.8175 59.235 20.9262 59.4125 21.0059C59.6273 21.1033 59.874 21.1526 60.1449 21.1526C60.4549 21.1526 60.7212 21.0664 60.9363 20.8965C61.1602 20.7194 61.2732 20.4637 61.2732 20.1355C61.2732 19.8936 61.1928 19.6668 61.0341 19.4614C60.8827 19.2687 60.6889 19.0837 60.4578 18.9105C60.2333 18.7417 60.0243 18.5867 59.8341 18.448C59.5625 18.2285 59.3488 18.0445 59.2039 17.9047C59.0652 17.7721 58.9492 17.6098 58.858 17.4215C58.7681 17.2353 58.7225 17.0162 58.7225 16.7702C58.7225 16.5015 58.8022 16.2631 58.9663 16.0418C59.1325 15.8205 59.3661 15.6416 59.6617 15.5098C59.9591 15.3772 60.2974 15.3102 60.6668 15.3102C60.9993 15.3102 61.3087 15.3627 61.5858 15.4663C61.8205 15.5539 62.0106 15.659 62.1526 15.7792L61.8121 16.2784C61.6778 16.1954 61.5307 16.1237 61.3739 16.0643C61.1754 15.9886 60.9801 15.9506 60.794 15.9506C60.5035 15.9506 60.2691 16.0255 60.0982 16.1733C59.9229 16.3258 59.8341 16.5218 59.8341 16.755C59.8341 16.9158 59.8874 17.0712 59.992 17.2165C60.0877 17.3505 60.2246 17.4932 60.3988 17.6406C60.5618 17.7793 60.7889 17.9623 61.0932 18.2002C61.5379 18.5505 61.8697 18.8794 62.0791 19.1778C62.2812 19.4647 62.3837 19.7896 62.3837 20.1446C62.3837 20.4021 62.3018 20.6603 62.1399 20.9121C61.9773 21.1664 61.7306 21.3786 61.4068 21.543C61.0808 21.7089 60.6933 21.793 60.2546 21.793Z" fill="#2DA343"/>
<path d="M63.0674 23.9995V23.4084H63.2717C63.4303 23.4084 63.5814 23.3845 63.7212 23.3374C63.8657 23.2867 64.0055 23.194 64.1373 23.0614C64.2663 22.9328 64.3956 22.7423 64.5224 22.4953C64.6473 22.2461 64.7727 21.9273 64.8958 21.5474L64.9092 21.5064L63.1869 17.3794L64.1794 17.2002C64.6933 18.5628 65.0845 19.6827 65.3431 20.531L65.3685 20.614H65.5576L65.5836 20.5332C65.7702 19.9613 65.9596 19.4205 66.1617 18.8804C66.366 18.3346 66.5851 17.7699 66.8141 17.2002L67.6243 17.3505L65.3935 22.3699C65.2084 22.7977 64.9581 23.1838 64.6481 23.5181C64.3492 23.842 63.9628 23.9995 63.4665 23.9995H63.0674Z" fill="#2DA343"/>
<path d="M69.5444 21.793C69.2097 21.793 68.9217 21.672 68.6881 21.434C68.4505 21.1913 68.335 20.8846 68.335 20.4959C68.335 20.1022 68.4664 19.7885 68.737 19.5368C69.0145 19.2778 69.4274 19.0713 69.9642 18.9228L71.1605 18.5679L71.1457 18.4675C71.1229 18.314 71.062 18.1738 70.9657 18.0506C70.8704 17.9308 70.752 17.8366 70.614 17.7707C70.4738 17.7047 70.3285 17.671 70.1822 17.671C69.7497 17.671 69.3477 17.813 68.9855 18.093L68.7196 17.7029C68.9605 17.5157 69.2061 17.3798 69.4498 17.2991C69.7237 17.2081 70.0236 17.1621 70.342 17.1621C70.8498 17.1621 71.2822 17.281 71.6281 17.5157C71.9596 17.7406 72.1273 18.1629 72.1273 18.7707V20.6643C72.1273 21.0649 72.1744 21.4054 72.2674 21.6796H71.2036C71.1652 21.5822 71.129 21.4112 71.129 21.1131V20.8617L70.6563 21.2602C70.4412 21.4246 70.238 21.5593 70.0562 21.6564C69.8874 21.747 69.7153 21.793 69.5444 21.793ZM70.3061 19.2151C69.9819 19.314 69.7334 19.4625 69.569 19.6549C69.4009 19.8505 69.3158 20.0989 69.3158 20.3934C69.3158 20.618 69.3807 20.8078 69.5082 20.9577C69.6404 21.1138 69.8023 21.1935 69.9884 21.1935C70.1782 21.1935 70.3666 21.1211 70.5488 20.9787C70.7299 20.8389 70.874 20.6346 70.9896 20.3543C71.1011 20.0812 71.1573 19.7476 71.1573 19.3626C71.1573 19.263 71.1537 19.1724 71.1464 19.0938L71.1337 18.9478L70.3061 19.2151Z" fill="#2DA343"/>
<path d="M73.5527 21.6797V17.2756H74.5506V18.0909H74.7473L75.0313 17.6777C75.1537 17.519 75.2736 17.3861 75.383 17.289C75.4782 17.2035 75.5927 17.1622 75.7325 17.1622C75.9668 17.1622 76.1983 17.2716 76.4218 17.4875L76.0556 18.1627C75.9915 18.133 75.9285 18.1083 75.8672 18.0888C75.7676 18.0583 75.651 18.0428 75.5195 18.0428C75.2428 18.0428 75.0095 18.1666 74.8263 18.4115C74.647 18.6477 74.5597 19.0055 74.5597 19.505V21.6797H73.5527Z" fill="#2DA343"/>
<path d="M77.2715 17.2756H78.2781V21.6797H77.2715V17.2756ZM77.767 16.4302C77.65 16.4302 77.5468 16.4009 77.453 16.3408C77.3584 16.2792 77.286 16.1991 77.232 16.0963C77.1791 15.9941 77.1523 15.8836 77.1523 15.7677C77.1523 15.6699 77.1784 15.5736 77.2306 15.4812C77.2842 15.3889 77.3563 15.315 77.4504 15.2559C77.541 15.1984 77.641 15.1697 77.7493 15.1697C77.8681 15.1697 77.9746 15.1976 78.0745 15.2556C78.1738 15.3135 78.2513 15.3885 78.3114 15.4841C78.3668 15.5751 78.3954 15.671 78.3954 15.7677C78.3954 15.9492 78.3378 16.1028 78.2198 16.2375C78.1064 16.3672 77.9583 16.4302 77.767 16.4302Z" fill="#2DA343"/>
<path d="M80.7516 21.793C80.4119 21.793 80.1312 21.6756 79.8943 21.4337C79.6559 21.1906 79.54 20.8838 79.54 20.4959C79.54 20.1029 79.6715 19.7892 79.9425 19.5368C80.2214 19.2771 80.6346 19.0706 81.1703 18.9228L82.3678 18.5675L82.3522 18.4665C82.3276 18.3122 82.2675 18.1723 82.1729 18.051C82.0766 17.93 81.9578 17.8362 81.8194 17.7707C81.6767 17.7036 81.5362 17.671 81.3895 17.671C80.9566 17.671 80.5542 17.813 80.1916 18.093L79.9258 17.7029C80.167 17.5153 80.4122 17.3795 80.6556 17.2991C80.9295 17.2081 81.2297 17.1621 81.5485 17.1621C82.0556 17.1621 82.4884 17.281 82.8343 17.5157C83.1654 17.7406 83.3331 18.1629 83.3331 18.7707V20.6643C83.3331 21.0657 83.3805 21.4061 83.4732 21.6796H82.4091C82.3707 21.5818 82.3348 21.4108 82.3348 21.1131V20.8621L81.8622 21.2602C81.6463 21.4246 81.4431 21.559 81.2616 21.6568C81.0925 21.747 80.9208 21.793 80.7516 21.793ZM81.5126 19.2151C81.1892 19.314 80.9403 19.4618 80.7748 19.6549C80.606 19.8533 80.5205 20.1015 80.5205 20.3934C80.5205 20.6165 80.5854 20.8063 80.7132 20.9574C80.8458 21.1142 81.0077 21.1935 81.1942 21.1935C81.3833 21.1935 81.5724 21.1214 81.756 20.9791C81.9368 20.8389 82.0802 20.6343 82.195 20.3539C82.3059 20.0812 82.3624 19.7479 82.3624 19.3626C82.3624 19.2655 82.3591 19.1757 82.3533 19.0952L82.3421 18.9471L81.5126 19.2151Z" fill="#2DA343"/>
<path d="M88.0009 21.6797V18.9515C88.0009 18.5901 87.9143 18.3003 87.7437 18.0899C87.5677 17.8725 87.3026 17.7621 86.9556 17.7621C86.7335 17.7621 86.5303 17.8117 86.3521 17.9098C86.1707 18.008 86.0251 18.1554 85.92 18.3474C85.8175 18.5365 85.7657 18.7686 85.7657 19.0374V21.6797H84.7588V15.0969H85.7563V18.0055L85.9584 17.7907C86.1533 17.5831 86.3829 17.4248 86.6415 17.3198C86.9016 17.2155 87.1765 17.1622 87.4583 17.1622C87.7209 17.1622 87.9509 17.1974 88.1414 17.2662C88.3276 17.3339 88.4855 17.435 88.6105 17.5672C88.7355 17.699 88.8322 17.8696 88.8985 18.0736C88.9655 18.2796 88.9995 18.5281 88.9995 18.8121V21.6797H88.0009Z" fill="#2DA343"/>
</g>
<path d="M54.8919 12.8833H42.0078V0H54.8919V12.8833Z" fill="white"/>
<mask id="mask1_15339_155377" style="mask-type:luminance" maskUnits="userSpaceOnUse" x="-107" y="-17" width="217" height="306">
<path d="M-106.327 288.779H109.286V-16.1594H-106.327V288.779Z" fill="white"/>
</mask>
<g mask="url(#mask1_15339_155377)">
<path d="M47.1885 8.69531L48.5623 7.5866C48.333 7.29792 48.1132 7.00598 47.9074 6.70498C46.3192 4.40678 45.3782 2.06873 46.058 -0.000559807H42.0078V2.23245L47.1885 8.69531Z" fill="#F15A22"/>
<path d="M49.3551 5.35547C49.4406 4.62598 49.6619 3.25032 50.9999 2.22817C52.1586 1.34656 53.6082 1.17668 54.8922 1.72217V-0.000128269H47.743C47.2728 2.09597 48.5119 4.39888 49.3551 5.35547Z" fill="#F15A22"/>
<path d="M51.0884 3.2537L51.0834 3.25768C49.7385 4.35046 50.0688 6.06623 51.3213 7.60417C52.2859 8.79148 53.5761 9.62456 54.8923 8.99287V3.92849C53.7105 2.71835 52.2921 2.27501 51.0884 3.2537Z" fill="#F15A22"/>
</g>
<path d="M42.0078 4.87488V12.8818H42.0103L45.9084 9.72882L42.0078 4.87488Z" fill="#F15A22"/>
<mask id="mask2_15339_155377" style="mask-type:luminance" maskUnits="userSpaceOnUse" x="-107" y="-17" width="217" height="306">
<path d="M-106.327 288.779H109.286V-16.1594H-106.327V288.779Z" fill="white"/>
</mask>
<g mask="url(#mask2_15339_155377)">
<path d="M49.0968 8.22155C48.714 8.53631 48.2409 8.92134 47.7168 9.35019L48.2221 9.98115C48.9548 10.8965 50.0259 12.4822 51.3526 12.053L51.4015 12.1135L50.4591 12.8813H54.8914V9.83555C52.6109 11.0743 50.6503 9.94711 49.0968 8.22155Z" fill="#F15A22"/>
<path d="M46.9585 11.0378L46.4333 10.3851C45.3586 11.2486 44.2296 12.1534 43.3125 12.8818H48.2718C47.9491 12.1984 47.3642 11.5438 46.9585 11.0378Z" fill="#F15A22"/>
</g>
</g>
<defs>
<clipPath id="clip0_15339_155377">
<rect width="46.9922" height="24" fill="white" transform="translate(42.0078)"/>
</clipPath>
</defs>
</svg>
