<svg width="88" height="24" viewBox="0 0 88 24" fill="none" xmlns="http://www.w3.org/2000/svg">
<path d="M40.8558 16.7079C41.04 16.7079 41.1987 16.687 41.3318 16.6453C41.465 16.6036 41.5737 16.5454 41.6581 16.4707C41.7446 16.3938 41.8079 16.3037 41.8478 16.2004C41.8878 16.095 41.9077 15.9797 41.9077 15.8544C41.9077 15.6106 41.8201 15.4184 41.6448 15.2778C41.4694 15.135 41.2065 15.0636 40.8558 15.0636H39.8239V16.7079L40.8558 16.7079ZM39.8239 12.9974V14.6088H40.6761C40.858 14.6088 41.0156 14.589 41.1488 14.5495C41.2841 14.51 41.3951 14.455 41.4816 14.3847C41.5704 14.3144 41.6359 14.2299 41.6781 14.131C41.7202 14.0299 41.7413 13.9201 41.7413 13.8015C41.7413 13.5225 41.657 13.3193 41.4883 13.1918C41.3196 13.0622 41.0578 12.9974 40.7027 12.9974L39.8239 12.9974ZM40.7027 12.4932C40.9956 12.4932 41.2475 12.5218 41.4583 12.5789C41.6714 12.636 41.8456 12.7173 41.981 12.8228C42.1186 12.9282 42.2196 13.0578 42.2839 13.2116C42.3483 13.3632 42.3805 13.5345 42.3805 13.7257C42.3805 13.8421 42.3616 13.9541 42.3239 14.0618C42.2884 14.1672 42.234 14.2661 42.1607 14.3584C42.0875 14.4506 41.9943 14.5341 41.8811 14.6088C41.7702 14.6813 41.6392 14.7406 41.4883 14.7867C41.8389 14.8526 42.1019 14.9768 42.2773 15.1591C42.4548 15.3392 42.5436 15.5765 42.5436 15.8709C42.5436 16.0708 42.5058 16.2531 42.4304 16.4179C42.3571 16.5827 42.2484 16.7244 42.1042 16.843C41.9621 16.9616 41.7868 17.0539 41.5782 17.1198C41.3696 17.1835 41.1321 17.2154 40.8658 17.2154H39.1814V12.4932H40.7027Z" fill="#00A39D"/>
<path d="M46.0456 15.4623L45.2966 13.5411C45.2744 13.484 45.2511 13.4181 45.2267 13.3434C45.2022 13.2665 45.1789 13.1852 45.1567 13.0996C45.1101 13.2775 45.0624 13.4258 45.0136 13.5444L44.2646 15.4623H46.0456ZM47.3904 17.2154H46.8911C46.8334 17.2154 46.7868 17.2011 46.7513 17.1725C46.7158 17.144 46.6892 17.1077 46.6714 17.0638L46.2253 15.9236H44.0848L43.6388 17.0638C43.6255 17.1033 43.5999 17.1385 43.5622 17.1693C43.5245 17.2 43.4779 17.2154 43.4224 17.2154H42.9231L44.8305 12.4932H45.483L47.3904 17.2154Z" fill="#00A39D"/>
<path d="M51.9777 12.4932V17.2154H51.6548C51.6037 17.2154 51.5604 17.2066 51.5249 17.189C51.4916 17.1714 51.4584 17.1418 51.4251 17.1L48.6654 13.5411C48.6698 13.5961 48.6732 13.6499 48.6754 13.7026C48.6776 13.7553 48.6787 13.8048 48.6787 13.8509V17.2154H48.1128V12.4932H48.4457C48.4745 12.4932 48.499 12.4954 48.5189 12.4998C48.5389 12.5019 48.5567 12.5074 48.5722 12.5163C48.5877 12.5229 48.6033 12.5339 48.6188 12.5492C48.6343 12.5624 48.651 12.58 48.6687 12.6019L51.4284 16.1576C51.424 16.1004 51.4195 16.0455 51.4151 15.9928C51.4129 15.9379 51.4118 15.8862 51.4118 15.8379V12.4932L51.9777 12.4932Z" fill="#00A39D"/>
<path d="M53.9317 14.5627H54.1747C54.2591 14.5627 54.3267 14.5528 54.3778 14.533C54.4288 14.5111 54.4754 14.4748 54.5176 14.4243L56.1055 12.6448C56.1499 12.5877 56.1965 12.5482 56.2453 12.5262C56.2941 12.5042 56.354 12.4932 56.4251 12.4932H56.971L55.1534 14.5264C55.109 14.5792 55.0658 14.6231 55.0236 14.6582C54.9836 14.6912 54.9404 14.7186 54.8938 14.7406C54.9537 14.7604 55.0081 14.7901 55.0569 14.8296C55.1057 14.8669 55.1534 14.9164 55.2 14.9779L57.0975 17.2154H56.5382C56.4961 17.2154 56.4595 17.2132 56.4284 17.2088C56.3995 17.2022 56.374 17.1934 56.3518 17.1824C56.3296 17.1693 56.3097 17.155 56.2919 17.1396C56.2764 17.122 56.2608 17.1023 56.2453 17.0803L54.6008 15.2053C54.5564 15.1504 54.5087 15.1119 54.4577 15.09C54.4066 15.0658 54.329 15.0537 54.2247 15.0537H53.9317V17.2154H53.2892V12.4933H53.9317V14.5627Z" fill="#00A39D"/>
<path d="M62.0309 13.2314C62.0109 13.2643 61.9887 13.2896 61.9643 13.3072C61.9421 13.3225 61.9144 13.3302 61.8811 13.3302C61.8434 13.3302 61.799 13.3116 61.748 13.2742C61.6969 13.2369 61.6326 13.1962 61.5549 13.1523C61.4794 13.1062 61.3873 13.0644 61.2786 13.0271C61.1721 12.9897 61.0422 12.9711 60.8891 12.9711C60.7449 12.9711 60.6172 12.9908 60.5063 13.0304C60.3975 13.0677 60.3054 13.1193 60.23 13.1852C60.1567 13.2511 60.1013 13.3291 60.0635 13.4192C60.0258 13.5071 60.0069 13.6026 60.0069 13.7059C60.0069 13.8377 60.0391 13.9476 60.1035 14.0354C60.1701 14.1211 60.2566 14.1947 60.3631 14.2562C60.4719 14.3177 60.5939 14.3715 60.7293 14.4177C60.8669 14.4616 61.0067 14.5077 61.1488 14.5561C61.293 14.6044 61.4328 14.6593 61.5682 14.7208C61.7058 14.7802 61.8279 14.856 61.9344 14.9482C62.0431 15.0405 62.1297 15.1536 62.194 15.2876C62.2606 15.4216 62.2939 15.5864 62.2939 15.7819C62.2939 15.9884 62.2584 16.1829 62.1874 16.3652C62.1164 16.5453 62.012 16.7024 61.8745 16.8364C61.7391 16.9704 61.5715 17.0759 61.3718 17.1528C61.1743 17.2297 60.949 17.2681 60.696 17.2681C60.3853 17.2681 60.1035 17.2132 59.8505 17.1033C59.5975 16.9913 59.3811 16.8408 59.2013 16.6519L59.3878 16.3487C59.4055 16.3246 59.4266 16.3048 59.451 16.2894C59.4776 16.2719 59.5065 16.2631 59.5376 16.2631C59.5664 16.2631 59.5986 16.2751 59.6341 16.2993C59.6718 16.3213 59.714 16.3498 59.7606 16.385C59.8072 16.4201 59.8605 16.4586 59.9204 16.5003C59.9803 16.542 60.048 16.5805 60.1235 16.6156C60.2011 16.6508 60.2888 16.6804 60.3864 16.7046C60.4841 16.7266 60.5939 16.7376 60.716 16.7376C60.8691 16.7376 61.0056 16.7167 61.1255 16.675C61.2453 16.6332 61.3463 16.575 61.4284 16.5003C61.5127 16.4234 61.5771 16.3323 61.6215 16.2268C61.6658 16.1214 61.688 16.0038 61.688 15.8742C61.688 15.7314 61.6547 15.615 61.5882 15.5249C61.5238 15.4326 61.4384 15.3558 61.3318 15.2942C61.2253 15.2327 61.1033 15.1811 60.9657 15.1394C60.8281 15.0954 60.6883 15.0515 60.5462 15.0076C60.4042 14.9614 60.2644 14.9087 60.1268 14.8494C59.9892 14.7901 59.8671 14.7132 59.7606 14.6187C59.6541 14.5242 59.5675 14.4067 59.5009 14.2661C59.4366 14.1233 59.4044 13.9476 59.4044 13.7389C59.4044 13.5719 59.4366 13.4104 59.5009 13.2545C59.5675 13.0985 59.663 12.9601 59.7872 12.8393C59.9137 12.7184 60.068 12.6218 60.25 12.5493C60.4342 12.4768 60.645 12.4405 60.8824 12.4405C61.1488 12.4405 61.3907 12.4823 61.6081 12.5657C61.8278 12.6492 62.0209 12.7701 62.1874 12.9282L62.0309 13.2314Z" fill="#00A39D"/>
<path d="M64.9903 15.3338V17.2154H64.3445V15.3338L62.5968 12.4932H63.1627C63.2204 12.4932 63.2659 12.5075 63.2992 12.536C63.3325 12.5624 63.3614 12.5976 63.3858 12.6415L64.4776 14.477C64.5176 14.5539 64.5542 14.6264 64.5875 14.6945C64.6208 14.7604 64.6496 14.8274 64.674 14.8955C64.6985 14.8274 64.7262 14.7604 64.7573 14.6945C64.7883 14.6264 64.8227 14.5539 64.8605 14.477L65.949 12.6415C65.969 12.6042 65.9967 12.5701 66.0322 12.5393C66.0677 12.5086 66.1132 12.4932 66.1687 12.4932H66.738L64.9903 15.3338Z" fill="#00A39D"/>
<path d="M69.5143 15.4623L68.7652 13.5411C68.7431 13.484 68.7198 13.4181 68.6953 13.3434C68.6709 13.2665 68.6476 13.1852 68.6254 13.0996C68.5788 13.2775 68.5311 13.4258 68.4823 13.5444L67.7333 15.4623H69.5143ZM70.8591 17.2154H70.3598C70.3021 17.2154 70.2555 17.2011 70.22 17.1725C70.1845 17.144 70.1579 17.1077 70.1401 17.0638L69.694 15.9236H67.5535L67.1075 17.0638C67.0941 17.1033 67.0686 17.1385 67.0309 17.1693C66.9932 17.2 66.9466 17.2154 66.8911 17.2154H66.3917L68.2992 12.4932H68.9517L70.8591 17.2154Z" fill="#00A39D"/>
<path d="M72.9031 14.7802C73.0895 14.7802 73.2537 14.7582 73.3957 14.7142C73.54 14.6681 73.6598 14.6044 73.7552 14.5231C73.8529 14.4396 73.9261 14.3408 73.975 14.2265C74.0238 14.1123 74.0482 13.986 74.0482 13.8476C74.0482 13.5664 73.955 13.3544 73.7686 13.2116C73.5822 13.0688 73.3025 12.9974 72.9297 12.9974H72.224V14.7802H72.9031ZM75.1068 17.2154H74.5342C74.4166 17.2154 74.33 17.1703 74.2746 17.0803L73.0362 15.3931C72.9985 15.3404 72.9574 15.303 72.913 15.281C72.8709 15.2569 72.8043 15.2448 72.7133 15.2448H72.224V17.2154H71.5815V12.4932H72.9297C73.2315 12.4932 73.4923 12.524 73.712 12.5855C73.9317 12.6448 74.1126 12.7316 74.2546 12.8458C74.3988 12.9601 74.5054 13.0985 74.5742 13.261C74.643 13.4214 74.6774 13.6016 74.6774 13.8015C74.6774 13.9684 74.6507 14.1244 74.5975 14.2694C74.5442 14.4144 74.4665 14.5451 74.3644 14.6615C74.2646 14.7758 74.1414 14.8735 73.9949 14.9548C73.8507 15.0361 73.6865 15.0976 73.5023 15.1394C73.5844 15.1855 73.6554 15.2525 73.7153 15.3404L75.1068 17.2154Z" fill="#00A39D"/>
<path d="M76.4916 17.2154H75.8458V12.4932H76.4916V17.2154Z" fill="#00A39D"/>
<path d="M80.3365 15.4623L79.5875 13.5411C79.5653 13.484 79.542 13.4181 79.5176 13.3434C79.4932 13.2665 79.4699 13.1852 79.4477 13.0996C79.4011 13.2775 79.3534 13.4258 79.3045 13.5444L78.5555 15.4623H80.3365ZM81.6814 17.2154H81.182C81.1243 17.2154 81.0777 17.2011 81.0422 17.1725C81.0067 17.144 80.9801 17.1077 80.9623 17.0638L80.5163 15.9236H78.3758L77.9297 17.0638C77.9164 17.1033 77.8909 17.1385 77.8531 17.1693C77.8154 17.2 77.7688 17.2154 77.7133 17.2154H77.214L79.1214 12.4932H79.7739L81.6814 17.2154Z" fill="#00A39D"/>
<path d="M86.2686 12.4932V17.2154H85.6228V15.0668H83.0495V17.2154H82.4037V12.4932H83.0495V14.5989H85.6228V12.4932H86.2686Z" fill="#00A39D"/>
<path d="M39.8272 23.8059H39.1814V19.0838H39.8272V23.8059Z" fill="#00A39D"/>
<path d="M45.0036 19.0838V23.8059H44.6807C44.6297 23.8059 44.5864 23.7972 44.5509 23.7796C44.5176 23.762 44.4843 23.7324 44.451 23.6906L41.6914 20.1317C41.6958 20.1866 41.6991 20.2404 41.7014 20.2932C41.7036 20.3459 41.7047 20.3953 41.7047 20.4415V23.8059H41.1388V19.0838H41.4717C41.5005 19.0838 41.5249 19.086 41.5449 19.0904C41.5649 19.0925 41.5826 19.098 41.5982 19.1069C41.6137 19.1134 41.6292 19.1244 41.6448 19.1398C41.6603 19.153 41.6769 19.1706 41.6947 19.1925L44.4544 22.7481C44.4499 22.691 44.4455 22.6361 44.441 22.5834C44.4388 22.5284 44.4377 22.4768 44.4377 22.4285V19.0838L45.0036 19.0838Z" fill="#00A39D"/>
<path d="M50.4497 21.4465C50.4497 21.8002 50.3931 22.1221 50.2799 22.412C50.1667 22.702 50.0069 22.9503 49.8006 23.1568C49.5942 23.3633 49.3456 23.5237 49.0549 23.6379C48.7664 23.7499 48.4468 23.8059 48.0962 23.8059H46.3152V19.0838H48.0962C48.4468 19.0838 48.7664 19.1409 49.0549 19.2552C49.3456 19.3672 49.5942 19.5276 49.8006 19.7363C50.0069 19.9428 50.1667 20.191 50.2799 20.481C50.3931 20.771 50.4497 21.0928 50.4497 21.4465ZM49.7872 21.4465C49.7872 21.1565 49.7473 20.8973 49.6674 20.6688C49.5875 20.4404 49.4743 20.247 49.3279 20.0889C49.1814 19.9307 49.0038 19.8099 48.7952 19.7264C48.5866 19.6429 48.3536 19.6012 48.0962 19.6012H46.961V23.2886H48.0962C48.3536 23.2886 48.5866 23.2468 48.7952 23.1634C49.0038 23.0799 49.1814 22.9602 49.3279 22.8042C49.4743 22.646 49.5875 22.4527 49.6674 22.2242C49.7473 21.9957 49.7872 21.7365 49.7872 21.4465Z" fill="#00A39D"/>
<path d="M55.8791 21.4465C55.8791 21.8002 55.8225 22.1253 55.7094 22.4219C55.5962 22.7163 55.4364 22.97 55.23 23.1831C55.0236 23.3962 54.775 23.5621 54.4843 23.6807C54.1958 23.7972 53.8762 23.8554 53.5256 23.8554C53.175 23.8554 52.8554 23.7972 52.5669 23.6807C52.2784 23.5621 52.0309 23.3962 51.8245 23.1831C51.6181 22.97 51.4583 22.7163 51.3452 22.4219C51.232 22.1253 51.1754 21.8002 51.1754 21.4465C51.1754 21.0928 51.232 20.7688 51.3452 20.4744C51.4583 20.1778 51.6181 19.923 51.8245 19.7099C52.0309 19.4946 52.2784 19.3277 52.5669 19.209C52.8554 19.0904 53.175 19.0311 53.5256 19.0311C53.8762 19.0311 54.1958 19.0904 54.4843 19.209C54.775 19.3277 55.0236 19.4946 55.23 19.7099C55.4364 19.923 55.5962 20.1778 55.7094 20.4744C55.8225 20.7688 55.8791 21.0928 55.8791 21.4465ZM55.2167 21.4465C55.2167 21.1565 55.1767 20.8962 55.0968 20.6655C55.0169 20.4349 54.9038 20.2404 54.7573 20.0823C54.6108 19.9219 54.4333 19.7989 54.2247 19.7132C54.0161 19.6275 53.783 19.5847 53.5256 19.5847C53.2704 19.5847 53.0385 19.6275 52.8299 19.7132C52.6212 19.7989 52.4426 19.9219 52.2939 20.0823C52.1474 20.2404 52.0342 20.4349 51.9544 20.6655C51.8745 20.8962 51.8345 21.1565 51.8345 21.4465C51.8345 21.7365 51.8745 21.9968 51.9544 22.2275C52.0342 22.456 52.1474 22.6504 52.2939 22.8108C52.4426 22.9689 52.6212 23.0909 52.8299 23.1765C53.0385 23.26 53.2704 23.3018 53.5256 23.3018C53.783 23.3018 54.0161 23.26 54.2247 23.1765C54.4333 23.0909 54.6108 22.9689 54.7573 22.8108C54.9038 22.6504 55.0169 22.456 55.0968 22.2275C55.1767 21.9968 55.2167 21.7365 55.2167 21.4465Z" fill="#00A39D"/>
<path d="M60.7593 19.0838V23.8059H60.4364C60.3853 23.8059 60.3421 23.7972 60.3066 23.7796C60.2733 23.762 60.24 23.7324 60.2067 23.6906L57.447 20.1317C57.4515 20.1866 57.4548 20.2404 57.457 20.2932C57.4592 20.3459 57.4603 20.3953 57.4603 20.4415V23.8059H56.8944V19.0838H57.2273C57.2562 19.0838 57.2806 19.086 57.3006 19.0904C57.3205 19.0925 57.3383 19.098 57.3538 19.1069C57.3694 19.1134 57.3849 19.1244 57.4004 19.1398C57.416 19.153 57.4326 19.1706 57.4504 19.1925L60.21 22.7481C60.2056 22.691 60.2011 22.6361 60.1967 22.5834C60.1945 22.5284 60.1934 22.4768 60.1934 22.4285V19.0838L60.7593 19.0838Z" fill="#00A39D"/>
<path d="M65.0136 23.2853L65.0103 23.8059H62.0709V19.0838H65.0103V19.6045H62.7167V21.173H64.5742V21.6739H62.7167V23.2853H65.0136Z" fill="#00A39D"/>
<path d="M68.449 19.8219C68.4291 19.8549 68.4069 19.8801 68.3825 19.8977C68.3603 19.9131 68.3325 19.9208 68.2992 19.9208C68.2615 19.9208 68.2171 19.9021 68.1661 19.8648C68.115 19.8275 68.0507 19.7868 67.973 19.7429C67.8975 19.6967 67.8055 19.655 67.6967 19.6176C67.5902 19.5803 67.4604 19.5616 67.3072 19.5616C67.163 19.5616 67.0354 19.5814 66.9244 19.6209C66.8157 19.6583 66.7236 19.7099 66.6481 19.7758C66.5749 19.8417 66.5194 19.9197 66.4817 20.0098C66.4439 20.0977 66.4251 20.1932 66.4251 20.2965C66.4251 20.4283 66.4572 20.5381 66.5216 20.626C66.5882 20.7117 66.6747 20.7853 66.7813 20.8468C66.89 20.9083 67.0121 20.9621 67.1474 21.0083C67.285 21.0522 67.4249 21.0983 67.5669 21.1467C67.7111 21.195 67.8509 21.2499 67.9863 21.3114C68.1239 21.3707 68.246 21.4465 68.3525 21.5388C68.4613 21.6311 68.5478 21.7442 68.6122 21.8782C68.6787 22.0122 68.712 22.177 68.712 22.3725C68.712 22.579 68.6765 22.7734 68.6055 22.9558C68.5345 23.1359 68.4302 23.293 68.2926 23.427C68.1572 23.561 67.9896 23.6665 67.7899 23.7433C67.5924 23.8202 67.3671 23.8587 67.1141 23.8587C66.8034 23.8587 66.5216 23.8038 66.2686 23.6939C66.0156 23.5819 65.7992 23.4314 65.6195 23.2425L65.8059 22.9393C65.8236 22.9151 65.8447 22.8954 65.8691 22.88C65.8958 22.8624 65.9246 22.8536 65.9557 22.8536C65.9845 22.8536 66.0167 22.8657 66.0522 22.8899C66.09 22.9118 66.1321 22.9404 66.1787 22.9756C66.2253 23.0107 66.2786 23.0491 66.3385 23.0909C66.3984 23.1326 66.4661 23.1711 66.5416 23.2062C66.6192 23.2414 66.7069 23.271 66.8046 23.2952C66.9022 23.3172 67.0121 23.3281 67.1341 23.3281C67.2872 23.3281 67.4237 23.3073 67.5436 23.2655C67.6634 23.2238 67.7644 23.1656 67.8465 23.0909C67.9308 23.014 67.9952 22.9228 68.0396 22.8174C68.084 22.7119 68.1062 22.5944 68.1062 22.4648C68.1062 22.322 68.0729 22.2056 68.0063 22.1155C67.9419 22.0232 67.8565 21.9463 67.75 21.8848C67.6434 21.8233 67.5214 21.7717 67.3838 21.7299C67.2462 21.686 67.1064 21.6421 66.9643 21.5981C66.8223 21.552 66.6825 21.4993 66.5449 21.44C66.4073 21.3806 66.2852 21.3037 66.1787 21.2093C66.0722 21.1148 65.9856 20.9973 65.9191 20.8567C65.8547 20.7139 65.8225 20.5381 65.8225 20.3294C65.8225 20.1625 65.8547 20.001 65.9191 19.845C65.9856 19.6891 66.0811 19.5507 66.2054 19.4298C66.3318 19.309 66.4861 19.2123 66.6681 19.1398C66.8523 19.0674 67.0631 19.0311 67.3006 19.0311C67.5669 19.0311 67.8088 19.0728 68.0263 19.1563C68.246 19.2398 68.439 19.3606 68.6055 19.5188L68.449 19.8219Z" fill="#00A39D"/>
<path d="M70.3598 23.8059H69.714V19.0838H70.3598V23.8059Z" fill="#00A39D"/>
<path d="M74.2047 22.0529L73.4557 20.1317C73.4335 20.0746 73.4102 20.0087 73.3858 19.934C73.3614 19.8571 73.3381 19.7758 73.3159 19.6901C73.2693 19.8681 73.2216 20.0164 73.1727 20.135L72.4237 22.0529H74.2047ZM75.5496 23.8059H75.0502C74.9925 23.8059 74.9459 23.7917 74.9104 23.7631C74.8749 23.7346 74.8483 23.6983 74.8305 23.6544L74.3845 22.5142H72.244L71.7979 23.6544C71.7846 23.6939 71.7591 23.7291 71.7213 23.7598C71.6836 23.7906 71.637 23.8059 71.5815 23.8059H71.0822L72.9896 19.0838H73.6421L75.5496 23.8059Z" fill="#00A39D"/>
<path d="M6.71624 20.8075C7.23706 20.8075 7.66071 20.7407 7.9872 20.6071C8.32146 20.4735 8.58187 20.3006 8.76843 20.0884C8.95499 19.8762 9.08325 19.6366 9.15321 19.3694C9.22317 19.1022 9.25815 18.831 9.25815 18.556C9.25815 18.2417 9.2154 17.9587 9.12989 17.7073C9.05216 17.4558 8.91224 17.2436 8.71013 17.0707C8.51579 16.8978 8.25538 16.7642 7.9289 16.6699C7.60241 16.5756 7.19042 16.5285 6.69292 16.5285H3.94113V20.8075H6.71624ZM3.94113 9.6207V13.8644H5.99331C6.42863 13.8644 6.82118 13.8329 7.17099 13.7701C7.52079 13.7072 7.81618 13.5972 8.05716 13.44C8.30591 13.2828 8.49247 13.0667 8.61685 12.7917C8.74899 12.5166 8.81507 12.1708 8.81507 11.7543C8.81507 11.3457 8.76454 11.0077 8.66349 10.7406C8.56243 10.4655 8.40696 10.2455 8.19708 10.0804C7.9872 9.91539 7.71902 9.79752 7.39253 9.72679C7.07382 9.65607 6.69292 9.6207 6.24984 9.6207H3.94113ZM6.24984 6.63835C7.42362 6.63835 8.42251 6.74836 9.24649 6.9684C10.0705 7.18844 10.7429 7.49887 11.2637 7.89967C11.7845 8.30045 12.1615 8.78768 12.3947 9.36136C12.6357 9.93504 12.7562 10.5755 12.7562 11.2828C12.7562 11.6679 12.7018 12.0412 12.593 12.4027C12.4841 12.7563 12.3131 13.0903 12.0799 13.4046C11.8467 13.7111 11.5474 13.994 11.1821 14.2534C10.8167 14.5127 10.3775 14.7367 9.86448 14.9253C10.9839 15.2003 11.8117 15.6444 12.3481 16.2573C12.8845 16.8703 13.1526 17.664 13.1526 18.6385C13.1526 19.3694 13.0127 20.0491 12.7329 20.6778C12.453 21.3065 12.041 21.8566 11.4969 22.3282C10.9605 22.7918 10.2959 23.1572 9.50302 23.4244C8.71013 23.6838 7.80452 23.8134 6.7862 23.8134H0V6.63835H6.24984Z" fill="#00A39D"/>
<path d="M25.2592 10.1414C25.1426 10.3298 25.0183 10.4711 24.8861 10.5653C24.7617 10.6595 24.5985 10.7066 24.3964 10.7066C24.2176 10.7066 24.0233 10.6516 23.8134 10.5417C23.6113 10.424 23.3781 10.2945 23.1138 10.1532C22.8572 10.0119 22.5619 9.88627 22.2276 9.77638C21.8933 9.65864 21.5124 9.59976 21.0849 9.59976C20.3464 9.59976 19.7945 9.76067 19.4292 10.0825C19.0716 10.3965 18.8928 10.8243 18.8928 11.3659C18.8928 11.7113 19.0016 11.9978 19.2193 12.2255C19.4369 12.4531 19.7207 12.6494 20.0705 12.8142C20.428 12.979 20.8323 13.1321 21.2831 13.2734C21.7418 13.4069 22.2082 13.5599 22.6823 13.7326C23.1565 13.8975 23.619 14.0937 24.0699 14.3213C24.5285 14.549 24.9328 14.8394 25.2826 15.1927C25.6401 15.5459 25.9277 15.9776 26.1454 16.4879C26.3631 16.9902 26.4719 17.5986 26.4719 18.3129C26.4719 19.1057 26.3359 19.8475 26.0638 20.5383C25.7917 21.2291 25.3953 21.8335 24.8744 22.3516C24.3614 22.8618 23.724 23.2661 22.9622 23.5643C22.2082 23.8548 21.3492 24 20.3853 24C19.8567 24 19.3164 23.9451 18.7645 23.8352C18.2204 23.7253 17.6918 23.5722 17.1788 23.3759C16.6657 23.1719 16.1838 22.9324 15.7329 22.6577C15.282 22.383 14.8895 22.0768 14.5552 21.7393L15.7212 19.8789C15.8145 19.7455 15.935 19.6356 16.0827 19.5492C16.2382 19.455 16.4053 19.4079 16.5841 19.4079C16.8173 19.4079 17.0505 19.4825 17.2837 19.6317C17.5247 19.7808 17.7929 19.9456 18.0882 20.1262C18.3914 20.3067 18.7373 20.4716 19.126 20.6207C19.5147 20.7699 19.9733 20.8444 20.5019 20.8444C21.2171 20.8444 21.7729 20.6874 22.1693 20.3735C22.5657 20.0516 22.764 19.5453 22.764 18.8545C22.764 18.4542 22.6551 18.1284 22.4375 17.8772C22.2198 17.6261 21.9322 17.418 21.5746 17.2532C21.2248 17.0884 20.8245 16.9431 20.3736 16.8175C19.9228 16.6919 19.4603 16.5546 18.9861 16.4054C18.5119 16.2484 18.0494 16.06 17.5985 15.8403C17.1477 15.6126 16.7434 15.3183 16.3859 14.9572C16.0361 14.5882 15.7523 14.133 15.5347 13.5913C15.317 13.0418 15.2082 12.3668 15.2082 11.5661C15.2082 10.9224 15.3365 10.2945 15.593 9.68217C15.8495 9.0699 16.2265 8.52436 16.724 8.04553C17.2215 7.56669 17.8317 7.18597 18.5547 6.90339C19.2776 6.61295 20.1055 6.46773 21.0383 6.46773C21.5591 6.46773 22.0644 6.51091 22.5541 6.59725C23.0516 6.67574 23.5219 6.79742 23.965 6.96227C24.408 7.11926 24.82 7.31157 25.2009 7.53922C25.5896 7.75901 25.9355 8.0102 26.2387 8.29279L25.2592 10.1414Z" fill="#00A39D"/>
<path fill-rule="evenodd" clip-rule="evenodd" d="M39.3455 5.92795C36.3194 5.63319 35.2554 7.29942 34.6618 8.12357C33.9047 4.82874 32.6245 5.08854 31.2547 4.25854C33.2344 3.10949 33.7881 1.32308 33.7336 0C35.6727 1.4217 37.0248 1.26914 38.6992 0.80814C37.866 3.29445 38.3921 3.99623 39.3455 5.92795Z" fill="#F8AD3C"/>
<path d="M33.0166 23.8206H28.9182V6.25673C31.4828 6.6042 33.0206 8.72536 33.0166 10.9704V23.8206Z" fill="#00A39D"/>
</svg>
