<?xml version="1.0" encoding="UTF-8"?>
<svg xmlns="http://www.w3.org/2000/svg" xmlns:xlink="http://www.w3.org/1999/xlink" width="84px" height="25px" viewBox="0 0 84 25" version="1.1">
<g id="surface1">
<path style=" stroke:none;fill-rule:evenodd;fill:rgb(94.509804%,35.294118%,13.72549%);fill-opacity:1;" d="M 0.3125 8.703125 L 7.351562 17.617188 L 0.3125 23.46875 Z M 3.144531 23.46875 L 8.441406 19.023438 L 12.101562 23.46875 Z M 0.3125 3.933594 L 2.148438 6.269531 L 9.703125 15.742188 L 12.148438 13.785156 C 12.148438 13.785156 10.117188 11.382812 8.753906 8.703125 C 6.085938 3.464844 7.976562 0.207031 7.976562 0.207031 L 0.3125 0.207031 Z M 10.777344 17.203125 L 13.273438 15.136719 C 13.273438 15.136719 15.652344 18.285156 18.410156 19.023438 C 22.027344 19.996094 23.632812 17.617188 23.632812 17.617188 L 23.632812 23.46875 L 15.683594 23.46875 L 17.476562 21.917969 C 17.476562 21.917969 16.542969 22.539062 14.257812 20.953125 C 12.910156 20.015625 10.777344 17.203125 10.777344 17.203125 Z M 11.007812 0.1875 C 11.007812 0.1875 10.210938 1.273438 10.777344 3.933594 C 11.382812 6.777344 13.789062 9.789062 13.785156 9.722656 C 13.785156 9.722656 13.941406 6.730469 15.683594 4.976562 C 19.410156 1.242188 23.632812 3.464844 23.632812 3.464844 L 23.632812 0.207031 Z M 11.007812 0.1875 "/>
<path style=" stroke:none;fill-rule:evenodd;fill:rgb(94.509804%,35.294118%,13.72549%);fill-opacity:1;" d="M 23.632812 7.40625 C 23.632812 7.40625 21.277344 5.382812 19.230469 5.382812 C 16.609375 5.382812 15.179688 7.648438 15.179688 9.300781 C 15.179688 11.695312 16.328125 13.027344 17.476562 14.183594 C 19.132812 15.84375 21.144531 17.636719 23.632812 16.191406 Z M 23.632812 7.40625 "/>
<path style=" stroke:none;fill-rule:evenodd;fill:rgb(0%,36.862745%,41.568627%);fill-opacity:1;" d="M 50.453125 0.429688 L 56.007812 0.429688 C 56.007812 0.429688 60.929688 7.914062 63.351562 11.003906 C 65.050781 13.1875 66.726562 15.394531 68.375 17.617188 L 68.375 2.105469 C 68.375 1.4375 66.621094 0.429688 66.621094 0.429688 L 73.03125 0.429688 C 73.03125 0.429688 70.929688 1.296875 70.929688 2.109375 L 70.929688 24.671875 C 70.929688 24.671875 68.910156 23.546875 66.625 20.875 C 64.054688 17.878906 54.90625 5.777344 54.90625 5.777344 L 54.90625 21.453125 C 54.90625 22.253906 56.65625 23.46875 56.65625 23.46875 L 50.453125 23.46875 C 50.453125 23.46875 52.152344 22.246094 52.152344 21.453125 L 52.152344 2.105469 C 52.152344 1.394531 50.453125 0.429688 50.453125 0.429688 Z M 76.617188 0.429688 L 83.75 0.429688 C 83.75 0.429688 81.835938 1.34375 81.835938 2.109375 L 81.835938 21.457031 C 81.835938 22.289062 83.75 23.46875 83.75 23.46875 L 76.617188 23.46875 C 76.617188 23.46875 78.398438 22.261719 78.398438 21.457031 L 78.398438 2.105469 C 78.398438 1.371094 76.617188 0.429688 76.617188 0.429688 Z M 29.464844 0.429688 C 29.464844 0.429688 31.316406 1.355469 31.316406 2.109375 L 31.316406 21.457031 C 31.316406 22.277344 29.464844 23.46875 29.464844 23.46875 L 40.03125 23.46875 C 40.695312 23.46875 48.089844 22.257812 48.089844 16.53125 C 48.089844 10.8125 42.347656 10.277344 42.347656 10.277344 C 42.347656 10.277344 45.84375 9.300781 45.84375 5.382812 C 45.84375 1.160156 40.695312 0.429688 40.03125 0.429688 Z M 35.082031 9.894531 L 35.082031 2.691406 L 39.371094 2.691406 C 40.03125 2.691406 42.347656 3.464844 42.347656 6.335938 C 42.347656 8.703125 40.03125 9.894531 39.371094 9.894531 Z M 35.082031 11.785156 L 40.03125 11.785156 C 40.695312 11.785156 44.589844 12.800781 44.589844 16.191406 C 44.589844 19.652344 40.695312 20.878906 40.03125 20.878906 L 35.082031 20.878906 Z M 35.082031 11.785156 "/>
</g>
</svg>
