<svg width="92" height="24" viewBox="0 0 92 24" fill="none" xmlns="http://www.w3.org/2000/svg">
<path d="M76.4463 3.51599L78.7074 4.64656L79.1339 4.1507L76.6248 3.16888L76.4463 3.51599Z" fill="#B0182A"/>
<path d="M79.1339 4.1507L79.8083 4.64657L82.8529 3.49615L82.476 3.10938L79.1339 4.1507Z" fill="#EA5B67"/>
<path d="M74.2149 9.06971L74.9488 9.39698L76.5256 7.2945L76.0198 6.94739L74.2149 9.06971Z" fill="#1DBBEE"/>
<path d="M72.0826 8.93086L72.0628 9.29781L74.1752 9.6945L74.2149 9.06971L72.0826 8.93086Z" fill="#00758E"/>
<path d="M83.4182 6.74905L87.9901 8.85153L88 9.44657L80.5025 20.8019L80.1554 20.8912L80.1058 20.8714L80.0066 20.6135L83.0215 6.97715L83.4182 6.74905Z" fill="#78B94D"/>
<path d="M84.9554 9.70442L80.1554 20.8912L80.5025 20.8019L88 9.44657L84.9554 9.70442Z" fill="#5D9131"/>
<path d="M83.0215 6.97715L79.9967 20.6135L80.1058 20.8714L84.0926 9.22838L83.0215 6.96723V6.97715Z" fill="#177D3B"/>
<path d="M84.7868 8.89119L84.9554 9.70442L88 9.44657L87.9901 8.85153L84.7868 8.89119Z" fill="#A2C964"/>
<path d="M83.0215 6.97715L84.0926 9.22838L84.7868 8.89119L83.4182 6.74905L83.0215 6.97715Z" fill="#458C34"/>
<path d="M76.4463 3.51599L76.6248 3.16888L82.476 3.10938L82.8529 3.49615L80.0463 12.8581L79.8678 12.9573L79.6694 12.8383L76.4463 3.51599Z" fill="#E5233E"/>
<path d="M79.6694 12.8383L79.8678 12.9573L78.7074 4.64656L76.4463 3.51599L79.6694 12.8383Z" fill="#76191C"/>
<path d="M79.8083 4.64657L79.8678 12.9573L79.8777 12.9573L80.0463 12.8581L82.8529 3.49615L79.8083 4.64657Z" fill="#B41731"/>
<path fill-rule="evenodd" clip-rule="evenodd" d="M52.1388 20.0383C52.1488 19.9292 52.1488 19.7606 52.1587 19.5226V15.03L52.1388 14.5937C52.1388 14.5342 52.1388 14.4647 52.1289 14.4052C52.1289 14.3755 52.119 14.3457 52.1091 14.316C52.0793 14.2069 51.9901 14.1176 51.8909 14.078C51.7421 14.0284 51.5934 14.0086 51.4347 14.0086V13.8598H54.0033C54.3405 13.8598 54.6777 13.8796 55.0149 13.9292C55.2628 13.9689 55.5107 14.0284 55.7488 14.1276C56.2843 14.3854 56.5521 14.8119 56.5421 15.4168C56.5521 16.2895 55.9769 16.8449 54.7868 16.9838L54.5884 17.0135C54.8562 17.0333 55.124 17.0829 55.3818 17.1524C55.5504 17.192 55.719 17.2515 55.8777 17.3309C56.5025 17.6482 56.8198 18.154 56.8099 18.8581C56.8099 19.711 56.4033 20.2565 55.5603 20.5243C55.3322 20.5838 55.1041 20.6234 54.8661 20.6433C54.5686 20.673 54.2612 20.6928 53.9537 20.6928H51.4347V20.5441C51.7322 20.5441 51.9306 20.4945 52.0298 20.3854C52.0694 20.3557 52.0893 20.316 52.1091 20.2664C52.1289 20.197 52.1388 20.1176 52.1388 20.0383ZM52.9322 14.0681V16.9243H53.9339C55.0942 16.9143 55.6992 16.4284 55.7091 15.4664C55.719 14.5243 55.0843 14.0681 53.8446 14.0681H52.9322ZM55.9074 18.7887C55.9074 18.1243 55.6595 17.6482 55.1835 17.3904C55.005 17.311 54.8264 17.2515 54.6281 17.2218C54.3901 17.1821 54.1422 17.1524 53.8942 17.1623H52.9322V20.4945H53.8942C54.5884 20.4945 55.1041 20.3656 55.4116 20.0978C55.5802 19.959 55.6992 19.7705 55.7785 19.5623C55.8678 19.3143 55.9074 19.0466 55.9074 18.7887Z" fill="#231F20"/>
<path d="M60.4793 20.5044C60.4297 20.4052 60.3901 20.2862 60.3802 19.9689V19.8697L60.3207 19.9391C60.2512 20.0185 60.1818 20.0879 60.1025 20.1573C60.0231 20.2267 59.9438 20.2862 59.8545 20.3457C59.676 20.4846 59.4777 20.5838 59.2694 20.6631C59.0612 20.7226 58.8529 20.7524 58.6347 20.7524C58.2281 20.7524 57.9107 20.6532 57.6826 20.4648C57.5537 20.3457 57.4545 20.197 57.3851 20.0383C57.3157 19.8598 57.276 19.6714 57.276 19.4829C57.286 18.749 57.7322 18.273 58.6545 18.0647C58.9124 18.0052 59.1702 17.9557 59.4281 17.9259C59.6959 17.8862 60.0033 17.8565 60.3504 17.8367L60.3802 17.2019C60.3802 17.0234 60.3703 16.8449 60.3504 16.6763C60.3306 16.5573 60.3008 16.4284 60.2413 16.3193C60.1025 16.0614 59.8248 15.9226 59.4281 15.9226C58.7835 15.9226 58.4364 16.23 58.3967 16.835C58.3967 16.9044 58.3868 16.9738 58.3769 17.0433C58.3669 17.0829 58.3471 17.1127 58.3174 17.1325C58.2182 17.1821 58.1091 17.2119 58.0099 17.2019C57.6926 17.2019 57.5736 17.1127 57.5835 16.954C57.5835 16.7854 57.643 16.6168 57.7521 16.478C57.881 16.3094 58.0298 16.1705 58.2182 16.0714C58.5752 15.873 59.0314 15.7738 59.5868 15.7738C60.2016 15.7738 60.6182 15.9127 60.8364 16.1805C60.9355 16.2995 61.005 16.4482 61.0347 16.597C61.0843 16.8052 61.1041 17.0234 61.1041 17.2317V17.5391L61.0942 18.1937L61.0843 19.0962L61.0744 19.5325C61.0744 19.7408 61.0843 19.8995 61.0942 20.0681C61.114 20.2466 61.1736 20.435 61.3025 20.4846C61.481 20.5441 61.6595 20.5738 61.8479 20.5639C61.9967 20.5639 62.1455 20.5441 62.2843 20.4945C62.4033 20.4449 62.4826 20.3259 62.5025 20.197C62.5322 19.9788 62.5521 19.7606 62.5421 19.5424V16.9838C62.5521 16.6367 62.5025 16.3887 62.4132 16.2697C62.324 16.1507 62.1355 16.0912 61.8876 16.0912V15.9524L63.2562 15.8532V16.9342L63.3256 16.8052C63.4843 16.4978 63.7223 16.23 64.0099 16.0416C64.2975 15.8829 64.6347 15.8036 64.9719 15.8135C65.557 15.8036 65.9537 16.0019 66.1917 16.3887C66.281 16.5276 66.3504 16.6862 66.3802 16.8548C66.4198 17.0829 66.4397 17.3209 66.4298 17.559V19.5325C66.4198 19.7507 66.4298 19.9689 66.4694 20.1871C66.4793 20.316 66.5686 20.435 66.6876 20.4846C66.8562 20.5342 67.0248 20.554 67.1934 20.554C67.3322 20.554 67.4711 20.5342 67.6 20.4846C67.719 20.4251 67.7983 20.316 67.8083 20.1871C67.838 19.9689 67.8578 19.7507 67.8479 19.5325V14.8912C67.8578 14.6928 67.8479 14.4945 67.8182 14.3061C67.8083 14.1871 67.719 14.0879 67.6099 14.0383C67.4711 13.9986 67.3223 13.9788 67.1736 13.9887V13.8499L68.5917 13.7804C68.5719 14.0978 68.562 14.4152 68.5521 14.7424C68.5422 15.0895 68.5421 15.3871 68.5421 15.6449V18.7689L70.1091 17.0532C70.3273 16.8052 70.4463 16.597 70.4562 16.4383C70.4661 16.2102 70.238 16.1011 69.8512 16.0912V15.9524H71.8347V16.0912C71.7256 16.1011 71.6165 16.1209 71.5174 16.1606C71.4083 16.2003 71.3091 16.2499 71.2099 16.2995C71.1008 16.359 71.0215 16.4185 70.9521 16.4681C70.8628 16.5375 70.7736 16.6168 70.6942 16.7061C70.595 16.8052 70.4562 16.954 70.2678 17.1523L69.7521 17.7176L71.1008 19.84C71.2099 20.0383 71.3587 20.2168 71.5273 20.3755C71.6661 20.4747 71.8347 20.5441 72.0033 20.5639V20.7028H70.7735C70.7438 20.6333 70.6942 20.5441 70.6347 20.435L70.2876 19.8102L69.2859 18.1838L68.5025 19.0664V19.5623C68.4926 19.7805 68.5025 19.9986 68.5322 20.2168C68.5421 20.3457 68.6314 20.4548 68.7405 20.5143C68.8793 20.5639 69.0281 20.5838 69.1769 20.5838V20.7226H65.0016V20.5838C65.2793 20.5738 65.4777 20.5342 65.557 20.4251C65.5868 20.3854 65.6066 20.3358 65.6264 20.2862C65.6463 20.2168 65.6562 20.1573 65.6562 20.0879C65.6562 20.0284 65.6661 19.9292 65.676 19.8102C65.686 19.6912 65.686 19.6119 65.686 19.5623V17.6383C65.686 17.1623 65.6364 16.8152 65.5273 16.597C65.3686 16.2499 65.0711 16.0714 64.6545 16.0714C64.1884 16.0714 63.8215 16.2895 63.5438 16.7259C63.4347 16.9044 63.3554 17.0928 63.3058 17.2912C63.2463 17.4895 63.2165 17.6978 63.2165 17.916V19.5722C63.2066 19.7904 63.2165 20.0085 63.2562 20.2267C63.2661 20.3557 63.3554 20.4747 63.4744 20.5243C63.6132 20.5738 63.7719 20.5937 63.9207 20.5937V20.7325H61.8678C61.6893 20.7325 61.3422 20.7424 61.1636 20.7424C60.995 20.7424 60.8959 20.7226 60.7273 20.7028C60.5884 20.6433 60.5289 20.6036 60.4793 20.5044ZM58.0496 19.4532C58.0397 19.7209 58.119 19.9887 58.2777 20.2069C58.4264 20.3953 58.6446 20.5044 58.8826 20.5044C59.3983 20.4945 59.8645 20.2267 60.1322 19.7904C60.2215 19.6218 60.281 19.4532 60.3008 19.2647C60.3405 19.0069 60.3603 18.7391 60.3504 18.4714V17.9755C60.0033 18.0052 59.6661 18.0449 59.3289 18.1143C59.1107 18.154 58.8926 18.2333 58.6942 18.3325C58.2678 18.5507 58.0496 18.9276 58.0496 19.4532Z" fill="#231F20"/>
<path fill-rule="evenodd" clip-rule="evenodd" d="M17.8645 17.8267V19.5226C17.8545 19.7309 17.8744 19.9292 17.914 20.1276C17.9438 20.2466 18.0231 20.3457 18.1421 20.3953C18.3207 20.4449 18.4992 20.4747 18.6777 20.4647V20.7028H16V20.4647C16.1686 20.4647 16.3372 20.4449 16.5058 20.3953C16.6149 20.3457 16.6942 20.2466 16.714 20.1276C16.7537 19.9292 16.7736 19.7209 16.7636 19.5226V15.0499C16.7736 14.8416 16.7537 14.6433 16.724 14.4449C16.7041 14.3259 16.6248 14.2267 16.5157 14.1871C16.357 14.1276 16.1983 14.1077 16.0397 14.1077V13.8697H18.5785C19.4413 13.8697 20.0661 14.0185 20.4628 14.3259C20.8595 14.6333 21.0579 15.1193 21.0579 15.7738C21.0579 16.6962 20.7008 17.3011 19.9769 17.5887C19.7388 17.678 19.5008 17.7375 19.2529 17.7672C18.9256 17.8069 18.5983 17.8366 18.2711 17.8267H17.8645ZM18.3008 17.559C18.8264 17.559 19.2231 17.44 19.4711 17.1821C19.6198 17.0234 19.719 16.8251 19.7785 16.6168C19.8479 16.359 19.8876 16.0912 19.8777 15.8135C19.8777 14.6928 19.3818 14.1276 18.4 14.1276H17.8545V17.559H18.3008Z" fill="#231F20"/>
<path fill-rule="evenodd" clip-rule="evenodd" d="M25.362 18.1044H22.2479C22.2479 18.3821 22.2678 18.6598 22.3074 18.9375C22.3372 19.1457 22.3967 19.354 22.476 19.5524C22.7339 20.1474 23.1405 20.4548 23.676 20.4548C23.9736 20.4548 24.2711 20.3656 24.5091 20.1871C24.7769 19.9887 24.9851 19.7209 25.1339 19.4135L25.3521 19.5524C25.1736 19.9391 24.9058 20.2664 24.5587 20.5044C24.2116 20.7127 23.8149 20.8218 23.4182 20.8019C22.7141 20.792 22.0595 20.5639 21.6529 20.1276C21.2463 19.6912 21.038 19.0763 21.0281 18.3028C21.038 17.5292 21.2364 16.9143 21.6331 16.4581C22.0298 16.0019 22.6545 15.7738 23.3289 15.7639C23.7752 15.7639 24.2116 15.873 24.519 16.0714C24.8364 16.2895 25.0744 16.597 25.2033 16.9639C25.2529 17.1127 25.2926 17.2614 25.3124 17.4102C25.3421 17.6383 25.362 17.8565 25.362 18.0846M22.2479 17.8367H24.2017C24.1917 17.559 24.1818 17.3309 24.1521 17.1524C24.1322 16.9937 24.1025 16.8449 24.043 16.6962C23.8843 16.2201 23.6264 15.9821 23.2893 15.9821C22.9124 15.9821 22.6248 16.2499 22.4364 16.7854C22.3868 16.9342 22.3471 17.0829 22.3174 17.2416C22.2876 17.44 22.2579 17.6383 22.2479 17.8367Z" fill="#231F20"/>
<path d="M25.5603 15.9127L27.286 15.7937C27.2959 15.9722 27.3058 16.111 27.3058 16.23C27.3058 16.349 27.3157 16.4482 27.3157 16.5375V16.8152C27.6926 16.1309 28.1388 15.7838 28.6744 15.7738C28.8826 15.7639 29.081 15.8433 29.2298 15.9722C29.3686 16.1011 29.4479 16.2796 29.4479 16.4681C29.4479 16.6267 29.3884 16.7755 29.2595 16.8747C29.1207 16.9838 28.9521 17.0333 28.7835 17.0333C28.5455 17.0333 28.4066 16.9441 28.3471 16.7358C28.3273 16.6466 28.2876 16.5573 28.238 16.478C28.1983 16.4284 28.1388 16.4085 28.0793 16.4185H28.0595C27.881 16.4383 27.7124 16.5771 27.5438 16.8548C27.4645 16.9937 27.4149 17.1524 27.3752 17.3011C27.3355 17.4895 27.3157 17.678 27.3157 17.8763V19.5722C27.3058 19.7705 27.3256 19.9689 27.3554 20.1672C27.3653 20.2862 27.4446 20.3755 27.5537 20.4152C27.7124 20.4648 27.881 20.4846 28.0397 20.4846V20.7028H25.5207V20.4846C25.6793 20.4945 25.838 20.4747 25.9868 20.4251C26.0959 20.3755 26.1653 20.2763 26.1851 20.1672C26.2248 19.9689 26.2347 19.7705 26.2248 19.5722V17.0234C26.2347 16.6466 26.195 16.3986 26.1157 16.2895C26.0364 16.1805 25.8479 16.1209 25.5702 16.1408L25.5603 15.9127Z" fill="#231F20"/>
<path d="M31.5008 15.7937L31.5107 16.7061C31.8777 16.1011 32.4132 15.7838 33.1074 15.7838C33.8017 15.7838 34.2479 16.1011 34.4066 16.7457C34.5752 16.4482 34.8033 16.2003 35.0909 16.0119C35.3587 15.8532 35.6661 15.7738 35.9835 15.7838C36.5289 15.7838 36.9256 15.9623 37.1736 16.3193C37.2826 16.4681 37.3521 16.6267 37.3917 16.8052C37.4413 17.0532 37.4612 17.3011 37.4512 17.559V19.5821C37.4413 19.7804 37.4612 19.9788 37.4909 20.1771C37.5107 20.2962 37.5802 20.3854 37.6893 20.435C37.838 20.4846 37.9967 20.5044 38.1455 20.4945V20.7127H35.6661V20.4945C35.8149 20.5044 35.9636 20.4846 36.1124 20.435C36.2116 20.3854 36.281 20.2862 36.3008 20.1771C36.3306 19.9788 36.3504 19.7804 36.3405 19.5821V17.5689C36.3405 17.0829 36.281 16.7358 36.162 16.5276C36.043 16.3193 35.8149 16.1904 35.5769 16.2102C35.2496 16.2102 34.9818 16.3689 34.7537 16.716C34.5653 16.9937 34.4661 17.311 34.4661 17.6482V19.592C34.4562 19.7904 34.476 19.9887 34.5058 20.1871C34.5157 20.2962 34.595 20.3953 34.6942 20.4449C34.843 20.4945 34.9917 20.5143 35.1405 20.5044V20.7226H32.681V20.5044C32.8298 20.5143 32.9785 20.4945 33.1273 20.4449C33.2264 20.3953 33.2959 20.2962 33.3157 20.1871C33.3455 19.9887 33.3554 19.7904 33.3554 19.592V17.5689C33.3554 16.6565 33.1074 16.2102 32.6116 16.2201C32.2942 16.23 32.0066 16.3986 31.8281 16.6664C31.6099 16.9738 31.4909 17.3507 31.5008 17.7276V19.592C31.4909 19.7904 31.5107 19.9986 31.5405 20.197C31.5504 20.3061 31.6298 20.4052 31.7289 20.4548C31.8678 20.5044 32.0264 20.5143 32.1752 20.5143V20.7325H29.686V20.5143C29.8446 20.5243 30.0033 20.5044 30.1521 20.4548C30.2612 20.4052 30.3306 20.3061 30.3405 20.197C30.3802 19.9986 30.3901 19.8003 30.3802 19.592V17.0433C30.3901 16.6664 30.3603 16.4284 30.2711 16.3193C30.1818 16.2102 29.9934 16.1606 29.7058 16.1606V15.9424L31.5008 15.7937Z" fill="#231F20"/>
<path d="M44.6711 19.2747C44.6711 19.4433 44.6711 19.6019 44.6909 19.7705C44.7008 19.8796 44.7207 19.9887 44.7603 20.0978C44.7901 20.197 44.8595 20.2862 44.9388 20.3457C45.0182 20.4052 45.1074 20.435 45.2066 20.4449C45.405 20.4449 45.6231 20.3457 45.8512 20.1573L45.9802 20.3854C45.6331 20.6829 45.1868 20.8515 44.7207 20.8416C44.2149 20.8317 43.8678 20.6631 43.6793 20.3358C43.6397 20.2565 43.6198 20.1672 43.6 20.0879C43.5802 19.959 43.5603 19.84 43.5603 19.711C43.5504 19.5524 43.5504 19.3441 43.5504 19.0664V16.2003H43.0248V15.9325C43.2033 15.9325 43.3719 15.8829 43.5306 15.8036C43.6793 15.7143 43.8083 15.5953 43.8876 15.4466C43.9669 15.3176 44.0364 15.1788 44.086 15.03C44.1455 14.8416 44.195 14.6532 44.2248 14.4647L44.681 14.4152C44.6711 14.5342 44.6711 14.6631 44.6612 14.7821C44.6512 14.9011 44.6512 15.0598 44.6512 15.2284C44.6512 15.397 44.6512 15.635 44.6512 15.9028H45.762V16.2003H44.6711V19.2747Z" fill="#231F20"/>
<path fill-rule="evenodd" clip-rule="evenodd" d="M43.0248 20.5044V20.7028C42.757 20.7226 42.6479 20.7226 42.3702 20.7226C42.1521 20.7325 41.9339 20.7127 41.7256 20.6433C41.6165 20.6135 41.5273 20.554 41.4479 20.4648C41.3884 20.3656 41.3488 20.3656 41.3289 20.0879C41.1207 20.3259 40.8727 20.5143 40.5851 20.6532C40.3273 20.7722 40.0397 20.8416 39.7521 20.8317C39.3157 20.8218 38.9686 20.7028 38.7207 20.4648C38.4727 20.2267 38.3438 19.8995 38.3438 19.4829C38.3438 18.6995 38.8298 18.2036 39.8116 18.0152C40.3074 17.9259 40.8132 17.8664 41.319 17.8367V17.2416C41.3289 16.7656 41.2694 16.4284 41.1702 16.2499C41.0711 16.0714 40.8826 15.9722 40.605 15.9821C40.3174 15.9722 40.1091 16.0813 39.9901 16.2995C39.9405 16.3788 39.9107 16.4581 39.8909 16.5474C39.8711 16.6763 39.8512 16.8152 39.8413 16.9441C39.8512 17.073 39.7917 17.2019 39.7025 17.2912C39.5835 17.3705 39.4347 17.4003 39.2859 17.3904C38.8595 17.3904 38.6413 17.2416 38.6413 16.9639C38.6413 16.7953 38.7008 16.6367 38.7901 16.4978C38.8992 16.3391 39.0479 16.2102 39.2066 16.111C39.5934 15.873 40.0893 15.7639 40.7141 15.7639C41.3388 15.7639 41.795 15.8829 42.0727 16.1408C42.2017 16.2598 42.2909 16.4185 42.3504 16.5871C42.4099 16.8152 42.4397 17.0433 42.4397 17.2813L42.4198 18.8681C42.4099 19.1259 42.4099 19.2945 42.4099 19.3639C42.4 19.6019 42.4099 19.8499 42.4397 20.0879C42.4496 20.2069 42.4992 20.316 42.5884 20.3854C42.7174 20.4846 42.876 20.5143 43.0248 20.5044ZM41.319 18.759V18.0449C40.6645 18.0945 40.1983 18.2135 39.9207 18.4119C39.643 18.6102 39.5141 18.9176 39.524 19.3441C39.5141 19.6218 39.5835 19.8895 39.7223 20.1276C39.8413 20.316 40.0397 20.4251 40.2678 20.4251C40.4562 20.4251 40.6347 20.3656 40.7835 20.2664C40.9421 20.1573 41.0711 19.9986 41.1603 19.8201C41.2198 19.6813 41.2694 19.5424 41.2893 19.3937C41.3091 19.1854 41.319 18.9672 41.319 18.759Z" fill="#231F20"/>
<path fill-rule="evenodd" clip-rule="evenodd" d="M50.9289 20.5044V20.7028C50.6612 20.7226 50.5521 20.7226 50.2744 20.7226C50.0562 20.7325 49.838 20.7127 49.6298 20.6433C49.5207 20.6135 49.4314 20.554 49.3521 20.4648C49.2926 20.3656 49.2529 20.3656 49.2331 20.0879C49.0248 20.3259 48.7769 20.5143 48.4893 20.6532C48.2314 20.7722 47.9438 20.8416 47.6562 20.8317C47.2099 20.8218 46.8727 20.7028 46.6248 20.4648C46.3769 20.2267 46.2479 19.8995 46.2479 19.4829C46.2479 18.6995 46.7339 18.2036 47.7157 18.0152C48.2116 17.9259 48.7174 17.8664 49.2231 17.8367V17.2416C49.2231 16.7656 49.1736 16.4284 49.0744 16.2499C48.9752 16.0714 48.7769 15.9722 48.5091 15.992C48.2215 15.9821 48.0132 16.0912 47.8942 16.2995C47.8446 16.3788 47.8149 16.4681 47.795 16.5573C47.7653 16.6862 47.7554 16.8251 47.7455 16.954C47.7554 17.0829 47.6959 17.2119 47.6066 17.3011C47.4777 17.3805 47.3388 17.4102 47.1901 17.4003C46.7636 17.4003 46.5455 17.2614 46.5455 16.9738C46.5455 16.8052 46.595 16.6466 46.6942 16.5077C46.8033 16.349 46.9521 16.2201 47.1107 16.1209C47.4975 15.8829 47.9934 15.7738 48.6182 15.7738C49.243 15.7738 49.6992 15.8928 49.9769 16.1507C50.1058 16.2697 50.195 16.4284 50.2545 16.597C50.314 16.8251 50.3438 17.0532 50.3339 17.2912L50.314 18.8879C50.3041 19.1457 50.3041 19.3143 50.3041 19.3838C50.2942 19.6218 50.3041 19.8697 50.3339 20.1077C50.3339 20.2267 50.3934 20.3358 50.4826 20.4152C50.6116 20.4945 50.7702 20.5243 50.9289 20.5044ZM49.2132 18.7689V18.0647C48.5587 18.1044 48.0926 18.2333 47.8149 18.4317C47.5372 18.63 47.4083 18.9375 47.4182 19.3639C47.4083 19.6416 47.4777 19.9094 47.6165 20.1474C47.7355 20.3358 47.9339 20.4449 48.162 20.4449C48.3504 20.4449 48.5289 20.3854 48.6777 20.2862C48.8364 20.1771 48.9653 20.0185 49.0446 19.84C49.114 19.7011 49.1537 19.5623 49.1736 19.4135C49.2033 19.1953 49.2132 18.9771 49.2132 18.7689Z" fill="#231F20"/>
<path d="M72.0826 8.93086L72.0628 9.29781L79.1339 17.5887L79.3818 17.6284L79.4116 17.6085L79.5405 17.3805L76.5256 7.2945L76.0198 6.94739L72.0826 8.93086Z" fill="#009EBA"/>
<path d="M79.1339 17.5887L79.3818 17.6284L74.1752 9.6945L72.0628 9.29781L79.1339 17.5887Z" fill="#075975"/>
<path d="M74.9488 9.39698L79.4116 17.6085L79.5405 17.3805L76.5256 7.2945L74.9488 9.39698Z" fill="#00758E"/>
</svg>
