<svg width="89" height="24" viewBox="0 0 89 24" fill="none" xmlns="http://www.w3.org/2000/svg">
<path d="M63.3473 10.8729C63.4813 10.7389 63.6396 10.5663 63.8222 10.3551C64.0043 10.1439 64.1769 9.89454 64.34 9.60656C64.503 9.31858 64.6423 8.99771 64.7572 8.6425C64.8725 8.28777 64.9302 7.90873 64.9302 7.50584C64.9302 6.71962 64.7958 5.98585 64.5274 5.30452C64.2584 4.62367 63.846 4.02864 63.2896 3.51991C62.7332 3.01213 62.0381 2.61354 61.2032 2.32556C60.3688 2.03805 59.3947 1.89406 58.2824 1.89406H50.9437V22.0388H59.0019C60.1719 22.0388 61.1932 21.8805 62.0667 21.5639C62.9392 21.2473 63.6639 20.811 64.2394 20.2546C64.8149 19.6982 65.2416 19.0508 65.52 18.3122C65.798 17.5737 65.9372 16.7822 65.9372 15.9378C65.9372 14.8059 65.6783 13.7989 65.1605 12.9159C64.6423 12.0339 64.0377 11.3526 63.3473 10.8729ZM59.7843 5.58534C60.0556 5.68881 60.282 5.82326 60.4589 5.99252C60.9171 6.43212 61.1465 6.95754 61.1465 7.56878C61.1465 8.12328 61.0506 8.58147 60.8599 8.94431C60.6687 9.30762 60.4775 9.58463 60.2868 9.77535H54.685V5.34743H58.167C58.8197 5.34743 59.3571 5.428 59.7843 5.58534ZM59.2031 13.2616C60.2172 13.2616 60.9686 13.5243 61.4578 14.0488C61.9179 14.5651 62.1496 15.1745 62.1496 15.8796C62.1496 16.6063 61.8869 17.2266 61.3615 17.7424C60.8356 18.2583 59.9717 18.5167 58.7678 18.5167H54.685V13.2616H59.2031Z" fill="#00529C"/>
<path d="M79.5991 13.3622C80.2032 12.9498 80.7071 12.4701 81.11 11.9233C81.5129 11.3764 81.81 10.7723 82.0021 10.1105C82.1938 9.44827 82.2901 8.77219 82.2901 8.08132C82.2901 7.17972 82.1408 6.35011 81.8438 5.59202C81.5458 4.83441 81.1 4.18216 80.5055 3.63529C79.9104 3.08842 79.1671 2.66169 78.2751 2.35464C77.383 2.04807 76.3517 1.89406 75.1817 1.89406H67.2527V22.0388H71.0665V14.5566H73.193L78.4524 22.0388H82.9228L77.4841 14.2977C78.2894 14.0869 78.9945 13.7751 79.5991 13.3622ZM75.2103 5.34743C75.4501 5.34743 75.6766 5.36316 75.8921 5.39034C76.572 5.49285 77.1274 5.73553 77.5556 6.12125C78.1382 6.64715 78.4295 7.29177 78.4295 8.05558C78.4295 8.43844 78.3671 8.81081 78.2431 9.17364C78.1187 9.53695 77.9232 9.85688 77.6557 10.1334C77.3878 10.4109 77.044 10.635 76.6239 10.8071C76.2034 10.9792 75.6971 11.0651 75.1049 11.0651H71.0665V5.34743H75.2103Z" fill="#00529C"/>
<path d="M84.2696 1.89406V1.89979C84.231 1.89883 84.1933 1.89406 84.1547 1.89406H84.1223V22.0388H88.011V1.89406H84.2696Z" fill="#00529C"/>
<path d="M28.3294 23.9892C27.8598 23.9345 27.4949 23.8235 27.0593 23.6027C25.9266 23.0288 25.0771 22.039 24.7567 20.9197C24.6003 20.3734 24.6089 20.8991 24.6149 12.2786L24.6456 4.09291C24.6847 3.55046 24.7671 3.19697 24.9854 2.63656C25.3787 1.62734 26.0223 0.919248 26.9721 0.450615C27.5063 0.187043 28.0168 0.054437 28.6409 0.0170503C28.8566 0.0042285 32.3768 0.00211992 36.9723 0.0123054C45.7677 0.0318376 45.041 0.0170503 45.5911 0.188001C45.8442 0.266614 46.3122 0.488224 46.5982 0.664882C47.6025 1.28515 48.3297 2.29438 48.5466 3.36871C48.5892 3.57976 48.5914 3.99785 48.5914 11.8642L48.5469 20.4207C48.4047 21.3248 47.9838 22.1123 47.2485 22.8502C46.6728 23.428 46.1412 23.7462 45.4356 23.9357L45.1791 24.0045L36.8477 24.0079C32.2655 24.0098 28.4322 24.0012 28.3294 23.9892ZM31.8062 21.525C32.1654 21.4028 32.6096 21.1027 32.9724 20.7369C33.2575 20.4496 33.4811 20.1379 33.6366 19.8114C33.8177 19.4313 33.862 19.248 33.877 18.8165C33.8988 18.188 33.8078 17.6641 33.6018 17.2307C33.3541 16.71 33.0289 16.3265 31.5426 14.8021C29.9402 13.1586 29.479 12.6674 29.1322 12.2347C29.0281 12.1049 29 12.0521 29.0112 12.0088C29.0646 11.8039 29.6123 11.2413 31.0089 9.95622C32.4788 8.60362 32.9416 8.11985 33.4476 7.40713C33.763 6.96294 33.9888 6.44416 34.0693 5.97897C34.1188 5.69331 34.1189 5.15657 34.0702 4.86826C33.9646 4.2494 33.6372 3.63161 33.2057 3.23769C32.5926 2.67813 31.9911 2.42009 31.1312 2.34797C30.7625 2.31708 29.2516 2.33594 28.8778 2.37615C28.0422 2.46606 27.2658 3.05273 27.0685 3.74326C27.0291 3.88084 27.0254 4.30396 27.0172 9.45364L27.0308 17.6268C27.055 20.5363 27.043 20.35 27.2316 20.6448C27.3606 20.8457 27.6324 21.1337 27.8224 21.2704C28.0124 21.4071 28.1943 21.4921 28.433 21.556C28.6073 21.6026 28.6957 21.6049 30.1114 21.5994L31.6058 21.5935L31.8062 21.525ZM44.572 21.5628C44.4776 21.3863 43.7914 20.6679 42.1314 19.0078C40.2385 17.1146 35.3169 12.046 35.3084 11.9809C35.2862 11.8097 36.1598 10.8871 37.2711 9.90787C37.9043 9.35001 38.8175 8.4661 39.3732 7.87328C40.4779 6.69468 40.7589 6.28117 40.8586 5.68733C40.9072 5.39812 40.9023 4.73317 40.8504 4.52342C40.7927 4.29091 40.6962 4.05337 40.5737 3.84176C40.4394 3.61009 39.9433 3.10565 39.6749 2.92804C39.2965 2.67768 38.8341 2.47951 38.4046 2.38355C38.196 2.33696 36.7186 2.30725 36.236 2.33995L35.9355 2.36035L35.9564 2.44117C35.9686 2.48561 36.0936 2.69621 36.2358 2.90924C36.378 3.12227 36.5389 3.39103 36.5933 3.50652C36.8818 4.11867 37.0161 4.88154 36.9898 5.75855C36.9684 6.47009 36.8661 6.88846 36.5612 7.51037C36.1373 8.37513 35.5673 9.04465 34.3075 10.1579C33.5726 10.8072 32.9822 11.3982 32.7077 11.7593L32.5151 12.0126L33.9655 13.5492L36.0993 15.8421C36.6966 16.5622 36.9944 17.2049 37.1098 18.0231C37.1644 18.4098 37.1586 19.1477 37.0976 19.5014C37.0051 20.0441 36.8048 20.5181 36.4329 21.0742C36.3154 21.2497 36.1915 21.4414 36.1574 21.5L36.0954 21.6068H40.3452L44.572 21.5628ZM46.2532 12.8435L46.1518 4.44441C45.946 3.08193 45.3932 2.51045 44.1507 2.37559C43.8578 2.3438 42.3273 2.33741 42.3273 2.36792C42.3273 2.41384 42.4977 2.65329 42.7253 2.92714C43.0048 3.26329 43.134 3.4487 43.249 3.6785C43.5051 4.19028 43.5816 4.74922 43.5258 5.69982C43.4749 6.56729 43.3732 6.94641 43.0514 7.46955C42.5955 8.21056 41.997 8.84784 40.3838 10.3099C39.4315 11.173 38.7973 11.8421 38.8205 11.9592C38.8234 11.9795 40.4978 13.6945 42.5389 15.7703L46.2501 19.5445L46.2582 19.4268C46.2636 19.3621 46.2599 16.3996 46.2532 12.8435Z" fill="#00529C"/>
</svg>
