<svg width="40" height="40" viewBox="0 0 40 40" fill="none" xmlns="http://www.w3.org/2000/svg">
<path d="M12.4825 31.4431C13.3455 31.4431 14.045 30.7436 14.045 29.8806C14.045 29.0177 13.3455 28.3181 12.4825 28.3181C11.6196 28.3181 10.92 29.0177 10.92 29.8806C10.92 30.7436 11.6196 31.4431 12.4825 31.4431Z" fill="#548D91"/>
<path d="M9.26807 27.5C10.131 27.5 10.8306 26.8004 10.8306 25.9375C10.8306 25.0746 10.131 24.375 9.26807 24.375C8.40512 24.375 7.70557 25.0746 7.70557 25.9375C7.70557 26.8004 8.40512 27.5 9.26807 27.5Z" fill="#548D91"/>
<path d="M7.8125 22.5C8.67544 22.5 9.375 21.8004 9.375 20.9375C9.375 20.0746 8.67544 19.375 7.8125 19.375C6.94956 19.375 6.25 20.0746 6.25 20.9375C6.25 21.8004 6.94956 22.5 7.8125 22.5Z" fill="#548D91"/>
<path d="M8.4375 17.5C9.30044 17.5 10 16.8004 10 15.9375C10 15.0746 9.30044 14.375 8.4375 14.375C7.57456 14.375 6.875 15.0746 6.875 15.9375C6.875 16.8004 7.57456 17.5 8.4375 17.5Z" fill="#548D91"/>
<path opacity="0.15" d="M20.625 40C27.1834 40 32.5 39.1605 32.5 38.125C32.5 37.0895 27.1834 36.25 20.625 36.25C14.0666 36.25 8.75 37.0895 8.75 38.125C8.75 39.1605 14.0666 40 20.625 40Z" fill="black"/>
<path d="M16.6868 11.7794L12.2556 11.9057C11.6187 11.9238 11.135 11.3376 11.2743 10.7157L12.2425 6.38944C12.42 5.59569 13.4325 5.35382 13.95 5.98132L17.4131 10.1807C17.93 10.8082 17.4993 11.7563 16.6868 11.7794Z" fill="#548D91"/>
<path d="M20.0781 27.5C19.805 27.5 19.58 27.4075 19.4019 27.2244C19.2237 27.04 19.1344 26.8169 19.1344 26.5544V25.6256C18.5262 25.5844 17.9881 25.4875 17.5206 25.335C17.0544 25.1825 16.6587 25.0225 16.3331 24.8544C16.0387 24.7081 15.8556 24.5006 15.7825 24.2331C15.7081 23.9656 15.7212 23.7081 15.8206 23.4619C15.9206 23.2144 16.0881 23.0369 16.325 22.9262C16.5606 22.8162 16.8412 22.8394 17.1662 22.9969C17.4187 23.1337 17.7694 23.2725 18.2206 23.4144C18.6719 23.5563 19.2237 23.6269 19.8744 23.6269C20.5981 23.6269 21.1119 23.5119 21.4162 23.2812C21.72 23.0494 21.8725 22.7613 21.8725 22.4156C21.8725 22.1325 21.7675 21.8956 21.5575 21.7075C21.3475 21.5181 20.9694 21.3669 20.425 21.25L18.6931 20.8719C16.7831 20.4531 15.8294 19.435 15.8294 17.8194C15.8294 16.9369 16.1281 16.1925 16.7262 15.5844C17.3244 14.9762 18.1275 14.5931 19.1344 14.4356V13.4444C19.1344 13.1819 19.2237 12.9587 19.4019 12.7744C19.58 12.5925 19.8056 12.5 20.0781 12.5C20.3406 12.5 20.5612 12.5925 20.7387 12.7756C20.9181 12.96 21.0062 13.1831 21.0062 13.4456V14.3894C21.3944 14.4419 21.7962 14.5369 22.21 14.6725C22.625 14.8094 22.99 14.9875 23.3037 15.2081C23.5562 15.3656 23.7112 15.5669 23.7687 15.8138C23.8262 16.0594 23.8019 16.2944 23.6981 16.5144C23.5931 16.7344 23.4212 16.8894 23.1856 16.9781C22.95 17.0675 22.6644 17.0281 22.3275 16.86C22.0444 16.7244 21.7356 16.6075 21.3987 16.5144C21.0631 16.4194 20.6494 16.3725 20.1562 16.3725C19.5481 16.3725 19.07 16.4981 18.7244 16.7506C18.3775 17.0031 18.2044 17.3281 18.2044 17.7269C18.2044 18.01 18.3069 18.2431 18.5119 18.4275C18.7156 18.6106 19.0756 18.7606 19.5894 18.8756L21.3362 19.2537C22.3325 19.4737 23.0706 19.8338 23.5481 20.3325C24.0244 20.8306 24.2644 21.4675 24.2644 22.245C24.2644 23.1362 23.9619 23.8706 23.3587 24.4481C22.7556 25.0244 21.9719 25.3975 21.0056 25.565V26.5563C21.0056 26.8188 20.9175 27.0419 20.7381 27.2262C20.5612 27.4075 20.3406 27.5 20.0781 27.5Z" fill="#E7A546"/>
<path d="M22.4751 5.74129C19.4569 5.36191 16.6013 5.92691 14.1476 7.17316C13.2263 7.64066 13.0463 8.88504 13.7769 9.61566L13.8038 9.64254C14.2901 10.1288 15.0194 10.2344 15.6269 9.93066C17.6707 8.90941 20.0626 8.48566 22.5876 8.91879C27.3251 9.73129 31.0844 13.595 31.7588 18.3544C32.7963 25.6713 26.7863 31.885 19.5288 31.1982C18.9532 31.1438 18.3888 31.0444 17.8407 30.9038C17.1538 30.7282 16.4388 31.0688 16.1082 31.6963C15.6444 32.5769 16.1069 33.6794 17.0701 33.9288C17.7482 34.1044 18.4451 34.2313 19.1576 34.3019C28.1851 35.1969 35.7207 27.7319 34.9457 18.7257C34.3707 12.0532 29.1201 6.57691 22.4751 5.74129Z" fill="#548D91"/>
<path opacity="0.15" d="M34.9937 19.8994C33.4287 19.7444 31.9637 20.7726 31.63 22.3463C31.6175 22.4063 31.5994 22.4651 31.5856 22.5251C31.5494 22.6838 31.5119 22.8419 31.4687 22.9976C31.4431 23.0901 31.4137 23.1813 31.3862 23.2732C31.3469 23.4026 31.3069 23.5319 31.2631 23.6594C31.2306 23.7538 31.1962 23.8469 31.1612 23.9401C31.115 24.0638 31.0669 24.1869 31.0162 24.3088C30.9787 24.3988 30.9406 24.4888 30.9012 24.5776C30.845 24.7038 30.7856 24.8276 30.725 24.9513C30.6856 25.0319 30.6469 25.1132 30.605 25.1926C30.5306 25.3351 30.4519 25.4751 30.3712 25.6144C30.3387 25.6713 30.3081 25.7294 30.2744 25.7851C30.1581 25.9788 30.0362 26.1688 29.9087 26.3544C29.8794 26.3969 29.8475 26.4376 29.8175 26.4801C29.7169 26.6226 29.6144 26.7638 29.5069 26.9013C29.4562 26.9663 29.4031 27.0294 29.3512 27.0932C29.26 27.2051 29.1681 27.3157 29.0731 27.4238C29.0131 27.4919 28.9512 27.5594 28.89 27.6263C28.7975 27.7263 28.7037 27.8244 28.6075 27.9213C28.5419 27.9876 28.4756 28.0538 28.4081 28.1188C28.3094 28.2138 28.2075 28.3057 28.1056 28.3969C28.0381 28.4576 27.9712 28.5188 27.9019 28.5776C27.7831 28.6782 27.6612 28.7751 27.5381 28.8707C27.4819 28.9144 27.4281 28.9601 27.3712 29.0032C27.1969 29.1344 27.0181 29.2594 26.8362 29.3807C26.76 29.4313 26.6812 29.4776 26.6044 29.5263C26.49 29.5982 26.3756 29.6701 26.2587 29.7376C26.17 29.7888 26.0794 29.8376 25.9894 29.8869C25.8787 29.9469 25.7681 30.0057 25.6556 30.0619C25.5619 30.1088 25.4669 30.1544 25.3719 30.1988C25.2569 30.2526 25.1406 30.3032 25.0237 30.3532C24.9294 30.3932 24.835 30.4338 24.7387 30.4713C24.6106 30.5219 24.4806 30.5682 24.35 30.6138C24.2806 30.6382 24.2125 30.6669 24.1425 30.6901C22.6144 31.1926 21.7519 32.7594 22.075 34.2976C29.365 33.5657 35.045 27.3932 34.9937 19.8994Z" fill="black"/>
<path opacity="0.3" d="M12.2575 11.9064L14.1819 11.8514C14.2388 11.7051 14.29 11.5557 14.3257 11.3982L14.435 10.9101C14.5369 10.4557 14.8763 10.0701 15.3325 9.97574C15.5619 9.92824 15.7882 9.85324 16.0082 9.75324C17.245 9.19074 18.5432 8.86636 19.8813 8.77824C19.9169 8.77574 19.9532 8.77449 19.9888 8.77261C20.1569 8.76324 20.325 8.75636 20.4944 8.75449C20.5707 8.75324 20.6469 8.75449 20.7238 8.75511C20.8094 8.75574 20.895 8.75324 20.9807 8.75574C22.5982 8.77949 23.9332 7.62449 24.1544 6.07324C23.1638 5.81886 22.1344 5.66511 21.0763 5.63199C18.8013 5.56261 16.6463 6.03136 14.7157 6.90824L13.9519 5.98199C13.4344 5.35449 12.4219 5.59699 12.2444 6.39011L11.2763 10.7164C11.1369 11.3376 11.6207 11.9245 12.2575 11.9064Z" fill="white"/>
<path d="M16.5168 7.78812C17.3275 7.51249 18.1606 7.31874 19.0118 7.20874" stroke="white" stroke-width="2" stroke-miterlimit="10" stroke-linecap="round" stroke-linejoin="round"/>
</svg>
