<svg width="88" height="24" viewBox="0 0 88 24" fill="none" xmlns="http://www.w3.org/2000/svg">
<g clip-path="url(#clip0_23854_6683)">
<path d="M47.2107 11.4239C52.0112 9.23125 52.7212 2.07617 45.8928 2.07617H37.985L35.0626 7.8464H36.4379L32.9424 21.6372H42.1107C48.7995 21.6948 51.8077 13.7635 47.2107 11.4239ZM42.1107 16.6171H39.8186L40.6781 13.5013H42.8555C45.4342 14.0205 43.8299 16.7325 42.1107 16.6171ZM43.486 9.98126H41.5378L42.1107 7.26929H44.2881C46.3921 7.78865 44.5749 10.0967 43.486 9.98126Z" fill="#005FAF"/>
<path fill-rule="evenodd" clip-rule="evenodd" d="M37.934 1.99414H45.8921C47.6131 1.99414 48.8698 2.44508 49.7072 3.16624C50.5453 3.88799 50.9553 4.87362 50.994 5.92542C51.0697 7.98127 49.7293 10.2926 47.3943 11.429C48.4762 12.0285 49.1187 12.9479 49.3729 13.9959C49.6379 15.0886 49.4799 16.3165 48.9671 17.4641C47.9412 19.7599 45.4886 21.7497 42.1093 21.7206H32.8359L36.3314 7.92982H34.9278L37.934 1.99414ZM38.0346 2.1596L35.196 7.76437H36.5429L33.0474 21.5552H42.1104L42.1107 21.5552C45.4202 21.5837 47.8161 19.6366 48.8173 17.3962C49.3179 16.2759 49.4681 15.0858 49.2133 14.0352C48.9589 12.9865 48.3003 12.0722 47.1729 11.4984L47.0199 11.4205L47.176 11.3492C49.549 10.2654 50.9044 7.95764 50.8298 5.93155C50.7926 4.9205 50.3997 3.98032 49.6004 3.29198C48.8005 2.60304 47.5853 2.1596 45.8921 2.1596H38.0346ZM42.0435 7.18726H44.2974L44.307 7.18964C44.8486 7.32334 45.1582 7.57785 45.2796 7.8997C45.3997 8.21808 45.3259 8.57759 45.1564 8.90252C44.9862 9.22869 44.7137 9.53221 44.4135 9.74737C44.1166 9.9601 43.7806 10.0948 43.4811 10.0647H41.4356L42.0435 7.18726ZM42.1766 7.35271L41.6386 9.89922H43.4896L43.4939 9.89968C43.7377 9.92554 44.0353 9.8153 44.3182 9.61256C44.5992 9.4112 44.8537 9.1269 45.011 8.82556C45.1688 8.52297 45.2229 8.21531 45.126 7.95845C45.0311 7.70666 44.7814 7.47919 44.2774 7.35271H42.1766ZM40.615 13.4193H42.863L42.871 13.4209C43.5297 13.5535 43.9382 13.8298 44.1394 14.1829C44.3406 14.5363 44.3237 14.9482 44.1702 15.329C43.8661 16.0835 43.0075 16.7594 42.1073 16.7006H39.7099L40.615 13.4193ZM40.7399 13.5847L39.926 16.5351H42.1128L42.1155 16.5353C42.9335 16.5902 43.7352 15.9684 44.018 15.2667C44.1581 14.9191 44.1663 14.5628 43.9968 14.2653C43.828 13.9687 43.4723 13.7122 42.8467 13.5847H40.7399Z" fill="#005FAF"/>
<path d="M65.9828 9.44586L68.9848 4.10929L64.9227 1.97559L64.3928 2.63409C62.2014 1.46599 50.7263 3.07884 50.0078 14.4775C50.4373 24.0396 61.0777 22.3195 62.1214 21.7128L65.0479 15.6209C62.1817 17.522 56.3129 18.4347 56.0647 12.724C56.5795 8.01484 62.1008 6.25623 65.9828 9.44586ZM80.9633 2.07651H71.7343L68.8008 7.674H70.3078L63.3527 21.6375H70.0849L71.467 18.2695H75.5995L75.7025 21.6375H81.8997L80.9633 2.07651ZM73.3393 13.7349L75.5993 8.30257L75.7024 13.7349H73.3393Z" fill="#005FAF"/>
<path fill-rule="evenodd" clip-rule="evenodd" d="M64.9004 1.87109L69.0975 4.07568L66.0055 9.57207L65.9301 9.51009C64.0101 7.93249 61.6882 7.58104 59.7856 8.20172C57.886 8.82141 56.4019 10.4102 56.1463 12.7269C56.2087 14.1367 56.6169 15.1281 57.2296 15.7972C57.8435 16.4675 58.6705 16.8229 59.5846 16.945C61.4169 17.1898 63.581 16.4944 65.0019 15.552L65.2509 15.3869L62.1836 21.7719L62.1617 21.7846C62.0193 21.8674 61.7278 21.9627 61.3357 22.0493C60.9402 22.1365 60.4337 22.2166 59.8549 22.2655C58.6976 22.3632 57.2471 22.3363 55.8143 21.989C54.3813 21.6417 52.9621 20.9728 51.8738 19.7835C50.7846 18.5932 50.0331 16.8884 49.925 14.4814L49.9248 14.4769L49.9251 14.4724C50.2864 8.73991 53.3553 5.46324 56.6095 3.7699C58.2352 2.92395 59.9072 2.47297 61.3113 2.30686C62.0135 2.22381 62.6499 2.21182 63.1813 2.2578C63.6749 2.30052 64.0833 2.39373 64.3698 2.5305L64.9004 1.87109ZM64.9435 2.08034L64.4133 2.73918L64.3536 2.70734C64.0937 2.56884 63.6874 2.46767 63.1672 2.42265C62.6487 2.37778 62.0236 2.3892 61.3305 2.47119C59.9444 2.63517 58.2917 3.0808 56.6849 3.91688C53.475 5.58716 50.4478 8.81498 50.0893 14.4784C50.1967 16.85 50.9361 18.5146 51.9947 19.6714C53.0549 20.83 54.4415 21.4861 55.8528 21.8282C57.2642 22.1703 58.6963 22.1973 59.8411 22.1006C60.4133 22.0523 60.9127 21.9732 61.3005 21.8876C61.6697 21.8062 61.9303 21.7204 62.0581 21.6532L64.8481 15.8454C63.4065 16.7239 61.3406 17.3465 59.563 17.109C58.6206 16.9831 57.7548 16.6147 57.1088 15.9094C56.4628 15.2039 56.0446 14.1699 55.9819 12.7278L55.9816 12.7214L55.9823 12.7151C56.2434 10.326 57.7764 8.68325 59.735 8.04431C61.6671 7.41399 64.011 7.76067 65.9582 9.32045L68.8707 4.14316L64.9435 2.08034ZM71.6841 1.99392H81.0409L81.9852 21.7204H75.6221L75.5191 18.3524H71.5212L70.1391 21.7204H63.2188L70.174 7.75686H68.6638L71.6841 1.99392ZM71.7831 2.15937L68.9363 7.59141H70.4402L63.4851 21.5549H70.0292L71.4113 18.187H75.6784L75.7815 21.5549H81.8128L80.8843 2.15937H71.7831ZM73.462 13.6523H75.6179L75.5239 8.69636L73.462 13.6523ZM75.5228 8.27073L75.6807 8.30112L75.7854 13.8178H73.2151L75.5228 8.27073Z" fill="#005FAF"/>
<path d="M23.3288 20.7036L23.6873 20.5989L23.2941 20.0518L23.3288 20.7036ZM17.4429 20.6105L17.3736 21.0996C17.552 21.082 17.7717 21.2369 17.8593 20.89C17.8527 20.6196 17.6483 20.6047 17.4429 20.6105ZM20.2993 20.5989C20.2695 20.4657 20.1591 20.3676 19.8829 20.4593L19.9754 20.9598C20.2023 20.9091 20.319 20.774 20.2993 20.5989ZM13.8467 20.1893L13.7363 20.634C13.9138 20.6414 14.1216 20.7864 14.2394 20.5228C14.2473 20.3577 14.2541 20.1932 13.8467 20.1893ZM20.0564 21.3325L20.1374 21.845C20.3269 21.8498 20.4997 21.7351 20.4496 21.4957C20.4013 21.2654 20.2092 21.3018 20.0564 21.3325Z" fill="#005FAF"/>
<path d="M27.5764 2.34027C21.4531 -0.800886 14.1403 -0.713526 8.30608 2.20327C5.29762 7.53637 5.20183 14.9982 8.30608 21.6071C14.7336 24.8824 21.8425 24.6667 27.6216 21.7441C30.3376 16.133 30.7861 9.38118 27.5764 2.34027ZM17.2349 18.2649L16.8719 18.2691C16.782 17.2591 16.5423 16.4104 16.028 15.7608C13.6697 12.7828 8.84896 15.0248 10.0877 9.96375C10.7318 7.37637 18.0784 5.85039 17.2349 18.2649ZM10.0964 13.2662C10.6113 14.3217 13.8375 14.4946 14.9574 15.3025C16.7339 16.5839 16.4789 18.2696 16.4789 18.2696H16.0599C15.2351 15.7237 12.9202 17.7394 11.066 17.0538C9.90184 16.6369 9.05664 14.8296 10.0964 13.2662ZM15.9743 21.5656L16.1478 20.1799L16.46 20.2032L16.3212 21.7286C16.1812 22.4005 15.1863 22.3106 15.0608 21.6703L15.2226 20.0868L15.5926 20.1452L15.4308 21.4724C15.4513 21.9117 15.8889 21.8854 15.9743 21.5656ZM14.313 21.944L13.9571 21.8574C13.9988 21.5613 14.3477 20.9587 13.6582 20.9587L13.4663 21.7463L13.0736 21.6721L13.4908 19.7815C14.5105 19.8933 14.5997 20.1791 14.6199 20.4858C14.5797 20.7237 14.5167 20.8899 14.3132 20.9306C14.5514 21.1483 14.316 21.6046 14.313 21.944ZM12.0526 19.8263C11.9545 19.9574 11.7582 20.4152 11.7298 20.78C11.6995 21.1667 12.0684 21.0853 12.1602 21.0401C12.2343 21.0039 12.2894 20.6933 12.2894 20.6933L12.0311 20.6066L12.1172 20.3467L12.6985 20.5418L12.4187 21.5173L12.1819 21.4521L12.2035 21.3004C11.9136 21.4334 11.3831 21.3336 11.3208 20.9969C11.2585 20.7264 11.4471 19.9062 11.7513 19.523C12.0469 19.1504 12.767 19.5146 12.7846 19.7398C12.802 19.9641 12.7141 20.2166 12.7141 20.2166L12.443 20.1652C12.443 20.1652 12.4596 20.0841 12.4833 19.9564C12.5082 19.821 12.1578 19.6855 12.0526 19.8263ZM17.3389 21.414L17.2695 22.2525L16.9805 22.241L17.0845 20.2497C17.8063 20.2648 18.2201 20.3654 18.2063 20.8786C18.1632 21.5798 17.5993 21.4221 17.3389 21.414ZM18.0584 18.2694H17.5748C17.5319 16.545 17.8612 13.391 16.9615 11.0698C16.2798 9.3102 14.5545 8.51867 14.1722 7.09725C13.5669 4.8474 14.5971 2.41307 18.0584 2.22561C21.0591 2.53584 21.9811 4.86858 21.4692 7.0405C20.5892 9.21209 19.709 8.90004 18.6132 11.0632C17.7183 13.382 18.059 16.4199 18.0584 18.2694ZM23.4212 21.4607L23.0859 21.5772L22.9817 19.5743L23.3749 19.4696L24.3463 21.123L24.0802 21.2977L23.7564 20.8321L23.3864 20.9718L23.4212 21.4607ZM19.5089 18.2694H19.1221C19.4409 13.8408 24.9673 14.803 25.4724 13.2662C26.3459 14.7897 26.0319 16.0743 25.1198 16.7328C22.8534 18.3698 20.6801 15.5214 19.5089 18.2694ZM21.5596 20.506L21.7331 21.4259C21.8411 21.6379 21.9143 21.5987 22.08 21.5773C22.272 21.4374 22.232 21.301 22.1956 21.1232L22.531 21.0767C22.6184 21.7431 22.3038 21.8111 22.0685 21.8568C21.5639 21.8932 21.465 21.7942 21.3284 21.1349C21.2489 20.5705 21.1115 19.9746 21.5828 19.8657C22.3563 19.7467 22.3107 20.0973 22.3806 20.343L22.0453 20.4014C21.9917 20.1903 21.9147 20.1066 21.7446 20.1222C21.5897 20.1938 21.5261 20.3098 21.5596 20.506ZM20.8542 21.4607C20.8703 21.7507 20.7726 21.9433 20.5882 22.008L19.8018 22.171L19.4897 20.2497C19.651 20.2232 20.4422 19.9314 20.6344 20.4595C20.7292 20.782 20.6309 20.8976 20.5187 21.0416C20.7315 21.1104 20.8033 21.2772 20.8542 21.4607ZM18.8349 11.8192C20.5867 6.85221 24.5953 7.72995 25.4844 9.96391C26.7024 14.4466 22.7804 13.2172 20.2682 15.0554C19.3186 15.887 18.819 16.841 18.8116 18.2873H18.3811C18.3553 15.3743 18.3085 13.3116 18.8349 11.8192Z" fill="#005FAF"/>
</g>
<defs>
<clipPath id="clip0_23854_6683">
<rect width="76" height="24" fill="white" transform="translate(6)"/>
</clipPath>
</defs>
</svg>
