<svg width="24" height="24" viewBox="0 0 24 24" fill="none" xmlns="http://www.w3.org/2000/svg">
<g id="icons8-pdf">
<path id="Vector" d="M19.5 8V20.5C19.5 21.0525 19.0525 21.5 18.5 21.5H5.5C4.9475 21.5 4.5 21.0525 4.5 20.5V3.5C4.5 2.9475 4.9475 2.5 5.5 2.5H14L19.5 8Z" fill="#FFADC8"/>
<path id="Vector_2" d="M14 2.5V7C14 7.5525 14.4475 8 15 8H19.5L14 2.5Z" fill="#E72636"/>
<path id="Vector_3" d="M8.369 13.495V14.7605H7.5415V11.0865H8.8375C9.7635 11.0865 10.226 11.477 10.226 12.2575C10.226 12.6265 10.0935 12.925 9.8275 13.153C9.562 13.381 9.207 13.495 8.763 13.495H8.369ZM8.369 11.7225V12.8675H8.6945C9.1355 12.8675 9.3555 12.6745 9.3555 12.288C9.3555 11.911 9.1355 11.722 8.6945 11.722L8.369 11.7225Z" fill="#E72636"/>
<path id="Vector_4" d="M10.7639 14.7605V11.0865H12.0654C13.3704 11.0865 14.0224 11.6835 14.0224 12.877C14.0224 13.4495 13.8444 13.906 13.4884 14.2475C13.1324 14.5895 12.6579 14.76 12.0654 14.76L10.7639 14.7605ZM11.5914 11.7605V14.089H12.0014C12.3599 14.089 12.6409 13.9815 12.8454 13.7665C13.0494 13.5515 13.1514 13.2585 13.1514 12.8875C13.1514 12.5375 13.0504 12.262 12.8484 12.0615C12.6459 11.8605 12.3619 11.7605 11.9964 11.7605H11.5914Z" fill="#E72636"/>
<path id="Vector_5" d="M16.7571 11.7605H15.4606V12.662H16.6521V13.3335H15.4606V14.7605H14.6331V11.0865H16.7571V11.7605Z" fill="#E72636"/>
</g>
</svg>
