<?xml version="1.0" encoding="UTF-8"?>
<svg width="15px" height="11px" viewBox="0 0 15 11" version="1.1" xmlns="http://www.w3.org/2000/svg" xmlns:xlink="http://www.w3.org/1999/xlink">
    <!-- Generator: Sketch 63.1 (92452) - https://sketch.com -->
    <title>percentage</title>
    <desc>Created with Sketch.</desc>
    <g id="percentage" stroke="none" stroke-width="1" fill="none" fill-rule="evenodd">
        <g id="promo" fill="#FC6E0D" fill-rule="nonzero">
            <path d="M12.96875,8.33203125 C12.0014182,7.77391462 11.4056765,6.74179209 11.40625,5.625 C11.40625,4.46874999 12.034375,3.45859374 12.96875,2.91796875 L12.96875,2.49999999 L2.03124999,2.49999999 L2.03124999,2.91796875 C2.96562501,3.45859374 3.59375001,4.46874999 3.59375001,5.625 C3.59375001,6.78125001 2.96562501,7.79140626 2.03124999,8.33203125 L2.03124999,8.75000001 L12.96875,8.75000001 L12.96875,8.33203125 L12.96875,8.33203125 Z M14.53125,7.96875 L14.53125,7.18749999 C13.9730225,7.18750001 13.457199,6.8896892 13.1780853,6.40625001 C12.8989715,5.92281082 12.8989715,5.32718918 13.1780853,4.84374999 C13.457199,4.3603108 13.9730225,4.06249999 14.53125,4.06250001 L14.53125,0.9375 L0.46875,0.9375 L0.46875,4.06250001 C1.02697749,4.06249999 1.54280098,4.3603108 1.82191473,4.84374999 C2.10102848,5.32718918 2.10102848,5.92281082 1.82191473,6.40625001 C1.54280098,6.8896892 1.02697749,7.18750001 0.46875,7.18749999 L0.46875,10.3125 L14.53125,10.3125 L14.53125,7.96875 L14.53125,7.96875 Z" id="Shape"></path>
        </g>
        <g transform="translate(3.000000, 1.000000)" fill="#FFFFFF" fill-rule="nonzero">
            <rect id="Rectangle" opacity="0" x="0" y="0" width="9" height="9"></rect>
            <path d="M3.04543213,3.04541016 C3.48470947,2.60613281 3.48470947,1.89369141 3.04543213,1.45441406 C2.60615479,1.01513672 1.89371338,1.01513672 1.45443604,1.45441406 C1.01515869,1.89369141 1.01515869,2.60613281 1.45443604,3.04541016 C1.89388916,3.48486328 2.60615479,3.48486328 3.04543213,3.04541016 Z M7.54543213,5.95441406 C7.10615479,5.51513672 6.39371338,5.51513672 5.95443604,5.95441406 C5.51515869,6.39369141 5.51515869,7.10613281 5.95443604,7.54541016 C6.39371338,7.9846875 7.10615479,7.9846875 7.54543213,7.54541016 C7.98488525,7.10613281 7.98488525,6.39386719 7.54543213,5.95441406 Z M7.51133057,1.88630859 L7.11371338,1.48869141 C6.89398682,1.26896484 6.537854,1.26896484 6.31830322,1.48869141 L1.48871338,6.31828125 C1.26898682,6.53800781 1.26898682,6.89414062 1.48871338,7.11369141 L1.88633057,7.51130859 C2.10605713,7.73103516 2.46218994,7.73103516 2.68174072,7.51130859 L7.51133057,2.68171875 C7.73105713,2.46216797 7.73105713,2.10603516 7.51133057,1.88630859 Z" id="Shape"></path>
        </g>
    </g>
</svg>