<svg width="14" height="14" viewBox="0 0 14 14" fill="none" xmlns="http://www.w3.org/2000/svg">
<path d="M4.0048 1.45158C4.83766 0.733403 5.8999 0.336762 6.99964 0.333313C9.24118 0.333313 11.1019 1.99989 11.3044 4.14893C12.631 4.33642 13.6659 5.44719 13.6659 6.81045C13.6659 8.30703 12.4177 9.49947 10.9053 9.49947H8.66621C8.55571 9.49947 8.44973 9.45557 8.3716 9.37743C8.29346 9.2993 8.24957 9.19332 8.24957 9.08282C8.24957 8.97232 8.29346 8.86635 8.3716 8.78821C8.44973 8.71008 8.55571 8.66618 8.66621 8.66618H10.9061C11.9819 8.66618 12.8326 7.82289 12.8326 6.81045C12.8326 5.79717 11.9827 4.95389 10.9053 4.95389H10.4886V4.53724C10.4894 2.68735 8.93953 1.1666 6.99964 1.1666C6.09958 1.1702 5.23044 1.49528 4.54894 2.08321C3.91814 2.62652 3.58816 3.28148 3.58816 3.79562V4.16893L3.21735 4.20976C2.05325 4.33726 1.16663 5.29304 1.16663 6.4313C1.16663 7.65374 2.19157 8.66618 3.484 8.66618H5.33306C5.44356 8.66618 5.54954 8.71008 5.62767 8.78821C5.70581 8.86635 5.74971 8.97232 5.74971 9.08282C5.74971 9.19332 5.70581 9.2993 5.62767 9.37743C5.54954 9.45557 5.44356 9.49947 5.33306 9.49947H3.484C1.7566 9.49947 0.333344 8.13788 0.333344 6.4313C0.333344 4.96222 1.38828 3.74562 2.78487 3.43731C2.90403 2.71818 3.36651 2.00155 4.0048 1.45158Z" fill="#234455"/>
<path d="M6.70466 13.5443C6.74336 13.5831 6.78934 13.6138 6.83996 13.6348C6.89057 13.6558 6.94484 13.6667 6.99964 13.6667C7.05444 13.6667 7.10871 13.6558 7.15933 13.6348C7.20994 13.6138 7.25592 13.5831 7.29463 13.5443L9.79449 11.0444C9.87272 10.9662 9.91667 10.86 9.91667 10.7494C9.91667 10.6388 9.87272 10.5327 9.79449 10.4544C9.71625 10.3762 9.61014 10.3322 9.4995 10.3322C9.38886 10.3322 9.28275 10.3762 9.20452 10.4544L7.41628 12.2435L7.41628 4.9164C7.41628 4.8059 7.37239 4.69992 7.29425 4.62179C7.21612 4.54365 7.11014 4.49976 6.99964 4.49976C6.88914 4.49976 6.78317 4.54365 6.70503 4.62179C6.62689 4.69992 6.583 4.8059 6.583 4.9164L6.583 12.2435L4.79476 10.4544C4.71653 10.3762 4.61042 10.3322 4.49978 10.3322C4.38914 10.3322 4.28303 10.3762 4.2048 10.4544C4.12656 10.5327 4.08261 10.6388 4.08261 10.7494C4.08261 10.86 4.12656 10.9662 4.2048 11.0444L6.70466 13.5443Z" fill="#234455"/>
</svg>
