<svg width="14" height="14" viewBox="0 0 14 14" fill="none" xmlns="http://www.w3.org/2000/svg">
<path d="M10.351 7.00002L12.6727 4.67836C12.9002 4.45086 12.9002 4.08336 12.6727 3.85586L10.141 1.32419C9.91352 1.09669 9.54602 1.09669 9.31852 1.32419L6.99685 3.64586L4.67518 1.32419C4.55852 1.21336 4.41268 1.15502 4.26102 1.15502C4.11518 1.15502 3.96352 1.21336 3.85268 1.32419L1.32102 3.85586C1.09352 4.08336 1.09352 4.45086 1.32102 4.67836L3.64268 7.00002L1.32102 9.32169C1.09352 9.54919 1.09352 9.91669 1.32102 10.1442L3.85268 12.6759C4.08018 12.9034 4.44768 12.9034 4.67518 12.6759L6.99685 10.3542L9.31852 12.6759C9.43518 12.7925 9.58102 12.845 9.73268 12.845C9.88435 12.845 10.0302 12.7867 10.1468 12.6759L12.6785 10.1442C12.906 9.91669 12.906 9.54919 12.6785 9.32169L10.351 7.00002ZM7.00852 5.23836C7.32935 5.23836 7.59185 5.50086 7.59185 5.82169C7.59185 6.14252 7.32935 6.40502 7.00852 6.40502C6.68768 6.40502 6.42518 6.14252 6.42518 5.82169C6.42518 5.50086 6.68768 5.23836 7.00852 5.23836ZM4.26102 6.38169L2.14352 4.27002L4.26102 2.15252L6.37268 4.26419L4.26102 6.38169ZM5.84185 7.57169C5.52102 7.57169 5.25852 7.30919 5.25852 6.98836C5.25852 6.66752 5.52102 6.40502 5.84185 6.40502C6.16268 6.40502 6.42518 6.66752 6.42518 6.98836C6.42518 7.30919 6.16268 7.57169 5.84185 7.57169ZM7.00852 8.73836C6.68768 8.73836 6.42518 8.47586 6.42518 8.15502C6.42518 7.83419 6.68768 7.57169 7.00852 7.57169C7.32935 7.57169 7.59185 7.83419 7.59185 8.15502C7.59185 8.47586 7.32935 8.73836 7.00852 8.73836ZM8.17518 6.40502C8.49602 6.40502 8.75852 6.66752 8.75852 6.98836C8.75852 7.30919 8.49602 7.57169 8.17518 7.57169C7.85435 7.57169 7.59185 7.30919 7.59185 6.98836C7.59185 6.66752 7.85435 6.40502 8.17518 6.40502ZM9.72685 11.8534L7.60935 9.74169L9.72685 7.62419L11.8385 9.73586L9.72685 11.8534Z" fill="#A92F2F"/>
</svg>
