<svg width="56" height="56" viewBox="0 0 56 56" fill="none" xmlns="http://www.w3.org/2000/svg">
<path d="M35.2773 8.3177C34.9364 7.02068 34.2494 5.84073 33.2897 4.90401C32.33 3.96728 31.1337 3.30903 29.8288 2.99964C28.5239 2.69024 27.1594 2.74134 25.8813 3.14747C24.6033 3.55361 23.4596 4.29949 22.5726 5.30538L5.26753 22.6105C4.16761 23.5971 3.38713 24.8895 3.02597 26.3222C2.66481 27.755 2.7394 29.2629 3.24021 30.653C3.74103 32.0431 4.64528 33.2521 5.83722 34.1254C7.02916 34.9986 8.45456 35.4962 9.93097 35.5546H10.1074C11.1601 35.5337 12.1977 35.2995 13.1574 34.8662C14.1171 34.433 14.9789 33.8096 15.6909 33.0339L32.996 15.7288C34.0098 14.8144 34.7572 13.6427 35.1588 12.3379C35.5605 11.0331 35.6014 9.64389 35.2773 8.3177ZM13.9138 31.2693C13.4811 31.798 12.9424 32.2302 12.3325 32.538C11.7226 32.8457 11.0549 33.0223 10.3726 33.0563C9.69029 33.0903 9.0084 32.9809 8.37092 32.7352C7.73343 32.4896 7.15447 32.1131 6.67139 31.63C6.18831 31.1469 5.81182 30.568 5.56616 29.9305C5.32051 29.293 5.21113 28.6111 5.24511 27.9288C5.27909 27.2465 5.45567 26.5788 5.76345 25.9689C6.07122 25.359 6.50338 24.8203 7.03206 24.3876L14.796 16.6236L21.6777 23.5054L13.9138 31.2693ZM31.2315 13.9516L23.4675 21.6904L16.611 14.8339L24.375 7.06991C24.8554 6.53715 25.4373 6.10558 26.0865 5.80043C26.7358 5.49528 27.4394 5.3227 28.1561 5.29278C29.4313 5.31353 30.6461 5.83934 31.534 6.75481C33.2607 8.46894 33.8279 11.3552 31.2315 13.9516ZM32.996 27.9923C30.5032 27.9923 28.0664 28.7315 25.9937 30.1165C23.921 31.5014 22.3055 33.4699 21.3516 35.7729C20.3976 38.076 20.148 40.6102 20.6343 43.0551C21.1207 45.5 22.3211 47.7458 24.0837 49.5085C25.8464 51.2712 28.0922 52.4715 30.5371 52.9579C32.982 53.4442 35.5163 53.1946 37.8193 52.2406C40.1224 51.2867 42.0908 49.6712 43.4757 47.5985C44.8607 45.5258 45.5999 43.089 45.5999 40.5962C45.5999 37.2534 44.272 34.0476 41.9083 31.6839C39.5446 29.3202 36.3388 27.9923 32.996 27.9923ZM32.996 30.5131C35.2353 30.5103 37.4105 31.2605 39.1719 32.6432L25.043 46.7721C23.6604 45.0106 22.9102 42.8355 22.9129 40.5962C22.9129 37.922 23.9752 35.3573 25.8662 33.4664C27.7571 31.5754 30.3218 30.5131 32.996 30.5131ZM32.996 50.6793C30.7568 50.6821 28.5816 49.9318 26.8201 48.5492L40.9491 34.4203C42.3317 36.1817 43.0819 38.3569 43.0791 40.5962C43.0791 43.2704 42.0168 45.8351 40.1259 47.726C38.2349 49.617 35.6702 50.6793 32.996 50.6793ZM45.5999 12.8677C44.1042 12.8677 42.6421 13.3112 41.3985 14.1422C40.1549 14.9731 39.1856 16.1542 38.6132 17.536C38.0408 18.9179 37.8911 20.4384 38.1829 21.9053C38.4747 23.3723 39.1949 24.7198 40.2525 25.7774C41.3101 26.835 42.6576 27.5552 44.1246 27.847C45.5915 28.1388 47.112 27.989 48.4939 27.4167C49.8757 26.8443 51.0568 25.875 51.8877 24.6314C52.7187 23.3878 53.1622 21.9257 53.1622 20.43C53.1622 18.4244 52.3655 16.5008 50.9473 15.0826C49.529 13.6644 47.6055 12.8677 45.5999 12.8677ZM45.5999 25.4716C44.6028 25.4716 43.628 25.1759 42.7989 24.6219C41.9699 24.0679 41.3237 23.2805 40.9421 22.3593C40.5605 21.4381 40.4607 20.4244 40.6552 19.4464C40.8498 18.4685 41.3299 17.5702 42.035 16.8651C42.74 16.16 43.6384 15.6799 44.6163 15.4853C45.5943 15.2908 46.608 15.3907 47.5292 15.7722C48.4504 16.1538 49.2378 16.8 49.7918 17.6291C50.3457 18.4582 50.6414 19.4329 50.6414 20.43C50.6414 21.7671 50.1103 23.0494 49.1648 23.9949C48.2193 24.9404 46.937 25.4716 45.5999 25.4716Z" fill="#A7B4BB"/>
</svg>
