<svg width="81" height="81" viewBox="0 0 81 81" fill="none" xmlns="http://www.w3.org/2000/svg">
<path d="M51.9349 9.57062C51.3992 7.53245 50.3196 5.67823 48.8115 4.20624C47.3034 2.73425 45.4235 1.69985 43.373 1.21366C41.3224 0.727471 39.1783 0.807768 37.1699 1.44598C35.1614 2.08419 33.3642 3.25629 31.9705 4.83697L4.77671 32.0307C3.04826 33.5811 1.82179 35.6119 1.25426 37.8634C0.686718 40.1149 0.803928 42.4845 1.59093 44.6689C2.37792 46.8534 3.79889 48.7533 5.67194 50.1255C7.54498 51.4977 9.7849 52.2797 12.105 52.3715H12.3822C14.0365 52.3386 15.667 51.9706 17.1751 51.2897C18.6832 50.6089 20.0375 49.6293 21.1563 48.4103L48.3501 21.2166C49.9432 19.7798 51.1176 17.9385 51.7488 15.8881C52.3799 13.8377 52.4443 11.6546 51.9349 9.57062ZM18.3636 45.6375C17.6837 46.4683 16.8373 47.1474 15.8788 47.631C14.9204 48.1147 13.8712 48.3921 12.799 48.4455C11.7268 48.4989 10.6552 48.3271 9.65346 47.941C8.6517 47.555 7.7419 46.9634 6.98277 46.2042C6.22365 45.4451 5.63203 44.5354 5.24599 43.5336C4.85996 42.5318 4.68808 41.4603 4.74147 40.3881C4.79487 39.3158 5.07236 38.2667 5.55601 37.3082C6.03966 36.3498 6.71876 35.5033 7.54955 34.8234L19.7501 22.6228L30.5642 33.4369L18.3636 45.6375ZM45.5772 18.4239L33.3767 30.5849L22.6022 19.8104L34.8027 7.60981C35.5577 6.77261 36.472 6.09442 37.4923 5.6149C38.5125 5.13538 39.6182 4.86419 40.7445 4.81717C42.7483 4.84979 44.6573 5.67605 46.0525 7.11465C48.766 9.80828 49.6573 14.3439 45.5772 18.4239ZM48.3501 40.4879C44.4328 40.4879 40.6035 41.6495 37.3464 43.8258C34.0893 46.0021 31.5507 49.0954 30.0516 52.7145C28.5526 56.3336 28.1603 60.3159 28.9245 64.1579C29.6888 67.9999 31.5751 71.529 34.345 74.299C37.115 77.0689 40.6441 78.9552 44.4861 79.7194C48.3281 80.4837 52.3104 80.0915 55.9295 78.5924C59.5486 77.0933 62.6419 74.5547 64.8182 71.2976C66.9945 68.0405 68.1561 64.2112 68.1561 60.294C68.1561 55.0411 66.0694 50.0033 62.3551 46.2889C58.6407 42.5746 53.6029 40.4879 48.3501 40.4879ZM48.3501 44.4491C51.8689 44.4447 55.287 45.6236 58.055 47.7963L35.8524 69.9989C33.6797 67.2309 32.5008 63.8128 32.5052 60.294C32.5052 56.0916 34.1746 52.0614 37.146 49.0899C40.1175 46.1185 44.1477 44.4491 48.3501 44.4491ZM48.3501 76.1388C44.8312 76.1432 41.4131 74.9643 38.6451 72.7916L60.8477 50.589C63.0204 53.357 64.1993 56.7751 64.1949 60.294C64.1949 64.4963 62.5256 68.5265 59.5541 71.498C56.5826 74.4695 52.5524 76.1388 48.3501 76.1388ZM68.1561 16.7206C65.8058 16.7206 63.5081 17.4176 61.5539 18.7234C59.5996 20.0292 58.0765 21.8851 57.1771 24.0566C56.2776 26.228 56.0423 28.6174 56.5008 30.9226C56.9594 33.2278 58.0911 35.3453 59.7531 37.0073C61.4151 38.6692 63.5326 39.801 65.8378 40.2595C68.143 40.7181 70.5324 40.4827 72.7038 39.5833C74.8753 38.6838 76.7312 37.1607 78.037 35.2064C79.3428 33.2522 80.0398 30.9546 80.0398 28.6042C80.0398 25.4525 78.7877 22.4299 76.5591 20.2012C74.3305 17.9726 71.3079 16.7206 68.1561 16.7206ZM68.1561 36.5267C66.5892 36.5267 65.0575 36.062 63.7546 35.1915C62.4518 34.321 61.4364 33.0837 60.8367 31.636C60.2371 30.1884 60.0803 28.5955 60.3859 27.0587C60.6916 25.5219 61.4461 24.1102 62.5541 23.0022C63.6621 21.8943 65.0737 21.1397 66.6105 20.834C68.1473 20.5284 69.7403 20.6853 71.1879 21.2849C72.6355 21.8845 73.8728 22.9 74.7433 24.2028C75.6139 25.5056 76.0785 27.0373 76.0785 28.6042C76.0785 30.7054 75.2439 32.7205 73.7581 34.2063C72.2724 35.692 70.2573 36.5267 68.1561 36.5267Z" fill="#A7B4BB"/>
</svg>
