<svg width="360" height="186" viewBox="0 0 360 186" fill="none" xmlns="http://www.w3.org/2000/svg">
<rect width="360" height="186" fill="#2D5E64"/>
<path d="M145.037 84.9309C154.254 84.9309 161.754 77.4416 161.754 68.2355C161.754 59.284 154.745 51.9581 145.797 51.5572C144.695 51.5022 143.753 52.3634 143.703 53.4687C143.653 54.5741 144.511 55.5103 145.617 55.5597C150.243 55.767 154.186 58.4129 156.234 62.225H133.848C134.809 60.4406 136.198 58.8843 137.935 57.7128C138.853 57.0933 139.094 55.8477 138.474 54.9312C137.854 54.0142 136.606 53.7732 135.689 54.3924C131.075 57.5057 128.32 62.6807 128.32 68.2352C128.32 77.4416 135.819 84.9309 145.037 84.9309V84.9309ZM145.037 80.9241C140.207 80.9241 135.999 78.2187 133.851 74.246H156.223C154.074 78.2187 149.866 80.9241 145.037 80.9241ZM157.582 66.2321C157.686 66.8849 157.741 67.5538 157.741 68.2355C157.741 68.9172 157.686 69.5861 157.581 70.2389H132.492C132.388 69.5861 132.332 68.9172 132.332 68.2355C132.332 67.5581 132.391 66.8895 132.496 66.2321H157.582Z" fill="white"/>
<path d="M226.896 99.1404C225.945 99.7097 225.637 100.94 226.207 101.889C227.285 103.684 227.885 105.681 228.002 107.704L207.712 98.2544C211.186 95.6587 215.887 94.9276 220.174 96.7029C221.197 97.1263 222.371 96.6415 222.795 95.6192C223.219 94.5972 222.733 93.4251 221.71 93.0014C213.424 89.5694 203.961 93.2477 200.167 101.372C198.28 105.414 198.082 109.948 199.609 114.138C201.136 118.329 204.206 121.675 208.253 123.559C212.074 125.32 216.693 125.701 221.035 124.117C225.231 122.591 228.581 119.526 230.468 115.484C232.819 110.45 232.512 104.597 229.648 99.8277C229.078 98.8789 227.846 98.5712 226.896 99.1404V99.1404ZM226.832 113.79C226.546 114.405 226.212 114.988 225.84 115.539L203.1 104.949C203.284 104.31 203.516 103.68 203.803 103.066C204.092 102.448 204.425 101.865 204.795 101.317L227.531 111.905C227.348 112.545 227.119 113.177 226.832 113.79ZM219.663 120.352C216.474 121.511 213.024 121.36 209.949 119.928C206.873 118.496 204.54 115.953 203.379 112.768C202.949 111.587 202.7 110.371 202.629 109.15L222.92 118.601C221.939 119.33 220.845 119.922 219.663 120.352V120.352Z" fill="white"/>
<path d="M175.056 59.7232C178.441 61.4661 183.411 60.0931 185.25 56.218L191.84 42.7235C191.84 42.7235 191.84 42.7235 191.84 42.7232C193.682 38.9507 192.108 34.3839 188.33 32.5432C184.552 30.703 179.98 32.2761 178.137 36.0484L171.547 49.5431C169.704 53.3157 171.279 57.8824 175.056 59.7232ZM181.643 54.4614C180.861 56.0318 178.862 57.0092 176.815 56.1218C175.026 55.2499 174.28 53.087 175.153 51.2997L177.568 46.3532L184.059 49.5148L181.643 54.4614ZM181.743 37.805C182.724 36.2554 184.176 35.1925 186.571 36.1445C188.361 37.0164 189.106 39.1793 188.234 40.9666L185.818 45.9132L179.327 42.7515L181.743 37.805Z" fill="white"/>
<path d="M226.309 62.5127L211.591 59.4515C207.892 58.5924 203.344 61.1808 202.574 65.3525C201.714 69.0462 204.306 73.5889 208.483 74.358L223.201 77.4192C226.744 78.3087 231.523 75.6823 232.217 71.5182C233.078 67.8244 230.486 63.2817 226.309 62.5127ZM207.017 68.8811C206.488 68.0755 206.306 67.1125 206.502 66.1696C206.874 64.4555 208.571 63.0165 210.773 63.3744L216.168 64.4966L214.696 71.5574L209.301 70.4353C208.357 70.2389 207.546 69.6871 207.017 68.8811ZM228.29 70.7013C227.918 72.4154 226.221 73.8544 224.019 73.4965L218.624 72.3743L220.096 65.3135L225.491 66.4356C227.207 66.8069 228.648 68.5013 228.29 70.7013Z" fill="white"/>
<path d="M149.291 97.8701L134.574 94.8089C130.874 93.9498 126.327 96.5382 125.557 100.71C124.696 104.404 127.288 108.946 131.465 109.715L146.183 112.777C149.727 113.666 154.505 111.04 155.2 106.876C156.061 103.182 153.468 98.6391 149.291 97.8701V97.8701ZM129.999 104.239C129.47 103.433 129.288 102.47 129.484 101.527C129.856 99.8129 131.554 98.3736 133.755 98.7318L139.15 99.854L137.678 106.915L132.283 105.793C131.339 105.596 130.528 105.044 129.999 104.239ZM151.272 106.058C150.901 107.773 149.203 109.212 147.001 108.854L141.606 107.731L143.078 100.671L148.473 101.793C150.19 102.164 151.63 103.858 151.272 106.058V106.058Z" fill="white"/>
<path d="M181.073 71.25C175.395 71.25 170.776 75.8637 170.776 81.5342C170.776 87.2049 175.396 91.8184 181.073 91.8184C186.752 91.8184 191.371 87.2047 191.371 81.5342C191.371 75.8637 186.752 71.25 181.073 71.25ZM181.073 87.8119C177.608 87.8119 174.788 84.9958 174.788 81.5345C174.788 78.0731 177.608 75.2571 181.073 75.2571C184.539 75.2571 187.359 78.0731 187.359 81.5345C187.359 84.9958 184.539 87.8119 181.073 87.8119Z" fill="white"/>
<path d="M219.393 52.3421C225.071 52.3421 229.691 47.7284 229.691 42.0579C229.691 36.3874 225.071 31.7734 219.393 31.7734C213.715 31.7734 209.096 36.3872 209.096 42.0576C209.096 47.7281 213.715 52.3421 219.393 52.3421ZM219.393 35.7803C222.859 35.7803 225.679 38.5963 225.679 42.0576C225.679 45.519 222.859 48.335 219.393 48.335C215.927 48.335 213.108 45.519 213.108 42.0576C213.108 38.5963 215.927 35.7803 219.393 35.7803V35.7803Z" fill="white"/>
<path d="M175.218 107.803C169.539 107.803 164.92 112.416 164.92 118.087C164.92 123.758 169.54 128.371 175.218 128.371C180.895 128.371 185.515 123.757 185.515 118.087C185.515 112.416 180.896 107.803 175.218 107.803V107.803ZM175.218 124.364C171.752 124.364 168.932 121.548 168.932 118.087C168.932 114.626 171.752 111.81 175.218 111.81C178.683 111.81 181.503 114.626 181.503 118.087C181.503 121.548 178.683 124.364 175.218 124.364Z" fill="white"/>
</svg>
