<?xml version="1.0" encoding="UTF-8"?>
<svg width="30px" height="30px" viewBox="0 0 30 30" version="1.1" xmlns="http://www.w3.org/2000/svg" xmlns:xlink="http://www.w3.org/1999/xlink">
    <!-- Generator: Sketch 63.1 (92452) - https://sketch.com -->
    <title>promo_onclick</title>
    <desc>Created with Sketch.</desc>
    <defs>
        <linearGradient x1="0%" y1="100%" x2="100%" y2="0%" id="linearGradient-1">
            <stop stop-color="#00555B" offset="0%"></stop>
            <stop stop-color="#008E93" offset="100%"></stop>
        </linearGradient>
    </defs>
    <g id="promo_onclick" stroke="none" stroke-width="1" fill="none" fill-rule="evenodd">
        <g id="round_btn_sm" fill="url(#linearGradient-1)">
            <circle id="Oval" cx="15" cy="15" r="15"></circle>
        </g>
        <g id="promo_white" transform="translate(6.000000, 7.000000)" fill="#FFFFFF">
            <path d="M16.1022017,1.77635684e-15 C16.6985795,1.77635684e-15 17.1818182,0.483238636 17.1837358,1.07961648 L17.1837358,1.07961648 L17.1837358,8.14026989 C17.1837358,8.42599432 17.0705966,8.70021307 16.8673295,8.90348011 L16.8673295,8.90348011 L8.90539773,16.8654119 C8.48352273,17.2872869 7.80085227,17.2872869 7.37897727,16.8654119 L7.37897727,16.8654119 L0.31640625,9.80284091 C-0.10546875,9.38096591 -0.10546875,8.69829545 0.31640625,8.27642045 L0.31640625,8.27642045 L8.27833807,0.31640625 C8.48160511,0.113139205 8.75582386,1.77635684e-15 9.0415483,1.77635684e-15 L9.0415483,1.77635684e-15 Z M12.0477273,2.7 C10.8607244,2.7 9.9,3.66072443 9.9,4.84772727 C9.9,6.03473011 10.8607244,6.99545455 12.0477273,6.99545455 C13.2347301,6.99545455 14.1954545,6.03473011 14.1954545,4.84772727 C14.1954545,3.66072443 13.2347301,2.7 12.0477273,2.7 Z" id="Combined-Shape"></path>
        </g>
    </g>
</svg>