<?xml version="1.0" encoding="UTF-8"?>
<svg width="24px" height="24px" viewBox="0 0 24 24" version="1.1" xmlns="http://www.w3.org/2000/svg" xmlns:xlink="http://www.w3.org/1999/xlink">
    <!-- Generator: Sketch 63.1 (92452) - https://sketch.com -->
    <title>home_outline</title>
    <desc>Created with Sketch.</desc>
    <g id="home_outline" stroke="none" stroke-width="1" fill="none" fill-rule="evenodd">
        <g id="home" fill-rule="nonzero">
            <rect id="Rectangle" fill="#FFFFFF" opacity="0" x="0" y="0" width="24" height="24"></rect>
            <path d="M22.2789402,10.4875 L13.8914402,1.825 C13.3414402,1.275 12.6539402,1 11.9664402,1 C11.2789402,1 10.5914402,1.275 10.0414402,1.825 L1.65394023,10.4875 C0.82894023,11.45 0.96644023,12.1375 1.10394023,12.55 C1.10394023,12.6875 1.51644023,13.375 2.47894023,13.375 L3.71644023,13.375 L3.71644023,20.1125 C3.71644023,21.625 4.81644023,23 6.32894023,23 L7.70394023,23 L9.90394023,23 L9.90394023,21.4875 L9.90394023,15.9875 C9.90394023,15.1625 9.76644023,14.75 10.5914402,14.75 L11.9664402,14.75 L13.3414402,14.75 C14.1664402,14.75 14.0289402,15.1625 14.0289402,15.9875 L14.0289402,21.4875 L14.0289402,23 L16.2289402,23 L17.6039402,23 C19.1164402,23 20.2164402,21.625 20.2164402,20.1125 L20.2164402,13.375 L21.4539402,13.375 C22.4164402,13.375 22.8289402,12.6875 22.8289402,12.55 C22.9664402,12.1375 23.1039402,11.45 22.2789402,10.4875 Z" id="Path" stroke="#595959"></path>
        </g>
    </g>
</svg>