<?xml version="1.0" encoding="UTF-8"?>
<svg width="20px" height="20px" viewBox="0 0 20 20" version="1.1" xmlns="http://www.w3.org/2000/svg" xmlns:xlink="http://www.w3.org/1999/xlink">
    <!-- Generator: Sketch 63.1 (92452) - https://sketch.com -->
    <title>home_solid_white</title>
    <desc>Created with Sketch.</desc>
    <g id="home_solid_white" stroke="none" stroke-width="1" fill="none" fill-rule="evenodd">
        <g id="home" fill="#FFFFFF" fill-rule="nonzero">
            <rect id="Rectangle" opacity="0" x="0" y="0" width="20" height="20"></rect>
            <path d="M19.375,8.625 L11.75,0.75 C11.25,0.25 10.625,0 10,0 C9.375,0 8.75,0.25 8.25,0.75 L0.625,8.625 C-0.125,9.5 6.55725474e-16,10.125 0.125,10.5 C0.125,10.625 0.5,11.25 1.375,11.25 L2.5,11.25 L2.5,17.375 C2.5,18.75 3.5,20 4.875,20 L6.125,20 L8.125,20 L8.125,18.625 L8.125,13.625 C8.125,12.875 8,12.5 8.75,12.5 L10,12.5 L11.25,12.5 C12,12.5 11.875,12.875 11.875,13.625 L11.875,18.625 L11.875,20 L13.875,20 L15.125,20 C16.5,20 17.5,18.75 17.5,17.375 L17.5,11.25 L18.625,11.25 C19.5,11.25 19.875,10.625 19.875,10.5 C20,10.125 20.125,9.5 19.375,8.625 Z" id="Shape"></path>
        </g>
    </g>
</svg>