<?xml version="1.0" encoding="UTF-8"?>
<svg width="30px" height="30px" viewBox="0 0 30 30" version="1.1" xmlns="http://www.w3.org/2000/svg" xmlns:xlink="http://www.w3.org/1999/xlink">
    <!-- Generator: Sketch 63.1 (92452) - https://sketch.com -->
    <title>home_Onclick</title>
    <desc>Created with Sketch.</desc>
    <defs>
        <linearGradient x1="0%" y1="100%" x2="100%" y2="0%" id="linearGradient-1">
            <stop stop-color="#00555B" offset="0%"></stop>
            <stop stop-color="#008E93" offset="100%"></stop>
        </linearGradient>
    </defs>
    <g id="home_Onclick" stroke="none" stroke-width="1" fill="none" fill-rule="evenodd">
        <g id="round_btn_sm" fill="url(#linearGradient-1)">
            <circle id="Oval" cx="15" cy="15" r="15"></circle>
        </g>
        <g id="home_solid_white" transform="translate(6.000000, 6.000000)" fill="#FFFFFF">
            <g id="home">
                <rect id="Rectangle" fill-rule="nonzero" opacity="0" x="0" y="0" width="18" height="18"></rect>
                <path d="M17.4375,7.7625 L10.575,0.675 C10.125,0.225 9.5625,0 9,0 C8.4375,0 7.875,0.225 7.425,0.675 L0.5625,7.7625 C-0.1125,8.55 5.93275429e-16,9.1125 0.1125,9.45 C0.1125,9.5625 0.45,10.125 1.2375,10.125 L2.25,10.125 L2.25,15.6375 C2.25,16.875 3.15,18 4.3875,18 L5.5125,18 L7.3125,18 L7.3125,16.7625 L7.3125,12.2625 C7.3125,11.5875 7.2,11.25 7.875,11.25 L9,11.25 L10.125,11.25 C10.8,11.25 10.6875,11.5875 10.6875,12.2625 L10.6875,16.7625 L10.6875,18 L12.4875,18 L13.6125,18 C14.85,18 15.75,16.875 15.75,15.6375 L15.75,10.125 L16.7625,10.125 C17.55,10.125 17.8875,9.5625 17.8875,9.45 C18,9.1125 18.1125,8.55 17.4375,7.7625 Z" id="Shape" fill-rule="nonzero"></path>
            </g>
        </g>
    </g>
</svg>