<?xml version="1.0" encoding="UTF-8"?>
<svg width="21px" height="21px" viewBox="0 0 21 21" version="1.1" xmlns="http://www.w3.org/2000/svg" xmlns:xlink="http://www.w3.org/1999/xlink">
    <!-- Generator: Sketch 63.1 (92452) - https://sketch.com -->
    <title>promo_white</title>
    <desc>Created with Sketch.</desc>
    <g id="promo_white" stroke="none" stroke-width="1" fill="none" fill-rule="evenodd">
        <path d="M18.8913352,1 C19.5539773,1 20.0909091,1.53693182 20.0930398,2.19957386 L20.0930398,2.19957386 L20.0930398,10.0447443 C20.0930398,10.3622159 19.9673295,10.6669034 19.7414773,10.8927557 L19.7414773,10.8927557 L10.8948864,19.7393466 C10.4261364,20.2080966 9.66761364,20.2080966 9.19886364,19.7393466 L9.19886364,19.7393466 L1.3515625,11.8920455 C0.8828125,11.4232955 0.8828125,10.6647727 1.3515625,10.1960227 L1.3515625,10.1960227 L10.1981534,1.3515625 C10.4240057,1.12571023 10.7286932,1 11.0461648,1 L11.0461648,1 Z M14.3863636,4 C13.0674716,4 12,5.06747159 12,6.38636364 C12,7.70525568 13.0674716,8.77272727 14.3863636,8.77272727 C15.7052557,8.77272727 16.7727273,7.70525568 16.7727273,6.38636364 C16.7727273,5.06747159 15.7052557,4 14.3863636,4 Z" id="Combined-Shape" fill="#FFFFFF"></path>
    </g>
</svg>