<svg width="32" height="32" viewBox="0 0 32 32" fill="none" xmlns="http://www.w3.org/2000/svg">
<path d="M22.6376 5.51562H11.9357C9.47292 5.51562 7.47656 7.51198 7.47656 9.97477V20.6767C7.47656 23.1395 9.47292 25.1358 11.9357 25.1358H22.6376C25.1004 25.1358 27.0968 23.1395 27.0968 20.6767V9.97477C27.0968 7.51198 25.1004 5.51562 22.6376 5.51562Z" fill="#00555B"/>
<path opacity="0.3" d="M17.2849 29.5974C21.964 29.5974 25.7572 28.9984 25.7572 28.2596C25.7572 27.5208 21.964 26.9219 17.2849 26.9219C12.6057 26.9219 8.8125 27.5208 8.8125 28.2596C8.8125 28.9984 12.6057 29.5974 17.2849 29.5974Z" fill="#131313"/>
<path d="M22.1893 8.64003C21.4504 8.64003 20.8516 8.04117 20.8516 7.30229V4.6268C20.8516 3.88793 21.4504 3.28906 22.1893 3.28906C22.9282 3.28906 23.527 3.88793 23.527 4.6268V7.30229C23.527 8.04117 22.9282 8.64003 22.1893 8.64003Z" fill="#8AB1B4"/>
<path d="M27.0968 20.6851V10.875H7.47656V20.6851C7.47656 23.1479 9.47292 25.1443 11.9357 25.1443H22.6376C25.1004 25.1443 27.0968 23.1479 27.0968 20.6851Z" fill="#8AB1B4"/>
<path d="M17.7348 14.8786H16.843C16.3503 14.8786 15.9512 14.4795 15.9512 13.9868V13.095C15.9512 12.6022 16.3503 12.2031 16.843 12.2031H17.7348C18.2276 12.2031 18.6267 12.6022 18.6267 13.095V13.9868C18.6267 14.4795 18.2276 14.8786 17.7348 14.8786Z" fill="#4F6977"/>
<path d="M22.1899 14.8786H21.2981C20.8053 14.8786 20.4062 14.4795 20.4062 13.9868V13.095C20.4062 12.6022 20.8053 12.2031 21.2981 12.2031H22.1899C22.6826 12.2031 23.0817 12.6022 23.0817 13.095V13.9868C23.0817 14.4795 22.6826 14.8786 22.1899 14.8786Z" fill="#4F6977"/>
<path d="M13.2758 22.9099H12.384C11.8913 22.9099 11.4922 22.5108 11.4922 22.018V21.1262C11.4922 20.6335 11.8913 20.2344 12.384 20.2344H13.2758C13.7686 20.2344 14.1677 20.6335 14.1677 21.1262V22.018C14.1677 22.5108 13.7686 22.9099 13.2758 22.9099Z" fill="#4F6977"/>
<path d="M17.7348 22.9099H16.843C16.3503 22.9099 15.9512 22.5108 15.9512 22.018V21.1262C15.9512 20.6335 16.3503 20.2344 16.843 20.2344H17.7348C18.2276 20.2344 18.6267 20.6335 18.6267 21.1262V22.018C18.6267 22.5108 18.2276 22.9099 17.7348 22.9099Z" fill="#4F6977"/>
<path d="M13.2719 18.8942H12.3801C11.8874 18.8942 11.4883 18.4951 11.4883 18.0024V17.1106C11.4883 16.6178 11.8874 16.2188 12.3801 16.2188H13.2719C13.7647 16.2188 14.1638 16.6178 14.1638 17.1106V18.0024C14.1638 18.4951 13.7647 18.8942 13.2719 18.8942Z" fill="#4F6977"/>
<path d="M17.7348 18.8942H16.843C16.3503 18.8942 15.9512 18.4951 15.9512 18.0024V17.1106C15.9512 16.6178 16.3503 16.2188 16.843 16.2188H17.7348C18.2276 16.2188 18.6267 16.6178 18.6267 17.1106V18.0024C18.6267 18.4951 18.2276 18.8942 17.7348 18.8942Z" fill="#4F6977"/>
<path d="M22.1899 18.8942H21.2981C20.8053 18.8942 20.4062 18.4951 20.4062 18.0024V17.1106C20.4062 16.6178 20.8053 16.2188 21.2981 16.2188H22.1899C22.6826 16.2188 23.0817 16.6178 23.0817 17.1106V18.0024C23.0817 18.4951 22.6826 18.8942 22.1899 18.8942Z" fill="#4F6977"/>
<path opacity="0.3" d="M16.3948 7.7452C17.6265 7.7452 18.6244 6.74679 18.6244 5.51562H11.9357C9.47292 5.51562 7.47656 7.51198 7.47656 9.97477V18.8931C8.70818 18.8931 9.70613 17.8946 9.70613 16.6635V9.97477C9.70613 8.74538 10.7063 7.7452 11.9357 7.7452H16.3948Z" fill="white"/>
<path opacity="0.15" d="M27.099 20.6851V10.875C25.8674 10.875 24.8695 11.8734 24.8695 13.1046V20.6851C24.8695 21.9145 23.8693 22.9147 22.6399 22.9147H18.1807C16.9491 22.9147 15.9512 23.9131 15.9512 25.1443H22.6399C25.1027 25.1443 27.099 23.1479 27.099 20.6851Z" fill="#131313"/>
<path d="M9.25977 16.6579V13.9922" stroke="white" stroke-width="3" stroke-miterlimit="10" stroke-linecap="round"/>
<path d="M9.70493 11.5349C12.0445 11.5349 13.9411 9.63826 13.9411 7.29868C13.9411 4.9591 12.0445 3.0625 9.70493 3.0625C7.36535 3.0625 5.46875 4.9591 5.46875 7.29868C5.46875 9.63826 7.36535 11.5349 9.70493 11.5349Z" fill="#E9ECEE"/>
<path d="M9.70584 11.7085C7.27751 11.7085 5.30078 9.73182 5.30078 7.30349C5.30078 4.87517 7.27751 2.89844 9.70584 2.89844C12.1342 2.89844 14.1109 4.87517 14.1109 7.30349C14.1109 9.73182 12.1342 11.7085 9.70584 11.7085ZM9.70584 3.23618C7.46277 3.23618 5.63852 5.06042 5.63852 7.30349C5.63852 9.54656 7.46277 11.3708 9.70584 11.3708C11.9489 11.3708 13.7731 9.54656 13.7731 7.30349C13.7731 5.06042 11.9489 3.23618 9.70584 3.23618Z" fill="#4A6D29" stroke="#4A6D29"/>
<path d="M9.48242 5.74219V7.52584L10.8202 8.41767" fill="#4A6D29"/>
<path d="M9.48242 5.74219V7.52584L10.8202 8.41767" stroke="#4A6D29" stroke-width="3" stroke-miterlimit="10" stroke-linecap="round" stroke-linejoin="round"/>
</svg>
