<svg width="348" height="232" viewBox="0 0 348 232" fill="none" xmlns="http://www.w3.org/2000/svg">
<path d="M80.6145 110.055L63.8926 158.209L135.335 183.018L152.057 134.864L80.6145 110.055Z" fill="#EBEBEB"/>
<path d="M152.053 134.851C151.771 135.017 151.474 135.155 151.167 135.264L148.573 136.313L138.977 140.067L107.156 152.247L106.892 152.344L106.743 152.108L106.377 151.532L88.0395 122.272L82.5457 113.364L81.0841 110.923C80.9033 110.645 80.7479 110.352 80.6201 110.046C80.8393 110.294 81.0335 110.563 81.2001 110.849L82.7731 113.22L88.4478 122.031L106.961 151.184C107.082 151.384 107.207 151.579 107.323 151.76L106.91 151.62L138.806 139.635L148.48 136.067L151.12 135.139C151.421 135.013 151.733 134.917 152.053 134.851Z" fill="#E0E0E0"/>
<path d="M63.8925 158.223C63.7951 158.061 71.4604 153.328 81.0095 147.649C90.5586 141.97 98.3817 137.501 98.4791 137.664C98.5765 137.826 90.9112 142.559 81.3575 148.238C71.8037 153.918 63.99 158.363 63.8925 158.223Z" fill="#E0E0E0"/>
<path d="M122.435 145.283C122.612 145.222 125.646 153.635 129.21 164.033C132.773 174.431 135.515 182.945 135.334 183.006C135.153 183.066 132.124 174.654 128.56 164.256C124.997 153.857 122.254 145.343 122.435 145.283Z" fill="#E0E0E0"/>
<path d="M291.44 97.5206L220.746 109.503L228.823 157.154L299.516 145.171L291.44 97.5206Z" fill="#E0E0E0"/>
<path d="M291.434 97.542C291.275 97.8075 291.092 98.0576 290.887 98.289L289.212 100.345L282.948 107.843C277.57 114.186 270.211 122.867 262.067 132.481L261.896 132.685L261.664 132.555L261.098 132.245L232.506 116.292L223.88 111.392L221.56 110.033C221.28 109.889 221.016 109.716 220.771 109.518C221.067 109.626 221.353 109.76 221.625 109.917L224.015 111.174L232.743 115.889L261.427 131.665L261.993 131.975L261.59 132.05L282.627 107.537L289.044 100.173C289.782 99.3516 290.367 98.6927 290.812 98.1916C291.002 97.9589 291.21 97.7417 291.434 97.542Z" fill="#EBEBEB"/>
<path d="M228.817 157.17C228.663 157.078 232.872 149.644 238.217 140.568C243.562 131.493 248.026 124.208 248.179 124.301C248.332 124.393 244.124 131.822 238.779 140.902C233.433 149.983 228.97 157.258 228.817 157.17Z" fill="#EBEBEB"/>
<path d="M271.579 119.711C271.7 119.581 278.075 125.172 285.764 132.207C293.452 139.241 299.633 145.05 299.508 145.199C299.382 145.347 293.039 139.728 285.323 132.703C277.607 125.678 271.44 119.855 271.579 119.711Z" fill="#EBEBEB"/>
<path d="M220.777 21.7784L208.041 54.1592L256.083 73.0546L268.819 40.6737L220.777 21.7784Z" fill="#EBEBEB"/>
<path d="M268.805 41.1053C268.609 41.2141 268.402 41.2998 268.187 41.3605L266.392 42.0101L259.743 44.3069L237.698 51.731L237.517 51.7913L237.424 51.6242L237.192 51.2252L225.504 30.7581C224.042 28.1644 222.855 26.0485 222.005 24.5312L221.077 22.8284C220.96 22.6339 220.86 22.4289 220.781 22.2159C220.924 22.3909 221.052 22.5789 221.161 22.7773C221.412 23.1996 221.746 23.7517 222.168 24.4384L225.796 30.5957C228.84 35.8529 233.012 43.0449 237.614 51.0118L237.846 51.4154L237.573 51.3087L259.654 44.0146L266.336 41.8385L268.16 41.2956C268.369 41.2151 268.585 41.1515 268.805 41.1053Z" fill="#E0E0E0"/>
<path d="M208.03 54.5985C207.965 54.4871 213.324 51.4665 219.996 47.8565C226.669 44.2466 232.125 41.4162 232.186 41.5276C232.246 41.639 226.896 44.6596 220.219 48.2556C213.542 51.8516 208.09 54.7145 208.03 54.5985Z" fill="#E0E0E0"/>
<path d="M248.314 47.4015C248.44 47.3644 250.277 53.1783 252.416 60.3935C254.555 67.6087 256.198 73.469 256.072 73.5062C255.947 73.5433 254.11 67.734 251.971 60.5142C249.832 53.2943 248.189 47.4387 248.314 47.4015Z" fill="#E0E0E0"/>
<path d="M306.974 212.085C306.974 212.15 247.433 212.206 174.005 212.206C100.577 212.206 41.0273 212.15 41.0273 212.085C41.0273 212.021 100.554 211.965 174.005 211.965C247.456 211.965 306.974 212.016 306.974 212.085Z" fill="#263238"/>
<path d="M54.1488 85.589L60.784 83.2365L57.9304 79.4271C57.7889 78.5854 57.7206 77.7331 57.7263 76.8797C57.7278 76.4403 57.8031 76.0043 57.949 75.5898C58.11 75.0683 58.3427 74.5718 58.6403 74.1143C58.7141 74.0365 58.7613 73.9373 58.7751 73.8309C58.7888 73.7245 58.7684 73.6166 58.7167 73.5226C58.6651 73.4286 58.5849 73.3535 58.4878 73.308C58.3906 73.2626 58.2816 73.2492 58.1763 73.2698C57.7123 73.3858 56.84 74.4437 56.4456 76.012C56.0512 77.5804 54.9747 75.2696 54.5896 74.4391C54.2045 73.6085 52.8032 71.0844 52.4459 71.0055C51.9262 70.8895 51.7082 71.4277 52.135 72.249C52.5619 73.0703 53.6616 75.6316 53.2069 75.8264C52.7522 76.0213 50.7523 71.7432 50.7523 71.7432C50.7523 71.7432 50.4739 70.7596 49.945 70.9684C48.9891 71.3396 51.4622 75.7244 51.7082 76.1327C51.8798 76.4204 51.3973 76.6477 51.2442 76.3322C51.091 76.0167 49.3371 72.0216 48.3627 72.3928C47.6157 72.6759 50.3626 76.0167 50.2651 77.0328C50.1677 78.049 48.4416 74.2906 47.7363 74.5876C47.4765 74.6989 47.2723 74.8196 48.5994 76.8426C49.2493 77.7891 49.9478 78.7013 50.692 79.5756L54.1581 85.5797" fill="#FFBE9D"/>
<path d="M113.87 93.7001C113.87 93.7001 110.595 86.0534 108.335 82.3368C106.205 78.8382 103.384 78.2721 101.881 78.1608C101.257 77.9691 100.617 77.837 99.9689 77.7664L87.6961 77.6689C85.0137 77.6933 82.4221 78.6441 80.3603 80.3601C79.7896 80.8241 75.544 85.7518 69.9064 92.7675L60.0464 82.0955L54.1675 85.5755C54.1675 85.5755 60.5521 107.62 68.5515 106.108C73.3121 105.221 77.0241 101.918 77.0241 101.918L83.2649 96.8878L83.4088 97.723C83.534 98.7392 83.8496 100.382 84.0908 101.375C84.8425 104.525 85.2648 108.673 83.6268 111.42C83.6268 111.42 81.4043 113.123 83.1628 114.993H106.293C106.293 114.993 109.569 112.771 106.576 110.302L104.72 105.611L105.931 99.8853L106.395 97.5931L108.432 101.082C108.432 101.082 112.46 106.149 116.65 105.528C121.684 104.776 124.603 95.6025 120.06 83.4736L114.585 85.1393L113.87 93.7001Z" fill="#77A8A1"/>
<g opacity="0.4">
<path d="M54.1489 85.5894L54.7289 87.4269L61.2621 83.4411L60.0278 82.1094L54.1489 85.5894Z" fill="black"/>
</g>
<g opacity="0.2">
<path d="M83.6221 111.42C84.5943 111.275 85.527 110.934 86.3642 110.419C87.2015 109.904 87.9259 109.225 88.4941 108.423C89.0894 107.615 89.5189 106.697 89.7578 105.722C89.9967 104.747 90.0403 103.735 89.8861 102.743C89.8609 102.391 89.7619 102.048 89.5957 101.736C89.4294 101.424 89.1996 101.151 88.921 100.934C88.1925 100.47 87.1949 100.711 86.4386 100.307C85.8169 99.978 85.4874 99.3006 85.0466 98.7438C84.6058 98.187 84.0165 97.3239 83.3762 97.6023C83.3762 97.6023 84.1511 101.686 84.4898 103.504C84.8285 105.323 84.9538 107.936 84.2996 109.843C84.1318 110.392 83.9047 110.921 83.6221 111.42Z" fill="black"/>
</g>
<path d="M68.9602 96.5124C68.9668 95.8589 69.0829 95.2112 69.3036 94.5961C69.4454 93.9619 69.641 93.341 69.8882 92.7401C69.8872 93.394 69.771 94.0427 69.5448 94.6564C69.403 95.2905 69.2074 95.9114 68.9602 96.5124Z" fill="#263238"/>
<path d="M70.4262 95.514C70.075 94.6383 69.8863 93.7059 69.8694 92.7625C70.0816 93.1853 70.2167 93.6425 70.2684 94.1128C70.4001 94.5675 70.4534 95.0414 70.4262 95.514Z" fill="#263238"/>
<path d="M114.533 68.5047L106.135 82.1092L112.742 83.9513L120.074 72.6436L114.533 68.5047Z" fill="#455A64"/>
<path d="M114.01 80.0956L114.293 82.0862L115.466 83.5942L115.582 84.8284L119.796 83.5478L118.093 77.5158C118.229 76.7035 118.285 75.8798 118.26 75.0566L117.1 76.5924L116.78 74.0868L114.409 72.1798C114.347 72.1346 114.277 72.1019 114.203 72.0838C114.129 72.0656 114.052 72.0622 113.977 72.0739C113.901 72.0855 113.829 72.1119 113.764 72.1516C113.698 72.1913 113.642 72.2434 113.597 72.3051C113.517 72.4166 113.479 72.5529 113.49 72.6896C113.501 72.8264 113.56 72.9548 113.657 73.0521L115.564 74.7318L115.689 76.8059L114.297 75.5252C114.161 75.3981 113.993 75.3113 113.81 75.2747L111.894 74.8895C111.825 74.8763 111.755 74.8774 111.687 74.8928C111.619 74.9083 111.555 74.9376 111.5 74.9791C111.444 75.0206 111.397 75.0732 111.363 75.1337C111.328 75.1942 111.307 75.2611 111.3 75.3303C111.288 75.4451 111.316 75.5604 111.38 75.6567C111.443 75.7531 111.538 75.8247 111.648 75.8593L113.392 76.3929L115.156 78.1747L113.43 77.5158L111.086 77.8452C110.977 77.863 110.877 77.9196 110.805 78.0048C110.734 78.09 110.695 78.198 110.697 78.3092C110.697 78.4323 110.745 78.5503 110.832 78.6373C110.919 78.7243 111.038 78.7732 111.161 78.7732L112.65 78.6897L113.527 78.9635L111.513 79.4971C111.423 79.5197 111.343 79.5734 111.288 79.6489C111.232 79.7243 111.206 79.8168 111.212 79.91C111.214 79.9643 111.227 80.0175 111.251 80.0666C111.274 80.1156 111.307 80.1594 111.348 80.1954C111.388 80.2314 111.436 80.2587 111.488 80.2759C111.539 80.293 111.594 80.2996 111.648 80.2951L114.01 80.0956Z" fill="#FFBE9D"/>
<g opacity="0.4">
<path d="M114.562 85.1392L114.381 87.3664L120.77 85.6079L120.037 83.4734L114.562 85.1392Z" fill="black"/>
</g>
<path d="M106.135 82.1279C106.135 82.1279 105.569 81.3623 105.615 81.2324C105.662 81.1024 113.605 68.0223 113.605 68.0223L114.533 68.5234L106.135 82.1279Z" fill="#263238"/>
<path d="M116.636 71.9197C116.672 71.8837 116.716 71.8577 116.765 71.8443C116.814 71.8308 116.866 71.8303 116.915 71.8429C116.964 71.8554 117.009 71.8806 117.046 71.9159C117.082 71.9511 117.109 71.9953 117.123 72.0441C117.138 72.0928 117.139 72.1444 117.127 72.1938C117.115 72.2432 117.091 72.2887 117.056 72.3258C117.022 72.3629 116.978 72.3903 116.929 72.4053C116.881 72.4204 116.829 72.4225 116.78 72.4115C116.734 72.3973 116.692 72.3726 116.658 72.3394C116.624 72.3062 116.598 72.2654 116.582 72.2204C116.566 72.1753 116.561 72.1271 116.567 72.0797C116.573 72.0324 116.591 71.9871 116.617 71.9475" fill="#263238"/>
<path d="M111.36 88.7124C111.301 88.8363 111.219 88.948 111.119 89.0418C110.829 89.3123 110.471 89.4984 110.084 89.5801C109.472 89.7051 108.84 89.7051 108.228 89.5801C107.448 89.3951 106.641 89.3589 105.848 89.4734C104.917 89.7444 104.06 90.22 103.337 90.8654C102.507 91.501 101.63 92.2898 100.451 92.661C99.8484 92.8324 99.2173 92.8813 98.5953 92.8049C97.9584 92.7072 97.3354 92.5343 96.7393 92.2898C95.5236 91.8258 94.3589 91.1391 93.0783 90.6751C91.8442 90.1939 90.4927 90.1 89.2039 90.406C87.9465 90.6658 86.7679 91.102 85.594 91.334C83.4961 91.7862 81.3058 91.4839 79.4089 90.4802C78.1242 89.8179 77.0119 88.8645 76.1609 87.6962C75.851 87.2745 75.5909 86.8183 75.386 86.3367C75.4185 86.3367 75.6412 86.8378 76.2397 87.6406C77.1093 88.7628 78.2191 89.676 79.4877 90.3132C81.3581 91.2772 83.5069 91.5563 85.5615 91.102C86.7169 90.8514 87.8815 90.4107 89.1714 90.1415C90.5044 89.822 91.9032 89.9175 93.1804 90.4153C94.4889 90.8793 95.6581 91.566 96.8506 92.0393C97.429 92.2773 98.0332 92.4471 98.6509 92.545C99.2415 92.6169 99.8405 92.5728 100.414 92.4151C101.528 92.0718 102.4 91.3108 103.235 90.6751C103.987 90.0212 104.877 89.5453 105.838 89.2831C106.653 89.1719 107.482 89.2192 108.279 89.4223C108.87 89.5564 109.482 89.5722 110.079 89.4687C110.454 89.4049 110.806 89.245 111.1 89.0047C111.192 88.9122 111.279 88.8146 111.36 88.7124Z" fill="#FAFAFA"/>
<path d="M114.005 97.5518C113.859 96.8767 113.795 96.1866 113.814 95.4963C113.75 94.8081 113.77 94.1147 113.875 93.4315C114.02 94.1065 114.084 94.7967 114.065 95.487C114.129 96.1751 114.109 96.8685 114.005 97.5518Z" fill="#263238"/>
<path d="M99.5327 182.867C99.7322 183.674 104.465 210.211 104.465 210.211L111.717 209.668L110.39 182.57L99.5327 182.867Z" fill="#FFBE9D"/>
<path d="M111.936 210.09L111.912 209.324L104.187 209.486L104.233 212.001H104.697C106.822 212.071 115.508 212.215 116.914 211.793C118.501 211.333 111.936 210.09 111.936 210.09Z" fill="#77A8A1"/>
<g opacity="0.3">
<path d="M107.021 211.89C106.884 211.279 106.521 210.742 106.005 210.387C105.478 210.017 104.837 209.845 104.196 209.899L104.237 211.899L107.021 211.89Z" fill="black"/>
</g>
<g opacity="0.3">
<path d="M115.146 210.805C115.146 210.805 117.466 211.375 117.174 211.733C116.881 212.09 108.112 212.252 104.233 212.006V211.844L114.478 211.742C114.478 211.742 114.701 210.828 115.146 210.805Z" fill="black"/>
</g>
<path d="M104.121 211.839H104.251H104.632L106.024 211.872C107.207 211.872 108.836 211.895 110.641 211.872C112.445 211.849 114.074 211.779 115.257 211.719L116.649 211.64L117.025 211.612H117.16H117.025H116.645L115.253 211.663C114.074 211.705 112.441 211.761 110.641 211.788C108.84 211.816 107.207 211.826 106.024 211.826H104.121V211.839Z" fill="#263238"/>
<path d="M114.487 211.849C114.542 211.63 114.624 211.42 114.733 211.222C114.866 211.035 115.022 210.865 115.197 210.717C114.962 210.797 114.767 210.963 114.649 211.181C114.512 211.374 114.454 211.613 114.487 211.849Z" fill="#263238"/>
<path d="M112.195 210.818C112.195 210.818 112.32 210.707 112.432 210.54C112.543 210.373 112.608 210.229 112.585 210.215C112.561 210.201 112.459 210.326 112.353 210.493C112.246 210.66 112.172 210.804 112.195 210.818Z" fill="#263238"/>
<path d="M111.564 210.521C111.564 210.521 111.704 210.461 111.833 210.35C111.963 210.238 112.052 210.132 112.038 210.113C112.024 210.094 111.898 210.173 111.769 210.285C111.639 210.396 111.546 210.507 111.564 210.521Z" fill="#263238"/>
<path d="M111.156 209.853C111.285 209.896 111.423 209.911 111.559 209.895C111.694 209.909 111.83 209.893 111.958 209.848C111.828 209.807 111.691 209.793 111.555 209.807C111.42 209.796 111.284 209.812 111.156 209.853Z" fill="#263238"/>
<path d="M111.012 209.38C111.151 209.466 111.313 209.506 111.476 209.496C111.634 209.519 111.796 209.495 111.94 209.426C111.786 209.414 111.63 209.414 111.476 209.426C111.323 209.397 111.168 209.381 111.012 209.38Z" fill="#263238"/>
<path d="M112.442 210.192C112.606 210.218 112.774 210.218 112.938 210.192C113.115 210.169 113.289 210.129 113.458 210.071C113.563 210.044 113.665 210.004 113.759 209.951C113.788 209.936 113.812 209.915 113.832 209.891C113.852 209.866 113.867 209.837 113.875 209.807C113.884 209.772 113.881 209.736 113.867 209.703C113.852 209.67 113.828 209.643 113.797 209.626C113.608 209.539 113.396 209.518 113.194 209.566C112.992 209.614 112.812 209.728 112.683 209.89C112.61 209.982 112.558 210.088 112.53 210.201C112.53 210.28 112.53 210.326 112.53 210.326C112.574 210.182 112.647 210.048 112.743 209.932C112.855 209.806 112.999 209.715 113.161 209.668C113.354 209.602 113.564 209.612 113.75 209.695C113.829 209.746 113.801 209.835 113.718 209.881C113.629 209.929 113.536 209.968 113.439 209.997C113.274 210.055 113.105 210.1 112.933 210.132C112.632 210.192 112.442 210.192 112.442 210.192Z" fill="#263238"/>
<path d="M112.571 210.192C112.624 210.094 112.641 209.981 112.617 209.872C112.6 209.751 112.552 209.636 112.478 209.538C112.433 209.468 112.371 209.411 112.298 209.371C112.225 209.332 112.143 209.311 112.06 209.31C112.036 209.314 112.013 209.323 111.993 209.336C111.972 209.349 111.955 209.366 111.941 209.386C111.927 209.406 111.917 209.428 111.912 209.452C111.907 209.476 111.907 209.5 111.912 209.524C111.924 209.598 111.954 209.668 112 209.728C112.069 209.829 112.15 209.921 112.241 210.002C112.321 210.085 112.42 210.147 112.529 210.183C112.529 210.183 112.427 210.104 112.288 209.96C112.207 209.877 112.135 209.785 112.074 209.686C112.005 209.593 111.954 209.417 112.074 209.394C112.139 209.401 112.203 209.421 112.259 209.454C112.316 209.486 112.365 209.531 112.404 209.584C112.475 209.67 112.524 209.772 112.548 209.881C112.566 209.984 112.574 210.088 112.571 210.192Z" fill="#263238"/>
<path d="M104.233 209.88C104.233 209.88 104.455 209.857 104.803 209.88C105.252 209.925 105.682 210.085 106.052 210.344C106.406 210.597 106.683 210.944 106.85 211.347C106.975 211.653 106.989 211.857 107.007 211.857C107.018 211.81 107.018 211.761 107.007 211.713C106.991 211.582 106.962 211.453 106.919 211.328C106.763 210.903 106.481 210.536 106.112 210.275C105.731 210.002 105.281 209.841 104.813 209.811C104.672 209.797 104.531 209.797 104.39 209.811C104.284 209.857 104.233 209.871 104.233 209.88Z" fill="#263238"/>
<path d="M107.973 211.175C108.344 211.251 108.723 211.279 109.1 211.259C109.477 211.27 109.854 211.235 110.223 211.157C110.223 211.129 109.718 211.157 109.096 211.157C108.474 211.157 107.978 211.152 107.973 211.175Z" fill="#263238"/>
<path d="M106.465 211.203C106.465 211.203 106.507 211.301 106.562 211.407C106.618 211.514 106.646 211.607 106.674 211.607C106.701 211.607 106.711 211.491 106.646 211.37C106.581 211.25 106.483 211.185 106.465 211.203Z" fill="#263238"/>
<path d="M105.885 210.553C105.885 210.553 105.917 210.646 105.996 210.72C106.075 210.795 106.159 210.841 106.177 210.822C106.196 210.804 106.145 210.73 106.061 210.655C105.978 210.581 105.899 210.539 105.885 210.553Z" fill="#263238"/>
<path d="M105.063 210.271C105.063 210.294 105.17 210.294 105.286 210.327C105.402 210.359 105.481 210.415 105.499 210.401C105.518 210.387 105.453 210.285 105.314 210.243C105.175 210.201 105.054 210.248 105.063 210.271Z" fill="#263238"/>
<path d="M104.479 210.141C104.479 210.141 104.516 210.196 104.581 210.22C104.646 210.243 104.706 210.243 104.716 210.22C104.725 210.196 104.679 210.159 104.614 210.136C104.549 210.113 104.488 210.118 104.479 210.141Z" fill="#263238"/>
<path d="M81.0839 180.654C81.0468 181.485 78.0354 207.325 78.0354 207.325L85.13 208.898L91.677 182.57L81.0839 180.654Z" fill="#FFBE9D"/>
<path d="M85.4503 209.585L85.6127 208.842L78.068 207.158L77.5159 209.613L77.9799 209.743C80.0261 210.318 88.4292 212.526 89.9 212.448C91.5333 212.359 85.4503 209.585 85.4503 209.585Z" fill="#77A8A1"/>
<g opacity="0.3">
<path d="M80.2718 210.191C80.2863 209.565 80.0624 208.956 79.6454 208.489C79.2212 208.003 78.6396 207.683 78.0028 207.584L77.5667 209.537L80.2718 210.191Z" fill="black"/>
</g>
<g opacity="0.3">
<path d="M88.4013 211.046C88.4013 211.046 90.5032 212.15 90.1506 212.438C89.7979 212.726 81.2279 210.782 77.5159 209.622L77.5623 209.469L87.5383 211.789C87.5383 211.789 87.9605 210.963 88.4013 211.046Z" fill="black"/>
</g>
<path d="M77.4463 209.427L77.5716 209.468L77.9381 209.575L79.2884 209.937C80.4345 210.234 82.0167 210.628 83.7753 211.027C85.5338 211.426 87.1346 211.756 88.2946 211.979L89.6866 212.234L90.0625 212.294H90.197L90.0671 212.262L89.6959 212.183L88.3039 211.9C87.1439 211.658 85.5477 211.324 83.7892 210.925C82.0306 210.526 80.4484 210.141 79.2976 209.858L77.952 209.543L77.5808 209.454C77.5376 209.438 77.4923 209.429 77.4463 209.427Z" fill="#263238"/>
<path d="M87.51 211.904C87.617 211.705 87.7479 211.52 87.8998 211.352C88.0766 211.204 88.2696 211.076 88.4751 210.971C88.2304 210.999 88.0034 211.112 87.8348 211.292C87.6515 211.446 87.5351 211.666 87.51 211.904Z" fill="#263238"/>
<path d="M85.5287 210.359C85.5287 210.359 85.6818 210.28 85.8257 210.141C85.9695 210.002 86.0716 209.881 86.053 209.867C86.0345 209.853 85.9046 209.946 85.7607 210.081C85.6169 210.215 85.5102 210.341 85.5287 210.359Z" fill="#263238"/>
<path d="M84.9861 209.923C85.094 209.913 85.1977 209.876 85.2877 209.816C85.4409 209.737 85.5569 209.654 85.5429 209.635C85.529 209.616 85.3945 209.658 85.2413 209.737C85.0882 209.816 84.9769 209.9 84.9861 209.923Z" fill="#263238"/>
<path d="M84.7492 209.176C84.2636 209.167 83.7931 209.345 83.4345 209.672C83.0759 210 82.8565 210.452 82.8216 210.937C82.7866 211.421 82.9387 211.901 83.2465 212.276C83.5544 212.652 83.9945 212.895 84.4764 212.956C84.9582 213.017 85.4451 212.891 85.8367 212.604C86.2284 212.316 86.495 211.89 86.5817 211.412C86.6684 210.934 86.5686 210.441 86.3028 210.035C86.037 209.628 85.6255 209.339 85.1529 209.227C85.0233 209.182 84.8859 209.165 84.7492 209.176Z" fill="#263238"/>
<path d="M84.7219 208.68C84.8335 208.791 84.9756 208.867 85.1302 208.898C85.2776 208.956 85.4383 208.972 85.5942 208.944C85.4534 208.887 85.3073 208.843 85.1581 208.814C85.0161 208.759 84.8704 208.714 84.7219 208.68Z" fill="#263238"/>
<path d="M85.9192 209.807C86.0676 209.865 86.2242 209.899 86.3832 209.909C86.5622 209.926 86.7424 209.926 86.9214 209.909C87.0279 209.904 87.1336 209.888 87.2369 209.862C87.3002 209.846 87.3549 209.806 87.3901 209.751C87.4045 209.718 87.4091 209.682 87.4034 209.646C87.3976 209.611 87.3817 209.578 87.3576 209.551C87.1941 209.423 86.9924 209.353 86.7846 209.353C86.5768 209.353 86.375 209.423 86.2115 209.551C86.1168 209.621 86.0391 209.712 85.9841 209.816C85.947 209.885 85.9424 209.932 85.947 209.932C86.0256 209.804 86.128 209.692 86.2486 209.602C86.3853 209.507 86.5462 209.452 86.7126 209.445C86.9157 209.426 87.1181 209.486 87.2787 209.612C87.3437 209.681 87.2787 209.756 87.1998 209.783C87.1043 209.81 87.0064 209.827 86.9075 209.834C86.7329 209.846 86.5578 209.846 86.3832 209.834C86.1048 209.83 85.9238 209.793 85.9192 209.807Z" fill="#263238"/>
<path d="M86.0399 209.853C86.0399 209.853 86.142 209.765 86.1652 209.556C86.1749 209.434 86.1542 209.311 86.1049 209.199C86.0769 209.121 86.0301 209.051 85.9686 208.995C85.9071 208.939 85.8328 208.899 85.7522 208.879C85.7281 208.878 85.7039 208.881 85.6812 208.89C85.6585 208.898 85.6376 208.911 85.6199 208.927C85.6022 208.943 85.5879 208.963 85.578 208.985C85.568 209.007 85.5626 209.031 85.562 209.055C85.5566 209.13 85.5693 209.205 85.5991 209.273C85.6407 209.387 85.6968 209.494 85.7662 209.594C85.8251 209.693 85.9061 209.777 86.0028 209.839C86.0028 209.839 85.9239 209.737 85.8218 209.566C85.764 209.465 85.7158 209.36 85.678 209.25C85.6316 209.139 85.627 208.958 85.7522 208.967C85.8775 208.976 85.975 209.12 86.026 209.227C86.0746 209.328 86.0999 209.439 86.1002 209.552C86.0913 209.654 86.0711 209.755 86.0399 209.853Z" fill="#263238"/>
<path d="M78.0217 207.552C78.0217 207.552 78.2398 207.58 78.5739 207.696C78.9994 207.84 79.38 208.093 79.6782 208.429C79.9628 208.761 80.1492 209.166 80.2165 209.598C80.2355 209.774 80.2448 209.95 80.2443 210.127C80.2443 210.127 80.2675 210.076 80.2768 209.988C80.2914 209.855 80.2914 209.721 80.2768 209.589C80.2259 209.141 80.0416 208.719 79.7478 208.378C79.4371 208.028 79.0356 207.771 78.5878 207.635C78.4517 207.594 78.3118 207.566 78.1702 207.552C78.1211 207.543 78.0709 207.543 78.0217 207.552Z" fill="#263238"/>
<path d="M81.344 209.7C81.6848 209.861 82.0451 209.978 82.4158 210.048C82.7804 210.148 83.1559 210.204 83.5341 210.215C83.5341 210.191 83.0376 210.108 82.439 209.964C81.8405 209.82 81.3533 209.676 81.344 209.7Z" fill="#263238"/>
<path d="M79.8733 209.366C79.8733 209.366 79.8733 209.473 79.9197 209.589C79.9661 209.705 79.9522 209.803 79.98 209.807C80.0078 209.812 80.045 209.705 80.0125 209.575C79.98 209.445 79.8919 209.353 79.8733 209.366Z" fill="#263238"/>
<path d="M79.46 208.6C79.46 208.6 79.46 208.698 79.5342 208.786C79.6084 208.874 79.6641 208.939 79.6827 208.93C79.7012 208.921 79.6827 208.832 79.6131 208.744C79.5435 208.656 79.4832 208.586 79.46 208.6Z" fill="#263238"/>
<path d="M78.7317 208.128C78.7317 208.156 78.8338 208.174 78.9359 208.234C79.0379 208.295 79.1075 208.369 79.1307 208.36C79.1539 208.35 79.1307 208.234 78.9823 208.16C78.8338 208.086 78.7317 208.105 78.7317 208.128Z" fill="#263238"/>
<path d="M78.1975 207.872C78.1975 207.872 78.2207 207.937 78.2764 207.974C78.3321 208.011 78.3924 208.025 78.4063 208.002C78.4202 207.978 78.4063 207.937 78.3274 207.899C78.2485 207.862 78.2114 207.844 78.1975 207.872Z" fill="#263238"/>
<path d="M107.718 65.5729C107.528 65.0207 107.059 64.6078 106.832 64.0695C106.493 63.2622 106.743 62.3481 106.832 61.4804C106.92 60.6127 106.739 59.5548 105.945 59.1975C105.598 59.107 105.257 58.9939 104.925 58.8588C104.303 58.469 104.335 57.5874 104.28 56.859C104.242 56.3772 104.12 55.906 103.918 55.467L104.048 55.4252C104.518 55.3114 105.013 55.3666 105.446 55.5812C105.88 55.7959 106.224 56.1562 106.419 56.5991C106.504 56.7844 106.542 56.9885 106.527 57.1922C106.513 57.3959 106.446 57.5926 106.335 57.7638C106.24 57.9063 106.099 58.0127 105.936 58.0657C105.772 58.1187 105.596 58.1153 105.435 58.0561C105.31 57.991 105.21 57.8867 105.151 57.7592C105.091 57.6318 105.075 57.4882 105.105 57.3508C105.144 57.2515 105.217 57.1686 105.31 57.1162C105.402 57.0638 105.511 57.0451 105.616 57.0631C105.686 57.0691 105.754 57.09 105.816 57.1244C105.878 57.1588 105.931 57.2059 105.973 57.2626C106.029 57.3462 106.033 57.4065 106.043 57.4018C106.052 57.3972 106.043 57.3415 106.043 57.2394C106.003 57.1649 105.947 57.1005 105.879 57.0514C105.81 57.0023 105.732 56.9697 105.648 56.9564C105.529 56.9341 105.406 56.9437 105.291 56.9842C105.219 57.011 105.154 57.0531 105.101 57.1076C105.047 57.1621 105.006 57.2277 104.98 57.2998C104.927 57.4751 104.936 57.6636 105.006 57.833C105.076 58.0024 105.203 58.142 105.365 58.2278C105.568 58.3165 105.795 58.3326 106.008 58.2734C106.221 58.2142 106.407 58.0834 106.535 57.903C106.676 57.7025 106.762 57.4691 106.787 57.2252C106.811 56.9814 106.772 56.7354 106.674 56.511C106.479 56.041 106.134 55.6492 105.692 55.3972C105.25 55.1451 104.737 55.0473 104.233 55.119C104.342 54.9348 104.412 54.7298 104.436 54.5171C104.461 54.3045 104.441 54.089 104.377 53.8847C104.292 53.6358 104.151 53.4095 103.965 53.223C103.779 53.0365 103.554 52.8946 103.305 52.8082C102.87 52.6481 102.396 52.6222 101.946 52.734C101.565 52.8266 101.202 52.9835 100.874 53.198C100.572 53.3929 100.34 53.6063 100.117 53.7502C99.933 53.8833 99.7172 53.9664 99.4911 53.9914C99.2966 54.0094 99.1011 53.969 98.9296 53.8754C98.9296 53.8754 99.0735 54.0982 99.4957 54.0982C99.7449 54.0913 99.9873 54.0158 100.196 53.8801C100.442 53.7409 100.688 53.5321 100.976 53.3604C101.298 53.1371 101.668 52.9911 102.056 52.934C102.443 52.8769 102.839 52.91 103.212 53.031C103.427 53.1048 103.623 53.2268 103.784 53.3876C103.945 53.5484 104.067 53.7438 104.14 53.959C104.209 54.1746 104.216 54.4054 104.159 54.6246C104.102 54.8437 103.985 55.0425 103.82 55.1978C103.585 54.7704 103.239 54.4145 102.818 54.1678C101.89 53.6434 100.498 53.8986 100.034 54.8545L92.4197 52.2375C91.9423 51.8363 91.3716 51.5617 90.7601 51.4393C90.1487 51.3168 89.5162 51.3504 88.9211 51.5369L88.7634 51.509C88.3237 51.4678 87.8808 51.5413 87.4781 51.7225C86.9727 52.006 86.5318 52.3915 86.1835 52.8546C85.9748 53.0949 85.7289 53.3001 85.4551 53.4625C85.4067 53.4838 85.3571 53.5024 85.3066 53.5182C84.9693 53.5562 84.6296 53.5687 84.2904 53.5553C83.6501 53.4068 82.9866 53.0402 82.1978 52.9614C81.7568 52.9017 81.3083 52.9333 80.88 53.0542C80.4251 53.1882 80.0168 53.447 79.7015 53.8012C79.3699 54.1725 79.1881 54.6537 79.1911 55.1514C79.1971 55.5086 79.2534 55.8632 79.3581 56.2047C79.187 56.6641 79.1112 57.1535 79.1354 57.6431C79.1679 58.2881 79.3535 58.9655 79.3627 59.5966C79.1763 59.7422 78.9636 59.8509 78.7363 59.9167C78.3373 60.042 77.9058 60.1023 77.4975 60.2601C77.1152 60.4158 76.7707 60.6517 76.4874 60.9518C76.204 61.252 75.9883 61.6095 75.8549 62.0001C75.7273 62.3122 75.6791 62.651 75.7148 62.9863C75.7504 63.3216 75.8687 63.6428 76.0591 63.921C75.9616 64.3445 75.9594 64.7843 76.0524 65.2088C76.1455 65.6333 76.3316 66.0318 76.5973 66.3756C77.0197 66.7769 77.4179 67.203 77.7898 67.6516C78.2909 68.4265 78.2167 69.4241 78.3466 70.3382C78.4765 71.2523 79.0008 72.2916 79.9242 72.3519C80.6666 72.3983 81.3162 71.7766 82.0771 71.8369C83.1165 71.9204 83.5434 73.1686 84.1466 74.0223C84.5361 74.5588 85.0621 74.9811 85.67 75.2455C86.2778 75.5098 86.9454 75.6066 87.6034 75.5257C88.5314 75.4004 89.4872 74.8993 90.4106 75.1313C91.5752 75.4283 92.2666 76.7924 93.4683 76.9641C94.3499 77.0894 95.1712 76.5001 95.8301 75.8969C96.489 75.2937 97.1525 74.5977 98.0341 74.4399C99.092 74.2497 100.113 74.9039 101.18 75.0339C101.873 75.1168 102.575 74.9944 103.198 74.6817C103.822 74.369 104.34 73.88 104.688 73.2753C105.273 72.2127 105.268 70.9089 105.82 69.8278C106.242 69.1391 106.707 68.4774 107.212 67.8465C107.648 67.1922 107.987 66.3524 107.718 65.5729ZM77.1866 62.1486C77.1009 62.1303 77.0124 62.1303 76.9267 62.1486C76.9267 62.1486 77.0056 62.1486 77.1355 62.1996L76.9917 62.3063C76.5573 62.6682 76.2433 63.1537 76.0915 63.6983C75.9765 63.4516 75.9131 63.1841 75.9051 62.912C75.8972 62.6399 75.9448 62.3691 76.0451 62.1161C76.1726 61.7603 76.3742 61.4357 76.6366 61.1638C76.899 60.8918 77.2161 60.6787 77.5671 60.5385C77.9383 60.3993 78.3605 60.339 78.792 60.209C78.9789 60.1564 79.1571 60.0767 79.321 59.9724C79.3013 60.2251 79.2268 60.4705 79.1029 60.6916C78.7039 61.383 77.8594 61.6753 77.1866 62.1486ZM82.3834 53.611C81.7666 53.7275 81.1858 53.9872 80.6877 54.3692C80.1897 54.7512 79.7883 55.2448 79.5159 55.8103C79.4686 55.6017 79.4437 55.3886 79.4416 55.1746C79.4395 54.7411 79.5963 54.3218 79.8824 53.9961C80.1692 53.694 80.5252 53.4664 80.9198 53.3329C81.3144 53.1995 81.7355 53.1644 82.1467 53.2305C82.5742 53.2866 82.9932 53.3941 83.3949 53.5506C83.0567 53.5451 82.7185 53.5653 82.3834 53.611ZM86.2021 53.2908C86.1093 53.3326 86.0119 53.3604 85.9191 53.3929C86.0544 53.27 86.1829 53.1399 86.3042 53.0031C86.6327 52.5535 87.0456 52.1721 87.5199 51.8802C87.8701 51.7083 88.2574 51.6254 88.6474 51.639C88.4461 51.7126 88.2532 51.8074 88.072 51.922C87.4224 52.3396 86.9074 52.966 86.2021 53.2908Z" fill="#263238"/>
<path d="M102.706 69.2289C103.068 66.946 102.957 63.1969 102.762 60.1298C102.721 59.4762 102.548 58.8375 102.254 58.2524C101.96 57.6672 101.55 57.1477 101.05 56.725C100.55 56.3023 99.9692 55.9853 99.3432 55.7929C98.7171 55.6006 98.0586 55.537 97.4073 55.6058L89.4311 56.4503C89.0288 56.4922 88.657 56.6839 88.3897 56.9874C88.1223 57.2909 87.9789 57.6839 87.9881 58.0882L88.8094 77.683H86.9534V81.2326C86.9534 83.1818 87.7277 85.0513 89.1061 86.4296C90.4844 87.808 92.3539 88.5823 94.3031 88.5823C96.2524 88.5823 98.1218 87.808 99.5002 86.4296C100.879 85.0513 101.653 83.1818 101.653 81.2326V78.1609C101.653 78.1609 99.7412 77.5345 98.5812 77.5994H98.2982C98.2982 75.8038 98.4466 74.3978 98.4466 74.3978C98.4466 74.3978 101.978 73.8271 102.706 69.2289Z" fill="#FFBE9D"/>
<path d="M101.569 63.1044C101.57 63.2579 101.51 63.4056 101.404 63.5163C101.297 63.6271 101.152 63.6923 100.999 63.6983C100.923 63.7046 100.848 63.6957 100.776 63.672C100.704 63.6484 100.638 63.6105 100.581 63.5607C100.525 63.5109 100.478 63.4502 100.446 63.3821C100.413 63.3141 100.394 63.2401 100.391 63.1647C100.391 63.0111 100.45 62.8634 100.557 62.7527C100.663 62.642 100.808 62.5768 100.962 62.5708C101.037 62.5651 101.112 62.5745 101.184 62.5983C101.255 62.6222 101.321 62.6601 101.378 62.7098C101.434 62.7595 101.48 62.82 101.513 62.8878C101.546 62.9555 101.565 63.0291 101.569 63.1044Z" fill="#263238"/>
<path d="M101.95 62.0835C101.876 62.1578 101.43 61.8283 100.795 61.8283C100.159 61.8283 99.6951 62.1485 99.6255 62.0696C99.5559 61.9907 99.6672 61.8979 99.8714 61.7494C100.145 61.5624 100.468 61.4622 100.799 61.4618C101.132 61.4594 101.458 61.5634 101.727 61.7587C101.918 61.9072 101.987 62.0464 101.95 62.0835Z" fill="#263238"/>
<path d="M95.3656 63.1044C95.367 63.2575 95.3086 63.4052 95.203 63.516C95.0973 63.6269 94.9526 63.6923 94.7996 63.6983C94.7243 63.7046 94.6486 63.6957 94.5769 63.672C94.5051 63.6484 94.4389 63.6105 94.3822 63.5607C94.3254 63.5109 94.2793 63.4502 94.2466 63.3821C94.2139 63.3141 94.1952 63.2401 94.1917 63.1647C94.1892 63.0112 94.2472 62.8629 94.3531 62.7517C94.459 62.6406 94.6044 62.5756 94.7578 62.5708C94.8329 62.5651 94.9084 62.5745 94.9799 62.5983C95.0513 62.6222 95.1173 62.6601 95.1739 62.7098C95.2305 62.7595 95.2766 62.82 95.3095 62.8878C95.3425 62.9555 95.3615 63.0291 95.3656 63.1044Z" fill="#263238"/>
<path d="M95.7138 62.1991C95.6396 62.278 95.1941 61.9486 94.5584 61.9486C93.9228 61.9486 93.4588 62.2687 93.3892 62.1898C93.3196 62.111 93.4309 62.0182 93.6351 61.8697C93.9064 61.6785 94.2312 61.5779 94.5631 61.582C94.8965 61.5773 95.2223 61.6816 95.4911 61.879C95.6813 62.0274 95.7509 62.1759 95.7138 62.1991Z" fill="#263238"/>
<path d="M98.0152 66.9039C98.3495 66.7994 98.6955 66.7371 99.0453 66.7183C99.2077 66.7183 99.3608 66.6719 99.3886 66.5606C99.3986 66.3988 99.3615 66.2377 99.2819 66.0966C99.1288 65.7068 98.971 65.2938 98.8179 64.8623C98.1544 63.1084 97.6718 61.6654 97.7461 61.6375C98.2704 62.6454 98.7157 63.6926 99.0777 64.7695C99.2355 65.2057 99.3886 65.614 99.5417 66.013C99.6442 66.2083 99.6738 66.4336 99.6253 66.6487C99.6011 66.7058 99.5643 66.7568 99.5177 66.7978C99.4711 66.8387 99.4159 66.8687 99.3561 66.8854C99.267 66.9099 99.1749 66.9223 99.0824 66.9225C98.7273 66.962 98.3687 66.9557 98.0152 66.9039Z" fill="#263238"/>
<path d="M98.4564 74.4117C96.2914 74.4448 94.1598 73.8761 92.2991 72.7691C92.2991 72.7691 93.7932 75.9289 98.3914 75.4974L98.4564 74.4117Z" fill="#EB996E"/>
<path d="M97.7461 68.4358C97.6253 68.2835 97.4679 68.1645 97.2885 68.0898C97.1091 68.0151 96.9137 67.9873 96.7206 68.0089C96.5807 68.0221 96.4448 68.0634 96.3213 68.1304C96.1977 68.1974 96.0889 68.2886 96.0014 68.3986C95.9161 68.5041 95.8654 68.6334 95.8562 68.7687C95.8471 68.9041 95.88 69.039 95.9504 69.155C96.0533 69.267 96.1868 69.3465 96.3344 69.3836C96.482 69.4207 96.6372 69.4138 96.7809 69.3638C97.0789 69.2627 97.3546 69.1051 97.5929 68.8998C97.6646 68.8482 97.726 68.7837 97.7739 68.7095C97.7978 68.6747 97.8107 68.6334 97.8107 68.5912C97.8107 68.5489 97.7978 68.5077 97.7739 68.4729" fill="#EB996E"/>
<path d="M96.1502 67.3446C96.2522 67.3446 96.2522 68.0267 96.8415 68.5139C97.4308 69.0011 98.1639 68.9269 98.1686 69.0243C98.1732 69.1218 98.0062 69.1589 97.7046 69.1682C97.3019 69.1733 96.9105 69.0351 96.6002 68.7784C96.299 68.5355 96.1057 68.1838 96.062 67.7994C96.0481 67.5117 96.1038 67.34 96.1502 67.3446Z" fill="#263238"/>
<path d="M95.9968 61.0899C95.9365 61.2616 95.3008 61.1781 94.5584 61.2709C93.816 61.3637 93.2128 61.5632 93.1153 61.4054C93.0689 61.3358 93.1757 61.1734 93.417 61.0064C93.7383 60.7958 94.1063 60.6668 94.4888 60.6305C94.8696 60.5848 95.2559 60.6293 95.6163 60.7605C95.8901 60.8718 96.0478 61.0064 95.9968 61.0899Z" fill="#263238"/>
<path d="M101.719 60.7836C101.607 60.9274 101.166 60.7836 100.642 60.7836C100.118 60.7836 99.6724 60.881 99.5703 60.7279C99.5239 60.6537 99.5703 60.5098 99.7884 60.3753C100.048 60.2093 100.353 60.1268 100.661 60.1386C100.97 60.1434 101.27 60.2439 101.519 60.4263C101.705 60.5655 101.765 60.714 101.719 60.7836Z" fill="#263238"/>
<path d="M104.474 56.028C104.158 54.803 103.23 53.6709 101.987 53.4389C101.175 53.2904 100.344 53.527 99.5231 53.476C98.841 53.4342 98.5951 52.8914 97.9501 52.6779C96.8736 52.3253 96.0477 51.1282 93.7231 51.3787C93.1013 51.4483 92.3032 52.1675 91.7325 52.9842C90.8416 52.5991 89.6677 53.012 89.0274 53.295C87.6957 53.875 86.8651 55.3738 86.6007 56.8957C86.3362 58.4176 86.5543 59.9813 86.7677 61.5125C86.8651 62.2085 86.9626 62.9045 87.0647 63.6098C87.1025 64.0741 87.2268 64.5274 87.4312 64.9461L86.3733 74.7829C86.9028 74.9522 87.4614 75.0119 88.0147 74.9583C88.5681 74.9047 89.1048 74.7388 89.592 74.4709C90.0791 74.203 90.5066 73.8387 90.8483 73.4001C91.19 72.9615 91.4388 72.4579 91.5794 71.92C91.9877 69.9851 90.9112 68.0178 91.0829 66.0458C91.185 64.8718 91.8485 63.7814 91.8439 62.6029C91.8363 62.2154 91.7801 61.8304 91.6768 61.4568C93.5328 59.9395 94.0247 58.7192 93.9458 57.2808C94.5186 57.6813 95.196 57.9055 95.8946 57.9258C96.8783 57.9258 97.9037 57.5546 98.8224 57.9258C99.4548 58.2493 100.013 58.7013 100.46 59.2528C100.966 59.7539 101.62 60.2133 102.316 60.1158C102.649 60.0371 102.973 59.9236 103.281 59.7771C103.437 59.7036 103.606 59.6655 103.778 59.6655C103.95 59.6655 104.119 59.7036 104.274 59.7771C104.65 58.5632 104.719 57.275 104.474 56.028Z" fill="#263238"/>
<path d="M76.9866 66.1018C77.4624 66.4469 77.9743 66.7394 78.5131 66.9741C79.1453 67.2404 79.8225 67.3837 80.5083 67.3964C81.4175 67.4206 82.3105 67.1522 83.0557 66.6308C83.5026 66.3222 83.8798 65.9232 84.1627 65.4596C84.4457 64.996 84.6281 64.4781 84.6983 63.9396C84.7704 63.3418 84.6484 62.7366 84.3503 62.2135C84.1961 61.9454 83.9774 61.7201 83.7141 61.5581C83.4507 61.396 83.151 61.3023 82.8423 61.2855C82.5269 61.2773 82.2185 61.379 81.9699 61.5732C81.7177 61.784 81.531 62.0625 81.4317 62.3759C81.3222 62.6989 81.2971 63.0445 81.3588 63.3799C81.4206 63.7153 81.567 64.0294 81.7843 64.2922C82.257 64.8416 82.8953 65.2226 83.6032 65.378C84.3343 65.5504 85.094 65.5631 85.8304 65.4151C86.5694 65.268 87.2638 64.9502 87.8581 64.4871C88.4334 64.0416 88.8696 63.4412 89.1155 62.7564C89.357 62.0975 89.4147 61.3854 89.2826 60.6962C89.2195 60.3702 89.1035 60.0567 88.9392 59.7682C88.7891 59.4792 88.5748 59.2285 88.3128 59.0351C88.07 58.8426 87.7732 58.7307 87.4637 58.7149C87.3202 58.7101 87.1781 58.7447 87.0529 58.8151C86.9277 58.8854 86.8242 58.9888 86.7538 59.114C86.6187 59.3692 86.5871 59.6666 86.6656 59.9445C86.755 60.2206 86.915 60.4685 87.1296 60.6637C87.8933 61.3098 88.8711 61.6467 89.8706 61.608C90.8702 61.5694 91.8191 61.158 92.5306 60.4549C93.0082 59.9626 93.3572 59.3602 93.5467 58.701C93.7031 58.1367 93.7519 57.548 93.6906 56.9656C93.7334 57.1169 93.7584 57.2726 93.7648 57.4296C93.7978 57.871 93.757 58.3148 93.6442 58.7428C93.4603 59.4238 93.1131 60.0497 92.6327 60.5663C91.9788 61.249 91.1043 61.678 90.1642 61.7773C89.5973 61.8506 89.0214 61.8038 88.4738 61.6399C87.9262 61.476 87.4192 61.1988 86.9858 60.8261C86.7454 60.6066 86.569 60.326 86.4754 60.0141C86.381 59.6803 86.4193 59.3229 86.5821 59.0165C86.6717 58.8574 86.8027 58.7255 86.9611 58.6349C87.1196 58.5442 87.2997 58.4981 87.4823 58.5015C87.8413 58.5163 88.1868 58.6428 88.4706 58.8634C88.7591 59.0749 88.9955 59.3495 89.1619 59.6661C89.3409 59.9825 89.4678 60.3256 89.5378 60.6823C89.6822 61.4143 89.6228 62.1718 89.3661 62.8724C89.1062 63.6043 88.6445 64.2477 88.0344 64.7284C87.4074 65.2112 86.6767 65.5416 85.9 65.6935C85.1327 65.8465 84.3414 65.8322 83.58 65.6517C82.8199 65.4826 82.1348 65.0724 81.6266 64.4824C81.3868 64.1824 81.2272 63.8263 81.1626 63.4477C81.1053 63.0747 81.1355 62.6935 81.2507 62.3341C81.3629 61.9719 81.5772 61.6497 81.8679 61.4061C82.1625 61.1795 82.5264 61.0615 82.8979 61.072C83.2461 61.0907 83.5837 61.1976 83.8792 61.3826C84.1747 61.5677 84.4182 61.8249 84.5869 62.13C84.9025 62.6942 85.0309 63.3441 84.9535 63.986C84.8761 64.5513 84.6803 65.094 84.3789 65.5786C84.0775 66.0631 83.6772 66.4786 83.2042 66.7978C82.4291 67.333 81.5004 67.6002 80.5594 67.5588C79.8581 67.5389 79.1675 67.3812 78.5271 67.0948C78.1211 66.9207 77.7378 66.6978 77.3856 66.4312C77.265 66.3431 77.1815 66.2642 77.1211 66.2178L76.9866 66.1018Z" fill="#455A64"/>
<path d="M104.744 58.107C104.678 58.1693 104.603 58.2209 104.521 58.2601C104.293 58.387 104.048 58.4778 103.792 58.5292C103.385 58.612 102.965 58.612 102.558 58.5292C102.02 58.4019 101.521 58.1437 101.106 57.7775C100.606 57.3327 100.215 56.7785 99.9644 56.1582C99.881 55.9796 99.8347 55.7859 99.8283 55.5889C99.8219 55.3919 99.8556 55.1957 99.9272 55.0121C100.016 54.8141 100.168 54.6509 100.359 54.5481C100.462 54.4944 100.577 54.4664 100.693 54.4664C100.809 54.4664 100.924 54.4944 101.027 54.5481C101.226 54.6636 101.38 54.8428 101.464 55.0567C101.548 55.2706 101.558 55.5067 101.491 55.7266C101.41 55.9423 101.286 56.1391 101.127 56.3051C100.967 56.4711 100.775 56.6027 100.563 56.6918C99.7082 57.0607 98.7421 57.0757 97.8764 56.7335C97.4438 56.5774 97.0286 56.3768 96.6375 56.135C96.2467 55.9087 95.8918 55.6257 95.5842 55.2951C95.4194 55.1203 95.319 54.8945 95.2996 54.655C95.2802 54.4155 95.343 54.1765 95.4775 53.9774C95.5568 53.8809 95.6609 53.8079 95.7787 53.7662C95.8964 53.7245 96.0233 53.7157 96.1456 53.7407C96.3701 53.7903 96.5703 53.9167 96.7117 54.098C96.8528 54.2763 96.9178 54.5031 96.8927 54.729C96.8636 54.9405 96.7732 55.1389 96.6328 55.2998C96.3749 55.5976 96.0096 55.7811 95.6167 55.8102C95.2632 55.8355 94.9082 55.7897 94.5727 55.6756C94.2704 55.5796 93.9744 55.465 93.6864 55.3322C93.1761 55.1192 92.7299 54.777 92.3919 54.3393C92.1451 53.9945 92.0269 53.5743 92.0578 53.1514C92.074 52.8874 92.1676 52.6341 92.3269 52.423C92.3824 52.3499 92.4518 52.2884 92.5311 52.242C92.2973 52.4954 92.1637 52.8253 92.1552 53.17C92.1431 53.564 92.2659 53.9503 92.5032 54.265C92.8345 54.6785 93.2679 54.9984 93.7607 55.193C94.336 55.4837 94.9722 55.6332 95.6167 55.6292C95.7855 55.6132 95.9495 55.564 96.0992 55.4844C96.2489 55.4047 96.3814 55.2963 96.489 55.1652C96.6088 55.0438 96.6813 54.8834 96.6932 54.7132C96.7051 54.543 96.6557 54.3742 96.554 54.2372C96.3452 53.9634 95.8997 53.8428 95.6909 54.1258C95.6376 54.1968 95.599 54.2776 95.5775 54.3637C95.556 54.4498 95.552 54.5393 95.5656 54.627C95.5928 54.8157 95.6733 54.9928 95.7976 55.1374C96.0896 55.4434 96.424 55.7059 96.7906 55.9169C97.1663 56.1496 97.5662 56.341 97.9831 56.4876C98.3786 56.6522 98.8028 56.737 99.2312 56.737C99.6597 56.737 100.084 56.6522 100.479 56.4876C100.658 56.4126 100.82 56.3019 100.955 56.1623C101.09 56.0227 101.195 55.8571 101.264 55.6756C101.32 55.5035 101.316 55.3169 101.251 55.1477C101.186 54.9785 101.064 54.8371 100.906 54.7476C100.832 54.7142 100.752 54.6966 100.671 54.696C100.59 54.6955 100.51 54.7119 100.436 54.7442C100.361 54.7766 100.295 54.8242 100.24 54.8839C100.185 54.9436 100.143 55.0141 100.117 55.091C100.059 55.2475 100.031 55.4142 100.037 55.5814C100.042 55.7486 100.081 55.9131 100.15 56.0654C100.383 56.6591 100.748 57.1922 101.217 57.6244C101.604 57.9819 102.072 58.2399 102.581 58.3761C102.968 58.4743 103.37 58.4949 103.765 58.4364C104.104 58.3706 104.433 58.2598 104.744 58.107Z" fill="#455A64"/>
<path d="M91.3427 68.8991C91.2875 68.9627 91.2216 69.016 91.1479 69.0568C90.9421 69.1904 90.7118 69.2819 90.4704 69.3259C90.0887 69.4047 89.6927 69.3791 89.3243 69.2517C89.0703 69.178 88.835 69.0509 88.6342 68.8788C88.4333 68.7068 88.2715 68.4938 88.1597 68.2541C88.0842 68.1013 88.0606 67.928 88.0925 67.7606C88.1243 67.5931 88.2098 67.4406 88.336 67.3261C88.4789 67.2159 88.6543 67.1561 88.8348 67.1561C89.0153 67.1561 89.1907 67.2159 89.3336 67.3261C89.6212 67.5605 89.8395 67.8688 89.9654 68.2177C90.0913 68.5667 90.1199 68.9434 90.0482 69.3074C90.0008 69.7105 89.8533 70.0953 89.6191 70.4268C89.3849 70.7583 89.0714 71.0259 88.7072 71.2051C88.3063 71.3745 87.8707 71.4461 87.4367 71.4138C87.0026 71.3815 86.5824 71.2464 86.2109 71.0195C85.8266 70.8039 85.4991 70.5002 85.2551 70.1333C85.1311 69.9496 85.0468 69.7421 85.0076 69.5239C84.9685 69.3058 84.9753 69.0819 85.0277 68.8666C85.0834 68.6512 85.1974 68.4553 85.3571 68.3005C85.4385 68.2211 85.5352 68.1592 85.6413 68.1185C85.7474 68.0778 85.8607 68.0592 85.9743 68.0639C86.1829 68.0797 86.3839 68.149 86.5578 68.2653C86.7318 68.3815 86.8728 68.5407 86.9672 68.7274C87.1392 69.064 87.2328 69.4352 87.241 69.8131C87.2546 70.1611 87.2203 70.5093 87.1389 70.8479C86.993 71.4635 86.6705 72.0231 86.2109 72.4579C85.8821 72.776 85.4666 72.9897 85.0167 73.0723C84.5667 73.1548 84.1024 73.1025 83.6821 72.9219C83.4576 72.8241 83.2531 72.6857 83.0789 72.5136C83.016 72.4578 82.9627 72.3919 82.9211 72.3187C83.1591 72.5292 83.4283 72.7014 83.7192 72.8291C84.0646 72.9626 84.4375 73.0088 84.805 72.9637C85.2883 72.9051 85.7386 72.6881 86.0856 72.3466C86.5049 71.9285 86.7949 71.3986 86.9208 70.82C86.9958 70.4994 87.0239 70.1696 87.0043 69.841C86.9944 69.4995 86.9071 69.1648 86.7491 68.8619C86.6744 68.7102 86.5615 68.5805 86.4217 68.4853C86.2818 68.3902 86.1197 68.3329 85.9511 68.3191C85.7806 68.3295 85.6188 68.3978 85.4923 68.5125C85.3658 68.6272 85.2821 68.7815 85.2551 68.9501C85.2112 69.132 85.2063 69.3211 85.2407 69.505C85.2751 69.689 85.348 69.8635 85.4546 70.0173C85.6775 70.3499 85.9745 70.6262 86.3223 70.8247C86.6651 71.0331 87.0526 71.1569 87.4528 71.186C87.853 71.215 88.2544 71.1484 88.6237 70.9917C88.952 70.8289 89.2349 70.5874 89.447 70.2886C89.6591 69.9898 89.794 69.6431 89.8394 69.2795C89.905 68.9571 89.8837 68.6231 89.7777 68.3117C89.6717 68.0002 89.4848 67.7225 89.2362 67.5071C89.1283 67.4224 88.9952 67.3764 88.858 67.3764C88.7209 67.3764 88.5877 67.4224 88.4799 67.5071C88.3862 67.5936 88.3227 67.7078 88.2985 67.833C88.2743 67.9582 88.2907 68.0878 88.3453 68.2031C88.4428 68.421 88.5848 68.6162 88.7622 68.776C88.9396 68.9358 89.1485 69.0568 89.3754 69.1311C89.7221 69.2594 90.0956 69.2977 90.4612 69.2424C90.7725 69.1791 91.0706 69.063 91.3427 68.8991Z" fill="#455A64"/>
<path d="M72.175 181.694C72.175 181.694 75.2792 187.726 83.3714 184.793C83.3714 184.793 91.2965 189.099 98.8782 184.278C98.8782 184.278 108.692 185.591 114.032 183.007L107.184 123.782L106.312 114.687H84.6381C84.6381 114.687 78.207 117.615 77.1723 131.911C76.1376 146.207 73.9243 165.843 73.9243 165.843L72.175 181.694Z" fill="#263238"/>
<path d="M98.4148 184.458C98.4148 184.458 98.4148 184.398 98.4148 184.277C98.4148 184.157 98.387 183.976 98.3684 183.753C98.3313 183.289 98.2803 182.598 98.2107 181.73C98.0807 179.976 97.9091 177.433 97.7235 174.306C97.3476 168.023 96.9486 159.328 96.7398 149.714C96.531 140.1 96.5542 131.4 96.6563 125.122C96.7073 121.971 96.763 119.424 96.8233 117.665C96.8511 116.793 96.8743 116.116 96.8929 115.638C96.8929 115.415 96.8929 115.239 96.8929 115.109C96.8869 115.05 96.8869 114.991 96.8929 114.932C96.8999 114.991 96.8999 115.05 96.8929 115.109V115.638C96.8929 116.102 96.8929 116.798 96.8697 117.665C96.8697 119.438 96.8187 121.985 96.7815 125.122C96.7259 131.418 96.7259 140.118 96.9347 149.714C97.1435 159.309 97.5193 168.009 97.8627 174.306C98.0343 177.442 98.1735 179.981 98.2756 181.73C98.322 182.598 98.3591 183.28 98.387 183.753C98.387 183.976 98.387 184.152 98.4102 184.282C98.4166 184.34 98.4182 184.399 98.4148 184.458Z" fill="#455A64"/>
<path d="M100.316 167.503C100.316 167.503 100.363 167.438 100.483 167.406C100.662 167.367 100.849 167.39 101.012 167.471C101.137 167.532 101.246 167.62 101.332 167.728C101.417 167.836 101.478 167.963 101.509 168.097C101.527 168.271 101.494 168.446 101.414 168.601C101.334 168.756 101.211 168.884 101.06 168.971C100.909 169.057 100.736 169.098 100.562 169.088C100.388 169.078 100.22 169.017 100.08 168.914C99.9793 168.818 99.9017 168.7 99.8527 168.57C99.8037 168.44 99.7846 168.301 99.7968 168.162C99.8101 167.98 99.8854 167.808 100.01 167.675C100.098 167.587 100.173 167.568 100.177 167.578C100.053 167.752 99.981 167.958 99.9684 168.172C99.9687 168.279 99.9916 168.386 100.036 168.484C100.079 168.582 100.144 168.67 100.224 168.742C100.33 168.81 100.453 168.847 100.579 168.85C100.705 168.852 100.83 168.821 100.94 168.758C101.049 168.696 101.14 168.605 101.202 168.495C101.263 168.385 101.294 168.261 101.291 168.134C101.271 168.028 101.229 167.927 101.166 167.839C101.104 167.751 101.023 167.678 100.929 167.624C100.742 167.522 100.528 167.48 100.316 167.503Z" fill="#455A64"/>
<path d="M99.8347 149.918C99.8347 149.918 99.8811 149.858 100.002 149.826C100.18 149.784 100.368 149.807 100.531 149.891C100.657 149.949 100.768 150.035 100.854 150.144C100.94 150.253 101 150.381 101.027 150.517C101.043 150.689 101.009 150.862 100.929 151.016C100.849 151.169 100.727 151.296 100.577 151.382C100.426 151.468 100.255 151.508 100.082 151.499C99.9091 151.49 99.7427 151.431 99.6027 151.329C99.5003 151.235 99.4213 151.119 99.3722 150.989C99.323 150.859 99.305 150.72 99.3196 150.582C99.3346 150.408 99.4083 150.245 99.5284 150.118C99.6212 150.025 99.6908 150.011 99.6955 150.021C99.5721 150.194 99.4998 150.398 99.4867 150.61C99.4866 150.718 99.5094 150.824 99.5533 150.922C99.5973 151.021 99.6616 151.109 99.7419 151.181C99.8479 151.249 99.9707 151.288 100.097 151.292C100.223 151.295 100.348 151.265 100.458 151.202C100.568 151.14 100.659 151.049 100.721 150.939C100.783 150.829 100.813 150.704 100.809 150.577C100.789 150.471 100.747 150.371 100.685 150.282C100.624 150.193 100.544 150.118 100.452 150.062C100.263 149.958 100.05 149.908 99.8347 149.918Z" fill="#455A64"/>
<path d="M99.5508 134.366C99.5508 134.366 99.5972 134.305 99.7225 134.273C99.8994 134.231 100.085 134.255 100.247 134.338C100.373 134.396 100.484 134.483 100.571 134.592C100.658 134.7 100.719 134.828 100.748 134.964C100.765 135.137 100.731 135.311 100.651 135.466C100.571 135.62 100.448 135.748 100.297 135.833C100.146 135.919 99.9728 135.96 99.7993 135.949C99.6257 135.939 99.4589 135.879 99.3188 135.776C99.2173 135.682 99.139 135.565 99.0899 135.436C99.0408 135.306 99.0223 135.167 99.0358 135.029C99.0486 134.848 99.1221 134.676 99.2446 134.542C99.3374 134.454 99.407 134.435 99.4163 134.444C99.2902 134.616 99.2161 134.821 99.2028 135.034C99.2022 135.142 99.2251 135.249 99.27 135.348C99.3148 135.446 99.3806 135.534 99.4627 135.604C99.5686 135.672 99.691 135.709 99.8165 135.712C99.9421 135.716 100.066 135.685 100.175 135.623C100.285 135.561 100.375 135.47 100.437 135.36C100.498 135.251 100.529 135.127 100.525 135.001C100.505 134.895 100.463 134.794 100.401 134.706C100.34 134.617 100.26 134.542 100.168 134.486C99.9774 134.389 99.7637 134.348 99.5508 134.366Z" fill="#455A64"/>
<path d="M98.9991 117.726C98.9991 117.726 99.0455 117.661 99.1661 117.629C99.3451 117.589 99.5323 117.614 99.6951 117.698C99.8207 117.757 99.9309 117.844 100.017 117.953C100.103 118.062 100.163 118.189 100.192 118.325C100.215 118.5 100.183 118.678 100.1 118.834C100.017 118.989 99.8863 119.115 99.7275 119.192C99.5784 119.285 99.4044 119.329 99.2292 119.319C99.054 119.309 98.8862 119.245 98.7485 119.137C98.648 119.041 98.5704 118.923 98.5214 118.793C98.4725 118.663 98.4533 118.523 98.4655 118.385C98.4839 118.211 98.5588 118.048 98.6789 117.921C98.7717 117.833 98.8413 117.814 98.8459 117.824C98.722 117.998 98.6497 118.204 98.6371 118.417C98.6374 118.525 98.6603 118.632 98.7042 118.73C98.7482 118.828 98.8123 118.916 98.8923 118.988C98.999 119.055 99.122 119.093 99.2481 119.095C99.3742 119.098 99.4987 119.067 99.6083 119.004C99.7179 118.942 99.8084 118.851 99.8703 118.741C99.9322 118.631 99.963 118.506 99.9595 118.38C99.94 118.274 99.8975 118.173 99.835 118.085C99.7725 117.997 99.6915 117.924 99.5976 117.87C99.4171 117.763 99.2085 117.713 98.9991 117.726Z" fill="#455A64"/>
<path d="M127.247 99.7134L236.691 98.9199L239.74 173.327L126.412 172.278L127.247 99.7134Z" fill="#77A8A1"/>
<path d="M127.242 99.7136L179.043 57.8005C180.107 56.9404 181.436 56.4735 182.804 56.4786C184.173 56.4836 185.497 56.9603 186.555 57.8283L236.691 98.9202" fill="#77A8A1"/>
<g opacity="0.3">
<path d="M127.242 99.7136L179.043 57.8005C180.107 56.9404 181.436 56.4735 182.804 56.4786C184.173 56.4836 185.497 56.9603 186.555 57.8283L236.691 98.9202" fill="black"/>
</g>
<path d="M126.412 172.279C126.277 172.149 135.037 162.581 145.983 150.911C156.929 139.242 165.907 129.883 166.047 130.008C166.186 130.133 157.421 139.701 146.475 151.375C135.529 163.05 126.551 172.404 126.412 172.279Z" fill="#263238"/>
<path d="M239.739 173.327C239.6 173.452 231.067 164.079 220.683 152.396C210.298 140.712 201.993 131.135 202.123 131.01C202.253 130.885 210.795 140.258 221.179 151.946C231.563 163.634 239.888 173.202 239.739 173.327Z" fill="#263238"/>
<g opacity="0.5">
<path d="M236.691 98.9202L181.73 142.824L127.247 99.7136" fill="black"/>
</g>
<path d="M132.755 103.778L132.588 69.5997L228.418 68.4629L229.499 104.428L181.725 142.248L132.755 103.778Z" fill="#FAFAFA"/>
<path d="M132.755 103.779C132.755 103.779 133.066 104.011 133.655 104.47L136.253 106.493L146.16 114.228L181.8 142.17H181.679L229.439 104.335L229.392 104.433C229.188 97.575 228.97 90.3737 228.747 83.0518C228.603 78.1195 228.455 73.2475 228.311 68.4683L228.432 68.5843L132.602 69.6747L132.676 69.6005C132.713 80.3513 132.745 88.8936 132.764 94.7493C132.764 97.6771 132.764 99.9321 132.764 101.459V103.189C132.764 103.579 132.764 103.779 132.764 103.779C132.764 103.779 132.764 103.584 132.764 103.199C132.764 102.814 132.764 102.234 132.764 101.477C132.764 99.9507 132.732 97.7003 132.708 94.7771C132.671 88.9121 132.615 80.3653 132.546 69.6005V69.5216H132.62L228.455 68.3477H228.571V68.4683C228.715 73.2429 228.858 78.1149 229.007 83.0472C229.23 90.3737 229.443 97.5704 229.652 104.433V104.493L229.606 104.53L181.813 142.332L181.753 142.379L181.693 142.332L146.076 114.298L136.23 106.526L133.632 104.484C133.047 104.02 132.755 103.779 132.755 103.779Z" fill="#263238"/>
<path d="M213.272 85.6772C213.272 85.7422 198.615 85.886 180.542 85.9927C162.469 86.0994 147.807 86.1412 147.807 86.0716C147.807 86.002 162.46 85.8628 180.542 85.7514C198.624 85.6401 213.272 85.6076 213.272 85.6772Z" fill="#263238"/>
<path d="M213.272 95.3291C213.272 95.3987 198.615 95.5425 180.542 95.6493C162.469 95.756 147.807 95.7931 147.807 95.7281C147.807 95.6632 162.46 95.5193 180.542 95.408C198.624 95.2966 213.272 95.2641 213.272 95.3291Z" fill="#263238"/>
<path d="M213.273 106.46C213.273 106.525 198.615 106.669 180.542 106.78C162.469 106.892 147.807 106.924 147.807 106.855C147.807 106.785 162.46 106.646 180.542 106.539C198.624 106.432 213.273 106.391 213.273 106.46Z" fill="#263238"/>
<path d="M213.273 117.586C213.273 117.656 199.292 117.791 182.045 117.897C164.798 118.004 150.818 118.032 150.813 117.967C150.809 117.902 164.794 117.763 182.045 117.656C199.297 117.549 213.273 117.522 213.273 117.586Z" fill="#263238"/>
<path d="M201.014 127.354C200.888 127.376 200.761 127.385 200.634 127.382L199.529 127.415L195.483 127.48L182.125 127.67C176.909 127.758 172.181 127.786 168.761 127.79H164.715H163.611C163.484 127.793 163.356 127.785 163.23 127.767C163.356 127.746 163.484 127.737 163.611 127.739L164.715 127.712L168.761 127.642L182.12 127.452C187.335 127.364 192.063 127.336 195.478 127.331H199.529H200.634C200.761 127.331 200.888 127.338 201.014 127.354Z" fill="#263238"/>
<path d="M188.676 136.745C188.676 136.81 185.553 136.866 181.716 136.866C177.879 136.866 174.756 136.81 174.756 136.745C174.756 136.68 177.883 136.625 181.716 136.625C185.549 136.625 188.676 136.676 188.676 136.745Z" fill="#263238"/>
<path d="M220.933 129.163C227.327 129.163 232.51 123.98 232.51 117.587C232.51 111.193 227.327 106.01 220.933 106.01C214.54 106.01 209.356 111.193 209.356 117.587C209.356 123.98 214.54 129.163 220.933 129.163Z" fill="#263238"/>
<path d="M217.922 129.163C224.315 129.163 229.498 123.98 229.498 117.587C229.498 111.193 224.315 106.01 217.922 106.01C211.528 106.01 206.345 111.193 206.345 117.587C206.345 123.98 211.528 129.163 217.922 129.163Z" fill="#455A64"/>
<path d="M219.392 112.2V121.824H217.615V113.68H215.578V112.182L219.392 112.2Z" fill="#EBEBEB"/>
<path d="M133.506 53.9863H144.094L142.661 52.3438V48.4044C142.661 47.3806 142.254 46.3986 141.53 45.6747C140.806 44.9507 139.824 44.5439 138.8 44.5439C138.293 44.5439 137.792 44.6438 137.323 44.8379C136.855 45.032 136.43 45.3164 136.072 45.6749C135.714 46.0335 135.43 46.4591 135.236 46.9274C135.043 47.3958 134.944 47.8977 134.944 48.4044V52.1489L133.506 53.9863Z" fill="#77A8A1"/>
<path d="M137.344 53.4665C137.355 53.697 137.416 53.9224 137.521 54.1279C137.626 54.3334 137.774 54.5142 137.954 54.6585C138.134 54.8028 138.343 54.9073 138.566 54.965C138.79 55.0227 139.023 55.0324 139.251 54.9935C139.478 54.9545 139.695 54.8678 139.886 54.7389C140.078 54.6101 140.24 54.4422 140.362 54.2461C140.484 54.0501 140.563 53.8305 140.594 53.6017C140.624 53.3729 140.606 53.1402 140.541 52.9189" fill="#77A8A1"/>
<path d="M139.39 42.9385H138.35V45.1472H139.39V42.9385Z" fill="#77A8A1"/>
<path d="M154.238 46.7434C154.206 46.6525 154.182 46.5594 154.164 46.465C154.117 46.2654 154.057 46.001 153.978 45.6483C153.881 45.2045 153.756 44.7674 153.602 44.3398C153.509 44.0893 153.444 43.8062 153.319 43.5232L152.925 42.623C152.211 41.1024 151.264 39.7028 150.118 38.4749C148.612 36.8879 146.789 35.6357 144.768 34.8C143.616 34.3154 142.41 33.9726 141.176 33.7792C139.845 33.5852 138.495 33.5634 137.158 33.7142C136.455 33.7882 135.757 33.9091 135.07 34.0762C134.722 34.1504 134.383 34.285 134.031 34.3917C133.677 34.4899 133.331 34.6156 132.996 34.7675C131.574 35.3424 130.251 36.1362 129.075 37.12C126.465 39.2725 124.624 42.2151 123.832 45.5045C123.415 47.2668 123.313 49.089 123.53 50.8869C123.721 52.7467 124.261 54.5538 125.122 56.2136L125.391 56.7194L125.423 56.7843V56.8539C124.565 59.6379 123.73 62.4219 122.913 65.0807L122.695 64.8811L129.326 61.4243L129.405 61.3826L129.479 61.4383C132.251 63.5759 135.668 64.7074 139.168 64.6466C142.668 64.5859 146.043 63.3367 148.739 61.1042C150.122 59.9483 151.3 58.568 152.224 57.021C152.963 55.7291 153.532 54.3473 153.918 52.9099C154.178 51.8183 154.333 50.7042 154.382 49.583C154.382 49.119 154.382 48.72 154.382 48.3627C154.382 48.0054 154.326 47.7224 154.307 47.4765C154.289 47.2306 154.27 47.0682 154.261 46.9336C154.254 46.872 154.254 46.8097 154.261 46.748C154.277 46.8072 154.288 46.8678 154.294 46.929C154.294 47.0651 154.317 47.246 154.363 47.4718C154.391 47.7178 154.423 48.0101 154.465 48.3627C154.507 48.7154 154.465 49.1283 154.465 49.5877C154.439 50.7187 154.299 51.8442 154.048 52.947C153.677 54.4065 153.116 55.8107 152.377 57.1231C151.453 58.7037 150.267 60.1158 148.869 61.2991C147.158 62.7273 145.163 63.7747 143.015 64.3716C140.868 64.9684 138.618 65.101 136.416 64.7605C133.823 64.3487 131.373 63.3014 129.284 61.712H129.442L122.82 65.1781L122.486 65.3544L122.598 64.9786L125.103 56.7518V56.8864L124.83 56.3714C123.952 54.675 123.401 52.8287 123.206 50.9286C122.978 49.0887 123.085 47.2229 123.521 45.421C124.333 42.0673 126.214 39.0688 128.88 36.8787C130.084 35.8829 131.435 35.0799 132.885 34.4984C133.225 34.3442 133.577 34.217 133.938 34.1179C134.295 34.0158 134.638 33.8813 134.996 33.807C135.693 33.6355 136.402 33.5145 137.116 33.4451C138.475 33.2955 139.848 33.3236 141.199 33.5286C142.45 33.7359 143.671 34.091 144.837 34.5866C146.881 35.447 148.718 36.7311 150.229 38.3542C151.375 39.6048 152.315 41.0302 153.013 42.5766C153.147 42.9014 153.277 43.203 153.393 43.5046C153.509 43.8062 153.579 44.08 153.667 44.3352C153.818 44.7662 153.934 45.2084 154.015 45.6576C154.08 46.0056 154.136 46.2794 154.173 46.4835C154.2 46.5686 154.222 46.6554 154.238 46.7434Z" fill="#263238"/>
<path d="M282.256 156.929C283.773 162.056 282.622 168.65 280.785 173.67C278.918 178.74 275.481 183.082 270.976 186.064C270.475 186.393 269.83 186.713 269.301 186.43C269.105 186.275 268.946 186.078 268.835 185.855C268.723 185.631 268.662 185.386 268.656 185.136C267.571 179.592 268.311 173.846 270.766 168.758C273.221 163.67 277.259 159.515 282.274 156.915" fill="#77A8A1"/>
<g opacity="0.2">
<path d="M282.256 156.929C283.773 162.056 282.622 168.65 280.785 173.67C278.918 178.74 275.481 183.082 270.976 186.064C270.475 186.393 269.83 186.713 269.301 186.43C269.105 186.275 268.946 186.078 268.835 185.855C268.723 185.631 268.662 185.386 268.656 185.136C267.571 179.592 268.311 173.846 270.766 168.758C273.221 163.67 277.259 159.515 282.274 156.915" fill="black"/>
</g>
<path d="M259.464 132.592C262.656 132.504 264.763 136.054 265.083 139.237C265.403 142.42 264.698 145.733 265.63 148.777C266.8 152.656 270.447 155.44 271.542 159.351C272.841 163.959 270.312 168.743 270.192 173.526C270.131 175.846 270.656 178.208 270.215 180.486C269.848 182.435 268.816 184.196 267.296 185.47C265.776 186.743 263.861 187.45 261.878 187.469C259.895 187.489 257.967 186.821 256.421 185.578C254.876 184.335 253.81 182.594 253.404 180.653C252.657 177.071 254.239 173.262 253.293 169.722C252.592 167.109 250.56 164.887 250.393 162.186C250.198 158.971 252.685 156.191 253.149 153.004C253.613 149.816 251.998 146.703 251.757 143.487C251.325 137.724 253.71 133.2 259.459 132.583" fill="#77A8A1"/>
<path d="M266.461 198.226C266.504 198.122 266.537 198.015 266.558 197.905C266.614 197.664 266.684 197.353 266.767 196.977C266.939 196.175 267.231 195.01 267.556 193.576C269.369 186.107 271.955 178.846 275.272 171.912C275.908 170.58 276.437 169.513 276.813 168.775L277.235 167.926C277.289 167.829 277.333 167.727 277.365 167.62C277.294 167.704 277.233 167.796 277.184 167.894L276.72 168.72C276.312 169.439 275.75 170.497 275.091 171.819C271.659 178.721 269.062 186.008 267.356 193.525C267.036 194.968 266.8 196.142 266.66 196.959C266.6 197.335 266.549 197.646 266.507 197.887C266.48 197.998 266.464 198.111 266.461 198.226Z" fill="#263238"/>
<path d="M259.594 148.312C259.596 148.484 259.611 148.654 259.64 148.823C259.682 149.18 259.742 149.667 259.816 150.28L260.526 155.639C261.125 160.163 261.951 166.408 262.819 173.317C263.686 180.226 264.433 186.486 264.967 191.019C265.236 193.26 265.454 195.088 265.612 196.383C265.691 196.995 265.751 197.483 265.797 197.84C265.814 198.01 265.842 198.179 265.881 198.346C265.895 198.176 265.895 198.005 265.881 197.835C265.848 197.473 265.807 196.986 265.751 196.369C265.616 195.07 265.431 193.242 265.204 190.991C264.74 186.453 264.011 180.189 263.143 173.28C262.276 166.371 261.417 160.126 260.758 155.607C260.424 153.375 260.151 151.556 259.96 150.266C259.858 149.653 259.779 149.171 259.724 148.814C259.696 148.643 259.653 148.475 259.594 148.312Z" fill="#263238"/>
<path d="M277.606 191.956H253.357V194.786H277.606V191.956Z" fill="#263238"/>
<path d="M255.608 194.787L258.452 211.964H273.495L275.463 194.787H255.608Z" fill="#263238"/>
<path d="M275.542 194.671C275.542 194.74 271.064 194.847 265.538 194.917C260.012 194.986 255.534 194.986 255.534 194.917C255.534 194.847 260.012 194.74 265.538 194.671C271.064 194.601 275.542 194.606 275.542 194.671Z" fill="#455A64"/>
<path d="M274.716 203.269H274.581H274.177C273.66 203.288 273.142 203.267 272.628 203.209C271.801 203.127 271.011 202.829 270.336 202.346C269.912 202.04 269.57 201.635 269.338 201.167C269.069 200.632 269.017 200.013 269.194 199.441C269.296 199.12 269.497 198.841 269.77 198.644C270.042 198.447 270.371 198.342 270.707 198.346C271.064 198.375 271.397 198.541 271.635 198.81C271.867 199.091 272.027 199.426 272.099 199.784C272.391 201.25 271.361 202.884 269.779 203.394C268.197 203.905 266.266 203.023 265.477 201.422C265.272 201.018 265.151 200.576 265.125 200.123C265.093 199.651 265.217 199.182 265.477 198.787C265.615 198.586 265.794 198.418 266.002 198.293C266.21 198.168 266.443 198.09 266.684 198.063C266.933 198.049 267.181 198.1 267.405 198.211C267.628 198.321 267.82 198.488 267.96 198.694C268.241 199.091 268.386 199.567 268.373 200.053C268.364 200.523 268.244 200.984 268.025 201.399C267.598 202.202 266.92 202.844 266.095 203.227C265.314 203.595 264.479 203.832 263.621 203.928C262.796 204.047 261.955 203.974 261.162 203.714C260.397 203.458 259.742 202.947 259.306 202.267C259.104 201.943 258.977 201.578 258.936 201.199C258.894 200.82 258.938 200.436 259.065 200.077C259.172 199.733 259.371 199.425 259.64 199.185C259.909 198.946 260.238 198.784 260.592 198.717C260.919 198.667 261.253 198.701 261.563 198.816C261.873 198.932 262.149 199.124 262.364 199.376C262.541 199.62 262.649 199.908 262.677 200.208C262.705 200.508 262.651 200.811 262.522 201.083C262.306 201.564 261.95 201.969 261.501 202.243C261.124 202.484 260.721 202.68 260.299 202.828C259.914 202.977 259.557 203.093 259.232 203.185C258.737 203.33 258.233 203.445 257.724 203.529L257.325 203.589H257.19C257.19 203.589 257.232 203.589 257.32 203.552L257.715 203.473C258.058 203.399 258.569 203.283 259.209 203.083C259.524 202.986 259.877 202.861 260.257 202.712C260.668 202.561 261.061 202.363 261.427 202.123C261.838 201.852 262.161 201.466 262.355 201.014C262.472 200.768 262.52 200.494 262.494 200.223C262.468 199.952 262.368 199.693 262.206 199.473C262.009 199.247 261.758 199.075 261.477 198.973C261.195 198.871 260.892 198.842 260.596 198.889C260.278 198.954 259.983 199.104 259.743 199.323C259.503 199.542 259.326 199.821 259.232 200.132C259.116 200.464 259.076 200.817 259.116 201.166C259.157 201.515 259.275 201.85 259.464 202.146C259.875 202.779 260.488 203.255 261.204 203.496C261.965 203.739 262.771 203.806 263.561 203.691C264.391 203.594 265.199 203.364 265.955 203.009C266.735 202.645 267.375 202.038 267.779 201.278C267.996 200.905 268.106 200.479 268.098 200.047C268.09 199.615 267.964 199.193 267.733 198.828C267.618 198.654 267.459 198.513 267.272 198.42C267.086 198.326 266.878 198.283 266.67 198.295C266.465 198.319 266.267 198.387 266.09 198.494C265.913 198.602 265.761 198.746 265.645 198.917C265.412 199.267 265.303 199.685 265.334 200.104C265.358 200.524 265.467 200.934 265.654 201.311C266.392 202.809 268.206 203.673 269.677 203.167C271.148 202.661 272.122 201.158 271.853 199.812C271.794 199.485 271.65 199.179 271.435 198.926C271.336 198.808 271.215 198.71 271.078 198.639C270.941 198.568 270.791 198.525 270.637 198.513C270.34 198.509 270.05 198.6 269.809 198.773C269.568 198.946 269.388 199.191 269.296 199.473C269.127 200.004 269.17 200.579 269.417 201.079C269.63 201.527 269.949 201.917 270.345 202.216C270.999 202.693 271.764 202.995 272.567 203.093C273.077 203.159 273.59 203.193 274.103 203.195H274.507L274.716 203.269Z" fill="#455A64"/>
</svg>
