<svg width="88" height="88" viewBox="0 0 88 88" fill="none" xmlns="http://www.w3.org/2000/svg">
<circle cx="44" cy="44" r="44" fill="#E6EEEF"/>
<g clip-path="url(#clip0_6898_119206)">
<path d="M37.6 56.7776L38.9312 55.888C38.7849 55.6692 38.5868 55.4899 38.3546 55.366C38.1224 55.2421 37.8632 55.1774 37.6 55.1776V56.7776ZM44 66.3712L42.6688 67.2576C42.8149 67.4767 43.0129 67.6564 43.2451 67.7807C43.4773 67.9049 43.7366 67.97 44 67.97C44.2634 67.97 44.5227 67.9049 44.7549 67.7807C44.9871 67.6564 45.1851 67.4767 45.3312 67.2576L44 66.3712ZM50.4 56.7776V55.1776C50.1368 55.1774 49.8776 55.2421 49.6454 55.366C49.4132 55.4899 49.2151 55.6692 49.0688 55.888L50.4 56.7776ZM42.4 45.6L41.2672 46.7328L42.4768 47.9392L43.6032 46.6528L42.4 45.6ZM36.2688 57.664L42.6688 67.2576L45.3312 65.4816L38.9312 55.888L36.2688 57.664ZM45.3312 67.2576L51.7312 57.664L49.0688 55.888L42.6688 65.4816L45.3312 67.2576ZM50.4 58.3776H63.2V55.1776H50.4V58.3776ZM63.2 58.3776C65.8528 58.3776 68 56.2336 68 53.5776H64.8C64.8 54.464 64.0864 55.1776 63.2 55.1776V58.3776ZM68 53.5776V24.8H64.8V53.5808H68V53.5776ZM68 24.8C68 22.144 65.8528 20 63.2 20V23.2C64.0864 23.2 64.8 23.9136 64.8 24.8H68ZM63.2 20H24.8V23.2H63.2V20ZM24.8 20C22.1472 20 20 22.144 20 24.8H23.2C23.2 23.9136 23.9136 23.2 24.8 23.2V20ZM20 24.8V53.5776H23.2V24.8H20ZM20 53.5776C20 56.2336 22.1472 58.3776 24.8 58.3776V55.1776C24.5898 55.178 24.3815 55.1369 24.1872 55.0567C23.9929 54.9764 23.8163 54.8586 23.6677 54.7099C23.519 54.5613 23.4012 54.3847 23.3209 54.1904C23.2407 53.9961 23.1996 53.7878 23.2 53.5776H20ZM24.8 58.3776H37.6V55.1776H24.8V58.3776ZM34.8672 40.3296L41.2672 46.7296L43.5328 44.4672L37.1328 38.0672L34.8672 40.3328V40.3296ZM43.6032 46.6528L54.8032 33.8528L52.3968 31.7472L41.1968 44.5472L43.6032 46.6528Z" fill="#8AB1B4"/>
</g>
<defs>
<clipPath id="clip0_6898_119206">
<rect width="48" height="48" fill="white" transform="translate(20 20)"/>
</clipPath>
</defs>
</svg>
