<svg width="40" height="40" viewBox="0 0 40 40" fill="none" xmlns="http://www.w3.org/2000/svg">
<path opacity="0.15" d="M22.8809 40C29.6981 40 35.2246 39.1605 35.2246 38.125C35.2246 37.0895 29.6981 36.25 22.8809 36.25C16.0636 36.25 10.5371 37.0895 10.5371 38.125C10.5371 39.1605 16.0636 40 22.8809 40Z" fill="black"/>
<path d="M17.0996 33.75C18.6529 33.75 19.9121 32.4908 19.9121 30.9375C19.9121 29.3842 18.6529 28.125 17.0996 28.125C15.5463 28.125 14.2871 29.3842 14.2871 30.9375C14.2871 32.4908 15.5463 33.75 17.0996 33.75Z" fill="#234455"/>
<path d="M28.9746 33.75C30.5279 33.75 31.7871 32.4908 31.7871 30.9375C31.7871 29.3842 30.5279 28.125 28.9746 28.125C27.4213 28.125 26.1621 29.3842 26.1621 30.9375C26.1621 32.4908 27.4213 33.75 28.9746 33.75Z" fill="#234455"/>
<path d="M34.4642 10.625H12.9392L12.3567 8.29504C12.1885 7.62317 11.6642 7.09879 10.9923 6.93067L5.9923 5.68067C4.98855 5.42879 3.96917 6.04067 3.71855 7.04504C3.4673 8.04942 4.07855 9.06754 5.08292 9.31879L8.99167 10.2957L13.0935 26.7044C13.3023 27.5394 14.0523 28.125 14.9123 28.125H31.1623C32.0773 28.125 32.8367 27.4688 33.0017 26.6025L36.2873 12.9388C36.571 11.7594 35.6773 10.625 34.4642 10.625Z" fill="#548D91"/>
<path opacity="0.15" d="M33.0021 26.6025L36.2015 13.2963C34.5215 12.8913 32.8359 13.9263 32.4327 15.6038L30.4034 24.0425C30.2684 24.6038 29.7659 25 29.1877 25H24.2871C22.5615 25 21.1621 26.3994 21.1621 28.125H31.1621C32.0771 28.125 32.8365 27.4688 33.0021 26.6025Z" fill="black"/>
<path opacity="0.3" d="M21.7871 10.6251H12.939L12.3565 8.29569C12.1884 7.62381 11.664 7.09944 10.9921 6.93131L5.99213 5.68131C4.87088 5.39944 3.72963 6.19631 3.66276 7.41506C3.61338 8.32069 4.27213 9.11756 5.15213 9.33756L8.99089 10.2969L12.499 24.3307C14.1734 23.9119 15.1915 22.2157 14.7728 20.5413L13.4634 15.3038C13.2671 14.5144 13.8634 13.7501 14.6765 13.7501H18.6621C20.3884 13.7501 21.7871 12.3507 21.7871 10.6251Z" fill="white"/>
<path d="M12.0615 13.4375L12.9634 17.1456" stroke="white" stroke-width="3" stroke-miterlimit="10" stroke-linecap="round" stroke-linejoin="round"/>
<path d="M17.5078 10.542H23.7516C25.1322 10.542 26.2516 11.6614 26.2516 13.042V16.5626" stroke="#E7A546" stroke-width="3" stroke-miterlimit="10" stroke-linecap="round" stroke-linejoin="round"/>
<path d="M21.8755 7.25125L21.8786 13.6862C21.8792 14.6475 20.8073 15.1887 20.0711 14.5994L16.058 11.3837C15.4811 10.9212 15.4805 10.0225 16.0573 9.56L20.0673 6.34C20.8023 5.75 21.8748 6.29 21.8755 7.25125Z" fill="#E7A546"/>
</svg>
