<svg width="14" height="14" viewBox="0 0 14 14" fill="none" xmlns="http://www.w3.org/2000/svg">
<path fill-rule="evenodd" clip-rule="evenodd" d="M6.30875 0.7C6.72875 0.258125 7 0 7 0C7.09538 0.317625 7.20475 0.6195 7.32463 0.90825C8.03513 2.611 9.1385 3.8395 10.122 4.93325C11.2682 6.209 12.25 7.30188 12.25 8.75C12.25 10.1424 11.6969 11.4777 10.7123 12.4623C9.72774 13.4469 8.39239 14 7 14C5.60761 14 4.27226 13.4469 3.28769 12.4623C2.30312 11.4777 1.75 10.1424 1.75 8.75C1.75 5.8345 4.8825 2.20237 6.30875 0.7ZM6.67013 1.59337C6.10821 2.20144 5.5742 2.83472 5.06975 3.49125C4.4345 4.3225 3.81325 5.24825 3.35475 6.1775C2.891 7.11637 2.625 7.99575 2.625 8.75C2.625 8.75 4.8125 10.0625 7 9.1875C9.1875 8.3125 11.375 8.75 11.375 8.75C11.375 7.69912 10.6785 6.86263 9.46663 5.5125L9.44037 5.4845C8.53125 4.47125 7.4375 3.255 6.67013 1.5925V1.59337Z" fill="#00555B"/>
<path fill-rule="evenodd" clip-rule="evenodd" d="M3.98438 6.804C4.70188 5.36812 5.48675 4.39512 5.81575 4.06525L6.43525 4.68475C6.1815 4.9385 5.44825 5.83187 4.76663 7.196L3.98438 6.804Z" fill="#234455"/>
</svg>
