<svg width="160" height="160" viewBox="0 0 160 160" fill="none" xmlns="http://www.w3.org/2000/svg">
<path d="M97.25 106.633L106.677 97.2101L146.74 137.273L137.313 146.697L97.25 106.633Z" fill="#234455"/>
<path d="M66.6663 120C96.1215 120 120 96.1219 120 66.6667C120 37.2115 96.1215 13.3334 66.6663 13.3334C37.2112 13.3334 13.333 37.2115 13.333 66.6667C13.333 96.1219 37.2112 120 66.6663 120Z" fill="#234455"/>
<path d="M108.167 117.8L117.59 108.373L146.577 137.36L137.15 146.787L108.167 117.8Z" fill="#8DAFAA"/>
<path d="M66.6663 110C90.5987 110 110 90.599 110 66.6667C110 42.7344 90.5987 23.3334 66.6663 23.3334C42.734 23.3334 23.333 42.7344 23.333 66.6667C23.333 90.599 42.734 110 66.6663 110Z" fill="#A7B4BB"/>
<path d="M89.6672 47.3333C84.0005 40.6666 75.6672 36.6666 66.6672 36.6666C57.6672 36.6666 49.3338 40.6666 43.6672 47.3333C42.3338 48.6666 42.6672 51 44.0005 52C45.3338 53.3333 47.6672 53 48.6672 51.6666C53.3338 46.3333 59.6672 43.3333 66.6672 43.3333C73.6672 43.3333 80.0005 46.3333 84.6672 51.6666C85.3338 52.3333 86.3338 53 87.3338 53C88.0005 53 89.0005 52.6666 89.3338 52.3333C90.6672 51 90.6672 48.6666 89.6672 47.3333Z" fill="#E9ECEE"/>
</svg>
