<svg width="160" height="160" viewBox="0 0 160 160" fill="none" xmlns="http://www.w3.org/2000/svg">
<path d="M34.9999 137.5C31.7999 137.5 28.6024 136.28 26.1599 133.837C21.2774 128.957 21.2774 121.042 26.1599 116.162L71.1599 71.1624C76.0424 66.2799 83.9549 66.2799 88.8374 71.1624C93.7199 76.0424 93.7199 83.9574 88.8374 88.8374L43.8374 133.837C41.3974 136.28 38.1999 137.5 34.9999 137.5Z" fill="#E7A546"/>
<path opacity="0.1" d="M80 160C106.234 160 127.5 156.642 127.5 152.5C127.5 148.358 106.234 145 80 145C53.7665 145 32.5 148.358 32.5 152.5C32.5 156.642 53.7665 160 80 160Z" fill="#131313"/>
<path d="M88.75 122.5C118.435 122.5 142.5 98.4353 142.5 68.75C142.5 39.0647 118.435 15 88.75 15C59.0647 15 35 39.0647 35 68.75C35 98.4353 59.0647 122.5 88.75 122.5Z" fill="#234455"/>
<path d="M88.75 105C108.77 105 125 88.7703 125 68.75C125 48.7297 108.77 32.5 88.75 32.5C68.7297 32.5 52.5 48.7297 52.5 68.75C52.5 88.7703 68.7297 105 88.75 105Z" fill="#A9C6EE"/>
<path d="M59.5625 54.7577C61.02 51.3202 63.1275 48.2202 65.73 45.6177C68.3325 43.0152 71.4325 40.9077 74.87 39.4502" stroke="white" stroke-width="5" stroke-miterlimit="10" stroke-linecap="round" stroke-linejoin="round"/>
<path opacity="0.15" d="M141.017 56.3999C134.822 57.1399 130 62.3524 130 68.7499C130 91.4949 111.495 110 88.7496 110C81.6471 110 74.6121 108.132 68.4021 104.597C63.5096 101.815 57.3596 102.64 53.3771 106.622L34.9996 125C31.7371 128.262 30.7071 132.87 31.8071 137.032C32.8546 137.31 33.9221 137.5 34.9996 137.5C38.1996 137.5 41.3971 136.28 43.8396 133.837L62.2196 115.457C70.0521 119.917 79.0921 122.5 88.7496 122.5C118.435 122.5 142.5 98.4349 142.5 68.7499C142.5 64.4924 141.952 60.3699 141.017 56.3999Z" fill="#131313"/>
<path opacity="0.3" d="M36.4475 81.105C42.66 80.3775 47.5 75.1575 47.5 68.75C47.5 46.005 66.005 27.5 88.75 27.5C95.145 27.5 100.36 22.68 101.1 16.4825C97.13 15.5475 93.0075 15 88.75 15C59.065 15 35 39.065 35 68.75C35 73.005 35.51 77.1375 36.4475 81.105Z" fill="white"/>
</svg>
