<svg width="80" height="80" viewBox="0 0 80 80" fill="none" xmlns="http://www.w3.org/2000/svg">
<path d="M48.625 53.3166L53.3383 48.605L73.37 68.6366L68.6567 73.3483L48.625 53.3166Z" fill="#234455"/>
<path d="M33.3333 60.0001C48.0609 60.0001 60 48.061 60 33.3334C60 18.6058 48.0609 6.66675 33.3333 6.66675C18.6057 6.66675 6.66666 18.6058 6.66666 33.3334C6.66666 48.061 18.6057 60.0001 33.3333 60.0001Z" fill="#234455"/>
<path d="M54.0833 58.9001L58.795 54.1868L73.2883 68.6801L68.575 73.3934L54.0833 58.9001Z" fill="#8DAFAA"/>
<path d="M33.3333 55.0001C45.2995 55.0001 55 45.2996 55 33.3334C55 21.3672 45.2995 11.6667 33.3333 11.6667C21.3672 11.6667 11.6667 21.3672 11.6667 33.3334C11.6667 45.2996 21.3672 55.0001 33.3333 55.0001Z" fill="#A7B4BB"/>
<path d="M44.8333 23.6666C42 20.3333 37.8333 18.3333 33.3333 18.3333C28.8333 18.3333 24.6667 20.3333 21.8333 23.6666C21.1667 24.3333 21.3333 25.4999 22 25.9999C22.6667 26.6666 23.8333 26.4999 24.3333 25.8333C26.6667 23.1666 29.8333 21.6666 33.3333 21.6666C36.8333 21.6666 40 23.1666 42.3333 25.8333C42.6667 26.1666 43.1667 26.4999 43.6667 26.4999C44 26.4999 44.5 26.3333 44.6667 26.1666C45.3333 25.4999 45.3333 24.3333 44.8333 23.6666Z" fill="#E9ECEE"/>
</svg>
