<svg width="30" height="30" viewBox="0 0 30 30" fill="none" xmlns="http://www.w3.org/2000/svg">
<path d="M24.943 17.5652L23.1125 16.5082C23.2972 15.5113 23.2972 14.4887 23.1125 13.4918L24.943 12.4348C25.1535 12.3145 25.248 12.0652 25.1793 11.8332C24.7023 10.3035 23.8902 8.91994 22.8289 7.76837C22.6656 7.5922 22.3992 7.54923 22.193 7.66955L20.3625 8.72658C19.5933 8.06486 18.7082 7.55353 17.75 7.21838V5.10861C17.75 4.86798 17.5824 4.65744 17.3461 4.60588C15.7691 4.25353 14.1535 4.27072 12.6539 4.60588C12.4176 4.65744 12.25 4.86798 12.25 5.10861V7.22267C11.2961 7.56213 10.4109 8.07345 9.63748 8.73087L7.81131 7.67384C7.60076 7.55353 7.33865 7.5922 7.17537 7.77267C6.11404 8.91994 5.30194 10.3035 4.82498 11.8375C4.75194 12.0695 4.85076 12.3188 5.06131 12.4391L6.89178 13.4961C6.70701 14.493 6.70701 15.5156 6.89178 16.5125L5.06131 17.5695C4.85076 17.6899 4.75623 17.9391 4.82498 18.1711C5.30194 19.7008 6.11404 21.0844 7.17537 22.236C7.33865 22.4121 7.60506 22.4551 7.81131 22.3348L9.64178 21.2777C10.4109 21.9395 11.2961 22.4508 12.2543 22.786V24.9C12.2543 25.1406 12.4219 25.3512 12.6582 25.4027C14.2351 25.7551 15.8508 25.7379 17.3504 25.4027C17.5867 25.3512 17.7543 25.1406 17.7543 24.9V22.786C18.7082 22.4465 19.5933 21.9352 20.3668 21.2777L22.1972 22.3348C22.4078 22.4551 22.6699 22.4164 22.8332 22.236C23.8945 21.0887 24.7066 19.7051 25.1836 18.1711C25.248 17.9348 25.1535 17.6856 24.943 17.5652V17.5652ZM15 18.4375C13.1051 18.4375 11.5625 16.8949 11.5625 15C11.5625 13.1051 13.1051 11.5625 15 11.5625C16.8949 11.5625 18.4375 13.1051 18.4375 15C18.4375 16.8949 16.8949 18.4375 15 18.4375Z" fill="white"/>
</svg>
