<svg width="160" height="160" viewBox="0 0 160 160" fill="none" xmlns="http://www.w3.org/2000/svg">
<path d="M143.55 50.775L140.6 62.55L138.2 72.15L136.8 77.85L134.4 87.425V87.45C133.25 91.875 129.275 95 124.7 95H55L42.5 37.5L139.075 44.575C142.175 44.8 144.3 47.75 143.55 50.775Z" fill="#33777C"/>
<path d="M47.5 62.5H125C127.762 62.5 130 60.2625 130 57.5C130 54.7375 127.762 52.5 125 52.5H47.5C44.7375 52.5 42.5 54.7375 42.5 57.5C42.5 60.2625 44.7375 62.5 47.5 62.5Z" fill="#00555B"/>
<path d="M52.5 85H115C117.762 85 120 82.7625 120 80C120 77.2375 117.762 75 115 75H52.5C49.7375 75 47.5 77.2375 47.5 80C47.5 82.7625 49.7375 85 52.5 85Z" fill="#00555B"/>
<path opacity="0.1" d="M92.5 160C115.972 160 135 156.642 135 152.5C135 148.358 115.972 145 92.5 145C69.0279 145 50 148.358 50 152.5C50 156.642 69.0279 160 92.5 160Z" fill="#131313"/>
<path d="M72.5 135C79.4036 135 85 129.404 85 122.5C85 115.596 79.4036 110 72.5 110C65.5964 110 60 115.596 60 122.5C60 129.404 65.5964 135 72.5 135Z" fill="#6C828D"/>
<path d="M115 135C121.904 135 127.5 129.404 127.5 122.5C127.5 115.596 121.904 110 115 110C108.096 110 102.5 115.596 102.5 122.5C102.5 129.404 108.096 135 115 135Z" fill="#6C828D"/>
<path d="M115 127.5C117.761 127.5 120 125.261 120 122.5C120 119.739 117.761 117.5 115 117.5C112.239 117.5 110 119.739 110 122.5C110 125.261 112.239 127.5 115 127.5Z" fill="#BBC5CA"/>
<path d="M72.5 127.5C75.2614 127.5 77.5 125.261 77.5 122.5C77.5 119.739 75.2614 117.5 72.5 117.5C69.7386 117.5 67.5 119.739 67.5 122.5C67.5 125.261 69.7386 127.5 72.5 127.5Z" fill="#BBC5CA"/>
<path d="M126.25 117.5H74.8925C61.09 117.5 49.21 107.655 46.6425 94.095L35.8625 37.1075C34.535 30.0925 28.39 25 21.25 25H20C16.5475 25 13.75 22.2025 13.75 18.75C13.75 15.2975 16.5475 12.5 20 12.5H21.25C34.39 12.5 45.7 21.8725 48.145 34.7825L58.925 91.77C60.375 99.435 67.09 105 74.8925 105H126.25C129.702 105 132.5 107.798 132.5 111.25C132.5 114.702 129.702 117.5 126.25 117.5Z" fill="#E7A546"/>
<path d="M20 32.5C25.5228 32.5 30 28.0228 30 22.5C30 16.9772 25.5228 12.5 20 12.5C14.4772 12.5 10 16.9772 10 22.5C10 28.0228 14.4772 32.5 20 32.5Z" fill="#00555B"/>
<path opacity="0.15" d="M132.5 111.25C132.5 114.7 129.7 117.5 126.25 117.5H85C85 110.6 90.6 105 97.5 105H126.25C129.7 105 132.5 107.8 132.5 111.25Z" fill="#131313"/>
<path opacity="0.3" d="M57.1253 82.275C56.3503 82.425 55.5753 82.5 54.8003 82.5C48.9003 82.5 43.6503 78.325 42.5253 72.325L35.8503 37.1C35.8003 36.8 35.7253 36.5 35.6503 36.2C35.5753 35.9 35.5003 35.625 35.4003 35.35C35.3253 35.075 35.2253 34.8 35.1003 34.5C35.0003 34.225 34.9003 33.95 34.7503 33.7C34.6503 33.45 34.5253 33.2 34.4003 32.95C34.3753 32.9 34.3503 32.875 34.3253 32.825C34.2003 32.575 34.0753 32.35 33.9253 32.125C33.3003 31.075 32.5253 30.125 31.6753 29.275C31.2753 28.9 30.8503 28.525 30.4003 28.175C30.0003 27.85 29.5753 27.55 29.1253 27.275C28.5503 26.9 27.9503 26.575 27.3503 26.3C21.9503 23.875 19.1253 18.075 20.2503 12.5H21.2503C34.4003 12.5 45.7003 21.875 48.1503 34.775L57.1253 82.275Z" fill="white"/>
<path d="M54.9977 73.75C53.2277 73.75 51.6527 72.4925 51.3152 70.69L47.5652 50.69C47.1827 48.655 48.5227 46.695 50.5602 46.315C52.6102 45.9375 54.5577 47.275 54.9352 49.31L58.6852 69.31C59.0677 71.345 57.7277 73.305 55.6902 73.685C55.4577 73.73 55.2252 73.75 54.9977 73.75Z" fill="white"/>
</svg>
