<svg width="32" height="32" viewBox="0 0 32 32" fill="none" xmlns="http://www.w3.org/2000/svg">
<g clip-path="url(#clip0_40522_58979)">
<path d="M27.9227 21.8045H18.5273V8.45312H23.6904C24.5117 8.45312 25.2475 8.96048 25.5393 9.72843L26.9338 13.3981L28.9147 15.1783C29.2272 15.4596 29.4062 15.8607 29.4062 16.282V20.321C29.4062 21.1404 28.7421 21.8045 27.9227 21.8045Z" fill="#00555B"/>
<path d="M20.0137 13.8926V10.9242C20.0137 10.6512 20.2352 10.4297 20.5082 10.4297H23.6274C23.8332 10.4297 24.0176 10.5573 24.0903 10.7496L25.2148 13.7319C25.3369 14.0558 25.0966 14.402 24.7504 14.401L20.5067 14.3871C20.2342 14.3861 20.0137 14.1651 20.0137 13.8926Z" fill="white"/>
<path opacity="0.3" d="M16.6273 27.9982C25.3324 27.9982 32.3893 27.334 32.3893 26.5147C32.3893 25.6954 25.3324 25.0312 16.6273 25.0312C7.92213 25.0312 0.865234 25.6954 0.865234 26.5147C0.865234 27.334 7.92213 27.9982 16.6273 27.9982Z" fill="#131313"/>
<path d="M18.5305 21.8018H5.17915C4.08681 21.8018 3.20117 20.9162 3.20117 19.8238V6C3.20117 4.89543 4.0966 4 5.20117 4H16.5525C17.6449 4 18.5305 4.88564 18.5305 5.97798V21.8018Z" fill="#8AB1B4"/>
<path d="M8.88769 24.2754C10.3898 24.2754 11.6074 23.0577 11.6074 21.5557C11.6074 20.0536 10.3898 18.8359 8.88769 18.8359C7.38563 18.8359 6.16797 20.0536 6.16797 21.5557C6.16797 23.0577 7.38563 24.2754 8.88769 24.2754Z" fill="#4A6D29"/>
<path d="M8.88858 22.7928C9.57134 22.7928 10.1248 22.2393 10.1248 21.5565C10.1248 20.8738 9.57134 20.3203 8.88858 20.3203C8.20583 20.3203 7.65234 20.8738 7.65234 21.5565C7.65234 22.2393 8.20583 22.7928 8.88858 22.7928Z" fill="#E9ECEE"/>
<path opacity="0.15" d="M27.9272 21.8055C28.7466 21.8055 29.4107 21.1414 29.4107 20.322V16.283C29.4107 15.965 29.3078 15.6584 29.1229 15.4062C27.8945 15.5501 26.9382 16.5827 26.9382 17.8495V18.344C26.9382 18.8905 26.4956 19.333 25.9492 19.333H17.5428C16.177 19.333 15.0703 20.4397 15.0703 21.8055H18.5318H27.9272Z" fill="#131313"/>
<path d="M24.2178 24.2754C25.7198 24.2754 26.9375 23.0577 26.9375 21.5557C26.9375 20.0536 25.7198 18.8359 24.2178 18.8359C22.7157 18.8359 21.498 20.0536 21.498 21.5557C21.498 23.0577 22.7157 24.2754 24.2178 24.2754Z" fill="#4A6D29"/>
<path d="M24.2187 22.7928C24.9014 22.7928 25.4549 22.2393 25.4549 21.5565C25.4549 20.8738 24.9014 20.3203 24.2187 20.3203C23.5359 20.3203 22.9824 20.8738 22.9824 21.5565C22.9824 22.2393 23.5359 22.7928 24.2187 22.7928Z" fill="#E9ECEE"/>
<path d="M4.92969 7.21094V8.69442" stroke="white" stroke-width="3" stroke-miterlimit="10" stroke-linecap="round" stroke-linejoin="round"/>
</g>
<defs>
<clipPath id="clip0_40522_58979">
<rect width="32" height="32" fill="white"/>
</clipPath>
</defs>
</svg>
