<svg width="40" height="40" viewBox="0 0 40 40" fill="none" xmlns="http://www.w3.org/2000/svg">
<path d="M32.8125 34.375H7.1875C5.63438 34.375 4.375 33.1156 4.375 31.5625C4.375 30.0094 5.63438 28.75 7.1875 28.75H32.8125C34.3656 28.75 35.625 30.0094 35.625 31.5625C35.625 33.1156 34.3656 34.375 32.8125 34.375Z" fill="#00555B"/>
<path opacity="0.15" d="M20 40C26.9467 40 32.5781 39.1605 32.5781 38.125C32.5781 37.0895 26.9467 36.25 20 36.25C13.0533 36.25 7.42188 37.0895 7.42188 38.125C7.42188 39.1605 13.0533 40 20 40Z" fill="black"/>
<path d="M30.9531 5.88937C30.5594 5.52999 29.9319 5.53874 29.5494 5.90999L28.1731 7.25249C27.9131 7.50624 27.4831 7.50624 27.2225 7.25311L25.8425 5.90937C25.4525 5.52999 24.8075 5.52999 24.4175 5.90937L23.0381 7.25249C22.7781 7.50562 22.3475 7.50561 22.0875 7.25186L20.7119 5.90999C20.3219 5.52999 19.6762 5.52937 19.2863 5.90999L17.9113 7.25124C17.6513 7.50499 17.2206 7.50499 16.9606 7.25124L15.5862 5.91061C15.3987 5.72811 15.1419 5.62499 14.8731 5.62499C14.6044 5.62499 14.3469 5.72812 14.16 5.90999L12.785 7.25124C12.525 7.50499 12.0944 7.50499 11.8344 7.25124L10.5113 5.96061C10.1413 5.59999 9.52313 5.51936 9.11438 5.83999C8.87813 6.02562 8.75813 6.28749 8.755 6.55124L8.75 6.55062V8.74999V34.375H31.25V9.37499V8.74999V6.57624C31.2537 6.32624 31.1581 6.07624 30.9531 5.88937Z" fill="#548D91"/>
<path opacity="0.3" d="M8.75 27.5C10.4756 27.5 11.875 26.1012 11.875 24.375V10.625C11.875 8.89875 10.4756 7.5 8.75 7.5V8.75V27.5Z" fill="white"/>
<path opacity="0.15" d="M31.25 18.75C29.5244 18.75 28.125 20.1487 28.125 21.875V30.625C28.125 30.97 27.845 31.25 27.5 31.25H24.375C22.6494 31.25 21.25 32.6488 21.25 34.375H31.25V18.75Z" fill="black"/>
<path d="M26.875 15.625H13.125C12.4344 15.625 11.875 15.0656 11.875 14.375C11.875 13.6844 12.4344 13.125 13.125 13.125H26.875C27.5656 13.125 28.125 13.6844 28.125 14.375C28.125 15.0656 27.5656 15.625 26.875 15.625Z" fill="#00555B"/>
<path d="M13.125 21.25H21.875C22.5656 21.25 23.125 20.6906 23.125 20C23.125 19.3094 22.5656 18.75 21.875 18.75H13.125C12.4344 18.75 11.875 19.3094 11.875 20C11.875 20.6906 12.4344 21.25 13.125 21.25Z" fill="#00555B"/>
<path d="M13.125 26.875H21.875C22.5656 26.875 23.125 26.3156 23.125 25.625C23.125 24.9344 22.5656 24.375 21.875 24.375H13.125C12.4344 24.375 11.875 24.9344 11.875 25.625C11.875 26.3156 12.4344 26.875 13.125 26.875Z" fill="#00555B"/>
<path d="M26.875 21.25C27.5654 21.25 28.125 20.6904 28.125 20C28.125 19.3096 27.5654 18.75 26.875 18.75C26.1846 18.75 25.625 19.3096 25.625 20C25.625 20.6904 26.1846 21.25 26.875 21.25Z" fill="#E7A546"/>
<path d="M26.875 26.875C27.5654 26.875 28.125 26.3154 28.125 25.625C28.125 24.9346 27.5654 24.375 26.875 24.375C26.1846 24.375 25.625 24.9346 25.625 25.625C25.625 26.3154 26.1846 26.875 26.875 26.875Z" fill="#E7A546"/>
<path d="M10.9375 11.5625V14.0625" stroke="white" stroke-width="2" stroke-miterlimit="10" stroke-linecap="round" stroke-linejoin="round"/>
</svg>
