<svg width="17" height="16" viewBox="0 0 17 16" fill="none" xmlns="http://www.w3.org/2000/svg">
<path d="M3.33333 4.00016H4.66667V6.00016H11.3333V4.00016H12.6667V7.3335H14V4.00016C14 3.26683 13.4 2.66683 12.6667 2.66683H9.88C9.6 1.8935 8.86667 1.3335 8 1.3335C7.13333 1.3335 6.4 1.8935 6.12 2.66683H3.33333C2.6 2.66683 2 3.26683 2 4.00016V13.3335C2 14.0668 2.6 14.6668 3.33333 14.6668H7.33333V13.3335H3.33333V4.00016ZM8 2.66683C8.36667 2.66683 8.66667 2.96683 8.66667 3.3335C8.66667 3.70016 8.36667 4.00016 8 4.00016C7.63333 4.00016 7.33333 3.70016 7.33333 3.3335C7.33333 2.96683 7.63333 2.66683 8 2.66683Z" fill="#ECF3FB"/>
<path d="M14 8.3335L10.34 12.0002L8.33333 10.0002L7.33333 11.0002L10.34 14.0002L15 9.3335L14 8.3335Z" fill="#ECF3FB"/>
</svg>
