<?xml version="1.0" encoding="UTF-8"?>
<svg width="15px" height="11px" viewBox="0 0 15 11" version="1.1" xmlns="http://www.w3.org/2000/svg" xmlns:xlink="http://www.w3.org/1999/xlink">
    <!-- Generator: Sketch 63.1 (92452) - https://sketch.com -->
    <title>tieredPricing</title>
    <desc>Created with Sketch.</desc>
    <g id="tieredPricing" stroke="none" stroke-width="1" fill="none" fill-rule="evenodd">
        <g id="promo" fill="#FC6E0D" fill-rule="nonzero">
            <path d="M12.96875,8.33203125 C12.0014182,7.77391462 11.4056765,6.74179209 11.40625,5.625 C11.40625,4.46874999 12.034375,3.45859374 12.96875,2.91796875 L12.96875,2.49999999 L2.03124999,2.49999999 L2.03124999,2.91796875 C2.96562501,3.45859374 3.59375001,4.46874999 3.59375001,5.625 C3.59375001,6.78125001 2.96562501,7.79140626 2.03124999,8.33203125 L2.03124999,8.75000001 L12.96875,8.75000001 L12.96875,8.33203125 L12.96875,8.33203125 Z M14.53125,7.96875 L14.53125,7.18749999 C13.9730225,7.18750001 13.457199,6.8896892 13.1780853,6.40625001 C12.8989715,5.92281082 12.8989715,5.32718918 13.1780853,4.84374999 C13.457199,4.3603108 13.9730225,4.06249999 14.53125,4.06250001 L14.53125,0.9375 L0.46875,0.9375 L0.46875,4.06250001 C1.02697749,4.06249999 1.54280098,4.3603108 1.82191473,4.84374999 C2.10102848,5.32718918 2.10102848,5.92281082 1.82191473,6.40625001 C1.54280098,6.8896892 1.02697749,7.18750001 0.46875,7.18749999 L0.46875,10.3125 L14.53125,10.3125 L14.53125,7.96875 L14.53125,7.96875 Z" id="Shape"></path>
        </g>
        <g id="节点-促销" transform="translate(4.000000, 3.000000)" fill="#FFFFFF" fill-rule="nonzero">
            <path d="M5.74013672,0 L3.22314453,0 C3.12128906,0 3.02353516,0.0403320313 2.95107422,0.112792969 L0.112792969,2.95039063 C-0.0375976562,3.10078125 -0.0375976562,3.34414063 0.112792969,3.49453125 L2.63046875,6.01220703 C2.78085937,6.16259766 3.02421875,6.16259766 3.17460937,6.01220703 L6.01289062,3.17392578 C6.08535156,3.10146484 6.12568359,3.00371094 6.12568359,2.90185547 L6.12568359,0.384863281 C6.125,0.172265625 5.95273437,0 5.74013672,0 Z M4.2109375,2.6796875 C3.78779297,2.6796875 3.4453125,2.33720703 3.4453125,1.9140625 C3.4453125,1.49091797 3.78779297,1.1484375 4.2109375,1.1484375 C4.63408203,1.1484375 4.9765625,1.49091797 4.9765625,1.9140625 C4.9765625,2.33720703 4.63408203,2.6796875 4.2109375,2.6796875 Z" id="Shape"></path>
        </g>
    </g>
</svg>