<?xml version="1.0" encoding="UTF-8"?>
<svg width="12px" height="8px" viewBox="0 0 12 8" version="1.1" xmlns="http://www.w3.org/2000/svg" xmlns:xlink="http://www.w3.org/1999/xlink">
    <!-- Generator: Sketch 63.1 (92452) - https://sketch.com -->
    <title>通用/Icon图标/Line/Down</title>
    <desc>Created with Sketch.</desc>
    <g id="Page-1" stroke="none" stroke-width="1" fill="none" fill-rule="evenodd">
        <g id="OrderHistoryDetailPage" transform="translate(-322.000000, -188.000000)" fill="#000000">
            <g id="Group-5" transform="translate(40.000000, 183.000000)">
                <g id="Group" transform="translate(1.000000, 0.000000)">
                    <g id="通用/Icon图标/Line/Down" transform="translate(287.000000, 9.000000) scale(1, -1) translate(-287.000000, -9.000000) translate(279.000000, 1.000000)">
                        <g id="up" stroke-width="1" opacity="0">
                            <rect id="矩形" fill-rule="nonzero" x="0" y="0" width="16" height="16"></rect>
                        </g>
                        <path d="M13.7501979,4 L12.5783229,4 C12.4986354,4 12.4236354,4.0390625 12.3767604,4.103125 L7.9376979,10.221875 L3.4986354,4.103125 C3.4517604,4.0390625 3.3767604,4 3.2970729,4 L2.1251979,4 C2.0236354,4 1.9642604,4.115625 2.0236354,4.1984375 L7.5330104,11.79375 C7.7330104,12.06875 8.1423854,12.06875 8.3408229,11.79375 L13.8501979,4.1984375 C13.9111354,4.115625 13.8517604,4 13.7501979,4 Z" id="路径" fill-opacity="0.65"></path>
                    </g>
                </g>
            </g>
        </g>
    </g>
</svg>