<svg width="32" height="33" viewBox="0 0 32 33" fill="none" xmlns="http://www.w3.org/2000/svg">
<path d="M29.7256 22.1518H20.4102V8.91406H25.5292C26.3436 8.91406 27.0731 9.41709 27.3624 10.1785L28.745 13.8169L30.7091 15.5819C31.0189 15.8609 31.1964 16.2585 31.1964 16.6763V20.6809C31.1964 21.4933 30.538 22.1518 29.7256 22.1518Z" fill="#00555B"/>
<path d="M21.8828 14.3085V11.3653C21.8828 11.0946 22.1025 10.875 22.3731 10.875H25.4658C25.6698 10.875 25.8526 11.0015 25.9247 11.1922L27.0396 14.1491C27.1607 14.4703 26.9224 14.8135 26.5792 14.8125L22.3716 14.7987C22.1015 14.7978 21.8828 14.5786 21.8828 14.3085Z" fill="white"/>
<path opacity="0.3" d="M17.7405 28.4964C24.6454 28.4964 30.2428 27.8379 30.2428 27.0255C30.2428 26.2132 24.6454 25.5547 17.7405 25.5547C10.8357 25.5547 5.23828 26.2132 5.23828 27.0255C5.23828 27.8379 10.8357 28.4964 17.7405 28.4964Z" fill="#131313"/>
<path d="M20.4098 22.1503H7.17208C6.08904 22.1503 5.21094 21.2722 5.21094 20.1891V4.5H18.4486C19.5317 4.5 20.4098 5.3781 20.4098 6.46114V22.1503Z" fill="#8AB1B4"/>
<path d="M10.8528 24.6041C12.3421 24.6041 13.5494 23.3968 13.5494 21.9075C13.5494 20.4182 12.3421 19.2109 10.8528 19.2109C9.36354 19.2109 8.15625 20.4182 8.15625 21.9075C8.15625 23.3968 9.36354 24.6041 10.8528 24.6041Z" fill="#4A6D29"/>
<path d="M10.8527 23.1311C11.5296 23.1311 12.0784 22.5823 12.0784 21.9054C12.0784 21.2285 11.5296 20.6797 10.8527 20.6797C10.1757 20.6797 9.62695 21.2285 9.62695 21.9054C9.62695 22.5823 10.1757 23.1311 10.8527 23.1311Z" fill="white"/>
<path d="M9.62591 7.44171H2.27164C1.45923 7.44171 0.800781 6.78326 0.800781 5.97085C0.800781 5.15845 1.45923 4.5 2.27164 4.5H9.62591V7.44171Z" fill="#8AB1B4"/>
<path d="M10.1142 12.3401H2.75992C1.94751 12.3401 1.28906 11.6817 1.28906 10.8693C1.28906 10.0569 1.94751 9.39844 2.75992 9.39844H10.1142V12.3401Z" fill="#8AB1B4"/>
<path d="M11.0966 17.7386H3.74234C2.92994 17.7386 2.27148 17.0801 2.27148 16.2677C2.27148 15.4553 2.92994 14.7969 3.74234 14.7969H11.0966V17.7386Z" fill="#8AB1B4"/>
<path opacity="0.3" d="M5.21299 4.5H2.35463C1.5584 4.5 0.844058 5.09619 0.802874 5.89192C0.758258 6.74011 1.43289 7.44171 2.27128 7.44171H5.21299V9.40285H2.84491C2.04869 9.40285 1.33434 9.99903 1.29316 10.7948C1.24854 11.643 1.92317 12.3446 2.76156 12.3446H5.21299V14.796C6.56715 14.796 7.66441 13.6987 7.66441 12.3446C7.66441 11.9513 7.63989 9.38471 7.62519 7.93837C7.61979 7.39317 8.06056 6.95142 8.60576 6.95142H9.62555C10.9797 6.95142 12.077 5.85417 12.077 4.5H9.62555H5.21299Z" fill="white"/>
<path opacity="0.15" d="M29.7298 22.1495C30.5422 22.1495 31.2007 21.491 31.2007 20.6786V16.674C31.2007 16.3587 31.0987 16.0547 30.9153 15.8047C29.6975 15.9474 28.7493 16.9711 28.7493 18.2272V18.7175C28.7493 19.2592 28.3105 19.698 27.7687 19.698H19.4338C18.0797 19.698 16.9824 20.7953 16.9824 22.1495H20.4144H29.7298Z" fill="#131313"/>
<path d="M26.052 24.6041C27.5413 24.6041 28.7486 23.3968 28.7486 21.9075C28.7486 20.4182 27.5413 19.2109 26.052 19.2109C24.5628 19.2109 23.3555 20.4182 23.3555 21.9075C23.3555 23.3968 24.5628 24.6041 26.052 24.6041Z" fill="#4A6D29"/>
<path d="M26.0519 23.1311C26.7288 23.1311 27.2776 22.5823 27.2776 21.9054C27.2776 21.2285 26.7288 20.6797 26.0519 20.6797C25.3749 20.6797 24.8262 21.2285 24.8262 21.9054C24.8262 22.5823 25.3749 23.1311 26.0519 23.1311Z" fill="white"/>
<path d="M6.92969 7.6875V9.15835" stroke="white" stroke-width="3" stroke-miterlimit="10" stroke-linecap="round" stroke-linejoin="round"/>
</svg>
