<svg width="30" height="30" viewBox="0 0 30 30" fill="none" xmlns="http://www.w3.org/2000/svg">
<path d="M15 16.375C18.416 16.375 21.1875 13.6035 21.1875 10.1875C21.1875 6.77148 18.416 4 15 4C11.584 4 8.8125 6.77148 8.8125 10.1875C8.8125 13.6035 11.584 16.375 15 16.375ZM20.5 17.75H18.1324C17.1785 18.1883 16.1172 18.4375 15 18.4375C13.8828 18.4375 12.8258 18.1883 11.8676 17.75H9.5C6.46211 17.75 4 20.2121 4 23.25V23.9375C4 25.0762 4.92383 26 6.0625 26H23.9375C25.0762 26 26 25.0762 26 23.9375V23.25C26 20.2121 23.5379 17.75 20.5 17.75Z" fill="white"/>
</svg>
