<svg width="40" height="40" viewBox="0 0 40 40" fill="none" xmlns="http://www.w3.org/2000/svg">
<path opacity="0.15" d="M20 40C26.9467 40 32.5781 39.1605 32.5781 38.125C32.5781 37.0895 26.9467 36.25 20 36.25C13.0533 36.25 7.42188 37.0895 7.42188 38.125C7.42188 39.1605 13.0533 40 20 40Z" fill="black"/>
<path d="M15.625 6.25H8.125C7.08938 6.25 6.25 7.08938 6.25 8.125V15.625C6.25 16.6606 7.08938 17.5 8.125 17.5H15.625C16.6606 17.5 17.5 16.6606 17.5 15.625V8.125C17.5 7.08938 16.6606 6.25 15.625 6.25ZM14.375 13.75C14.375 14.095 14.095 14.375 13.75 14.375H10C9.655 14.375 9.375 14.095 9.375 13.75V10C9.375 9.655 9.655 9.375 10 9.375H13.75C14.095 9.375 14.375 9.655 14.375 10V13.75Z" fill="#548D91"/>
<path d="M15.625 22.5H8.125C7.08938 22.5 6.25 23.3394 6.25 24.375V31.875C6.25 32.9106 7.08938 33.75 8.125 33.75H15.625C16.6606 33.75 17.5 32.9106 17.5 31.875V24.375C17.5 23.3394 16.6606 22.5 15.625 22.5ZM14.375 30C14.375 30.345 14.095 30.625 13.75 30.625H10C9.655 30.625 9.375 30.345 9.375 30V26.25C9.375 25.905 9.655 25.625 10 25.625H13.75C14.095 25.625 14.375 25.905 14.375 26.25V30Z" fill="#548D91"/>
<path d="M19.375 15H16.875V11.875H19.375C19.72 11.875 20 12.155 20 12.5V14.375C20 14.72 19.72 15 19.375 15Z" fill="#548D91"/>
<path d="M14.375 20H12.5C12.155 20 11.875 19.72 11.875 19.375V16.875H15V19.375C15 19.72 14.72 20 14.375 20Z" fill="#548D91"/>
<path d="M29.375 20.625H27.5C27.155 20.625 26.875 20.345 26.875 20V17.5H30V20C30 20.345 29.72 20.625 29.375 20.625Z" fill="#548D91"/>
<path d="M32.5 23.75H30.625C30.28 23.75 30 23.47 30 23.125V21.25C30 20.905 30.28 20.625 30.625 20.625H32.5C32.845 20.625 33.125 20.905 33.125 21.25V23.125C33.125 23.47 32.845 23.75 32.5 23.75Z" fill="#548D91"/>
<path d="M26.25 23.75H24.375C24.03 23.75 23.75 23.47 23.75 23.125V21.25C23.75 20.905 24.03 20.625 24.375 20.625H26.25C26.595 20.625 26.875 20.905 26.875 21.25V23.125C26.875 23.47 26.595 23.75 26.25 23.75Z" fill="#548D91"/>
<path d="M23.125 26.875H21.25C20.905 26.875 20.625 26.595 20.625 26.25V24.375C20.625 24.03 20.905 23.75 21.25 23.75H23.125C23.47 23.75 23.75 24.03 23.75 24.375V26.25C23.75 26.595 23.47 26.875 23.125 26.875Z" fill="#548D91"/>
<path d="M20 30H17.5V26.875H20C20.345 26.875 20.625 27.155 20.625 27.5V29.375C20.625 29.72 20.345 30 20 30Z" fill="#548D91"/>
<path d="M26.25 30H24.375C24.03 30 23.75 29.72 23.75 29.375V27.5C23.75 27.155 24.03 26.875 24.375 26.875H26.25C26.595 26.875 26.875 27.155 26.875 27.5V29.375C26.875 29.72 26.595 30 26.25 30Z" fill="#548D91"/>
<path d="M29.375 26.875H27.5C27.155 26.875 26.875 26.595 26.875 26.25V24.375C26.875 24.03 27.155 23.75 27.5 23.75H29.375C29.72 23.75 30 24.03 30 24.375V26.25C30 26.595 29.72 26.875 29.375 26.875Z" fill="#548D91"/>
<path d="M32.5 30H30.625C30.28 30 30 29.72 30 29.375V27.5C30 27.155 30.28 26.875 30.625 26.875H32.5C32.845 26.875 33.125 27.155 33.125 27.5V29.375C33.125 29.72 32.845 30 32.5 30Z" fill="#548D91"/>
<path d="M29.375 33.125H27.5C27.155 33.125 26.875 32.845 26.875 32.5V30.625C26.875 30.28 27.155 30 27.5 30H29.375C29.72 30 30 30.28 30 30.625V32.5C30 32.845 29.72 33.125 29.375 33.125Z" fill="#548D91"/>
<path d="M23.125 33.125H21.25C20.905 33.125 20.625 32.845 20.625 32.5V30.625C20.625 30.28 20.905 30 21.25 30H23.125C23.47 30 23.75 30.28 23.75 30.625V32.5C23.75 32.845 23.47 33.125 23.125 33.125Z" fill="#548D91"/>
<path d="M11.875 23.125H8.75V20.625C8.75 20.28 9.03 20 9.375 20H11.25C11.595 20 11.875 20.28 11.875 20.625V23.125Z" fill="#548D91"/>
<path d="M23.125 11.875H20.625C20.28 11.875 20 11.595 20 11.25V9.375C20 9.03 20.28 8.75 20.625 8.75H23.125V11.875Z" fill="#548D91"/>
<path d="M12.5 13.125H11.25C10.905 13.125 10.625 12.845 10.625 12.5V11.25C10.625 10.905 10.905 10.625 11.25 10.625H12.5C12.845 10.625 13.125 10.905 13.125 11.25V12.5C13.125 12.845 12.845 13.125 12.5 13.125Z" fill="#E7A546"/>
<path d="M28.75 13.125H27.5C27.155 13.125 26.875 12.845 26.875 12.5V11.25C26.875 10.905 27.155 10.625 27.5 10.625H28.75C29.095 10.625 29.375 10.905 29.375 11.25V12.5C29.375 12.845 29.095 13.125 28.75 13.125Z" fill="#E7A546"/>
<path d="M12.5 29.375H11.25C10.905 29.375 10.625 29.095 10.625 28.75V27.5C10.625 27.155 10.905 26.875 11.25 26.875H12.5C12.845 26.875 13.125 27.155 13.125 27.5V28.75C13.125 29.095 12.845 29.375 12.5 29.375Z" fill="#E7A546"/>
<path d="M31.875 6.25H24.375C23.3394 6.25 22.5 7.08938 22.5 8.125V15.625C22.5 16.6606 23.3394 17.5 24.375 17.5H31.875C32.9106 17.5 33.75 16.6606 33.75 15.625V8.125C33.75 7.08938 32.9106 6.25 31.875 6.25ZM30.625 13.75C30.625 14.095 30.345 14.375 30 14.375H26.25C25.905 14.375 25.625 14.095 25.625 13.75V10C25.625 9.655 25.905 9.375 26.25 9.375H30C30.345 9.375 30.625 9.655 30.625 10V13.75Z" fill="#548D91"/>
<path opacity="0.15" d="M24.3755 17.4999H31.8755C32.9111 17.4999 33.7505 16.6605 33.7505 15.6249V8.12492C33.7505 7.66367 33.5773 7.2468 33.3011 6.91992C31.7898 7.13992 30.6255 8.42805 30.6255 9.99992V13.7499C30.6255 14.0949 30.3455 14.3749 30.0005 14.3749H26.8755C25.188 14.3749 23.8217 15.7155 23.7617 17.3887C23.9548 17.4562 24.1592 17.4999 24.3755 17.4999Z" fill="black"/>
<path opacity="0.3" d="M15.625 6.25H8.125C7.08938 6.25 6.25 7.08938 6.25 8.125V15.625C6.25 15.8413 6.29375 16.0456 6.36125 16.2388C8.03438 16.1788 9.375 14.8125 9.375 13.125V10C9.375 9.655 9.655 9.375 10 9.375H13.125C14.8125 9.375 16.1788 8.03438 16.2388 6.36125C16.0456 6.29375 15.8413 6.25 15.625 6.25Z" fill="white"/>
<path d="M7.8125 10.3125V8.4375" stroke="white" stroke-width="3" stroke-miterlimit="10" stroke-linecap="round" stroke-linejoin="round"/>
</svg>
