<svg width="24" height="24" viewBox="0 0 24 24" fill="none" xmlns="http://www.w3.org/2000/svg">
<g id="icons8-xls">
<path id="Vector" d="M19.5 8V20.5C19.5 21.0525 19.0525 21.5 18.5 21.5H5.5C4.9475 21.5 4.5 21.0525 4.5 20.5V3.5C4.5 2.9475 4.9475 2.5 5.5 2.5H14L15.5 6.5L19.5 8Z" fill="#33C481"/>
<path id="Vector_2" d="M14 2.5V7C14 7.5525 14.4475 8 15 8H19.5L14 2.5Z" fill="#107C41"/>
<path id="Vector_3" d="M10.9066 14.871H9.89661L9.24511 13.6395C9.22061 13.594 9.19461 13.5095 9.16861 13.3865H9.15811C9.14611 13.4445 9.11661 13.5325 9.07111 13.65L8.41661 14.8705H7.40161L8.60661 12.98L7.50461 11.0895H8.54061L9.08111 12.2235C9.12361 12.313 9.16111 12.4195 9.19461 12.5425H9.20511C9.22611 12.4685 9.26561 12.3585 9.32361 12.213L9.92461 11.0895H10.8736L9.73961 12.9645L10.9066 14.871Z" fill="#185C37"/>
<path id="Vector_4" d="M13.6094 14.871H11.3579V11.09H12.2094V14.18H13.6094V14.871Z" fill="#185C37"/>
<path id="Vector_5" d="M13.9445 14.726V13.882C14.0975 14.0105 14.264 14.1065 14.443 14.171C14.622 14.2355 14.8035 14.267 14.986 14.267C15.0935 14.267 15.1865 14.257 15.267 14.238C15.3475 14.219 15.414 14.192 15.4675 14.1575C15.5205 14.123 15.561 14.083 15.587 14.036C15.613 13.989 15.6265 13.939 15.6265 13.8845C15.6265 13.8105 15.6055 13.7445 15.5635 13.6865C15.521 13.6285 15.4635 13.575 15.3905 13.5255C15.3175 13.4765 15.231 13.429 15.1305 13.383C15.03 13.337 14.9225 13.2905 14.8065 13.243C14.511 13.12 14.291 12.97 14.146 12.7925C14.001 12.615 13.9285 12.4005 13.9285 12.149C13.9285 11.952 13.968 11.783 14.047 11.6415C14.126 11.5 14.2335 11.3835 14.37 11.292C14.506 11.2005 14.664 11.1335 14.8435 11.0905C15.0225 11.0475 15.2125 11.026 15.413 11.026C15.61 11.026 15.784 11.0375 15.9365 11.0615C16.0885 11.0855 16.2285 11.122 16.357 11.171V11.9595C16.294 11.9155 16.2245 11.8765 16.15 11.8435C16.0755 11.81 15.9985 11.7825 15.9195 11.76C15.8405 11.738 15.762 11.722 15.683 11.7115C15.605 11.701 15.5305 11.6955 15.4605 11.6955C15.364 11.6955 15.276 11.705 15.197 11.723C15.118 11.7415 15.051 11.7675 14.997 11.801C14.9425 11.8345 14.9005 11.8745 14.8705 11.921C14.84 11.9675 14.8255 12.02 14.8255 12.078C14.8255 12.141 14.842 12.198 14.8755 12.248C14.909 12.2985 14.9565 12.3455 15.018 12.3905C15.0795 12.435 15.154 12.479 15.242 12.5225C15.33 12.5655 15.429 12.61 15.54 12.6555C15.6915 12.7185 15.827 12.786 15.947 12.857C16.0675 12.9285 16.171 13.0085 16.257 13.098C16.343 13.188 16.409 13.29 16.455 13.4055C16.501 13.5205 16.5235 13.6545 16.5235 13.8075C16.5235 14.0185 16.4835 14.1955 16.404 14.3385C16.324 14.482 16.2155 14.598 16.0785 14.6865C15.9415 14.7755 15.7815 14.839 15.6 14.8775C15.418 14.9165 15.226 14.9355 15.024 14.9355C14.8165 14.9355 14.619 14.918 14.432 14.883C14.2435 14.849 14.0815 14.7965 13.9445 14.726Z" fill="#185C37"/>
</g>
</svg>
